G04 #@! TF.FileFunction,Copper,L2,Bot,Signal*
%FSLAX46Y46*%
G04 Gerber Fmt 4.6, Leading zero omitted, Abs format (unit mm)*
G04 Created by KiCad (PCBNEW 4.0.7) date 07/05/18 08:47:20*
%MOMM*%
%LPD*%
G01*
G04 APERTURE LIST*
%ADD10C,0.100000*%
%ADD11O,2.032000X1.727200*%
%ADD12C,2.540000*%
%ADD13O,1.506220X3.014980*%
%ADD14C,5.500000*%
%ADD15O,7.500000X5.500000*%
%ADD16C,5.500000*%
%ADD17O,5.500000X7.500000*%
%ADD18C,0.600000*%
%ADD19C,0.250000*%
%ADD20C,0.500000*%
%ADD21C,0.254000*%
G04 APERTURE END LIST*
D10*
D11*
X124206000Y-71247000D03*
X124206000Y-73787000D03*
X124206000Y-76327000D03*
X124206000Y-78867000D03*
X124206000Y-81407000D03*
X124206000Y-83947000D03*
X124206000Y-86487000D03*
X124206000Y-89027000D03*
X124206000Y-91567000D03*
X124206000Y-94107000D03*
X124206000Y-96647000D03*
X124206000Y-99187000D03*
X124206000Y-101727000D03*
X124206000Y-104267000D03*
X124206000Y-106807000D03*
X139446000Y-71247000D03*
X139446000Y-73787000D03*
X139446000Y-76327000D03*
X139446000Y-78867000D03*
X139446000Y-81407000D03*
X139446000Y-83947000D03*
X139446000Y-86487000D03*
X139446000Y-89027000D03*
X139446000Y-91567000D03*
X139446000Y-94107000D03*
X139446000Y-96647000D03*
X139446000Y-99187000D03*
X139446000Y-101727000D03*
X139446000Y-104267000D03*
X139446000Y-106807000D03*
X154686000Y-71247000D03*
X154686000Y-73787000D03*
X154686000Y-76327000D03*
X154686000Y-78867000D03*
X154686000Y-81407000D03*
X154686000Y-83947000D03*
X154686000Y-86487000D03*
X154686000Y-89027000D03*
X154686000Y-91567000D03*
X154686000Y-94107000D03*
X154686000Y-96647000D03*
X154686000Y-99187000D03*
X154686000Y-101727000D03*
X154686000Y-104267000D03*
X154686000Y-106807000D03*
D12*
X139446000Y-68707000D03*
X139446000Y-109347000D03*
X154686000Y-109347000D03*
X154686000Y-68707000D03*
D13*
X119126000Y-112522000D03*
X121666000Y-112522000D03*
X124206000Y-112522000D03*
D14*
X157861987Y-61406053D02*
X156447773Y-62820267D01*
D15*
X156966920Y-119161560D03*
D16*
X116144040Y-119100600D03*
D17*
X116276120Y-62174120D03*
D18*
X142367000Y-75438001D03*
X142367000Y-73152000D03*
X151003000Y-77597000D03*
X150622000Y-73279000D03*
X153416000Y-77977982D03*
X121539000Y-108331000D03*
X157226000Y-114173000D03*
X157226000Y-101727000D03*
X121539000Y-110363000D03*
X122555000Y-106807000D03*
X153162000Y-100457000D03*
X152057990Y-84328000D03*
X152057990Y-88747525D03*
X151277320Y-89565480D03*
X150427720Y-88761000D03*
X158686500Y-110617000D03*
X155765500Y-115570000D03*
X153606500Y-116268500D03*
X151802922Y-118658640D03*
X149580600Y-120437034D03*
X146898360Y-120487035D03*
X144139920Y-120487035D03*
X141112240Y-120487035D03*
X138247120Y-120487035D03*
X134726680Y-120487035D03*
X131226560Y-120487035D03*
X127650240Y-120487035D03*
X123246274Y-120437034D03*
X121686320Y-118877080D03*
X119842280Y-117033040D03*
X115443000Y-114046000D03*
X120406160Y-114325400D03*
X128270000Y-90170000D03*
X127127000Y-86233000D03*
X128270000Y-81661000D03*
X131191000Y-88265000D03*
X132969000Y-85852000D03*
X132334000Y-104267000D03*
X132588000Y-94705010D03*
X130937000Y-97409000D03*
X131699000Y-107061000D03*
X127635000Y-113554480D03*
X126213308Y-111956731D03*
X138049000Y-111887000D03*
X140462000Y-111760000D03*
X144907000Y-117432967D03*
X142367000Y-117432967D03*
X140335000Y-117432967D03*
X137541000Y-117432967D03*
X134239000Y-117602000D03*
X129794000Y-117602000D03*
X127127000Y-117602000D03*
X146772075Y-117054075D03*
X149987000Y-115189000D03*
X153289000Y-115316000D03*
X146685000Y-89027000D03*
X146558000Y-92456000D03*
X146685000Y-95123000D03*
X146608998Y-97790000D03*
X146812000Y-103124000D03*
X145585264Y-115570000D03*
X146812000Y-113919000D03*
X158686500Y-103060500D03*
X158559500Y-108902500D03*
X158623000Y-106172000D03*
X158623000Y-111633000D03*
X158242000Y-115062000D03*
X157099000Y-68707000D03*
X154686000Y-66421000D03*
X152400000Y-68199000D03*
X150114000Y-69342000D03*
X148018500Y-67627500D03*
X147066000Y-65151000D03*
X143510000Y-61849000D03*
X139827000Y-61849000D03*
X135636000Y-61849000D03*
X133731000Y-63627000D03*
X131421235Y-66004670D03*
X128511260Y-66090555D03*
X123825000Y-68834000D03*
X122174000Y-72517000D03*
X122301000Y-74803000D03*
X122428000Y-77597000D03*
X141224000Y-74803000D03*
X141478000Y-70231000D03*
X140779500Y-66357500D03*
X138049000Y-66548000D03*
X156337000Y-80137000D03*
X156337000Y-80137000D03*
X156337000Y-77470000D03*
X156337000Y-77470000D03*
X156337000Y-69977000D03*
X149606000Y-95758000D03*
X140970000Y-82296000D03*
X114046000Y-81407000D03*
X125791585Y-87757000D03*
X140970000Y-95377000D03*
X140843000Y-98044000D03*
X140843000Y-100584000D03*
X140970000Y-102997000D03*
X140970000Y-105410000D03*
X140970000Y-107950000D03*
X137922000Y-107950000D03*
X137922000Y-105664000D03*
X137922000Y-102997000D03*
X137922000Y-100584000D03*
X138012010Y-97917000D03*
X137541000Y-95250000D03*
X137541000Y-92964000D03*
X137541000Y-89154000D03*
X137415019Y-86854983D03*
X137415019Y-83566000D03*
X118999000Y-105283000D03*
X125730000Y-104267000D03*
X125476000Y-100711000D03*
X127307021Y-100329569D03*
X128057279Y-99001372D03*
X125578308Y-102743000D03*
X125766990Y-105537000D03*
X122555000Y-109855000D03*
X125857000Y-98044000D03*
X125713480Y-96093906D03*
X126761262Y-94449845D03*
X125857000Y-90805000D03*
X125857000Y-90805000D03*
X126301500Y-85788500D03*
X126301500Y-85788500D03*
X126047500Y-81343500D03*
X137415019Y-75368764D03*
X134117994Y-77471120D03*
X133016777Y-77062365D03*
X131191000Y-77052010D03*
X129540000Y-77052010D03*
X128143000Y-77052010D03*
X126872364Y-77378356D03*
X128016000Y-74938139D03*
X129540000Y-74938139D03*
X131191000Y-74938139D03*
X133767990Y-73279000D03*
X133767990Y-71835276D03*
X137415019Y-72898000D03*
X137541000Y-70521990D03*
X134783990Y-70160766D03*
X134838811Y-76865603D03*
X133223000Y-74938139D03*
X126118153Y-75421528D03*
X125937859Y-78312859D03*
X158115000Y-100838000D03*
X156375990Y-113284000D03*
X149823010Y-113322990D03*
X142113000Y-80645000D03*
X142113000Y-84074000D03*
X142113000Y-87503000D03*
X141986000Y-91059000D03*
X152082500Y-104584500D03*
X153225500Y-103251000D03*
X149987000Y-99187000D03*
X149869009Y-94107000D03*
X150634000Y-95377000D03*
X122428000Y-81407000D03*
X151638000Y-83566000D03*
X149352000Y-91186000D03*
X153162000Y-75057000D03*
X119126000Y-92710000D03*
X134366000Y-89535000D03*
X121539000Y-104267000D03*
X121539000Y-105029000D03*
X119126000Y-109982000D03*
X120650000Y-106045000D03*
X118999000Y-102743000D03*
X119126000Y-97790000D03*
X134366000Y-98933000D03*
X134366000Y-108331000D03*
X118999000Y-87503000D03*
X119126000Y-81407000D03*
X125730000Y-74930000D03*
X152019000Y-78359000D03*
X152146000Y-76835000D03*
X141097000Y-77343000D03*
X140970000Y-87757000D03*
X140970000Y-85090000D03*
X137668000Y-78867000D03*
X137541000Y-80391000D03*
X134239000Y-80391000D03*
X126873000Y-78613000D03*
X134239000Y-78613000D03*
X147828000Y-86106000D03*
X146812000Y-82804000D03*
X136906000Y-65912998D03*
X142312767Y-65980791D03*
X136398000Y-81280000D03*
X142113000Y-76581000D03*
X129286000Y-80391000D03*
X129413000Y-89535000D03*
X129413000Y-98933000D03*
X129667000Y-108458000D03*
X147828000Y-117475000D03*
X147447000Y-102235000D03*
X118110004Y-86233000D03*
X125349000Y-118110004D03*
X136144000Y-65151000D03*
X142875000Y-65278000D03*
X144000220Y-79646780D03*
X135636000Y-87376000D03*
X127127000Y-99314000D03*
X125857000Y-95123000D03*
X148281958Y-118133742D03*
X118236998Y-91186000D03*
X124361238Y-118432794D03*
X116377720Y-114142520D03*
X116392956Y-112842044D03*
X147374984Y-99005988D03*
X117088920Y-114721640D03*
X148777924Y-118761466D03*
X118110000Y-96266000D03*
X116665441Y-112089867D03*
X123443998Y-118491000D03*
X147701000Y-94107000D03*
X126707020Y-109474000D03*
X126238000Y-99060000D03*
X149534784Y-119020662D03*
X118110004Y-101473000D03*
X117177622Y-111475303D03*
X147828000Y-90716990D03*
X145669000Y-113538002D03*
X136144000Y-96393000D03*
X137160000Y-113284000D03*
X145288000Y-84074000D03*
X145043980Y-87503000D03*
X145362435Y-114403943D03*
X136026980Y-105791000D03*
X136652000Y-114300000D03*
X144593969Y-90932000D03*
X144272000Y-115062000D03*
X142113002Y-94615000D03*
X141732000Y-115372958D03*
X141732000Y-112268000D03*
X133878269Y-75788140D03*
X134493000Y-71247000D03*
X133984994Y-76581000D03*
X135255000Y-72009000D03*
D19*
X142367000Y-73152000D02*
X142367000Y-75438001D01*
X151003000Y-73660000D02*
X151003000Y-77597000D01*
X150622000Y-73279000D02*
X151003000Y-73660000D01*
D20*
X157226000Y-101727000D02*
X157480000Y-101981000D01*
X157480000Y-101981000D02*
X157480000Y-113919000D01*
X157480000Y-113919000D02*
X157226000Y-114173000D01*
X153116001Y-78277981D02*
X153416000Y-77977982D01*
X152908000Y-78485982D02*
X153116001Y-78277981D01*
X152908000Y-78994000D02*
X152908000Y-78485982D01*
X121539000Y-107906736D02*
X121539000Y-108331000D01*
X121539000Y-107823000D02*
X121539000Y-107906736D01*
X122555000Y-106807000D02*
X121539000Y-107823000D01*
X121539000Y-110363000D02*
X121539000Y-108331000D01*
X152908000Y-99949000D02*
X152908000Y-78994000D01*
X154686000Y-78867000D02*
X153170000Y-78867000D01*
X153170000Y-78867000D02*
X153043000Y-78994000D01*
X153043000Y-78994000D02*
X152908000Y-78994000D01*
X153162000Y-100457000D02*
X153162000Y-100203000D01*
X153162000Y-100203000D02*
X152908000Y-99949000D01*
X156337000Y-80137000D02*
X156527500Y-80137000D01*
X157035500Y-78168500D02*
X156337000Y-77470000D01*
X157035500Y-79629000D02*
X157035500Y-78168500D01*
X156527500Y-80137000D02*
X157035500Y-79629000D01*
X156337000Y-77470000D02*
X156337000Y-77406500D01*
X156337000Y-77406500D02*
X156908500Y-76835000D01*
X156908500Y-76835000D02*
X156908500Y-74358500D01*
X156908500Y-74358500D02*
X156337000Y-73787000D01*
X151277320Y-89565480D02*
X151277320Y-89528195D01*
X151277320Y-89528195D02*
X152057990Y-88747525D01*
X119126000Y-112522000D02*
X119126000Y-113411000D01*
X119126000Y-113411000D02*
X120316999Y-114601999D01*
X120316999Y-114601999D02*
X122160607Y-114601999D01*
X122160607Y-114601999D02*
X124017608Y-116459000D01*
X124017608Y-116459000D02*
X144696264Y-116459000D01*
X144696264Y-116459000D02*
X145585264Y-115570000D01*
X126301500Y-85788500D02*
X126150471Y-85256471D01*
X126150471Y-85256471D02*
X127127000Y-86233000D01*
X131191000Y-88265000D02*
X131490999Y-88564999D01*
X132588000Y-94705010D02*
X136996010Y-94705010D01*
X136996010Y-94705010D02*
X137541000Y-95250000D01*
X130937000Y-97409000D02*
X133096000Y-95250000D01*
X133096000Y-95250000D02*
X137541000Y-95250000D01*
X127635000Y-113554480D02*
X127335001Y-113854479D01*
X127335001Y-113854479D02*
X127335001Y-115143001D01*
X129494001Y-117302001D02*
X129794000Y-117602000D01*
X127335001Y-115143001D02*
X129494001Y-117302001D01*
X146772075Y-117054075D02*
X144057925Y-117054075D01*
X153289000Y-115316000D02*
X150114000Y-115316000D01*
X150114000Y-115316000D02*
X149987000Y-115189000D01*
X146558000Y-92456000D02*
X146558000Y-89154000D01*
X146558000Y-89154000D02*
X146685000Y-89027000D01*
X146685000Y-95123000D02*
X146685000Y-92583000D01*
X146685000Y-92583000D02*
X146558000Y-92456000D01*
X146608998Y-97790000D02*
X146608998Y-95199002D01*
X146608998Y-95199002D02*
X146685000Y-95123000D01*
X146812000Y-103124000D02*
X146512001Y-102824001D01*
X146512001Y-102824001D02*
X146512001Y-97886997D01*
X146512001Y-97886997D02*
X146608998Y-97790000D01*
X146812000Y-113919000D02*
X146812000Y-103124000D01*
X146812000Y-113919000D02*
X146812000Y-114343264D01*
X146812000Y-114343264D02*
X145585264Y-115570000D01*
X158369000Y-101604989D02*
X158686500Y-103060500D01*
X158686500Y-103060500D02*
X158623000Y-106172000D01*
X158559500Y-108902500D02*
X158686500Y-103060500D01*
X158623000Y-106172000D02*
X158559500Y-108902500D01*
X158115000Y-100838000D02*
X158369000Y-101604989D01*
X158242000Y-115062000D02*
X158623000Y-114681000D01*
X158623000Y-114681000D02*
X158623000Y-111633000D01*
X156375990Y-113284000D02*
X156375990Y-114580992D01*
X156375990Y-114580992D02*
X156856998Y-115062000D01*
X156856998Y-115062000D02*
X158242000Y-115062000D01*
X155620999Y-66720999D02*
X157099000Y-68199000D01*
X157099000Y-68199000D02*
X157099000Y-68707000D01*
X154686000Y-66421000D02*
X154985999Y-66720999D01*
X154985999Y-66720999D02*
X155620999Y-66720999D01*
X150114000Y-69342000D02*
X151257000Y-69342000D01*
X151257000Y-69342000D02*
X152400000Y-68199000D01*
X147574000Y-66083264D02*
X148018500Y-67627500D01*
X147066000Y-65151000D02*
X147066000Y-65575264D01*
X147066000Y-65575264D02*
X147574000Y-66083264D01*
X143210001Y-62148999D02*
X143510000Y-61849000D01*
X139827000Y-61849000D02*
X140126999Y-62148999D01*
X140126999Y-62148999D02*
X143210001Y-62148999D01*
X134157999Y-63327001D02*
X135636000Y-61849000D01*
X133731000Y-63627000D02*
X134030999Y-63327001D01*
X134030999Y-63327001D02*
X134157999Y-63327001D01*
X128511260Y-66090555D02*
X131421235Y-66004670D01*
X131495555Y-66090555D02*
X131421235Y-66016235D01*
X131421235Y-66016235D02*
X131421235Y-66004670D01*
X122174000Y-72517000D02*
X122174000Y-70485000D01*
X122174000Y-70485000D02*
X123825000Y-68834000D01*
X122428000Y-77597000D02*
X122428000Y-74930000D01*
X122428000Y-74930000D02*
X122301000Y-74803000D01*
X141478000Y-70231000D02*
X141478000Y-74549000D01*
X141478000Y-74549000D02*
X141224000Y-74803000D01*
X140779500Y-66357500D02*
X141478000Y-66929000D01*
X141478000Y-66929000D02*
X141478000Y-70231000D01*
X138049000Y-66548000D02*
X138348999Y-66248001D01*
X138348999Y-66248001D02*
X140779500Y-66357500D01*
X137541000Y-70521990D02*
X137541000Y-67056000D01*
X137541000Y-67056000D02*
X138049000Y-66548000D01*
X156337000Y-73787000D02*
X156337000Y-69977000D01*
X149987000Y-99187000D02*
X149987000Y-96024000D01*
X149987000Y-96024000D02*
X150634000Y-95377000D01*
X149606000Y-96182264D02*
X149606000Y-95758000D01*
X149606000Y-98806000D02*
X149606000Y-96182264D01*
X149987000Y-99187000D02*
X149606000Y-98806000D01*
X137922000Y-107950000D02*
X137414000Y-108458000D01*
X137414000Y-108458000D02*
X137414000Y-110744000D01*
X137414000Y-110744000D02*
X138557000Y-111887000D01*
X138557000Y-111887000D02*
X140335000Y-111887000D01*
X140335000Y-111887000D02*
X141478000Y-110744000D01*
X141478000Y-110744000D02*
X141478000Y-108458000D01*
X141478000Y-108458000D02*
X140970000Y-107950000D01*
X140970000Y-82720264D02*
X140970000Y-82296000D01*
X141012010Y-84074000D02*
X141012010Y-82762274D01*
X141012010Y-82762274D02*
X140970000Y-82720264D01*
X141269999Y-81996001D02*
X140970000Y-82296000D01*
X141269999Y-80645000D02*
X141269999Y-81996001D01*
X119126000Y-81407000D02*
X114046000Y-81407000D01*
X125791585Y-87757000D02*
X125791585Y-90739585D01*
X126301500Y-85788500D02*
X125791585Y-87757000D01*
D19*
X141012010Y-86106000D02*
X140970000Y-86106000D01*
D20*
X140970000Y-87757000D02*
X140970000Y-87114546D01*
X141012010Y-87072536D02*
X141012010Y-86106000D01*
X140970000Y-87114546D02*
X141012010Y-87072536D01*
X140970000Y-85090000D02*
X140970000Y-85859454D01*
X140970000Y-85859454D02*
X140970000Y-86106000D01*
X141101666Y-92451334D02*
X141101666Y-92583000D01*
X141101666Y-92583000D02*
X141101666Y-92705334D01*
X141101666Y-88531120D02*
X141101666Y-92583000D01*
X140970000Y-87757000D02*
X140970000Y-88399454D01*
X140970000Y-88399454D02*
X141101666Y-88531120D01*
X141101666Y-92705334D02*
X141012010Y-92794990D01*
X141012010Y-92794990D02*
X141012010Y-94910726D01*
X141012010Y-94910726D02*
X140970000Y-94952736D01*
X140970000Y-94952736D02*
X140970000Y-95377000D01*
X141101666Y-95245334D02*
X140970000Y-95377000D01*
D19*
X140970000Y-92319668D02*
X141101666Y-92451334D01*
X140970000Y-87757000D02*
X140970000Y-92319668D01*
D20*
X140843000Y-98044000D02*
X141142999Y-97744001D01*
X141142999Y-97744001D02*
X141142999Y-95549999D01*
X141142999Y-95549999D02*
X140970000Y-95377000D01*
X140843000Y-100584000D02*
X140843000Y-100159736D01*
X140843000Y-100159736D02*
X141012010Y-99990726D01*
X141012010Y-99990726D02*
X141012010Y-98637274D01*
X140843000Y-98468264D02*
X140843000Y-98044000D01*
X141012010Y-98637274D02*
X140843000Y-98468264D01*
X140970000Y-102997000D02*
X140970000Y-102354546D01*
X140970000Y-100711000D02*
X140843000Y-100584000D01*
X140970000Y-102354546D02*
X141012010Y-102312536D01*
X141012010Y-102312536D02*
X141012010Y-101141464D01*
X141012010Y-101141464D02*
X140970000Y-101099454D01*
X140970000Y-101099454D02*
X140970000Y-100711000D01*
X140970000Y-107950000D02*
X140970000Y-107434546D01*
X140970000Y-107434546D02*
X141012010Y-107392536D01*
X141012010Y-107392536D02*
X141012010Y-106221464D01*
X141012010Y-106221464D02*
X140970000Y-106179454D01*
X140970000Y-106179454D02*
X140970000Y-105410000D01*
X140970000Y-105410000D02*
X140970000Y-104894546D01*
X140970000Y-104894546D02*
X141012010Y-104852536D01*
X141012010Y-104852536D02*
X141012010Y-103681464D01*
X141012010Y-103681464D02*
X140970000Y-103639454D01*
X140970000Y-103639454D02*
X140970000Y-102997000D01*
X137922000Y-107950000D02*
X137922000Y-108077000D01*
X137922000Y-108077000D02*
X137708010Y-108290990D01*
X137922000Y-105664000D02*
X137922000Y-106088264D01*
X137922000Y-106088264D02*
X137879990Y-106130274D01*
X137879990Y-106130274D02*
X137879990Y-107907990D01*
X137879990Y-107907990D02*
X137922000Y-107950000D01*
X138012010Y-97917000D02*
X137922000Y-98007010D01*
X137922000Y-98007010D02*
X137922000Y-98559454D01*
X137922000Y-98559454D02*
X137879990Y-98601464D01*
X137879990Y-98601464D02*
X137879990Y-99772536D01*
X137879990Y-99772536D02*
X137922000Y-99814546D01*
X137922000Y-99814546D02*
X137922000Y-100584000D01*
X137922000Y-102997000D02*
X137922000Y-103421264D01*
X137922000Y-103421264D02*
X137879990Y-103463274D01*
X137879990Y-103463274D02*
X137879990Y-105621990D01*
X137879990Y-105621990D02*
X137922000Y-105664000D01*
X137922000Y-100584000D02*
X137922000Y-101008264D01*
X137879990Y-102954990D02*
X137922000Y-102997000D01*
X137922000Y-101008264D02*
X137879990Y-101050274D01*
X137879990Y-101050274D02*
X137879990Y-102954990D01*
X137962010Y-97256402D02*
X137962010Y-97867000D01*
X137962010Y-97867000D02*
X138012010Y-97917000D01*
X137541000Y-95250000D02*
X137541000Y-96835392D01*
X137541000Y-96835392D02*
X137962010Y-97256402D01*
X137541000Y-92964000D02*
X137541000Y-95250000D01*
X137541000Y-89154000D02*
X137541000Y-92964000D01*
X137415019Y-86854983D02*
X137415019Y-89028019D01*
X137415019Y-89028019D02*
X137541000Y-89154000D01*
X137415019Y-83566000D02*
X137415019Y-86854983D01*
X137415019Y-75368764D02*
X137415019Y-83566000D01*
X118999000Y-105283000D02*
X118999000Y-104267000D01*
X118999000Y-109601000D02*
X118999000Y-105283000D01*
D19*
X118999000Y-106045000D02*
X118999000Y-104394000D01*
X118999000Y-109601000D02*
X118999000Y-106045000D01*
D20*
X118999000Y-106045000D02*
X120650000Y-106045000D01*
X121539000Y-104267000D02*
X121539000Y-105029000D01*
X125476000Y-100754264D02*
X125476000Y-100711000D01*
X128057279Y-100003575D02*
X128057279Y-99425636D01*
X128057279Y-99425636D02*
X128057279Y-99001372D01*
X127731285Y-100329569D02*
X128057279Y-100003575D01*
X127307021Y-100329569D02*
X127731285Y-100329569D01*
X125435990Y-100805444D02*
X125476000Y-100765434D01*
X125476000Y-100765434D02*
X125476000Y-100754264D01*
X125772010Y-102743000D02*
X125772010Y-101050274D01*
X125772010Y-101050274D02*
X125476000Y-100754264D01*
X125772010Y-102743000D02*
X125772010Y-104182010D01*
X125772010Y-102743000D02*
X125578308Y-102743000D01*
X125816990Y-106045000D02*
X125766990Y-105537000D01*
X125816990Y-105537000D02*
X125766990Y-105537000D01*
X125816990Y-106045000D02*
X125816990Y-107347556D01*
X125816990Y-104226990D02*
X125816990Y-106045000D01*
X123309546Y-109855000D02*
X122555000Y-109855000D01*
X125816990Y-107347556D02*
X123309546Y-109855000D01*
X125772010Y-104182010D02*
X125816990Y-104226990D01*
X125713480Y-96093906D02*
X125857000Y-96237426D01*
X125857000Y-96237426D02*
X125857000Y-98044000D01*
X125857000Y-90805000D02*
X125857000Y-93545583D01*
X125857000Y-93545583D02*
X126761262Y-94449845D01*
X125791585Y-90739585D02*
X125857000Y-90805000D01*
X126047500Y-81343500D02*
X126109085Y-81405085D01*
X126109085Y-81405085D02*
X126301500Y-85788500D01*
X126047500Y-81343500D02*
X126255359Y-81135641D01*
X126255359Y-81135641D02*
X125937859Y-78312859D01*
X126029999Y-81107001D02*
X126047500Y-81343500D01*
X126537999Y-81107001D02*
X126029999Y-81107001D01*
X126619000Y-81026000D02*
X126537999Y-81107001D01*
X126619000Y-78867000D02*
X126619000Y-81026000D01*
X126873000Y-78613000D02*
X126873000Y-80772000D01*
X126873000Y-80772000D02*
X126537999Y-81107001D01*
X137415019Y-86854983D02*
X136044001Y-88226001D01*
X134785999Y-87784001D02*
X134785999Y-77342679D01*
X136044001Y-88226001D02*
X135227999Y-88226001D01*
X135227999Y-88226001D02*
X134785999Y-87784001D01*
X134785999Y-77342679D02*
X135214990Y-76913688D01*
X133817990Y-73279000D02*
X133817990Y-71829992D01*
X133817990Y-74343149D02*
X133817990Y-73279000D01*
X133817990Y-73279000D02*
X133767990Y-73279000D01*
X133767990Y-71835276D02*
X133642999Y-71655001D01*
X133817990Y-71829992D02*
X133773274Y-71829992D01*
X133773274Y-71829992D02*
X133767990Y-71835276D01*
X137541000Y-70521990D02*
X137541000Y-72772019D01*
X137541000Y-72772019D02*
X137415019Y-72898000D01*
X134250998Y-70231000D02*
X134713756Y-70231000D01*
X134713756Y-70231000D02*
X134783990Y-70160766D01*
X133642999Y-71655001D02*
X133642999Y-70838999D01*
X133642999Y-70838999D02*
X134250998Y-70231000D01*
X133223000Y-74938139D02*
X133817990Y-74343149D01*
X133223000Y-74938139D02*
X132923001Y-75238138D01*
X132923001Y-75238138D02*
X132923001Y-76777009D01*
X132923001Y-76777009D02*
X133576993Y-77431001D01*
X133576993Y-77431001D02*
X134392995Y-77431001D01*
X134392995Y-77431001D02*
X134838811Y-76985185D01*
X134838811Y-76985185D02*
X134838811Y-76865603D01*
X126873000Y-78613000D02*
X126238000Y-78613000D01*
X126238000Y-78613000D02*
X125937859Y-78312859D01*
X118999000Y-87503000D02*
X118999000Y-81534000D01*
X118999000Y-81534000D02*
X119126000Y-81407000D01*
X119126000Y-92710000D02*
X119126000Y-87630000D01*
X119126000Y-87630000D02*
X118999000Y-87503000D01*
X119126000Y-97790000D02*
X119126000Y-92710000D01*
X118999000Y-102743000D02*
X118999000Y-97917000D01*
X118999000Y-97917000D02*
X119126000Y-97790000D01*
X153225500Y-103251000D02*
X153207999Y-102951001D01*
X153207999Y-102951001D02*
X153758455Y-102951001D01*
X156337000Y-114173000D02*
X156337000Y-113538000D01*
X156337000Y-113538000D02*
X156375990Y-113499010D01*
X156375990Y-113499010D02*
X156375990Y-113284000D01*
X149860000Y-114173000D02*
X156337000Y-114173000D01*
X149860000Y-113611980D02*
X149860000Y-114173000D01*
X149823010Y-113322990D02*
X149823010Y-113574990D01*
X149823010Y-113574990D02*
X149860000Y-113611980D01*
X156337000Y-73787000D02*
X154686000Y-73787000D01*
X141269999Y-80645000D02*
X141269999Y-77515999D01*
X142113000Y-80645000D02*
X141269999Y-80645000D01*
X141269999Y-77515999D02*
X141097000Y-77343000D01*
X140970000Y-85090000D02*
X140970000Y-84574546D01*
X140970000Y-84574546D02*
X141012010Y-84532536D01*
X141012010Y-84532536D02*
X141012010Y-84074000D01*
X142113000Y-84074000D02*
X141012010Y-84074000D01*
X142113000Y-87503000D02*
X141224000Y-87503000D01*
X141224000Y-87503000D02*
X140970000Y-87757000D01*
X152483736Y-103251000D02*
X152483736Y-103548264D01*
X152483736Y-103548264D02*
X152082500Y-104584500D01*
X153225500Y-103251000D02*
X152483736Y-103251000D01*
X126873000Y-78613000D02*
X126873000Y-76073000D01*
X126873000Y-76073000D02*
X125730000Y-74930000D01*
X134239000Y-80391000D02*
X134239000Y-78613000D01*
X134366000Y-89535000D02*
X134366000Y-80518000D01*
X134366000Y-80518000D02*
X134239000Y-80391000D01*
X134366000Y-98933000D02*
X134366000Y-89535000D01*
X134366000Y-108331000D02*
X134366000Y-98933000D01*
X122428000Y-81407000D02*
X119126000Y-81407000D01*
X118999000Y-104267000D02*
X118999000Y-102743000D01*
X120650000Y-106045000D02*
X118999000Y-104394000D01*
X118999000Y-104394000D02*
X118999000Y-104267000D01*
D19*
X118999000Y-109728000D02*
X118999000Y-109601000D01*
D20*
X119126000Y-109982000D02*
X119126000Y-109855000D01*
X119126000Y-109855000D02*
X118999000Y-109728000D01*
X151638000Y-83566000D02*
X151638000Y-83820000D01*
X151638000Y-83820000D02*
X149352000Y-86106000D01*
X149352000Y-86106000D02*
X149352000Y-91186000D01*
X152019000Y-78359000D02*
X152019000Y-76962000D01*
X152019000Y-76962000D02*
X152146000Y-76835000D01*
D19*
X118999000Y-104394000D02*
X118999000Y-102743000D01*
X137668000Y-78867000D02*
X137541000Y-78994000D01*
X137541000Y-78994000D02*
X137541000Y-80391000D01*
D20*
X147828000Y-83820000D02*
X147828000Y-86106000D01*
X146812000Y-82804000D02*
X147828000Y-83820000D01*
X146812000Y-82804000D02*
X147320000Y-83312000D01*
X142537264Y-76581000D02*
X143344002Y-75774262D01*
X142709001Y-66377025D02*
X142612766Y-66280790D01*
X143344002Y-75774262D02*
X143344002Y-74902998D01*
X143217001Y-72743999D02*
X142709001Y-72235999D01*
X142709001Y-72235999D02*
X142709001Y-66377025D01*
X143344002Y-74902998D02*
X143217001Y-74775997D01*
X143217001Y-74775997D02*
X143217001Y-72743999D01*
X142612766Y-66280790D02*
X142312767Y-65980791D01*
X142113000Y-76581000D02*
X142537264Y-76581000D01*
X136565009Y-66253989D02*
X136606001Y-66212997D01*
X136606001Y-66212997D02*
X136906000Y-65912998D01*
X136565009Y-80688727D02*
X136565009Y-66253989D01*
X136398000Y-80855736D02*
X136565009Y-80688727D01*
X136398000Y-81280000D02*
X136398000Y-80855736D01*
X129667000Y-108458000D02*
X129667000Y-99187000D01*
X129667000Y-99187000D02*
X129413000Y-98933000D01*
X129413000Y-89535000D02*
X129413000Y-80518000D01*
X129413000Y-80518000D02*
X129286000Y-80391000D01*
X129413000Y-98933000D02*
X129413000Y-98508736D01*
X129413000Y-98508736D02*
X129413000Y-89535000D01*
D19*
X116092955Y-113467045D02*
X117530461Y-113467045D01*
X117530461Y-113467045D02*
X117589173Y-113408333D01*
X118110004Y-86233000D02*
X115397001Y-88946003D01*
X115397001Y-88946003D02*
X115397001Y-112771091D01*
X117591840Y-113408333D02*
X119499507Y-115316000D01*
X115397001Y-112771091D02*
X116092955Y-113467045D01*
X124414005Y-117810005D02*
X125049001Y-117810005D01*
X119499507Y-115316000D02*
X121920000Y-115316000D01*
X125049001Y-117810005D02*
X125349000Y-118110004D01*
X117589173Y-113408333D02*
X117591840Y-113408333D01*
X121920000Y-115316000D02*
X124414005Y-117810005D01*
X147447000Y-102659264D02*
X147701000Y-102913264D01*
X147701000Y-117348000D02*
X147828000Y-117475000D01*
X147701000Y-102913264D02*
X147701000Y-117348000D01*
X147447000Y-102235000D02*
X147447000Y-102659264D01*
X144300219Y-75031606D02*
X144000220Y-74731607D01*
X144000220Y-79646780D02*
X144300219Y-79346781D01*
X144000220Y-66403220D02*
X143174999Y-65577999D01*
X144300219Y-79346781D02*
X144300219Y-75031606D01*
X143174999Y-65577999D02*
X142875000Y-65278000D01*
X144000220Y-74731607D02*
X144000220Y-66403220D01*
X135844001Y-65450999D02*
X136144000Y-65151000D01*
X135509000Y-70485000D02*
X135509000Y-65786000D01*
X135509000Y-65786000D02*
X135844001Y-65450999D01*
X135890000Y-70866000D02*
X135509000Y-70485000D01*
X135890000Y-80391000D02*
X135890000Y-70866000D01*
X135636000Y-80645000D02*
X135890000Y-80391000D01*
X135636000Y-87376000D02*
X135636000Y-80645000D01*
X127127000Y-98889736D02*
X127127000Y-99314000D01*
X127127000Y-96393000D02*
X127127000Y-98889736D01*
X125857000Y-95123000D02*
X127127000Y-96393000D01*
X124061239Y-118132795D02*
X124361238Y-118432794D01*
X116801984Y-114142520D02*
X116878345Y-114066159D01*
X119313107Y-115766010D02*
X121694454Y-115766010D01*
X121694454Y-115766010D02*
X124061239Y-118132795D01*
X117613256Y-114066159D02*
X119313107Y-115766010D01*
X116878345Y-114066159D02*
X117613256Y-114066159D01*
X116377720Y-114142520D02*
X116801984Y-114142520D01*
X148581957Y-117176953D02*
X148581957Y-117833743D01*
X148183044Y-116778040D02*
X148581957Y-117176953D01*
X147374984Y-99005988D02*
X148183044Y-99814048D01*
X148183044Y-99814048D02*
X148183044Y-116778040D01*
X148581957Y-117833743D02*
X148281958Y-118133742D01*
X115905001Y-93517997D02*
X117936999Y-91485999D01*
X116392956Y-112842044D02*
X115905001Y-112354089D01*
X117936999Y-91485999D02*
X118236998Y-91186000D01*
X115905001Y-112354089D02*
X115905001Y-93517997D01*
X117088920Y-114721640D02*
X117632327Y-114721640D01*
X117632327Y-114721640D02*
X119126706Y-116216019D01*
X119126706Y-116216019D02*
X121169018Y-116216020D01*
X121169018Y-116216020D02*
X123443998Y-118491000D01*
X148635999Y-99427019D02*
X148635999Y-116594585D01*
X149077923Y-118461467D02*
X148777924Y-118761466D01*
X148635999Y-116594585D02*
X149077923Y-117036509D01*
X147701000Y-94107000D02*
X148000999Y-94406999D01*
X148000999Y-98792019D02*
X148635999Y-99427019D01*
X148000999Y-94406999D02*
X148000999Y-98792019D01*
X149077923Y-117036509D02*
X149077923Y-118461467D01*
X116365442Y-98010558D02*
X117810001Y-96565999D01*
X116665441Y-112089867D02*
X116365442Y-111789868D01*
X117810001Y-96565999D02*
X118110000Y-96266000D01*
X116365442Y-111789868D02*
X116365442Y-98010558D01*
X126707020Y-109049736D02*
X126707020Y-109474000D01*
X126580020Y-108922736D02*
X126707020Y-109049736D01*
X126580020Y-99980018D02*
X126580020Y-108922736D01*
X126238000Y-99060000D02*
X126238000Y-99637998D01*
X126238000Y-99637998D02*
X126580020Y-99980018D01*
X149534784Y-116856958D02*
X149534784Y-118596398D01*
X148880998Y-99035607D02*
X149098000Y-99252609D01*
X148880998Y-91769988D02*
X148880998Y-99035607D01*
X149098000Y-116420174D02*
X149534784Y-116856958D01*
X147828000Y-90716990D02*
X148880998Y-91769988D01*
X149534784Y-118596398D02*
X149534784Y-119020662D01*
X149098000Y-99252609D02*
X149098000Y-116420174D01*
X117810005Y-101772999D02*
X118110004Y-101473000D01*
X117177622Y-102405382D02*
X117810005Y-101772999D01*
X117177622Y-111475303D02*
X117177622Y-102405382D01*
X145288000Y-84074000D02*
X145669000Y-84455000D01*
X145669000Y-84455000D02*
X145669000Y-113411000D01*
X145669000Y-113411000D02*
X145669000Y-113538002D01*
X137160000Y-113284000D02*
X136652000Y-112776000D01*
X136702800Y-112760760D02*
X136702800Y-96885760D01*
X136652000Y-96901000D02*
X136144000Y-96393000D01*
X145043999Y-114085507D02*
X145043999Y-113237997D01*
X145218989Y-88102273D02*
X145043980Y-87927264D01*
X145043980Y-87927264D02*
X145043980Y-87503000D01*
X145084398Y-92151602D02*
X145218989Y-92017011D01*
X145362435Y-114403943D02*
X145043999Y-114085507D01*
X145218989Y-92017011D02*
X145218989Y-88102273D01*
X145043999Y-113237997D02*
X145084398Y-113197598D01*
X145084398Y-113197598D02*
X145084398Y-92151602D01*
X136026980Y-106215264D02*
X136026980Y-105791000D01*
X136652000Y-114300000D02*
X136026980Y-113674980D01*
X136026980Y-113674980D02*
X136026980Y-106215264D01*
X144593969Y-91356264D02*
X144593969Y-90932000D01*
X144593969Y-114740031D02*
X144593969Y-91356264D01*
X144272000Y-115062000D02*
X144593969Y-114740031D01*
X142113002Y-108138393D02*
X142113002Y-95039264D01*
X142153011Y-111846989D02*
X142153011Y-108178402D01*
X142113002Y-95039264D02*
X142113002Y-94615000D01*
X141732000Y-112268000D02*
X142153011Y-111846989D01*
X142153011Y-108178402D02*
X142113002Y-108138393D01*
X142113000Y-94615000D02*
X142113000Y-94488000D01*
X141732000Y-112268000D02*
X141732000Y-115372958D01*
X134493000Y-71247000D02*
X134493000Y-75173409D01*
X134493000Y-75173409D02*
X134178268Y-75488141D01*
X134178268Y-75488141D02*
X133878269Y-75788140D01*
X135255000Y-72009000D02*
X135001000Y-72263000D01*
X135001000Y-72263000D02*
X135001000Y-75564994D01*
X135001000Y-75564994D02*
X134284993Y-76281001D01*
X134284993Y-76281001D02*
X133984994Y-76581000D01*
D21*
G36*
X155529175Y-58951752D02*
X153993472Y-60487456D01*
X153259696Y-61585628D01*
X153002029Y-62881012D01*
X153259696Y-64176396D01*
X153993472Y-65274568D01*
X155091644Y-66008344D01*
X156387028Y-66266011D01*
X157682412Y-66008344D01*
X158780584Y-65274568D01*
X160316288Y-63738865D01*
X160326000Y-63724330D01*
X160326000Y-116687567D01*
X159348210Y-116034228D01*
X158052827Y-115776560D01*
X155881013Y-115776560D01*
X154585630Y-116034228D01*
X153487457Y-116768004D01*
X152753681Y-117866177D01*
X152496013Y-119161560D01*
X152753681Y-120456943D01*
X153426575Y-121464000D01*
X118567807Y-121464000D01*
X119012030Y-121020552D01*
X119528451Y-119776872D01*
X119529626Y-118430236D01*
X119015377Y-117185657D01*
X118063992Y-116232610D01*
X116820312Y-115716189D01*
X115473676Y-115715014D01*
X114229097Y-116229263D01*
X113740000Y-116717507D01*
X113740000Y-88946003D01*
X114637001Y-88946003D01*
X114637001Y-112771091D01*
X114694853Y-113061930D01*
X114859600Y-113308492D01*
X115461644Y-113910536D01*
X115442882Y-113955721D01*
X115442558Y-114327687D01*
X115584603Y-114671463D01*
X115847393Y-114934712D01*
X116190921Y-115077358D01*
X116224240Y-115077387D01*
X116295803Y-115250583D01*
X116558593Y-115513832D01*
X116902121Y-115656478D01*
X117274087Y-115656802D01*
X117428772Y-115592887D01*
X118589305Y-116753420D01*
X118835867Y-116918167D01*
X119126706Y-116976019D01*
X120854216Y-116976020D01*
X122508876Y-118630680D01*
X122508836Y-118676167D01*
X122650881Y-119019943D01*
X122913671Y-119283192D01*
X123257199Y-119425838D01*
X123629165Y-119426162D01*
X123972941Y-119284117D01*
X123973050Y-119284008D01*
X124174439Y-119367632D01*
X124546405Y-119367956D01*
X124890181Y-119225911D01*
X125098192Y-119018263D01*
X125162201Y-119044842D01*
X125534167Y-119045166D01*
X125877943Y-118903121D01*
X126141192Y-118640331D01*
X126283838Y-118296803D01*
X126284162Y-117924837D01*
X126142117Y-117581061D01*
X125879327Y-117317812D01*
X125535799Y-117175166D01*
X125440451Y-117175083D01*
X125339840Y-117107857D01*
X125049001Y-117050005D01*
X124728807Y-117050005D01*
X122457401Y-114778599D01*
X122210839Y-114613852D01*
X122171215Y-114605970D01*
X122197207Y-114600800D01*
X122647542Y-114299896D01*
X122936000Y-113868188D01*
X123224458Y-114299896D01*
X123674793Y-114600800D01*
X124206000Y-114706464D01*
X124737207Y-114600800D01*
X125187542Y-114299896D01*
X125488446Y-113849561D01*
X125594110Y-113318354D01*
X125594110Y-111725646D01*
X125488446Y-111194439D01*
X125187542Y-110744104D01*
X124737207Y-110443200D01*
X124206000Y-110337536D01*
X123674793Y-110443200D01*
X123224458Y-110744104D01*
X122936000Y-111175812D01*
X122647542Y-110744104D01*
X122448406Y-110611046D01*
X122473838Y-110549799D01*
X122474162Y-110177833D01*
X122424000Y-110056431D01*
X122424000Y-108637822D01*
X122473838Y-108517799D01*
X122474162Y-108145833D01*
X122472286Y-108141293D01*
X122875598Y-107737981D01*
X122961585Y-107866670D01*
X123447766Y-108191526D01*
X124021255Y-108305600D01*
X124390745Y-108305600D01*
X124964234Y-108191526D01*
X125450415Y-107866670D01*
X125775271Y-107380489D01*
X125820020Y-107155520D01*
X125820020Y-108922736D01*
X125853543Y-109091264D01*
X125772182Y-109287201D01*
X125771858Y-109659167D01*
X125913903Y-110002943D01*
X126176693Y-110266192D01*
X126520221Y-110408838D01*
X126892187Y-110409162D01*
X127235963Y-110267117D01*
X127499212Y-110004327D01*
X127641858Y-109660799D01*
X127642182Y-109288833D01*
X127500137Y-108945057D01*
X127432775Y-108877578D01*
X127409168Y-108758897D01*
X127340020Y-108655409D01*
X127340020Y-100237653D01*
X127655943Y-100107117D01*
X127919192Y-99844327D01*
X128061838Y-99500799D01*
X128062162Y-99128833D01*
X127920117Y-98785057D01*
X127887000Y-98751882D01*
X127887000Y-96393000D01*
X127829148Y-96102161D01*
X127829148Y-96102160D01*
X127664401Y-95855599D01*
X126792122Y-94983320D01*
X126792162Y-94937833D01*
X126650117Y-94594057D01*
X126387327Y-94330808D01*
X126043799Y-94188162D01*
X125873230Y-94188013D01*
X125889345Y-94107000D01*
X125775271Y-93533511D01*
X125450415Y-93047330D01*
X125135634Y-92837000D01*
X125450415Y-92626670D01*
X125775271Y-92140489D01*
X125889345Y-91567000D01*
X125775271Y-90993511D01*
X125450415Y-90507330D01*
X125135634Y-90297000D01*
X125450415Y-90086670D01*
X125775271Y-89600489D01*
X125889345Y-89027000D01*
X125775271Y-88453511D01*
X125450415Y-87967330D01*
X125135634Y-87757000D01*
X125450415Y-87546670D01*
X125775271Y-87060489D01*
X125889345Y-86487000D01*
X125775271Y-85913511D01*
X125450415Y-85427330D01*
X125135634Y-85217000D01*
X125450415Y-85006670D01*
X125775271Y-84520489D01*
X125889345Y-83947000D01*
X125775271Y-83373511D01*
X125450415Y-82887330D01*
X125140931Y-82680539D01*
X125556732Y-82309036D01*
X125810709Y-81781791D01*
X125813358Y-81766026D01*
X125692217Y-81534000D01*
X124333000Y-81534000D01*
X124333000Y-81554000D01*
X124079000Y-81554000D01*
X124079000Y-81534000D01*
X122719783Y-81534000D01*
X122598642Y-81766026D01*
X122601291Y-81781791D01*
X122855268Y-82309036D01*
X123271069Y-82680539D01*
X122961585Y-82887330D01*
X122636729Y-83373511D01*
X122522655Y-83947000D01*
X122636729Y-84520489D01*
X122961585Y-85006670D01*
X123276366Y-85217000D01*
X122961585Y-85427330D01*
X122636729Y-85913511D01*
X122522655Y-86487000D01*
X122636729Y-87060489D01*
X122961585Y-87546670D01*
X123276366Y-87757000D01*
X122961585Y-87967330D01*
X122636729Y-88453511D01*
X122522655Y-89027000D01*
X122636729Y-89600489D01*
X122961585Y-90086670D01*
X123276366Y-90297000D01*
X122961585Y-90507330D01*
X122636729Y-90993511D01*
X122522655Y-91567000D01*
X122636729Y-92140489D01*
X122961585Y-92626670D01*
X123276366Y-92837000D01*
X122961585Y-93047330D01*
X122636729Y-93533511D01*
X122522655Y-94107000D01*
X122636729Y-94680489D01*
X122961585Y-95166670D01*
X123276366Y-95377000D01*
X122961585Y-95587330D01*
X122636729Y-96073511D01*
X122522655Y-96647000D01*
X122636729Y-97220489D01*
X122961585Y-97706670D01*
X123276366Y-97917000D01*
X122961585Y-98127330D01*
X122636729Y-98613511D01*
X122522655Y-99187000D01*
X122636729Y-99760489D01*
X122961585Y-100246670D01*
X123276366Y-100457000D01*
X122961585Y-100667330D01*
X122636729Y-101153511D01*
X122522655Y-101727000D01*
X122636729Y-102300489D01*
X122961585Y-102786670D01*
X123271069Y-102993461D01*
X122855268Y-103364964D01*
X122601291Y-103892209D01*
X122598642Y-103907974D01*
X122719783Y-104140000D01*
X124079000Y-104140000D01*
X124079000Y-104120000D01*
X124333000Y-104120000D01*
X124333000Y-104140000D01*
X124353000Y-104140000D01*
X124353000Y-104394000D01*
X124333000Y-104394000D01*
X124333000Y-104414000D01*
X124079000Y-104414000D01*
X124079000Y-104394000D01*
X122719783Y-104394000D01*
X122598642Y-104626026D01*
X122601291Y-104641791D01*
X122855268Y-105169036D01*
X123271069Y-105540539D01*
X122961585Y-105747330D01*
X122848555Y-105916491D01*
X122741799Y-105872162D01*
X122369833Y-105871838D01*
X122026057Y-106013883D01*
X121762808Y-106276673D01*
X121712434Y-106397987D01*
X120913210Y-107197210D01*
X120721367Y-107484325D01*
X120721367Y-107484326D01*
X120653999Y-107823000D01*
X120654000Y-107823005D01*
X120654000Y-108024178D01*
X120604162Y-108144201D01*
X120603838Y-108516167D01*
X120654000Y-108637569D01*
X120654000Y-110056178D01*
X120604162Y-110176201D01*
X120603838Y-110548167D01*
X120684724Y-110743926D01*
X120684458Y-110744104D01*
X120383554Y-111194439D01*
X120382984Y-111197306D01*
X120359846Y-111119081D01*
X120017740Y-110696276D01*
X119539875Y-110436573D01*
X119467674Y-110422217D01*
X119253000Y-110544838D01*
X119253000Y-112395000D01*
X119273000Y-112395000D01*
X119273000Y-112649000D01*
X119253000Y-112649000D01*
X119253000Y-112669000D01*
X118999000Y-112669000D01*
X118999000Y-112649000D01*
X117737890Y-112649000D01*
X117737890Y-112677384D01*
X117591840Y-112648333D01*
X117589173Y-112648333D01*
X117389697Y-112688011D01*
X117457633Y-112620194D01*
X117582400Y-112319724D01*
X117706565Y-112268420D01*
X117737890Y-112237150D01*
X117737890Y-112395000D01*
X118999000Y-112395000D01*
X118999000Y-110544838D01*
X118784326Y-110422217D01*
X118712125Y-110436573D01*
X118234260Y-110696276D01*
X117991417Y-110996404D01*
X117970739Y-110946360D01*
X117937622Y-110913185D01*
X117937622Y-102720184D01*
X118249684Y-102408122D01*
X118295171Y-102408162D01*
X118638947Y-102266117D01*
X118902196Y-102003327D01*
X119044842Y-101659799D01*
X119045166Y-101287833D01*
X118903121Y-100944057D01*
X118640331Y-100680808D01*
X118296803Y-100538162D01*
X117924837Y-100537838D01*
X117581061Y-100679883D01*
X117317812Y-100942673D01*
X117175166Y-101286201D01*
X117175125Y-101333077D01*
X117125442Y-101382760D01*
X117125442Y-98325360D01*
X118249680Y-97201122D01*
X118295167Y-97201162D01*
X118638943Y-97059117D01*
X118902192Y-96796327D01*
X119044838Y-96452799D01*
X119045162Y-96080833D01*
X118903117Y-95737057D01*
X118640327Y-95473808D01*
X118296799Y-95331162D01*
X117924833Y-95330838D01*
X117581057Y-95472883D01*
X117317808Y-95735673D01*
X117175162Y-96079201D01*
X117175121Y-96126077D01*
X116665001Y-96636197D01*
X116665001Y-93832799D01*
X118376678Y-92121122D01*
X118422165Y-92121162D01*
X118765941Y-91979117D01*
X119029190Y-91716327D01*
X119171836Y-91372799D01*
X119172160Y-91000833D01*
X119030115Y-90657057D01*
X118767325Y-90393808D01*
X118423797Y-90251162D01*
X118051831Y-90250838D01*
X117708055Y-90392883D01*
X117444806Y-90655673D01*
X117302160Y-90999201D01*
X117302119Y-91046077D01*
X116157001Y-92191195D01*
X116157001Y-89260805D01*
X118249684Y-87168122D01*
X118295171Y-87168162D01*
X118638947Y-87026117D01*
X118902196Y-86763327D01*
X119044842Y-86419799D01*
X119045166Y-86047833D01*
X118903121Y-85704057D01*
X118640331Y-85440808D01*
X118296803Y-85298162D01*
X117924837Y-85297838D01*
X117581061Y-85439883D01*
X117317812Y-85702673D01*
X117175166Y-86046201D01*
X117175125Y-86093077D01*
X114859600Y-88408602D01*
X114694853Y-88655164D01*
X114637001Y-88946003D01*
X113740000Y-88946003D01*
X113740000Y-76327000D01*
X122522655Y-76327000D01*
X122636729Y-76900489D01*
X122961585Y-77386670D01*
X123276366Y-77597000D01*
X122961585Y-77807330D01*
X122636729Y-78293511D01*
X122522655Y-78867000D01*
X122636729Y-79440489D01*
X122961585Y-79926670D01*
X123271069Y-80133461D01*
X122855268Y-80504964D01*
X122601291Y-81032209D01*
X122598642Y-81047974D01*
X122719783Y-81280000D01*
X124079000Y-81280000D01*
X124079000Y-81260000D01*
X124333000Y-81260000D01*
X124333000Y-81280000D01*
X125692217Y-81280000D01*
X125813358Y-81047974D01*
X125810709Y-81032209D01*
X125591031Y-80576167D01*
X128350838Y-80576167D01*
X128492883Y-80919943D01*
X128528000Y-80955121D01*
X128528000Y-89228178D01*
X128478162Y-89348201D01*
X128477838Y-89720167D01*
X128528000Y-89841569D01*
X128528000Y-98626178D01*
X128478162Y-98746201D01*
X128477838Y-99118167D01*
X128619883Y-99461943D01*
X128782000Y-99624343D01*
X128782000Y-108151178D01*
X128732162Y-108271201D01*
X128731838Y-108643167D01*
X128873883Y-108986943D01*
X129136673Y-109250192D01*
X129480201Y-109392838D01*
X129852167Y-109393162D01*
X130195943Y-109251117D01*
X130459192Y-108988327D01*
X130601838Y-108644799D01*
X130602162Y-108272833D01*
X130552000Y-108151431D01*
X130552000Y-105976167D01*
X135091818Y-105976167D01*
X135233863Y-106319943D01*
X135266980Y-106353118D01*
X135266980Y-113674980D01*
X135324832Y-113965819D01*
X135489579Y-114212381D01*
X135716878Y-114439680D01*
X135716838Y-114485167D01*
X135858883Y-114828943D01*
X136121673Y-115092192D01*
X136465201Y-115234838D01*
X136837167Y-115235162D01*
X137180943Y-115093117D01*
X137444192Y-114830327D01*
X137586838Y-114486799D01*
X137587158Y-114119174D01*
X137688943Y-114077117D01*
X137952192Y-113814327D01*
X138094838Y-113470799D01*
X138095162Y-113098833D01*
X137953117Y-112755057D01*
X137690327Y-112491808D01*
X137597270Y-112453167D01*
X140796838Y-112453167D01*
X140938883Y-112796943D01*
X140972000Y-112830118D01*
X140972000Y-114810495D01*
X140939808Y-114842631D01*
X140797162Y-115186159D01*
X140796838Y-115558125D01*
X140938883Y-115901901D01*
X141201673Y-116165150D01*
X141545201Y-116307796D01*
X141917167Y-116308120D01*
X142260943Y-116166075D01*
X142524192Y-115903285D01*
X142666838Y-115559757D01*
X142667110Y-115247167D01*
X143336838Y-115247167D01*
X143478883Y-115590943D01*
X143741673Y-115854192D01*
X144085201Y-115996838D01*
X144457167Y-115997162D01*
X144800943Y-115855117D01*
X145064192Y-115592327D01*
X145170380Y-115336599D01*
X145175636Y-115338781D01*
X145547602Y-115339105D01*
X145891378Y-115197060D01*
X146154627Y-114934270D01*
X146297273Y-114590742D01*
X146297586Y-114231650D01*
X146461192Y-114068329D01*
X146603838Y-113724801D01*
X146604162Y-113352835D01*
X146462117Y-113009059D01*
X146429000Y-112975884D01*
X146429000Y-99191155D01*
X146439822Y-99191155D01*
X146581867Y-99534931D01*
X146844657Y-99798180D01*
X147188185Y-99940826D01*
X147235061Y-99940867D01*
X147423044Y-100128850D01*
X147423044Y-101299978D01*
X147261833Y-101299838D01*
X146918057Y-101441883D01*
X146654808Y-101704673D01*
X146512162Y-102048201D01*
X146511838Y-102420167D01*
X146653883Y-102763943D01*
X146721245Y-102831422D01*
X146744852Y-102950103D01*
X146909599Y-103196665D01*
X146941000Y-103228066D01*
X146941000Y-117172995D01*
X146893162Y-117288201D01*
X146892838Y-117660167D01*
X147034883Y-118003943D01*
X147297673Y-118267192D01*
X147346823Y-118287601D01*
X147346796Y-118318909D01*
X147488841Y-118662685D01*
X147751631Y-118925934D01*
X147851312Y-118967325D01*
X147984807Y-119290409D01*
X148247597Y-119553658D01*
X148591125Y-119696304D01*
X148888369Y-119696563D01*
X149004457Y-119812854D01*
X149347985Y-119955500D01*
X149719951Y-119955824D01*
X150063727Y-119813779D01*
X150326976Y-119550989D01*
X150469622Y-119207461D01*
X150469946Y-118835495D01*
X150327901Y-118491719D01*
X150294784Y-118458544D01*
X150294784Y-116856958D01*
X150236932Y-116566119D01*
X150072185Y-116319557D01*
X149858000Y-116105372D01*
X149858000Y-99252609D01*
X149819687Y-99060000D01*
X149800148Y-98961769D01*
X149640998Y-98723584D01*
X149640998Y-91769988D01*
X149583146Y-91479149D01*
X149418399Y-91232587D01*
X148763122Y-90577310D01*
X148763162Y-90531823D01*
X148621117Y-90188047D01*
X148358327Y-89924798D01*
X148014799Y-89782152D01*
X147642833Y-89781828D01*
X147299057Y-89923873D01*
X147035808Y-90186663D01*
X146893162Y-90530191D01*
X146892838Y-90902157D01*
X147034883Y-91245933D01*
X147297673Y-91509182D01*
X147641201Y-91651828D01*
X147688077Y-91651869D01*
X148120998Y-92084790D01*
X148120998Y-93268995D01*
X147887799Y-93172162D01*
X147515833Y-93171838D01*
X147172057Y-93313883D01*
X146908808Y-93576673D01*
X146766162Y-93920201D01*
X146765838Y-94292167D01*
X146907883Y-94635943D01*
X147170673Y-94899192D01*
X147240999Y-94928394D01*
X147240999Y-98070871D01*
X147189817Y-98070826D01*
X146846041Y-98212871D01*
X146582792Y-98475661D01*
X146440146Y-98819189D01*
X146439822Y-99191155D01*
X146429000Y-99191155D01*
X146429000Y-84455000D01*
X146371148Y-84164161D01*
X146371148Y-84164160D01*
X146223115Y-83942613D01*
X146223162Y-83888833D01*
X146081117Y-83545057D01*
X145818327Y-83281808D01*
X145474799Y-83139162D01*
X145102833Y-83138838D01*
X144759057Y-83280883D01*
X144495808Y-83543673D01*
X144353162Y-83887201D01*
X144352838Y-84259167D01*
X144494883Y-84602943D01*
X144757673Y-84866192D01*
X144909000Y-84929029D01*
X144909000Y-86567882D01*
X144858813Y-86567838D01*
X144515037Y-86709883D01*
X144251788Y-86972673D01*
X144109142Y-87316201D01*
X144108818Y-87688167D01*
X144250863Y-88031943D01*
X144318225Y-88099422D01*
X144341832Y-88218103D01*
X144458989Y-88393441D01*
X144458989Y-89996882D01*
X144408802Y-89996838D01*
X144065026Y-90138883D01*
X143801777Y-90401673D01*
X143659131Y-90745201D01*
X143658807Y-91117167D01*
X143800852Y-91460943D01*
X143833969Y-91494118D01*
X143833969Y-114231319D01*
X143743057Y-114268883D01*
X143479808Y-114531673D01*
X143337162Y-114875201D01*
X143336838Y-115247167D01*
X142667110Y-115247167D01*
X142667162Y-115187791D01*
X142525117Y-114844015D01*
X142492000Y-114810840D01*
X142492000Y-112830463D01*
X142524192Y-112798327D01*
X142666838Y-112454799D01*
X142666879Y-112407923D01*
X142690412Y-112384390D01*
X142855159Y-112137829D01*
X142880048Y-112012704D01*
X142913011Y-111846989D01*
X142913011Y-108178402D01*
X142873002Y-107977265D01*
X142873002Y-95177463D01*
X142905194Y-95145327D01*
X143047840Y-94801799D01*
X143048164Y-94429833D01*
X142906119Y-94086057D01*
X142643329Y-93822808D01*
X142299801Y-93680162D01*
X141927835Y-93679838D01*
X141584059Y-93821883D01*
X141320810Y-94084673D01*
X141178164Y-94428201D01*
X141177840Y-94800167D01*
X141319885Y-95143943D01*
X141353002Y-95177118D01*
X141353002Y-108138393D01*
X141393011Y-108339530D01*
X141393011Y-111396396D01*
X141203057Y-111474883D01*
X140939808Y-111737673D01*
X140797162Y-112081201D01*
X140796838Y-112453167D01*
X137597270Y-112453167D01*
X137462800Y-112397330D01*
X137462800Y-109724265D01*
X137540670Y-109724265D01*
X137830078Y-110424686D01*
X138365495Y-110961039D01*
X139065410Y-111251668D01*
X139823265Y-111252330D01*
X140523686Y-110962922D01*
X141060039Y-110427505D01*
X141350668Y-109727590D01*
X141351330Y-108969735D01*
X141061922Y-108269314D01*
X140672158Y-107878869D01*
X140690415Y-107866670D01*
X141015271Y-107380489D01*
X141129345Y-106807000D01*
X141015271Y-106233511D01*
X140690415Y-105747330D01*
X140375634Y-105537000D01*
X140690415Y-105326670D01*
X141015271Y-104840489D01*
X141129345Y-104267000D01*
X141015271Y-103693511D01*
X140690415Y-103207330D01*
X140375634Y-102997000D01*
X140690415Y-102786670D01*
X141015271Y-102300489D01*
X141129345Y-101727000D01*
X141015271Y-101153511D01*
X140690415Y-100667330D01*
X140375634Y-100457000D01*
X140690415Y-100246670D01*
X141015271Y-99760489D01*
X141129345Y-99187000D01*
X141015271Y-98613511D01*
X140690415Y-98127330D01*
X140375634Y-97917000D01*
X140690415Y-97706670D01*
X141015271Y-97220489D01*
X141129345Y-96647000D01*
X141015271Y-96073511D01*
X140690415Y-95587330D01*
X140375634Y-95377000D01*
X140690415Y-95166670D01*
X141015271Y-94680489D01*
X141129345Y-94107000D01*
X141015271Y-93533511D01*
X140690415Y-93047330D01*
X140375634Y-92837000D01*
X140690415Y-92626670D01*
X141015271Y-92140489D01*
X141129345Y-91567000D01*
X141015271Y-90993511D01*
X140690415Y-90507330D01*
X140375634Y-90297000D01*
X140690415Y-90086670D01*
X141015271Y-89600489D01*
X141129345Y-89027000D01*
X141015271Y-88453511D01*
X140690415Y-87967330D01*
X140375634Y-87757000D01*
X140690415Y-87546670D01*
X141015271Y-87060489D01*
X141129345Y-86487000D01*
X141015271Y-85913511D01*
X140690415Y-85427330D01*
X140375634Y-85217000D01*
X140690415Y-85006670D01*
X141015271Y-84520489D01*
X141129345Y-83947000D01*
X141015271Y-83373511D01*
X140758461Y-82989167D01*
X145876838Y-82989167D01*
X146018883Y-83332943D01*
X146281673Y-83596192D01*
X146402986Y-83646566D01*
X146943000Y-84186579D01*
X146943000Y-85799178D01*
X146893162Y-85919201D01*
X146892838Y-86291167D01*
X147034883Y-86634943D01*
X147297673Y-86898192D01*
X147641201Y-87040838D01*
X148013167Y-87041162D01*
X148356943Y-86899117D01*
X148620192Y-86636327D01*
X148762838Y-86292799D01*
X148763162Y-85920833D01*
X148713000Y-85799431D01*
X148713000Y-83820005D01*
X148713001Y-83820000D01*
X148645633Y-83481326D01*
X148645633Y-83481325D01*
X148453790Y-83194210D01*
X148453787Y-83194208D01*
X147654744Y-82395164D01*
X147605117Y-82275057D01*
X147342327Y-82011808D01*
X146998799Y-81869162D01*
X146626833Y-81868838D01*
X146283057Y-82010883D01*
X146019808Y-82273673D01*
X145877162Y-82617201D01*
X145876838Y-82989167D01*
X140758461Y-82989167D01*
X140690415Y-82887330D01*
X140375634Y-82677000D01*
X140690415Y-82466670D01*
X141015271Y-81980489D01*
X141129345Y-81407000D01*
X141015271Y-80833511D01*
X140690415Y-80347330D01*
X140380931Y-80140539D01*
X140796732Y-79769036D01*
X141050709Y-79241791D01*
X141053358Y-79226026D01*
X140932217Y-78994000D01*
X139573000Y-78994000D01*
X139573000Y-79014000D01*
X139319000Y-79014000D01*
X139319000Y-78994000D01*
X137959783Y-78994000D01*
X137838642Y-79226026D01*
X137841291Y-79241791D01*
X138095268Y-79769036D01*
X138511069Y-80140539D01*
X138201585Y-80347330D01*
X137876729Y-80833511D01*
X137762655Y-81407000D01*
X137876729Y-81980489D01*
X138201585Y-82466670D01*
X138516366Y-82677000D01*
X138201585Y-82887330D01*
X137876729Y-83373511D01*
X137762655Y-83947000D01*
X137876729Y-84520489D01*
X138201585Y-85006670D01*
X138516366Y-85217000D01*
X138201585Y-85427330D01*
X137876729Y-85913511D01*
X137762655Y-86487000D01*
X137876729Y-87060489D01*
X138201585Y-87546670D01*
X138516366Y-87757000D01*
X138201585Y-87967330D01*
X137876729Y-88453511D01*
X137762655Y-89027000D01*
X137876729Y-89600489D01*
X138201585Y-90086670D01*
X138516366Y-90297000D01*
X138201585Y-90507330D01*
X137876729Y-90993511D01*
X137762655Y-91567000D01*
X137876729Y-92140489D01*
X138201585Y-92626670D01*
X138516366Y-92837000D01*
X138201585Y-93047330D01*
X137876729Y-93533511D01*
X137762655Y-94107000D01*
X137876729Y-94680489D01*
X138201585Y-95166670D01*
X138516366Y-95377000D01*
X138201585Y-95587330D01*
X137876729Y-96073511D01*
X137762655Y-96647000D01*
X137876729Y-97220489D01*
X138201585Y-97706670D01*
X138516366Y-97917000D01*
X138201585Y-98127330D01*
X137876729Y-98613511D01*
X137762655Y-99187000D01*
X137876729Y-99760489D01*
X138201585Y-100246670D01*
X138516366Y-100457000D01*
X138201585Y-100667330D01*
X137876729Y-101153511D01*
X137762655Y-101727000D01*
X137876729Y-102300489D01*
X138201585Y-102786670D01*
X138516366Y-102997000D01*
X138201585Y-103207330D01*
X137876729Y-103693511D01*
X137762655Y-104267000D01*
X137876729Y-104840489D01*
X138201585Y-105326670D01*
X138516366Y-105537000D01*
X138201585Y-105747330D01*
X137876729Y-106233511D01*
X137762655Y-106807000D01*
X137876729Y-107380489D01*
X138201585Y-107866670D01*
X138220095Y-107879038D01*
X137831961Y-108266495D01*
X137541332Y-108966410D01*
X137540670Y-109724265D01*
X137462800Y-109724265D01*
X137462800Y-96885760D01*
X137404948Y-96594921D01*
X137240201Y-96348359D01*
X137079133Y-96240737D01*
X137079162Y-96207833D01*
X136937117Y-95864057D01*
X136674327Y-95600808D01*
X136330799Y-95458162D01*
X135958833Y-95457838D01*
X135615057Y-95599883D01*
X135351808Y-95862673D01*
X135209162Y-96206201D01*
X135208838Y-96578167D01*
X135350883Y-96921943D01*
X135613673Y-97185192D01*
X135942800Y-97321858D01*
X135942800Y-104855926D01*
X135841813Y-104855838D01*
X135498037Y-104997883D01*
X135234788Y-105260673D01*
X135092142Y-105604201D01*
X135091818Y-105976167D01*
X130552000Y-105976167D01*
X130552000Y-99187005D01*
X130552001Y-99187000D01*
X130484633Y-98848325D01*
X130484022Y-98847411D01*
X130298000Y-98569007D01*
X130298000Y-89841822D01*
X130347838Y-89721799D01*
X130348162Y-89349833D01*
X130298000Y-89228431D01*
X130298000Y-80518005D01*
X130298001Y-80518000D01*
X130230633Y-80179325D01*
X130182161Y-80106781D01*
X130177113Y-80099226D01*
X130079117Y-79862057D01*
X129816327Y-79598808D01*
X129472799Y-79456162D01*
X129100833Y-79455838D01*
X128757057Y-79597883D01*
X128493808Y-79860673D01*
X128351162Y-80204201D01*
X128350838Y-80576167D01*
X125591031Y-80576167D01*
X125556732Y-80504964D01*
X125140931Y-80133461D01*
X125450415Y-79926670D01*
X125775271Y-79440489D01*
X125889345Y-78867000D01*
X125775271Y-78293511D01*
X125450415Y-77807330D01*
X125135634Y-77597000D01*
X125450415Y-77386670D01*
X125775271Y-76900489D01*
X125889345Y-76327000D01*
X125818992Y-75973307D01*
X132943107Y-75973307D01*
X133083669Y-76313493D01*
X133050156Y-76394201D01*
X133049832Y-76766167D01*
X133191877Y-77109943D01*
X133454667Y-77373192D01*
X133798195Y-77515838D01*
X134170161Y-77516162D01*
X134513937Y-77374117D01*
X134777186Y-77111327D01*
X134919832Y-76767799D01*
X134919873Y-76720923D01*
X135130000Y-76510796D01*
X135130000Y-80076198D01*
X135098599Y-80107599D01*
X134933852Y-80354161D01*
X134876000Y-80645000D01*
X134876000Y-86813537D01*
X134843808Y-86845673D01*
X134701162Y-87189201D01*
X134700838Y-87561167D01*
X134842883Y-87904943D01*
X135105673Y-88168192D01*
X135449201Y-88310838D01*
X135821167Y-88311162D01*
X136164943Y-88169117D01*
X136428192Y-87906327D01*
X136570838Y-87562799D01*
X136571162Y-87190833D01*
X136429117Y-86847057D01*
X136396000Y-86813882D01*
X136396000Y-82214999D01*
X136583167Y-82215162D01*
X136926943Y-82073117D01*
X137190192Y-81810327D01*
X137332838Y-81466799D01*
X137333156Y-81101463D01*
X137382642Y-81027402D01*
X137450009Y-80688727D01*
X137450009Y-69084265D01*
X137540670Y-69084265D01*
X137830078Y-69784686D01*
X138219842Y-70175131D01*
X138201585Y-70187330D01*
X137876729Y-70673511D01*
X137762655Y-71247000D01*
X137876729Y-71820489D01*
X138201585Y-72306670D01*
X138516366Y-72517000D01*
X138201585Y-72727330D01*
X137876729Y-73213511D01*
X137762655Y-73787000D01*
X137876729Y-74360489D01*
X138201585Y-74846670D01*
X138516366Y-75057000D01*
X138201585Y-75267330D01*
X137876729Y-75753511D01*
X137762655Y-76327000D01*
X137876729Y-76900489D01*
X138201585Y-77386670D01*
X138511069Y-77593461D01*
X138095268Y-77964964D01*
X137841291Y-78492209D01*
X137838642Y-78507974D01*
X137959783Y-78740000D01*
X139319000Y-78740000D01*
X139319000Y-78720000D01*
X139573000Y-78720000D01*
X139573000Y-78740000D01*
X140932217Y-78740000D01*
X141053358Y-78507974D01*
X141050709Y-78492209D01*
X140796732Y-77964964D01*
X140380931Y-77593461D01*
X140690415Y-77386670D01*
X141015271Y-76900489D01*
X141041989Y-76766167D01*
X141177838Y-76766167D01*
X141319883Y-77109943D01*
X141582673Y-77373192D01*
X141926201Y-77515838D01*
X142298167Y-77516162D01*
X142419569Y-77466000D01*
X142537259Y-77466000D01*
X142537264Y-77466001D01*
X142819748Y-77409810D01*
X142875939Y-77398633D01*
X143163054Y-77206790D01*
X143540219Y-76829625D01*
X143540219Y-78825177D01*
X143471277Y-78853663D01*
X143208028Y-79116453D01*
X143065382Y-79459981D01*
X143065058Y-79831947D01*
X143207103Y-80175723D01*
X143469893Y-80438972D01*
X143813421Y-80581618D01*
X144185387Y-80581942D01*
X144529163Y-80439897D01*
X144792412Y-80177107D01*
X144935058Y-79833579D01*
X144935141Y-79738231D01*
X145002367Y-79637620D01*
X145060219Y-79346781D01*
X145060219Y-75031606D01*
X145002367Y-74740767D01*
X144837620Y-74494205D01*
X144760220Y-74416805D01*
X144760220Y-73464167D01*
X149686838Y-73464167D01*
X149828883Y-73807943D01*
X150091673Y-74071192D01*
X150243000Y-74134029D01*
X150243000Y-77034537D01*
X150210808Y-77066673D01*
X150068162Y-77410201D01*
X150067838Y-77782167D01*
X150209883Y-78125943D01*
X150472673Y-78389192D01*
X150816201Y-78531838D01*
X151188167Y-78532162D01*
X151299931Y-78485982D01*
X152022999Y-78485982D01*
X152023000Y-78485987D01*
X152023000Y-99948995D01*
X152022999Y-99949000D01*
X152068034Y-100175399D01*
X152090367Y-100287675D01*
X152164082Y-100397998D01*
X152226969Y-100492115D01*
X152226838Y-100642167D01*
X152368883Y-100985943D01*
X152631673Y-101249192D01*
X152975201Y-101391838D01*
X153069307Y-101391920D01*
X153002655Y-101727000D01*
X153116729Y-102300489D01*
X153441585Y-102786670D01*
X153756366Y-102997000D01*
X153441585Y-103207330D01*
X153116729Y-103693511D01*
X153002655Y-104267000D01*
X153116729Y-104840489D01*
X153441585Y-105326670D01*
X153756366Y-105537000D01*
X153441585Y-105747330D01*
X153116729Y-106233511D01*
X153002655Y-106807000D01*
X153116729Y-107380489D01*
X153441585Y-107866670D01*
X153460095Y-107879038D01*
X153071961Y-108266495D01*
X152781332Y-108966410D01*
X152780670Y-109724265D01*
X153070078Y-110424686D01*
X153605495Y-110961039D01*
X154305410Y-111251668D01*
X155063265Y-111252330D01*
X155763686Y-110962922D01*
X156300039Y-110427505D01*
X156590668Y-109727590D01*
X156591330Y-108969735D01*
X156301922Y-108269314D01*
X155912158Y-107878869D01*
X155930415Y-107866670D01*
X156255271Y-107380489D01*
X156369345Y-106807000D01*
X156255271Y-106233511D01*
X155930415Y-105747330D01*
X155615634Y-105537000D01*
X155930415Y-105326670D01*
X156255271Y-104840489D01*
X156369345Y-104267000D01*
X156255271Y-103693511D01*
X155930415Y-103207330D01*
X155615634Y-102997000D01*
X155930415Y-102786670D01*
X156255271Y-102300489D01*
X156318970Y-101980252D01*
X156432883Y-102255943D01*
X156595000Y-102418343D01*
X156595000Y-113481762D01*
X156433808Y-113642673D01*
X156291162Y-113986201D01*
X156290838Y-114358167D01*
X156432883Y-114701943D01*
X156695673Y-114965192D01*
X157039201Y-115107838D01*
X157411167Y-115108162D01*
X157754943Y-114966117D01*
X158018192Y-114703327D01*
X158068566Y-114582013D01*
X158105787Y-114544792D01*
X158105790Y-114544790D01*
X158297633Y-114257675D01*
X158310833Y-114191313D01*
X158365001Y-113919000D01*
X158365000Y-113918995D01*
X158365000Y-101981005D01*
X158365001Y-101981000D01*
X158297633Y-101642325D01*
X158105790Y-101355210D01*
X158105787Y-101355208D01*
X158068745Y-101318166D01*
X158019117Y-101198057D01*
X157756327Y-100934808D01*
X157412799Y-100792162D01*
X157040833Y-100791838D01*
X156697057Y-100933883D01*
X156433808Y-101196673D01*
X156318901Y-101473399D01*
X156255271Y-101153511D01*
X155930415Y-100667330D01*
X155615634Y-100457000D01*
X155930415Y-100246670D01*
X156255271Y-99760489D01*
X156369345Y-99187000D01*
X156255271Y-98613511D01*
X155930415Y-98127330D01*
X155615634Y-97917000D01*
X155930415Y-97706670D01*
X156255271Y-97220489D01*
X156369345Y-96647000D01*
X156255271Y-96073511D01*
X155930415Y-95587330D01*
X155615634Y-95377000D01*
X155930415Y-95166670D01*
X156255271Y-94680489D01*
X156369345Y-94107000D01*
X156255271Y-93533511D01*
X155930415Y-93047330D01*
X155615634Y-92837000D01*
X155930415Y-92626670D01*
X156255271Y-92140489D01*
X156369345Y-91567000D01*
X156255271Y-90993511D01*
X155930415Y-90507330D01*
X155615634Y-90297000D01*
X155930415Y-90086670D01*
X156255271Y-89600489D01*
X156369345Y-89027000D01*
X156255271Y-88453511D01*
X155930415Y-87967330D01*
X155615634Y-87757000D01*
X155930415Y-87546670D01*
X156255271Y-87060489D01*
X156369345Y-86487000D01*
X156255271Y-85913511D01*
X155930415Y-85427330D01*
X155615634Y-85217000D01*
X155930415Y-85006670D01*
X156255271Y-84520489D01*
X156369345Y-83947000D01*
X156255271Y-83373511D01*
X155930415Y-82887330D01*
X155615634Y-82677000D01*
X155930415Y-82466670D01*
X156255271Y-81980489D01*
X156369345Y-81407000D01*
X156255271Y-80833511D01*
X155930415Y-80347330D01*
X155615634Y-80137000D01*
X155930415Y-79926670D01*
X156255271Y-79440489D01*
X156369345Y-78867000D01*
X156255271Y-78293511D01*
X155930415Y-77807330D01*
X155615634Y-77597000D01*
X155930415Y-77386670D01*
X156255271Y-76900489D01*
X156369345Y-76327000D01*
X156255271Y-75753511D01*
X155930415Y-75267330D01*
X155620931Y-75060539D01*
X156036732Y-74689036D01*
X156290709Y-74161791D01*
X156293358Y-74146026D01*
X156172217Y-73914000D01*
X154813000Y-73914000D01*
X154813000Y-73934000D01*
X154559000Y-73934000D01*
X154559000Y-73914000D01*
X153199783Y-73914000D01*
X153078642Y-74146026D01*
X153081291Y-74161791D01*
X153335268Y-74689036D01*
X153751069Y-75060539D01*
X153441585Y-75267330D01*
X153116729Y-75753511D01*
X153002655Y-76327000D01*
X153116729Y-76900489D01*
X153215943Y-77048973D01*
X152887057Y-77184865D01*
X152623808Y-77447655D01*
X152573434Y-77568968D01*
X152490211Y-77652191D01*
X152490209Y-77652194D01*
X152282210Y-77860192D01*
X152090367Y-78147307D01*
X152090367Y-78147308D01*
X152022999Y-78485982D01*
X151299931Y-78485982D01*
X151531943Y-78390117D01*
X151795192Y-78127327D01*
X151937838Y-77783799D01*
X151938162Y-77411833D01*
X151796117Y-77068057D01*
X151763000Y-77034882D01*
X151763000Y-73660000D01*
X151705148Y-73369161D01*
X151705148Y-73369160D01*
X151557115Y-73147613D01*
X151557162Y-73093833D01*
X151415117Y-72750057D01*
X151152327Y-72486808D01*
X150808799Y-72344162D01*
X150436833Y-72343838D01*
X150093057Y-72485883D01*
X149829808Y-72748673D01*
X149687162Y-73092201D01*
X149686838Y-73464167D01*
X144760220Y-73464167D01*
X144760220Y-69084265D01*
X152780670Y-69084265D01*
X153070078Y-69784686D01*
X153459842Y-70175131D01*
X153441585Y-70187330D01*
X153116729Y-70673511D01*
X153002655Y-71247000D01*
X153116729Y-71820489D01*
X153441585Y-72306670D01*
X153751069Y-72513461D01*
X153335268Y-72884964D01*
X153081291Y-73412209D01*
X153078642Y-73427974D01*
X153199783Y-73660000D01*
X154559000Y-73660000D01*
X154559000Y-73640000D01*
X154813000Y-73640000D01*
X154813000Y-73660000D01*
X156172217Y-73660000D01*
X156293358Y-73427974D01*
X156290709Y-73412209D01*
X156036732Y-72884964D01*
X155620931Y-72513461D01*
X155930415Y-72306670D01*
X156255271Y-71820489D01*
X156369345Y-71247000D01*
X156255271Y-70673511D01*
X155930415Y-70187330D01*
X155911905Y-70174962D01*
X156300039Y-69787505D01*
X156590668Y-69087590D01*
X156591330Y-68329735D01*
X156301922Y-67629314D01*
X155766505Y-67092961D01*
X155066590Y-66802332D01*
X154308735Y-66801670D01*
X153608314Y-67091078D01*
X153071961Y-67626495D01*
X152781332Y-68326410D01*
X152780670Y-69084265D01*
X144760220Y-69084265D01*
X144760220Y-66403220D01*
X144702368Y-66112381D01*
X144537621Y-65865819D01*
X143810122Y-65138320D01*
X143810162Y-65092833D01*
X143668117Y-64749057D01*
X143405327Y-64485808D01*
X143061799Y-64343162D01*
X142689833Y-64342838D01*
X142346057Y-64484883D01*
X142082808Y-64747673D01*
X141940162Y-65091201D01*
X141940134Y-65123088D01*
X141783824Y-65187674D01*
X141520575Y-65450464D01*
X141377929Y-65793992D01*
X141377605Y-66165958D01*
X141519650Y-66509734D01*
X141782440Y-66772983D01*
X141824001Y-66790241D01*
X141824001Y-72235994D01*
X141824000Y-72235999D01*
X141847655Y-72354917D01*
X141838057Y-72358883D01*
X141574808Y-72621673D01*
X141432162Y-72965201D01*
X141431838Y-73337167D01*
X141573883Y-73680943D01*
X141607000Y-73714118D01*
X141607000Y-74875538D01*
X141574808Y-74907674D01*
X141432162Y-75251202D01*
X141431838Y-75623168D01*
X141524473Y-75847363D01*
X141320808Y-76050673D01*
X141178162Y-76394201D01*
X141177838Y-76766167D01*
X141041989Y-76766167D01*
X141129345Y-76327000D01*
X141015271Y-75753511D01*
X140690415Y-75267330D01*
X140375634Y-75057000D01*
X140690415Y-74846670D01*
X141015271Y-74360489D01*
X141129345Y-73787000D01*
X141015271Y-73213511D01*
X140690415Y-72727330D01*
X140375634Y-72517000D01*
X140690415Y-72306670D01*
X141015271Y-71820489D01*
X141129345Y-71247000D01*
X141015271Y-70673511D01*
X140690415Y-70187330D01*
X140671905Y-70174962D01*
X141060039Y-69787505D01*
X141350668Y-69087590D01*
X141351330Y-68329735D01*
X141061922Y-67629314D01*
X140526505Y-67092961D01*
X139826590Y-66802332D01*
X139068735Y-66801670D01*
X138368314Y-67091078D01*
X137831961Y-67626495D01*
X137541332Y-68326410D01*
X137540670Y-69084265D01*
X137450009Y-69084265D01*
X137450009Y-66691075D01*
X137698192Y-66443325D01*
X137840838Y-66099797D01*
X137841162Y-65727831D01*
X137699117Y-65384055D01*
X137436327Y-65120806D01*
X137092799Y-64978160D01*
X137079151Y-64978148D01*
X137079162Y-64965833D01*
X136937117Y-64622057D01*
X136674327Y-64358808D01*
X136330799Y-64216162D01*
X135958833Y-64215838D01*
X135615057Y-64357883D01*
X135351808Y-64620673D01*
X135209162Y-64964201D01*
X135209121Y-65011077D01*
X134971599Y-65248599D01*
X134806852Y-65495161D01*
X134749000Y-65786000D01*
X134749000Y-70340897D01*
X134679799Y-70312162D01*
X134307833Y-70311838D01*
X133964057Y-70453883D01*
X133700808Y-70716673D01*
X133558162Y-71060201D01*
X133557838Y-71432167D01*
X133699883Y-71775943D01*
X133733000Y-71809118D01*
X133733000Y-74853013D01*
X133693102Y-74852978D01*
X133349326Y-74995023D01*
X133086077Y-75257813D01*
X132943431Y-75601341D01*
X132943107Y-75973307D01*
X125818992Y-75973307D01*
X125775271Y-75753511D01*
X125450415Y-75267330D01*
X125140931Y-75060539D01*
X125556732Y-74689036D01*
X125810709Y-74161791D01*
X125813358Y-74146026D01*
X125692217Y-73914000D01*
X124333000Y-73914000D01*
X124333000Y-73934000D01*
X124079000Y-73934000D01*
X124079000Y-73914000D01*
X122719783Y-73914000D01*
X122598642Y-74146026D01*
X122601291Y-74161791D01*
X122855268Y-74689036D01*
X123271069Y-75060539D01*
X122961585Y-75267330D01*
X122636729Y-75753511D01*
X122522655Y-76327000D01*
X113740000Y-76327000D01*
X113740000Y-71247000D01*
X122522655Y-71247000D01*
X122636729Y-71820489D01*
X122961585Y-72306670D01*
X123271069Y-72513461D01*
X122855268Y-72884964D01*
X122601291Y-73412209D01*
X122598642Y-73427974D01*
X122719783Y-73660000D01*
X124079000Y-73660000D01*
X124079000Y-73640000D01*
X124333000Y-73640000D01*
X124333000Y-73660000D01*
X125692217Y-73660000D01*
X125813358Y-73427974D01*
X125810709Y-73412209D01*
X125556732Y-72884964D01*
X125140931Y-72513461D01*
X125450415Y-72306670D01*
X125775271Y-71820489D01*
X125889345Y-71247000D01*
X125775271Y-70673511D01*
X125450415Y-70187330D01*
X124964234Y-69862474D01*
X124390745Y-69748400D01*
X124021255Y-69748400D01*
X123447766Y-69862474D01*
X122961585Y-70187330D01*
X122636729Y-70673511D01*
X122522655Y-71247000D01*
X113740000Y-71247000D01*
X113740000Y-65440221D01*
X113882564Y-65653583D01*
X114980737Y-66387359D01*
X116276120Y-66645027D01*
X117571503Y-66387359D01*
X118669676Y-65653583D01*
X119403452Y-64555410D01*
X119661120Y-63260027D01*
X119661120Y-61088213D01*
X119403452Y-59792830D01*
X118790846Y-58876000D01*
X155642546Y-58876000D01*
X155529175Y-58951752D01*
X155529175Y-58951752D01*
G37*
X155529175Y-58951752D02*
X153993472Y-60487456D01*
X153259696Y-61585628D01*
X153002029Y-62881012D01*
X153259696Y-64176396D01*
X153993472Y-65274568D01*
X155091644Y-66008344D01*
X156387028Y-66266011D01*
X157682412Y-66008344D01*
X158780584Y-65274568D01*
X160316288Y-63738865D01*
X160326000Y-63724330D01*
X160326000Y-116687567D01*
X159348210Y-116034228D01*
X158052827Y-115776560D01*
X155881013Y-115776560D01*
X154585630Y-116034228D01*
X153487457Y-116768004D01*
X152753681Y-117866177D01*
X152496013Y-119161560D01*
X152753681Y-120456943D01*
X153426575Y-121464000D01*
X118567807Y-121464000D01*
X119012030Y-121020552D01*
X119528451Y-119776872D01*
X119529626Y-118430236D01*
X119015377Y-117185657D01*
X118063992Y-116232610D01*
X116820312Y-115716189D01*
X115473676Y-115715014D01*
X114229097Y-116229263D01*
X113740000Y-116717507D01*
X113740000Y-88946003D01*
X114637001Y-88946003D01*
X114637001Y-112771091D01*
X114694853Y-113061930D01*
X114859600Y-113308492D01*
X115461644Y-113910536D01*
X115442882Y-113955721D01*
X115442558Y-114327687D01*
X115584603Y-114671463D01*
X115847393Y-114934712D01*
X116190921Y-115077358D01*
X116224240Y-115077387D01*
X116295803Y-115250583D01*
X116558593Y-115513832D01*
X116902121Y-115656478D01*
X117274087Y-115656802D01*
X117428772Y-115592887D01*
X118589305Y-116753420D01*
X118835867Y-116918167D01*
X119126706Y-116976019D01*
X120854216Y-116976020D01*
X122508876Y-118630680D01*
X122508836Y-118676167D01*
X122650881Y-119019943D01*
X122913671Y-119283192D01*
X123257199Y-119425838D01*
X123629165Y-119426162D01*
X123972941Y-119284117D01*
X123973050Y-119284008D01*
X124174439Y-119367632D01*
X124546405Y-119367956D01*
X124890181Y-119225911D01*
X125098192Y-119018263D01*
X125162201Y-119044842D01*
X125534167Y-119045166D01*
X125877943Y-118903121D01*
X126141192Y-118640331D01*
X126283838Y-118296803D01*
X126284162Y-117924837D01*
X126142117Y-117581061D01*
X125879327Y-117317812D01*
X125535799Y-117175166D01*
X125440451Y-117175083D01*
X125339840Y-117107857D01*
X125049001Y-117050005D01*
X124728807Y-117050005D01*
X122457401Y-114778599D01*
X122210839Y-114613852D01*
X122171215Y-114605970D01*
X122197207Y-114600800D01*
X122647542Y-114299896D01*
X122936000Y-113868188D01*
X123224458Y-114299896D01*
X123674793Y-114600800D01*
X124206000Y-114706464D01*
X124737207Y-114600800D01*
X125187542Y-114299896D01*
X125488446Y-113849561D01*
X125594110Y-113318354D01*
X125594110Y-111725646D01*
X125488446Y-111194439D01*
X125187542Y-110744104D01*
X124737207Y-110443200D01*
X124206000Y-110337536D01*
X123674793Y-110443200D01*
X123224458Y-110744104D01*
X122936000Y-111175812D01*
X122647542Y-110744104D01*
X122448406Y-110611046D01*
X122473838Y-110549799D01*
X122474162Y-110177833D01*
X122424000Y-110056431D01*
X122424000Y-108637822D01*
X122473838Y-108517799D01*
X122474162Y-108145833D01*
X122472286Y-108141293D01*
X122875598Y-107737981D01*
X122961585Y-107866670D01*
X123447766Y-108191526D01*
X124021255Y-108305600D01*
X124390745Y-108305600D01*
X124964234Y-108191526D01*
X125450415Y-107866670D01*
X125775271Y-107380489D01*
X125820020Y-107155520D01*
X125820020Y-108922736D01*
X125853543Y-109091264D01*
X125772182Y-109287201D01*
X125771858Y-109659167D01*
X125913903Y-110002943D01*
X126176693Y-110266192D01*
X126520221Y-110408838D01*
X126892187Y-110409162D01*
X127235963Y-110267117D01*
X127499212Y-110004327D01*
X127641858Y-109660799D01*
X127642182Y-109288833D01*
X127500137Y-108945057D01*
X127432775Y-108877578D01*
X127409168Y-108758897D01*
X127340020Y-108655409D01*
X127340020Y-100237653D01*
X127655943Y-100107117D01*
X127919192Y-99844327D01*
X128061838Y-99500799D01*
X128062162Y-99128833D01*
X127920117Y-98785057D01*
X127887000Y-98751882D01*
X127887000Y-96393000D01*
X127829148Y-96102161D01*
X127829148Y-96102160D01*
X127664401Y-95855599D01*
X126792122Y-94983320D01*
X126792162Y-94937833D01*
X126650117Y-94594057D01*
X126387327Y-94330808D01*
X126043799Y-94188162D01*
X125873230Y-94188013D01*
X125889345Y-94107000D01*
X125775271Y-93533511D01*
X125450415Y-93047330D01*
X125135634Y-92837000D01*
X125450415Y-92626670D01*
X125775271Y-92140489D01*
X125889345Y-91567000D01*
X125775271Y-90993511D01*
X125450415Y-90507330D01*
X125135634Y-90297000D01*
X125450415Y-90086670D01*
X125775271Y-89600489D01*
X125889345Y-89027000D01*
X125775271Y-88453511D01*
X125450415Y-87967330D01*
X125135634Y-87757000D01*
X125450415Y-87546670D01*
X125775271Y-87060489D01*
X125889345Y-86487000D01*
X125775271Y-85913511D01*
X125450415Y-85427330D01*
X125135634Y-85217000D01*
X125450415Y-85006670D01*
X125775271Y-84520489D01*
X125889345Y-83947000D01*
X125775271Y-83373511D01*
X125450415Y-82887330D01*
X125140931Y-82680539D01*
X125556732Y-82309036D01*
X125810709Y-81781791D01*
X125813358Y-81766026D01*
X125692217Y-81534000D01*
X124333000Y-81534000D01*
X124333000Y-81554000D01*
X124079000Y-81554000D01*
X124079000Y-81534000D01*
X122719783Y-81534000D01*
X122598642Y-81766026D01*
X122601291Y-81781791D01*
X122855268Y-82309036D01*
X123271069Y-82680539D01*
X122961585Y-82887330D01*
X122636729Y-83373511D01*
X122522655Y-83947000D01*
X122636729Y-84520489D01*
X122961585Y-85006670D01*
X123276366Y-85217000D01*
X122961585Y-85427330D01*
X122636729Y-85913511D01*
X122522655Y-86487000D01*
X122636729Y-87060489D01*
X122961585Y-87546670D01*
X123276366Y-87757000D01*
X122961585Y-87967330D01*
X122636729Y-88453511D01*
X122522655Y-89027000D01*
X122636729Y-89600489D01*
X122961585Y-90086670D01*
X123276366Y-90297000D01*
X122961585Y-90507330D01*
X122636729Y-90993511D01*
X122522655Y-91567000D01*
X122636729Y-92140489D01*
X122961585Y-92626670D01*
X123276366Y-92837000D01*
X122961585Y-93047330D01*
X122636729Y-93533511D01*
X122522655Y-94107000D01*
X122636729Y-94680489D01*
X122961585Y-95166670D01*
X123276366Y-95377000D01*
X122961585Y-95587330D01*
X122636729Y-96073511D01*
X122522655Y-96647000D01*
X122636729Y-97220489D01*
X122961585Y-97706670D01*
X123276366Y-97917000D01*
X122961585Y-98127330D01*
X122636729Y-98613511D01*
X122522655Y-99187000D01*
X122636729Y-99760489D01*
X122961585Y-100246670D01*
X123276366Y-100457000D01*
X122961585Y-100667330D01*
X122636729Y-101153511D01*
X122522655Y-101727000D01*
X122636729Y-102300489D01*
X122961585Y-102786670D01*
X123271069Y-102993461D01*
X122855268Y-103364964D01*
X122601291Y-103892209D01*
X122598642Y-103907974D01*
X122719783Y-104140000D01*
X124079000Y-104140000D01*
X124079000Y-104120000D01*
X124333000Y-104120000D01*
X124333000Y-104140000D01*
X124353000Y-104140000D01*
X124353000Y-104394000D01*
X124333000Y-104394000D01*
X124333000Y-104414000D01*
X124079000Y-104414000D01*
X124079000Y-104394000D01*
X122719783Y-104394000D01*
X122598642Y-104626026D01*
X122601291Y-104641791D01*
X122855268Y-105169036D01*
X123271069Y-105540539D01*
X122961585Y-105747330D01*
X122848555Y-105916491D01*
X122741799Y-105872162D01*
X122369833Y-105871838D01*
X122026057Y-106013883D01*
X121762808Y-106276673D01*
X121712434Y-106397987D01*
X120913210Y-107197210D01*
X120721367Y-107484325D01*
X120721367Y-107484326D01*
X120653999Y-107823000D01*
X120654000Y-107823005D01*
X120654000Y-108024178D01*
X120604162Y-108144201D01*
X120603838Y-108516167D01*
X120654000Y-108637569D01*
X120654000Y-110056178D01*
X120604162Y-110176201D01*
X120603838Y-110548167D01*
X120684724Y-110743926D01*
X120684458Y-110744104D01*
X120383554Y-111194439D01*
X120382984Y-111197306D01*
X120359846Y-111119081D01*
X120017740Y-110696276D01*
X119539875Y-110436573D01*
X119467674Y-110422217D01*
X119253000Y-110544838D01*
X119253000Y-112395000D01*
X119273000Y-112395000D01*
X119273000Y-112649000D01*
X119253000Y-112649000D01*
X119253000Y-112669000D01*
X118999000Y-112669000D01*
X118999000Y-112649000D01*
X117737890Y-112649000D01*
X117737890Y-112677384D01*
X117591840Y-112648333D01*
X117589173Y-112648333D01*
X117389697Y-112688011D01*
X117457633Y-112620194D01*
X117582400Y-112319724D01*
X117706565Y-112268420D01*
X117737890Y-112237150D01*
X117737890Y-112395000D01*
X118999000Y-112395000D01*
X118999000Y-110544838D01*
X118784326Y-110422217D01*
X118712125Y-110436573D01*
X118234260Y-110696276D01*
X117991417Y-110996404D01*
X117970739Y-110946360D01*
X117937622Y-110913185D01*
X117937622Y-102720184D01*
X118249684Y-102408122D01*
X118295171Y-102408162D01*
X118638947Y-102266117D01*
X118902196Y-102003327D01*
X119044842Y-101659799D01*
X119045166Y-101287833D01*
X118903121Y-100944057D01*
X118640331Y-100680808D01*
X118296803Y-100538162D01*
X117924837Y-100537838D01*
X117581061Y-100679883D01*
X117317812Y-100942673D01*
X117175166Y-101286201D01*
X117175125Y-101333077D01*
X117125442Y-101382760D01*
X117125442Y-98325360D01*
X118249680Y-97201122D01*
X118295167Y-97201162D01*
X118638943Y-97059117D01*
X118902192Y-96796327D01*
X119044838Y-96452799D01*
X119045162Y-96080833D01*
X118903117Y-95737057D01*
X118640327Y-95473808D01*
X118296799Y-95331162D01*
X117924833Y-95330838D01*
X117581057Y-95472883D01*
X117317808Y-95735673D01*
X117175162Y-96079201D01*
X117175121Y-96126077D01*
X116665001Y-96636197D01*
X116665001Y-93832799D01*
X118376678Y-92121122D01*
X118422165Y-92121162D01*
X118765941Y-91979117D01*
X119029190Y-91716327D01*
X119171836Y-91372799D01*
X119172160Y-91000833D01*
X119030115Y-90657057D01*
X118767325Y-90393808D01*
X118423797Y-90251162D01*
X118051831Y-90250838D01*
X117708055Y-90392883D01*
X117444806Y-90655673D01*
X117302160Y-90999201D01*
X117302119Y-91046077D01*
X116157001Y-92191195D01*
X116157001Y-89260805D01*
X118249684Y-87168122D01*
X118295171Y-87168162D01*
X118638947Y-87026117D01*
X118902196Y-86763327D01*
X119044842Y-86419799D01*
X119045166Y-86047833D01*
X118903121Y-85704057D01*
X118640331Y-85440808D01*
X118296803Y-85298162D01*
X117924837Y-85297838D01*
X117581061Y-85439883D01*
X117317812Y-85702673D01*
X117175166Y-86046201D01*
X117175125Y-86093077D01*
X114859600Y-88408602D01*
X114694853Y-88655164D01*
X114637001Y-88946003D01*
X113740000Y-88946003D01*
X113740000Y-76327000D01*
X122522655Y-76327000D01*
X122636729Y-76900489D01*
X122961585Y-77386670D01*
X123276366Y-77597000D01*
X122961585Y-77807330D01*
X122636729Y-78293511D01*
X122522655Y-78867000D01*
X122636729Y-79440489D01*
X122961585Y-79926670D01*
X123271069Y-80133461D01*
X122855268Y-80504964D01*
X122601291Y-81032209D01*
X122598642Y-81047974D01*
X122719783Y-81280000D01*
X124079000Y-81280000D01*
X124079000Y-81260000D01*
X124333000Y-81260000D01*
X124333000Y-81280000D01*
X125692217Y-81280000D01*
X125813358Y-81047974D01*
X125810709Y-81032209D01*
X125591031Y-80576167D01*
X128350838Y-80576167D01*
X128492883Y-80919943D01*
X128528000Y-80955121D01*
X128528000Y-89228178D01*
X128478162Y-89348201D01*
X128477838Y-89720167D01*
X128528000Y-89841569D01*
X128528000Y-98626178D01*
X128478162Y-98746201D01*
X128477838Y-99118167D01*
X128619883Y-99461943D01*
X128782000Y-99624343D01*
X128782000Y-108151178D01*
X128732162Y-108271201D01*
X128731838Y-108643167D01*
X128873883Y-108986943D01*
X129136673Y-109250192D01*
X129480201Y-109392838D01*
X129852167Y-109393162D01*
X130195943Y-109251117D01*
X130459192Y-108988327D01*
X130601838Y-108644799D01*
X130602162Y-108272833D01*
X130552000Y-108151431D01*
X130552000Y-105976167D01*
X135091818Y-105976167D01*
X135233863Y-106319943D01*
X135266980Y-106353118D01*
X135266980Y-113674980D01*
X135324832Y-113965819D01*
X135489579Y-114212381D01*
X135716878Y-114439680D01*
X135716838Y-114485167D01*
X135858883Y-114828943D01*
X136121673Y-115092192D01*
X136465201Y-115234838D01*
X136837167Y-115235162D01*
X137180943Y-115093117D01*
X137444192Y-114830327D01*
X137586838Y-114486799D01*
X137587158Y-114119174D01*
X137688943Y-114077117D01*
X137952192Y-113814327D01*
X138094838Y-113470799D01*
X138095162Y-113098833D01*
X137953117Y-112755057D01*
X137690327Y-112491808D01*
X137597270Y-112453167D01*
X140796838Y-112453167D01*
X140938883Y-112796943D01*
X140972000Y-112830118D01*
X140972000Y-114810495D01*
X140939808Y-114842631D01*
X140797162Y-115186159D01*
X140796838Y-115558125D01*
X140938883Y-115901901D01*
X141201673Y-116165150D01*
X141545201Y-116307796D01*
X141917167Y-116308120D01*
X142260943Y-116166075D01*
X142524192Y-115903285D01*
X142666838Y-115559757D01*
X142667110Y-115247167D01*
X143336838Y-115247167D01*
X143478883Y-115590943D01*
X143741673Y-115854192D01*
X144085201Y-115996838D01*
X144457167Y-115997162D01*
X144800943Y-115855117D01*
X145064192Y-115592327D01*
X145170380Y-115336599D01*
X145175636Y-115338781D01*
X145547602Y-115339105D01*
X145891378Y-115197060D01*
X146154627Y-114934270D01*
X146297273Y-114590742D01*
X146297586Y-114231650D01*
X146461192Y-114068329D01*
X146603838Y-113724801D01*
X146604162Y-113352835D01*
X146462117Y-113009059D01*
X146429000Y-112975884D01*
X146429000Y-99191155D01*
X146439822Y-99191155D01*
X146581867Y-99534931D01*
X146844657Y-99798180D01*
X147188185Y-99940826D01*
X147235061Y-99940867D01*
X147423044Y-100128850D01*
X147423044Y-101299978D01*
X147261833Y-101299838D01*
X146918057Y-101441883D01*
X146654808Y-101704673D01*
X146512162Y-102048201D01*
X146511838Y-102420167D01*
X146653883Y-102763943D01*
X146721245Y-102831422D01*
X146744852Y-102950103D01*
X146909599Y-103196665D01*
X146941000Y-103228066D01*
X146941000Y-117172995D01*
X146893162Y-117288201D01*
X146892838Y-117660167D01*
X147034883Y-118003943D01*
X147297673Y-118267192D01*
X147346823Y-118287601D01*
X147346796Y-118318909D01*
X147488841Y-118662685D01*
X147751631Y-118925934D01*
X147851312Y-118967325D01*
X147984807Y-119290409D01*
X148247597Y-119553658D01*
X148591125Y-119696304D01*
X148888369Y-119696563D01*
X149004457Y-119812854D01*
X149347985Y-119955500D01*
X149719951Y-119955824D01*
X150063727Y-119813779D01*
X150326976Y-119550989D01*
X150469622Y-119207461D01*
X150469946Y-118835495D01*
X150327901Y-118491719D01*
X150294784Y-118458544D01*
X150294784Y-116856958D01*
X150236932Y-116566119D01*
X150072185Y-116319557D01*
X149858000Y-116105372D01*
X149858000Y-99252609D01*
X149819687Y-99060000D01*
X149800148Y-98961769D01*
X149640998Y-98723584D01*
X149640998Y-91769988D01*
X149583146Y-91479149D01*
X149418399Y-91232587D01*
X148763122Y-90577310D01*
X148763162Y-90531823D01*
X148621117Y-90188047D01*
X148358327Y-89924798D01*
X148014799Y-89782152D01*
X147642833Y-89781828D01*
X147299057Y-89923873D01*
X147035808Y-90186663D01*
X146893162Y-90530191D01*
X146892838Y-90902157D01*
X147034883Y-91245933D01*
X147297673Y-91509182D01*
X147641201Y-91651828D01*
X147688077Y-91651869D01*
X148120998Y-92084790D01*
X148120998Y-93268995D01*
X147887799Y-93172162D01*
X147515833Y-93171838D01*
X147172057Y-93313883D01*
X146908808Y-93576673D01*
X146766162Y-93920201D01*
X146765838Y-94292167D01*
X146907883Y-94635943D01*
X147170673Y-94899192D01*
X147240999Y-94928394D01*
X147240999Y-98070871D01*
X147189817Y-98070826D01*
X146846041Y-98212871D01*
X146582792Y-98475661D01*
X146440146Y-98819189D01*
X146439822Y-99191155D01*
X146429000Y-99191155D01*
X146429000Y-84455000D01*
X146371148Y-84164161D01*
X146371148Y-84164160D01*
X146223115Y-83942613D01*
X146223162Y-83888833D01*
X146081117Y-83545057D01*
X145818327Y-83281808D01*
X145474799Y-83139162D01*
X145102833Y-83138838D01*
X144759057Y-83280883D01*
X144495808Y-83543673D01*
X144353162Y-83887201D01*
X144352838Y-84259167D01*
X144494883Y-84602943D01*
X144757673Y-84866192D01*
X144909000Y-84929029D01*
X144909000Y-86567882D01*
X144858813Y-86567838D01*
X144515037Y-86709883D01*
X144251788Y-86972673D01*
X144109142Y-87316201D01*
X144108818Y-87688167D01*
X144250863Y-88031943D01*
X144318225Y-88099422D01*
X144341832Y-88218103D01*
X144458989Y-88393441D01*
X144458989Y-89996882D01*
X144408802Y-89996838D01*
X144065026Y-90138883D01*
X143801777Y-90401673D01*
X143659131Y-90745201D01*
X143658807Y-91117167D01*
X143800852Y-91460943D01*
X143833969Y-91494118D01*
X143833969Y-114231319D01*
X143743057Y-114268883D01*
X143479808Y-114531673D01*
X143337162Y-114875201D01*
X143336838Y-115247167D01*
X142667110Y-115247167D01*
X142667162Y-115187791D01*
X142525117Y-114844015D01*
X142492000Y-114810840D01*
X142492000Y-112830463D01*
X142524192Y-112798327D01*
X142666838Y-112454799D01*
X142666879Y-112407923D01*
X142690412Y-112384390D01*
X142855159Y-112137829D01*
X142880048Y-112012704D01*
X142913011Y-111846989D01*
X142913011Y-108178402D01*
X142873002Y-107977265D01*
X142873002Y-95177463D01*
X142905194Y-95145327D01*
X143047840Y-94801799D01*
X143048164Y-94429833D01*
X142906119Y-94086057D01*
X142643329Y-93822808D01*
X142299801Y-93680162D01*
X141927835Y-93679838D01*
X141584059Y-93821883D01*
X141320810Y-94084673D01*
X141178164Y-94428201D01*
X141177840Y-94800167D01*
X141319885Y-95143943D01*
X141353002Y-95177118D01*
X141353002Y-108138393D01*
X141393011Y-108339530D01*
X141393011Y-111396396D01*
X141203057Y-111474883D01*
X140939808Y-111737673D01*
X140797162Y-112081201D01*
X140796838Y-112453167D01*
X137597270Y-112453167D01*
X137462800Y-112397330D01*
X137462800Y-109724265D01*
X137540670Y-109724265D01*
X137830078Y-110424686D01*
X138365495Y-110961039D01*
X139065410Y-111251668D01*
X139823265Y-111252330D01*
X140523686Y-110962922D01*
X141060039Y-110427505D01*
X141350668Y-109727590D01*
X141351330Y-108969735D01*
X141061922Y-108269314D01*
X140672158Y-107878869D01*
X140690415Y-107866670D01*
X141015271Y-107380489D01*
X141129345Y-106807000D01*
X141015271Y-106233511D01*
X140690415Y-105747330D01*
X140375634Y-105537000D01*
X140690415Y-105326670D01*
X141015271Y-104840489D01*
X141129345Y-104267000D01*
X141015271Y-103693511D01*
X140690415Y-103207330D01*
X140375634Y-102997000D01*
X140690415Y-102786670D01*
X141015271Y-102300489D01*
X141129345Y-101727000D01*
X141015271Y-101153511D01*
X140690415Y-100667330D01*
X140375634Y-100457000D01*
X140690415Y-100246670D01*
X141015271Y-99760489D01*
X141129345Y-99187000D01*
X141015271Y-98613511D01*
X140690415Y-98127330D01*
X140375634Y-97917000D01*
X140690415Y-97706670D01*
X141015271Y-97220489D01*
X141129345Y-96647000D01*
X141015271Y-96073511D01*
X140690415Y-95587330D01*
X140375634Y-95377000D01*
X140690415Y-95166670D01*
X141015271Y-94680489D01*
X141129345Y-94107000D01*
X141015271Y-93533511D01*
X140690415Y-93047330D01*
X140375634Y-92837000D01*
X140690415Y-92626670D01*
X141015271Y-92140489D01*
X141129345Y-91567000D01*
X141015271Y-90993511D01*
X140690415Y-90507330D01*
X140375634Y-90297000D01*
X140690415Y-90086670D01*
X141015271Y-89600489D01*
X141129345Y-89027000D01*
X141015271Y-88453511D01*
X140690415Y-87967330D01*
X140375634Y-87757000D01*
X140690415Y-87546670D01*
X141015271Y-87060489D01*
X141129345Y-86487000D01*
X141015271Y-85913511D01*
X140690415Y-85427330D01*
X140375634Y-85217000D01*
X140690415Y-85006670D01*
X141015271Y-84520489D01*
X141129345Y-83947000D01*
X141015271Y-83373511D01*
X140758461Y-82989167D01*
X145876838Y-82989167D01*
X146018883Y-83332943D01*
X146281673Y-83596192D01*
X146402986Y-83646566D01*
X146943000Y-84186579D01*
X146943000Y-85799178D01*
X146893162Y-85919201D01*
X146892838Y-86291167D01*
X147034883Y-86634943D01*
X147297673Y-86898192D01*
X147641201Y-87040838D01*
X148013167Y-87041162D01*
X148356943Y-86899117D01*
X148620192Y-86636327D01*
X148762838Y-86292799D01*
X148763162Y-85920833D01*
X148713000Y-85799431D01*
X148713000Y-83820005D01*
X148713001Y-83820000D01*
X148645633Y-83481326D01*
X148645633Y-83481325D01*
X148453790Y-83194210D01*
X148453787Y-83194208D01*
X147654744Y-82395164D01*
X147605117Y-82275057D01*
X147342327Y-82011808D01*
X146998799Y-81869162D01*
X146626833Y-81868838D01*
X146283057Y-82010883D01*
X146019808Y-82273673D01*
X145877162Y-82617201D01*
X145876838Y-82989167D01*
X140758461Y-82989167D01*
X140690415Y-82887330D01*
X140375634Y-82677000D01*
X140690415Y-82466670D01*
X141015271Y-81980489D01*
X141129345Y-81407000D01*
X141015271Y-80833511D01*
X140690415Y-80347330D01*
X140380931Y-80140539D01*
X140796732Y-79769036D01*
X141050709Y-79241791D01*
X141053358Y-79226026D01*
X140932217Y-78994000D01*
X139573000Y-78994000D01*
X139573000Y-79014000D01*
X139319000Y-79014000D01*
X139319000Y-78994000D01*
X137959783Y-78994000D01*
X137838642Y-79226026D01*
X137841291Y-79241791D01*
X138095268Y-79769036D01*
X138511069Y-80140539D01*
X138201585Y-80347330D01*
X137876729Y-80833511D01*
X137762655Y-81407000D01*
X137876729Y-81980489D01*
X138201585Y-82466670D01*
X138516366Y-82677000D01*
X138201585Y-82887330D01*
X137876729Y-83373511D01*
X137762655Y-83947000D01*
X137876729Y-84520489D01*
X138201585Y-85006670D01*
X138516366Y-85217000D01*
X138201585Y-85427330D01*
X137876729Y-85913511D01*
X137762655Y-86487000D01*
X137876729Y-87060489D01*
X138201585Y-87546670D01*
X138516366Y-87757000D01*
X138201585Y-87967330D01*
X137876729Y-88453511D01*
X137762655Y-89027000D01*
X137876729Y-89600489D01*
X138201585Y-90086670D01*
X138516366Y-90297000D01*
X138201585Y-90507330D01*
X137876729Y-90993511D01*
X137762655Y-91567000D01*
X137876729Y-92140489D01*
X138201585Y-92626670D01*
X138516366Y-92837000D01*
X138201585Y-93047330D01*
X137876729Y-93533511D01*
X137762655Y-94107000D01*
X137876729Y-94680489D01*
X138201585Y-95166670D01*
X138516366Y-95377000D01*
X138201585Y-95587330D01*
X137876729Y-96073511D01*
X137762655Y-96647000D01*
X137876729Y-97220489D01*
X138201585Y-97706670D01*
X138516366Y-97917000D01*
X138201585Y-98127330D01*
X137876729Y-98613511D01*
X137762655Y-99187000D01*
X137876729Y-99760489D01*
X138201585Y-100246670D01*
X138516366Y-100457000D01*
X138201585Y-100667330D01*
X137876729Y-101153511D01*
X137762655Y-101727000D01*
X137876729Y-102300489D01*
X138201585Y-102786670D01*
X138516366Y-102997000D01*
X138201585Y-103207330D01*
X137876729Y-103693511D01*
X137762655Y-104267000D01*
X137876729Y-104840489D01*
X138201585Y-105326670D01*
X138516366Y-105537000D01*
X138201585Y-105747330D01*
X137876729Y-106233511D01*
X137762655Y-106807000D01*
X137876729Y-107380489D01*
X138201585Y-107866670D01*
X138220095Y-107879038D01*
X137831961Y-108266495D01*
X137541332Y-108966410D01*
X137540670Y-109724265D01*
X137462800Y-109724265D01*
X137462800Y-96885760D01*
X137404948Y-96594921D01*
X137240201Y-96348359D01*
X137079133Y-96240737D01*
X137079162Y-96207833D01*
X136937117Y-95864057D01*
X136674327Y-95600808D01*
X136330799Y-95458162D01*
X135958833Y-95457838D01*
X135615057Y-95599883D01*
X135351808Y-95862673D01*
X135209162Y-96206201D01*
X135208838Y-96578167D01*
X135350883Y-96921943D01*
X135613673Y-97185192D01*
X135942800Y-97321858D01*
X135942800Y-104855926D01*
X135841813Y-104855838D01*
X135498037Y-104997883D01*
X135234788Y-105260673D01*
X135092142Y-105604201D01*
X135091818Y-105976167D01*
X130552000Y-105976167D01*
X130552000Y-99187005D01*
X130552001Y-99187000D01*
X130484633Y-98848325D01*
X130484022Y-98847411D01*
X130298000Y-98569007D01*
X130298000Y-89841822D01*
X130347838Y-89721799D01*
X130348162Y-89349833D01*
X130298000Y-89228431D01*
X130298000Y-80518005D01*
X130298001Y-80518000D01*
X130230633Y-80179325D01*
X130182161Y-80106781D01*
X130177113Y-80099226D01*
X130079117Y-79862057D01*
X129816327Y-79598808D01*
X129472799Y-79456162D01*
X129100833Y-79455838D01*
X128757057Y-79597883D01*
X128493808Y-79860673D01*
X128351162Y-80204201D01*
X128350838Y-80576167D01*
X125591031Y-80576167D01*
X125556732Y-80504964D01*
X125140931Y-80133461D01*
X125450415Y-79926670D01*
X125775271Y-79440489D01*
X125889345Y-78867000D01*
X125775271Y-78293511D01*
X125450415Y-77807330D01*
X125135634Y-77597000D01*
X125450415Y-77386670D01*
X125775271Y-76900489D01*
X125889345Y-76327000D01*
X125818992Y-75973307D01*
X132943107Y-75973307D01*
X133083669Y-76313493D01*
X133050156Y-76394201D01*
X133049832Y-76766167D01*
X133191877Y-77109943D01*
X133454667Y-77373192D01*
X133798195Y-77515838D01*
X134170161Y-77516162D01*
X134513937Y-77374117D01*
X134777186Y-77111327D01*
X134919832Y-76767799D01*
X134919873Y-76720923D01*
X135130000Y-76510796D01*
X135130000Y-80076198D01*
X135098599Y-80107599D01*
X134933852Y-80354161D01*
X134876000Y-80645000D01*
X134876000Y-86813537D01*
X134843808Y-86845673D01*
X134701162Y-87189201D01*
X134700838Y-87561167D01*
X134842883Y-87904943D01*
X135105673Y-88168192D01*
X135449201Y-88310838D01*
X135821167Y-88311162D01*
X136164943Y-88169117D01*
X136428192Y-87906327D01*
X136570838Y-87562799D01*
X136571162Y-87190833D01*
X136429117Y-86847057D01*
X136396000Y-86813882D01*
X136396000Y-82214999D01*
X136583167Y-82215162D01*
X136926943Y-82073117D01*
X137190192Y-81810327D01*
X137332838Y-81466799D01*
X137333156Y-81101463D01*
X137382642Y-81027402D01*
X137450009Y-80688727D01*
X137450009Y-69084265D01*
X137540670Y-69084265D01*
X137830078Y-69784686D01*
X138219842Y-70175131D01*
X138201585Y-70187330D01*
X137876729Y-70673511D01*
X137762655Y-71247000D01*
X137876729Y-71820489D01*
X138201585Y-72306670D01*
X138516366Y-72517000D01*
X138201585Y-72727330D01*
X137876729Y-73213511D01*
X137762655Y-73787000D01*
X137876729Y-74360489D01*
X138201585Y-74846670D01*
X138516366Y-75057000D01*
X138201585Y-75267330D01*
X137876729Y-75753511D01*
X137762655Y-76327000D01*
X137876729Y-76900489D01*
X138201585Y-77386670D01*
X138511069Y-77593461D01*
X138095268Y-77964964D01*
X137841291Y-78492209D01*
X137838642Y-78507974D01*
X137959783Y-78740000D01*
X139319000Y-78740000D01*
X139319000Y-78720000D01*
X139573000Y-78720000D01*
X139573000Y-78740000D01*
X140932217Y-78740000D01*
X141053358Y-78507974D01*
X141050709Y-78492209D01*
X140796732Y-77964964D01*
X140380931Y-77593461D01*
X140690415Y-77386670D01*
X141015271Y-76900489D01*
X141041989Y-76766167D01*
X141177838Y-76766167D01*
X141319883Y-77109943D01*
X141582673Y-77373192D01*
X141926201Y-77515838D01*
X142298167Y-77516162D01*
X142419569Y-77466000D01*
X142537259Y-77466000D01*
X142537264Y-77466001D01*
X142819748Y-77409810D01*
X142875939Y-77398633D01*
X143163054Y-77206790D01*
X143540219Y-76829625D01*
X143540219Y-78825177D01*
X143471277Y-78853663D01*
X143208028Y-79116453D01*
X143065382Y-79459981D01*
X143065058Y-79831947D01*
X143207103Y-80175723D01*
X143469893Y-80438972D01*
X143813421Y-80581618D01*
X144185387Y-80581942D01*
X144529163Y-80439897D01*
X144792412Y-80177107D01*
X144935058Y-79833579D01*
X144935141Y-79738231D01*
X145002367Y-79637620D01*
X145060219Y-79346781D01*
X145060219Y-75031606D01*
X145002367Y-74740767D01*
X144837620Y-74494205D01*
X144760220Y-74416805D01*
X144760220Y-73464167D01*
X149686838Y-73464167D01*
X149828883Y-73807943D01*
X150091673Y-74071192D01*
X150243000Y-74134029D01*
X150243000Y-77034537D01*
X150210808Y-77066673D01*
X150068162Y-77410201D01*
X150067838Y-77782167D01*
X150209883Y-78125943D01*
X150472673Y-78389192D01*
X150816201Y-78531838D01*
X151188167Y-78532162D01*
X151299931Y-78485982D01*
X152022999Y-78485982D01*
X152023000Y-78485987D01*
X152023000Y-99948995D01*
X152022999Y-99949000D01*
X152068034Y-100175399D01*
X152090367Y-100287675D01*
X152164082Y-100397998D01*
X152226969Y-100492115D01*
X152226838Y-100642167D01*
X152368883Y-100985943D01*
X152631673Y-101249192D01*
X152975201Y-101391838D01*
X153069307Y-101391920D01*
X153002655Y-101727000D01*
X153116729Y-102300489D01*
X153441585Y-102786670D01*
X153756366Y-102997000D01*
X153441585Y-103207330D01*
X153116729Y-103693511D01*
X153002655Y-104267000D01*
X153116729Y-104840489D01*
X153441585Y-105326670D01*
X153756366Y-105537000D01*
X153441585Y-105747330D01*
X153116729Y-106233511D01*
X153002655Y-106807000D01*
X153116729Y-107380489D01*
X153441585Y-107866670D01*
X153460095Y-107879038D01*
X153071961Y-108266495D01*
X152781332Y-108966410D01*
X152780670Y-109724265D01*
X153070078Y-110424686D01*
X153605495Y-110961039D01*
X154305410Y-111251668D01*
X155063265Y-111252330D01*
X155763686Y-110962922D01*
X156300039Y-110427505D01*
X156590668Y-109727590D01*
X156591330Y-108969735D01*
X156301922Y-108269314D01*
X155912158Y-107878869D01*
X155930415Y-107866670D01*
X156255271Y-107380489D01*
X156369345Y-106807000D01*
X156255271Y-106233511D01*
X155930415Y-105747330D01*
X155615634Y-105537000D01*
X155930415Y-105326670D01*
X156255271Y-104840489D01*
X156369345Y-104267000D01*
X156255271Y-103693511D01*
X155930415Y-103207330D01*
X155615634Y-102997000D01*
X155930415Y-102786670D01*
X156255271Y-102300489D01*
X156318970Y-101980252D01*
X156432883Y-102255943D01*
X156595000Y-102418343D01*
X156595000Y-113481762D01*
X156433808Y-113642673D01*
X156291162Y-113986201D01*
X156290838Y-114358167D01*
X156432883Y-114701943D01*
X156695673Y-114965192D01*
X157039201Y-115107838D01*
X157411167Y-115108162D01*
X157754943Y-114966117D01*
X158018192Y-114703327D01*
X158068566Y-114582013D01*
X158105787Y-114544792D01*
X158105790Y-114544790D01*
X158297633Y-114257675D01*
X158310833Y-114191313D01*
X158365001Y-113919000D01*
X158365000Y-113918995D01*
X158365000Y-101981005D01*
X158365001Y-101981000D01*
X158297633Y-101642325D01*
X158105790Y-101355210D01*
X158105787Y-101355208D01*
X158068745Y-101318166D01*
X158019117Y-101198057D01*
X157756327Y-100934808D01*
X157412799Y-100792162D01*
X157040833Y-100791838D01*
X156697057Y-100933883D01*
X156433808Y-101196673D01*
X156318901Y-101473399D01*
X156255271Y-101153511D01*
X155930415Y-100667330D01*
X155615634Y-100457000D01*
X155930415Y-100246670D01*
X156255271Y-99760489D01*
X156369345Y-99187000D01*
X156255271Y-98613511D01*
X155930415Y-98127330D01*
X155615634Y-97917000D01*
X155930415Y-97706670D01*
X156255271Y-97220489D01*
X156369345Y-96647000D01*
X156255271Y-96073511D01*
X155930415Y-95587330D01*
X155615634Y-95377000D01*
X155930415Y-95166670D01*
X156255271Y-94680489D01*
X156369345Y-94107000D01*
X156255271Y-93533511D01*
X155930415Y-93047330D01*
X155615634Y-92837000D01*
X155930415Y-92626670D01*
X156255271Y-92140489D01*
X156369345Y-91567000D01*
X156255271Y-90993511D01*
X155930415Y-90507330D01*
X155615634Y-90297000D01*
X155930415Y-90086670D01*
X156255271Y-89600489D01*
X156369345Y-89027000D01*
X156255271Y-88453511D01*
X155930415Y-87967330D01*
X155615634Y-87757000D01*
X155930415Y-87546670D01*
X156255271Y-87060489D01*
X156369345Y-86487000D01*
X156255271Y-85913511D01*
X155930415Y-85427330D01*
X155615634Y-85217000D01*
X155930415Y-85006670D01*
X156255271Y-84520489D01*
X156369345Y-83947000D01*
X156255271Y-83373511D01*
X155930415Y-82887330D01*
X155615634Y-82677000D01*
X155930415Y-82466670D01*
X156255271Y-81980489D01*
X156369345Y-81407000D01*
X156255271Y-80833511D01*
X155930415Y-80347330D01*
X155615634Y-80137000D01*
X155930415Y-79926670D01*
X156255271Y-79440489D01*
X156369345Y-78867000D01*
X156255271Y-78293511D01*
X155930415Y-77807330D01*
X155615634Y-77597000D01*
X155930415Y-77386670D01*
X156255271Y-76900489D01*
X156369345Y-76327000D01*
X156255271Y-75753511D01*
X155930415Y-75267330D01*
X155620931Y-75060539D01*
X156036732Y-74689036D01*
X156290709Y-74161791D01*
X156293358Y-74146026D01*
X156172217Y-73914000D01*
X154813000Y-73914000D01*
X154813000Y-73934000D01*
X154559000Y-73934000D01*
X154559000Y-73914000D01*
X153199783Y-73914000D01*
X153078642Y-74146026D01*
X153081291Y-74161791D01*
X153335268Y-74689036D01*
X153751069Y-75060539D01*
X153441585Y-75267330D01*
X153116729Y-75753511D01*
X153002655Y-76327000D01*
X153116729Y-76900489D01*
X153215943Y-77048973D01*
X152887057Y-77184865D01*
X152623808Y-77447655D01*
X152573434Y-77568968D01*
X152490211Y-77652191D01*
X152490209Y-77652194D01*
X152282210Y-77860192D01*
X152090367Y-78147307D01*
X152090367Y-78147308D01*
X152022999Y-78485982D01*
X151299931Y-78485982D01*
X151531943Y-78390117D01*
X151795192Y-78127327D01*
X151937838Y-77783799D01*
X151938162Y-77411833D01*
X151796117Y-77068057D01*
X151763000Y-77034882D01*
X151763000Y-73660000D01*
X151705148Y-73369161D01*
X151705148Y-73369160D01*
X151557115Y-73147613D01*
X151557162Y-73093833D01*
X151415117Y-72750057D01*
X151152327Y-72486808D01*
X150808799Y-72344162D01*
X150436833Y-72343838D01*
X150093057Y-72485883D01*
X149829808Y-72748673D01*
X149687162Y-73092201D01*
X149686838Y-73464167D01*
X144760220Y-73464167D01*
X144760220Y-69084265D01*
X152780670Y-69084265D01*
X153070078Y-69784686D01*
X153459842Y-70175131D01*
X153441585Y-70187330D01*
X153116729Y-70673511D01*
X153002655Y-71247000D01*
X153116729Y-71820489D01*
X153441585Y-72306670D01*
X153751069Y-72513461D01*
X153335268Y-72884964D01*
X153081291Y-73412209D01*
X153078642Y-73427974D01*
X153199783Y-73660000D01*
X154559000Y-73660000D01*
X154559000Y-73640000D01*
X154813000Y-73640000D01*
X154813000Y-73660000D01*
X156172217Y-73660000D01*
X156293358Y-73427974D01*
X156290709Y-73412209D01*
X156036732Y-72884964D01*
X155620931Y-72513461D01*
X155930415Y-72306670D01*
X156255271Y-71820489D01*
X156369345Y-71247000D01*
X156255271Y-70673511D01*
X155930415Y-70187330D01*
X155911905Y-70174962D01*
X156300039Y-69787505D01*
X156590668Y-69087590D01*
X156591330Y-68329735D01*
X156301922Y-67629314D01*
X155766505Y-67092961D01*
X155066590Y-66802332D01*
X154308735Y-66801670D01*
X153608314Y-67091078D01*
X153071961Y-67626495D01*
X152781332Y-68326410D01*
X152780670Y-69084265D01*
X144760220Y-69084265D01*
X144760220Y-66403220D01*
X144702368Y-66112381D01*
X144537621Y-65865819D01*
X143810122Y-65138320D01*
X143810162Y-65092833D01*
X143668117Y-64749057D01*
X143405327Y-64485808D01*
X143061799Y-64343162D01*
X142689833Y-64342838D01*
X142346057Y-64484883D01*
X142082808Y-64747673D01*
X141940162Y-65091201D01*
X141940134Y-65123088D01*
X141783824Y-65187674D01*
X141520575Y-65450464D01*
X141377929Y-65793992D01*
X141377605Y-66165958D01*
X141519650Y-66509734D01*
X141782440Y-66772983D01*
X141824001Y-66790241D01*
X141824001Y-72235994D01*
X141824000Y-72235999D01*
X141847655Y-72354917D01*
X141838057Y-72358883D01*
X141574808Y-72621673D01*
X141432162Y-72965201D01*
X141431838Y-73337167D01*
X141573883Y-73680943D01*
X141607000Y-73714118D01*
X141607000Y-74875538D01*
X141574808Y-74907674D01*
X141432162Y-75251202D01*
X141431838Y-75623168D01*
X141524473Y-75847363D01*
X141320808Y-76050673D01*
X141178162Y-76394201D01*
X141177838Y-76766167D01*
X141041989Y-76766167D01*
X141129345Y-76327000D01*
X141015271Y-75753511D01*
X140690415Y-75267330D01*
X140375634Y-75057000D01*
X140690415Y-74846670D01*
X141015271Y-74360489D01*
X141129345Y-73787000D01*
X141015271Y-73213511D01*
X140690415Y-72727330D01*
X140375634Y-72517000D01*
X140690415Y-72306670D01*
X141015271Y-71820489D01*
X141129345Y-71247000D01*
X141015271Y-70673511D01*
X140690415Y-70187330D01*
X140671905Y-70174962D01*
X141060039Y-69787505D01*
X141350668Y-69087590D01*
X141351330Y-68329735D01*
X141061922Y-67629314D01*
X140526505Y-67092961D01*
X139826590Y-66802332D01*
X139068735Y-66801670D01*
X138368314Y-67091078D01*
X137831961Y-67626495D01*
X137541332Y-68326410D01*
X137540670Y-69084265D01*
X137450009Y-69084265D01*
X137450009Y-66691075D01*
X137698192Y-66443325D01*
X137840838Y-66099797D01*
X137841162Y-65727831D01*
X137699117Y-65384055D01*
X137436327Y-65120806D01*
X137092799Y-64978160D01*
X137079151Y-64978148D01*
X137079162Y-64965833D01*
X136937117Y-64622057D01*
X136674327Y-64358808D01*
X136330799Y-64216162D01*
X135958833Y-64215838D01*
X135615057Y-64357883D01*
X135351808Y-64620673D01*
X135209162Y-64964201D01*
X135209121Y-65011077D01*
X134971599Y-65248599D01*
X134806852Y-65495161D01*
X134749000Y-65786000D01*
X134749000Y-70340897D01*
X134679799Y-70312162D01*
X134307833Y-70311838D01*
X133964057Y-70453883D01*
X133700808Y-70716673D01*
X133558162Y-71060201D01*
X133557838Y-71432167D01*
X133699883Y-71775943D01*
X133733000Y-71809118D01*
X133733000Y-74853013D01*
X133693102Y-74852978D01*
X133349326Y-74995023D01*
X133086077Y-75257813D01*
X132943431Y-75601341D01*
X132943107Y-75973307D01*
X125818992Y-75973307D01*
X125775271Y-75753511D01*
X125450415Y-75267330D01*
X125140931Y-75060539D01*
X125556732Y-74689036D01*
X125810709Y-74161791D01*
X125813358Y-74146026D01*
X125692217Y-73914000D01*
X124333000Y-73914000D01*
X124333000Y-73934000D01*
X124079000Y-73934000D01*
X124079000Y-73914000D01*
X122719783Y-73914000D01*
X122598642Y-74146026D01*
X122601291Y-74161791D01*
X122855268Y-74689036D01*
X123271069Y-75060539D01*
X122961585Y-75267330D01*
X122636729Y-75753511D01*
X122522655Y-76327000D01*
X113740000Y-76327000D01*
X113740000Y-71247000D01*
X122522655Y-71247000D01*
X122636729Y-71820489D01*
X122961585Y-72306670D01*
X123271069Y-72513461D01*
X122855268Y-72884964D01*
X122601291Y-73412209D01*
X122598642Y-73427974D01*
X122719783Y-73660000D01*
X124079000Y-73660000D01*
X124079000Y-73640000D01*
X124333000Y-73640000D01*
X124333000Y-73660000D01*
X125692217Y-73660000D01*
X125813358Y-73427974D01*
X125810709Y-73412209D01*
X125556732Y-72884964D01*
X125140931Y-72513461D01*
X125450415Y-72306670D01*
X125775271Y-71820489D01*
X125889345Y-71247000D01*
X125775271Y-70673511D01*
X125450415Y-70187330D01*
X124964234Y-69862474D01*
X124390745Y-69748400D01*
X124021255Y-69748400D01*
X123447766Y-69862474D01*
X122961585Y-70187330D01*
X122636729Y-70673511D01*
X122522655Y-71247000D01*
X113740000Y-71247000D01*
X113740000Y-65440221D01*
X113882564Y-65653583D01*
X114980737Y-66387359D01*
X116276120Y-66645027D01*
X117571503Y-66387359D01*
X118669676Y-65653583D01*
X119403452Y-64555410D01*
X119661120Y-63260027D01*
X119661120Y-61088213D01*
X119403452Y-59792830D01*
X118790846Y-58876000D01*
X155642546Y-58876000D01*
X155529175Y-58951752D01*
G36*
X120383554Y-113849561D02*
X120684458Y-114299896D01*
X121067745Y-114556000D01*
X119814309Y-114556000D01*
X119750998Y-114492689D01*
X120017740Y-114347724D01*
X120359846Y-113924919D01*
X120382984Y-113846694D01*
X120383554Y-113849561D01*
X120383554Y-113849561D01*
G37*
X120383554Y-113849561D02*
X120684458Y-114299896D01*
X121067745Y-114556000D01*
X119814309Y-114556000D01*
X119750998Y-114492689D01*
X120017740Y-114347724D01*
X120359846Y-113924919D01*
X120382984Y-113846694D01*
X120383554Y-113849561D01*
G36*
X125820020Y-106458480D02*
X125775271Y-106233511D01*
X125450415Y-105747330D01*
X125140931Y-105540539D01*
X125556732Y-105169036D01*
X125810709Y-104641791D01*
X125813358Y-104626026D01*
X125692218Y-104394002D01*
X125820020Y-104394002D01*
X125820020Y-106458480D01*
X125820020Y-106458480D01*
G37*
X125820020Y-106458480D02*
X125775271Y-106233511D01*
X125450415Y-105747330D01*
X125140931Y-105540539D01*
X125556732Y-105169036D01*
X125810709Y-104641791D01*
X125813358Y-104626026D01*
X125692218Y-104394002D01*
X125820020Y-104394002D01*
X125820020Y-106458480D01*
G36*
X125820020Y-104139998D02*
X125692218Y-104139998D01*
X125813358Y-103907974D01*
X125810709Y-103892209D01*
X125556732Y-103364964D01*
X125140931Y-102993461D01*
X125450415Y-102786670D01*
X125775271Y-102300489D01*
X125820020Y-102075520D01*
X125820020Y-104139998D01*
X125820020Y-104139998D01*
G37*
X125820020Y-104139998D02*
X125692218Y-104139998D01*
X125813358Y-103907974D01*
X125810709Y-103892209D01*
X125556732Y-103364964D01*
X125140931Y-102993461D01*
X125450415Y-102786670D01*
X125775271Y-102300489D01*
X125820020Y-102075520D01*
X125820020Y-104139998D01*
G36*
X125700599Y-100175399D02*
X125820020Y-100294820D01*
X125820020Y-101378480D01*
X125775271Y-101153511D01*
X125450415Y-100667330D01*
X125135634Y-100457000D01*
X125450415Y-100246670D01*
X125599318Y-100023821D01*
X125700599Y-100175399D01*
X125700599Y-100175399D01*
G37*
X125700599Y-100175399D02*
X125820020Y-100294820D01*
X125820020Y-101378480D01*
X125775271Y-101153511D01*
X125450415Y-100667330D01*
X125135634Y-100457000D01*
X125450415Y-100246670D01*
X125599318Y-100023821D01*
X125700599Y-100175399D01*
G36*
X126367000Y-96707802D02*
X126367000Y-98125112D01*
X126052833Y-98124838D01*
X125709057Y-98266883D01*
X125609840Y-98365927D01*
X125450415Y-98127330D01*
X125135634Y-97917000D01*
X125450415Y-97706670D01*
X125775271Y-97220489D01*
X125889345Y-96647000D01*
X125785839Y-96126641D01*
X126367000Y-96707802D01*
X126367000Y-96707802D01*
G37*
X126367000Y-96707802D02*
X126367000Y-98125112D01*
X126052833Y-98124838D01*
X125709057Y-98266883D01*
X125609840Y-98365927D01*
X125450415Y-98127330D01*
X125135634Y-97917000D01*
X125450415Y-97706670D01*
X125775271Y-97220489D01*
X125889345Y-96647000D01*
X125785839Y-96126641D01*
X126367000Y-96707802D01*
M02*
