G04 #@! TF.FileFunction,Soldermask,Top*
%FSLAX46Y46*%
G04 Gerber Fmt 4.6, Leading zero omitted, Abs format (unit mm)*
G04 Created by KiCad (PCBNEW 4.0.7) date 07/05/18 08:47:22*
%MOMM*%
%LPD*%
G01*
G04 APERTURE LIST*
%ADD10C,0.100000*%
%ADD11R,0.750000X0.800000*%
%ADD12R,0.800000X0.750000*%
%ADD13R,1.000000X1.250000*%
%ADD14R,3.299460X2.499360*%
%ADD15R,2.499360X2.301240*%
%ADD16R,0.800100X0.800100*%
%ADD17R,0.900000X0.500000*%
%ADD18R,0.700000X1.300000*%
%ADD19R,0.500000X0.900000*%
%ADD20R,1.501140X1.000760*%
%ADD21R,2.999740X1.998980*%
%ADD22O,2.032000X1.727200*%
%ADD23R,0.450000X0.590000*%
%ADD24C,2.540000*%
%ADD25O,1.506220X3.014980*%
%ADD26C,5.500000*%
%ADD27O,7.500000X5.500000*%
%ADD28C,5.500000*%
%ADD29O,5.500000X7.500000*%
G04 APERTURE END LIST*
D10*
D11*
X151892000Y-72251000D03*
X151892000Y-70751000D03*
X151892000Y-75299000D03*
X151892000Y-73799000D03*
X134747000Y-84062000D03*
X134747000Y-82562000D03*
D12*
X130798000Y-87249000D03*
X129298000Y-87249000D03*
D11*
X121666000Y-85713000D03*
X121666000Y-84213000D03*
D12*
X150634000Y-99187000D03*
X152134000Y-99187000D03*
D13*
X132699000Y-80391000D03*
X130699000Y-80391000D03*
D11*
X152019000Y-103239000D03*
X152019000Y-101739000D03*
D14*
X146685000Y-76807060D03*
X146685000Y-70004940D03*
D15*
X146949160Y-80772000D03*
X151246840Y-80772000D03*
D16*
X142001240Y-79568000D03*
X142001240Y-81468000D03*
X144000220Y-80518000D03*
D17*
X146685000Y-74029000D03*
X146685000Y-72529000D03*
X136398000Y-82562000D03*
X136398000Y-84062000D03*
D18*
X132527000Y-87376000D03*
X134427000Y-87376000D03*
D19*
X148705000Y-100965000D03*
X147205000Y-100965000D03*
X121527000Y-87503000D03*
X120027000Y-87503000D03*
D20*
X130756660Y-85448140D03*
X130756660Y-83947000D03*
X130756660Y-82445860D03*
D21*
X127805180Y-83947000D03*
D10*
G36*
X129279650Y-82946240D02*
X130028950Y-83446620D01*
X130028950Y-84447380D01*
X129279650Y-84947760D01*
X129279650Y-82946240D01*
X129279650Y-82946240D01*
G37*
D11*
X134493000Y-92952000D03*
X134493000Y-91452000D03*
D12*
X130671000Y-96139000D03*
X129171000Y-96139000D03*
D11*
X134366000Y-102350000D03*
X134366000Y-100850000D03*
D12*
X130671000Y-105791000D03*
X129171000Y-105791000D03*
D13*
X132699000Y-89535000D03*
X130699000Y-89535000D03*
X132826000Y-98933000D03*
X130826000Y-98933000D03*
D11*
X121666000Y-90666000D03*
X121666000Y-89166000D03*
X121666000Y-95873000D03*
X121666000Y-94373000D03*
D12*
X150634000Y-96647000D03*
X152134000Y-96647000D03*
X150634000Y-94107000D03*
X152134000Y-94107000D03*
D11*
X136550400Y-111707360D03*
X136550400Y-110207360D03*
D12*
X131433000Y-115189000D03*
X129933000Y-115189000D03*
D13*
X133334000Y-108458000D03*
X131334000Y-108458000D03*
D11*
X121666000Y-100953000D03*
X121666000Y-99453000D03*
D12*
X150634000Y-91567000D03*
X152134000Y-91567000D03*
D11*
X121539000Y-106057000D03*
X121539000Y-107557000D03*
D22*
X124206000Y-71247000D03*
X124206000Y-73787000D03*
X124206000Y-76327000D03*
X124206000Y-78867000D03*
X124206000Y-81407000D03*
X124206000Y-83947000D03*
X124206000Y-86487000D03*
X124206000Y-89027000D03*
X124206000Y-91567000D03*
X124206000Y-94107000D03*
X124206000Y-96647000D03*
X124206000Y-99187000D03*
X124206000Y-101727000D03*
X124206000Y-104267000D03*
X124206000Y-106807000D03*
D16*
X142001240Y-82997000D03*
X142001240Y-84897000D03*
X144000220Y-83947000D03*
X142001240Y-86426000D03*
X142001240Y-88326000D03*
X144000220Y-87376000D03*
D20*
X130629660Y-94338140D03*
X130629660Y-92837000D03*
X130629660Y-91335860D03*
D21*
X127678180Y-92837000D03*
D10*
G36*
X129152650Y-91836240D02*
X129901950Y-92336620D01*
X129901950Y-93337380D01*
X129152650Y-93837760D01*
X129152650Y-91836240D01*
X129152650Y-91836240D01*
G37*
D20*
X130629660Y-103736140D03*
X130629660Y-102235000D03*
X130629660Y-100733860D03*
D21*
X127678180Y-102235000D03*
D10*
G36*
X129152650Y-101234240D02*
X129901950Y-101734620D01*
X129901950Y-102735380D01*
X129152650Y-103235760D01*
X129152650Y-101234240D01*
X129152650Y-101234240D01*
G37*
D16*
X142001240Y-89855000D03*
X142001240Y-91755000D03*
X144000220Y-90805000D03*
D20*
X131264660Y-113261140D03*
X131264660Y-111760000D03*
X131264660Y-110258860D03*
D21*
X128313180Y-111760000D03*
D10*
G36*
X129787650Y-110759240D02*
X130536950Y-111259620D01*
X130536950Y-112260380D01*
X129787650Y-112760760D01*
X129787650Y-110759240D01*
X129787650Y-110759240D01*
G37*
D18*
X133035000Y-96139000D03*
X134935000Y-96139000D03*
X132908000Y-105791000D03*
X134808000Y-105791000D03*
D17*
X136144000Y-91325000D03*
X136144000Y-92825000D03*
X136017000Y-100850000D03*
X136017000Y-102350000D03*
D19*
X121654000Y-92710000D03*
X120154000Y-92710000D03*
X121654000Y-97790000D03*
X120154000Y-97790000D03*
X148959000Y-97663000D03*
X147459000Y-97663000D03*
X149213000Y-92710000D03*
X147713000Y-92710000D03*
D18*
X133162000Y-114935000D03*
X135062000Y-114935000D03*
D17*
X134995920Y-110242920D03*
X134995920Y-111742920D03*
D19*
X121654000Y-102743000D03*
X120154000Y-102743000D03*
X149340000Y-89789000D03*
X147840000Y-89789000D03*
D12*
X118508080Y-108315760D03*
X120008080Y-108315760D03*
D23*
X132842000Y-82257000D03*
X132842000Y-84367000D03*
X119761000Y-84035000D03*
X119761000Y-86145000D03*
X119761000Y-88988000D03*
X119761000Y-91098000D03*
X119888000Y-94195000D03*
X119888000Y-96305000D03*
X132715000Y-91147000D03*
X132715000Y-93257000D03*
X132588000Y-100545000D03*
X132588000Y-102655000D03*
X119888000Y-99275000D03*
X119888000Y-101385000D03*
X133223000Y-110070000D03*
X133223000Y-112180000D03*
D22*
X139446000Y-71247000D03*
X139446000Y-73787000D03*
X139446000Y-76327000D03*
X139446000Y-78867000D03*
X139446000Y-81407000D03*
X139446000Y-83947000D03*
X139446000Y-86487000D03*
X139446000Y-89027000D03*
X139446000Y-91567000D03*
X139446000Y-94107000D03*
X139446000Y-96647000D03*
X139446000Y-99187000D03*
X139446000Y-101727000D03*
X139446000Y-104267000D03*
X139446000Y-106807000D03*
X154686000Y-71247000D03*
X154686000Y-73787000D03*
X154686000Y-76327000D03*
X154686000Y-78867000D03*
X154686000Y-81407000D03*
X154686000Y-83947000D03*
X154686000Y-86487000D03*
X154686000Y-89027000D03*
X154686000Y-91567000D03*
X154686000Y-94107000D03*
X154686000Y-96647000D03*
X154686000Y-99187000D03*
X154686000Y-101727000D03*
X154686000Y-104267000D03*
X154686000Y-106807000D03*
D24*
X139446000Y-68707000D03*
X139446000Y-109347000D03*
X154686000Y-109347000D03*
X154686000Y-68707000D03*
D25*
X119126000Y-112522000D03*
X121666000Y-112522000D03*
X124206000Y-112522000D03*
D26*
X157861987Y-61406053D02*
X156447773Y-62820267D01*
D27*
X156966920Y-119161560D03*
D28*
X116144040Y-119100600D03*
D29*
X116276120Y-62174120D03*
D11*
X151302720Y-88761000D03*
X151302720Y-87261000D03*
D19*
X151311040Y-86070440D03*
X149811040Y-86070440D03*
D17*
X152400000Y-85102000D03*
X152400000Y-86602000D03*
M02*
