G04 #@! TF.FileFunction,Drawing*
%FSLAX46Y46*%
G04 Gerber Fmt 4.6, Leading zero omitted, Abs format (unit mm)*
G04 Created by KiCad (PCBNEW 4.0.7) date 07/05/18 08:47:22*
%MOMM*%
%LPD*%
G01*
G04 APERTURE LIST*
%ADD10C,0.100000*%
%ADD11C,0.300000*%
%ADD12C,0.150000*%
G04 APERTURE END LIST*
D10*
D11*
X105832202Y-54294550D02*
X105840907Y-55223080D01*
X105264816Y-54728459D01*
X105266825Y-54942736D01*
X105196738Y-55086256D01*
X105125983Y-55158352D01*
X104983802Y-55231116D01*
X104626674Y-55234464D01*
X104483154Y-55164378D01*
X104411059Y-55093622D01*
X104338295Y-54951441D01*
X104334277Y-54522888D01*
X104404362Y-54379367D01*
X104475119Y-54307273D01*
X104489850Y-55878632D02*
X104419094Y-55950726D01*
X104346999Y-55879971D01*
X104417755Y-55807876D01*
X104489850Y-55878632D01*
X104346999Y-55879971D01*
X105710108Y-56510077D02*
X105782204Y-56580833D01*
X105854969Y-56723015D01*
X105858317Y-57080142D01*
X105788230Y-57223662D01*
X105717474Y-57295758D01*
X105575293Y-57368522D01*
X105432442Y-57369861D01*
X105217496Y-57300445D01*
X104352356Y-56451375D01*
X104361061Y-57379905D01*
X105873718Y-58722927D02*
X105867022Y-58008672D01*
X105152098Y-57943942D01*
X105224192Y-58014699D01*
X105296957Y-58156880D01*
X105300305Y-58514007D01*
X105230219Y-58657527D01*
X105159463Y-58729623D01*
X105017282Y-58802387D01*
X104660155Y-58805735D01*
X104516635Y-58735649D01*
X104444539Y-58664893D01*
X104371775Y-58522712D01*
X104368427Y-58165585D01*
X104438513Y-58022064D01*
X104509269Y-57949969D01*
X104387846Y-60236922D02*
X104379811Y-59379816D01*
X104383828Y-59808369D02*
X105883762Y-59794308D01*
X105668146Y-59653466D01*
X105523957Y-59511953D01*
X105451191Y-59369772D01*
X104404586Y-62022557D02*
X105404542Y-62013183D01*
X105261691Y-62014522D02*
X105333786Y-62085277D01*
X105406551Y-62227459D01*
X105408560Y-62441735D01*
X105338473Y-62585255D01*
X105196292Y-62658020D01*
X104410613Y-62665386D01*
X105196292Y-62658020D02*
X105339813Y-62728107D01*
X105412578Y-62870288D01*
X105414586Y-63084563D01*
X105344500Y-63228085D01*
X105202319Y-63300849D01*
X104416639Y-63308215D01*
X104423335Y-64022469D02*
X105423291Y-64013095D01*
X105280440Y-64014434D02*
X105352535Y-64085189D01*
X105425300Y-64227371D01*
X105427309Y-64441647D01*
X105357222Y-64585167D01*
X105215041Y-64657932D01*
X104429362Y-64665298D01*
X105215041Y-64657932D02*
X105358562Y-64728019D01*
X105431327Y-64870200D01*
X105433336Y-65084476D01*
X105363249Y-65227997D01*
X105221068Y-65300761D01*
X104435388Y-65308127D01*
X106397740Y-58235178D02*
X106428220Y-61486378D01*
X113776760Y-58166000D02*
X103697859Y-58260489D01*
X113807240Y-61417200D02*
X103728339Y-61511689D01*
X106428220Y-61486378D02*
X105831265Y-60365421D01*
X106428220Y-61486378D02*
X107004054Y-60354426D01*
X106397740Y-58235178D02*
X105821906Y-59367130D01*
X106397740Y-58235178D02*
X106994695Y-59356135D01*
X109230381Y-35507207D02*
X110158934Y-35513011D01*
X109655372Y-36081304D01*
X109869654Y-36082643D01*
X110012062Y-36154963D01*
X110083043Y-36226836D01*
X110153576Y-36370137D01*
X110151344Y-36727273D01*
X110079025Y-36869681D01*
X110007151Y-36940662D01*
X109863850Y-37011196D01*
X109435287Y-37008517D01*
X109292879Y-36936198D01*
X109221899Y-36864324D01*
X110793296Y-36874145D02*
X110864276Y-36946019D01*
X110792403Y-37016999D01*
X110721422Y-36945126D01*
X110793296Y-36874145D01*
X110792403Y-37016999D01*
X111443730Y-35663902D02*
X111515604Y-35592920D01*
X111658904Y-35522386D01*
X112016040Y-35524618D01*
X112158448Y-35596938D01*
X112229429Y-35668812D01*
X112299963Y-35812113D01*
X112299070Y-35954967D01*
X112226304Y-36168802D01*
X111363821Y-37020571D01*
X112292374Y-37026374D01*
X113658865Y-35534885D02*
X112944593Y-35530421D01*
X112868701Y-36244247D01*
X112940575Y-36173267D01*
X113083876Y-36102732D01*
X113441012Y-36104964D01*
X113583420Y-36177284D01*
X113654401Y-36249157D01*
X113724935Y-36392458D01*
X113722703Y-36749594D01*
X113650383Y-36892002D01*
X113578509Y-36962983D01*
X113435209Y-37033517D01*
X113078072Y-37031285D01*
X112935665Y-36958965D01*
X112864684Y-36887091D01*
X115149460Y-37044231D02*
X114292334Y-37038874D01*
X114720897Y-37041552D02*
X114730272Y-35541582D01*
X114586079Y-35754971D01*
X114442331Y-35896932D01*
X114299030Y-35967467D01*
X116935139Y-37055391D02*
X116941389Y-36055411D01*
X116940496Y-36198266D02*
X117012369Y-36127285D01*
X117155671Y-36056750D01*
X117369952Y-36058089D01*
X117512359Y-36130410D01*
X117582894Y-36273710D01*
X117577984Y-37059409D01*
X117582894Y-36273710D02*
X117655215Y-36131303D01*
X117798515Y-36060768D01*
X118012796Y-36062107D01*
X118155205Y-36134428D01*
X118225739Y-36277728D01*
X118220828Y-37063427D01*
X118935100Y-37067891D02*
X118941350Y-36067911D01*
X118940457Y-36210766D02*
X119012330Y-36139785D01*
X119155632Y-36069250D01*
X119369913Y-36070589D01*
X119512320Y-36142910D01*
X119582855Y-36286210D01*
X119577945Y-37071909D01*
X119582855Y-36286210D02*
X119655176Y-36143802D01*
X119798476Y-36073268D01*
X120012757Y-36074607D01*
X120155166Y-36146927D01*
X120225700Y-36290228D01*
X120220789Y-37075927D01*
X113162528Y-37703255D02*
X116413728Y-37723575D01*
X113030000Y-58907680D02*
X113179403Y-35003307D01*
X116281200Y-58928000D02*
X116430603Y-35023627D01*
X116413728Y-37723575D02*
X115283581Y-38302944D01*
X116413728Y-37723575D02*
X115290911Y-37130125D01*
X113162528Y-37703255D02*
X114285345Y-38296705D01*
X113162528Y-37703255D02*
X114292675Y-37123886D01*
D12*
X118775480Y-59563000D02*
X118785640Y-65079880D01*
X121909840Y-63921640D02*
X121904760Y-63921640D01*
X113736120Y-63921640D02*
X121909840Y-63921640D01*
D11*
X132640144Y-47334571D02*
X131783001Y-47334571D01*
X132211573Y-47334571D02*
X132211573Y-45834571D01*
X132068716Y-46048857D01*
X131925858Y-46191714D01*
X131783001Y-46263143D01*
X133283001Y-47191714D02*
X133354429Y-47263143D01*
X133283001Y-47334571D01*
X133211572Y-47263143D01*
X133283001Y-47191714D01*
X133283001Y-47334571D01*
X134211573Y-46477429D02*
X134068715Y-46406000D01*
X133997287Y-46334571D01*
X133925858Y-46191714D01*
X133925858Y-46120286D01*
X133997287Y-45977429D01*
X134068715Y-45906000D01*
X134211573Y-45834571D01*
X134497287Y-45834571D01*
X134640144Y-45906000D01*
X134711573Y-45977429D01*
X134783001Y-46120286D01*
X134783001Y-46191714D01*
X134711573Y-46334571D01*
X134640144Y-46406000D01*
X134497287Y-46477429D01*
X134211573Y-46477429D01*
X134068715Y-46548857D01*
X133997287Y-46620286D01*
X133925858Y-46763143D01*
X133925858Y-47048857D01*
X133997287Y-47191714D01*
X134068715Y-47263143D01*
X134211573Y-47334571D01*
X134497287Y-47334571D01*
X134640144Y-47263143D01*
X134711573Y-47191714D01*
X134783001Y-47048857D01*
X134783001Y-46763143D01*
X134711573Y-46620286D01*
X134640144Y-46548857D01*
X134497287Y-46477429D01*
X135497286Y-47334571D02*
X135783001Y-47334571D01*
X135925858Y-47263143D01*
X135997286Y-47191714D01*
X136140144Y-46977429D01*
X136211572Y-46691714D01*
X136211572Y-46120286D01*
X136140144Y-45977429D01*
X136068715Y-45906000D01*
X135925858Y-45834571D01*
X135640144Y-45834571D01*
X135497286Y-45906000D01*
X135425858Y-45977429D01*
X135354429Y-46120286D01*
X135354429Y-46477429D01*
X135425858Y-46620286D01*
X135497286Y-46691714D01*
X135640144Y-46763143D01*
X135925858Y-46763143D01*
X136068715Y-46691714D01*
X136140144Y-46620286D01*
X136211572Y-46477429D01*
X137140143Y-45834571D02*
X137283000Y-45834571D01*
X137425857Y-45906000D01*
X137497286Y-45977429D01*
X137568715Y-46120286D01*
X137640143Y-46406000D01*
X137640143Y-46763143D01*
X137568715Y-47048857D01*
X137497286Y-47191714D01*
X137425857Y-47263143D01*
X137283000Y-47334571D01*
X137140143Y-47334571D01*
X136997286Y-47263143D01*
X136925857Y-47191714D01*
X136854429Y-47048857D01*
X136783000Y-46763143D01*
X136783000Y-46406000D01*
X136854429Y-46120286D01*
X136925857Y-45977429D01*
X136997286Y-45906000D01*
X137140143Y-45834571D01*
X138568714Y-45834571D02*
X138711571Y-45834571D01*
X138854428Y-45906000D01*
X138925857Y-45977429D01*
X138997286Y-46120286D01*
X139068714Y-46406000D01*
X139068714Y-46763143D01*
X138997286Y-47048857D01*
X138925857Y-47191714D01*
X138854428Y-47263143D01*
X138711571Y-47334571D01*
X138568714Y-47334571D01*
X138425857Y-47263143D01*
X138354428Y-47191714D01*
X138283000Y-47048857D01*
X138211571Y-46763143D01*
X138211571Y-46406000D01*
X138283000Y-46120286D01*
X138354428Y-45977429D01*
X138425857Y-45906000D01*
X138568714Y-45834571D01*
X140854428Y-47334571D02*
X140854428Y-46334571D01*
X140854428Y-45834571D02*
X140782999Y-45906000D01*
X140854428Y-45977429D01*
X140925856Y-45906000D01*
X140854428Y-45834571D01*
X140854428Y-45977429D01*
X141568714Y-46334571D02*
X141568714Y-47334571D01*
X141568714Y-46477429D02*
X141640142Y-46406000D01*
X141783000Y-46334571D01*
X141997285Y-46334571D01*
X142140142Y-46406000D01*
X142211571Y-46548857D01*
X142211571Y-47334571D01*
X113030000Y-48006000D02*
X161036000Y-48006000D01*
X113030000Y-58801000D02*
X113030000Y-45306000D01*
X161036000Y-58801000D02*
X161036000Y-45306000D01*
X161036000Y-48006000D02*
X159909496Y-48592421D01*
X161036000Y-48006000D02*
X159909496Y-47419579D01*
X113030000Y-48006000D02*
X114156504Y-48592421D01*
X113030000Y-48006000D02*
X114156504Y-47419579D01*
X174215499Y-84864133D02*
X174287211Y-84935278D01*
X174359207Y-85077850D01*
X174360624Y-85434990D01*
X174289762Y-85578130D01*
X174218617Y-85649841D01*
X174076045Y-85721836D01*
X173933189Y-85722403D01*
X173718621Y-85651826D01*
X172858085Y-84798091D01*
X172861770Y-85726654D01*
X173007176Y-86368939D02*
X172936031Y-86440650D01*
X172864321Y-86369506D01*
X172935465Y-86297794D01*
X173007176Y-86368939D01*
X172864321Y-86369506D01*
X174369978Y-87792115D02*
X174367143Y-87077834D01*
X173652579Y-87009240D01*
X173724290Y-87080385D01*
X173796286Y-87222958D01*
X173797703Y-87580098D01*
X173726841Y-87723237D01*
X173655697Y-87794949D01*
X173513125Y-87866943D01*
X173155985Y-87868361D01*
X173012845Y-87797500D01*
X172941133Y-87726355D01*
X172869139Y-87583783D01*
X172867722Y-87226642D01*
X172938582Y-87083503D01*
X173009727Y-87011791D01*
X174229672Y-88435532D02*
X174301384Y-88506677D01*
X174373379Y-88649250D01*
X174374796Y-89006390D01*
X174303935Y-89149529D01*
X174232790Y-89221241D01*
X174090217Y-89293236D01*
X173947361Y-89293803D01*
X173732794Y-89223225D01*
X172872257Y-88369490D01*
X172875942Y-89298054D01*
X174379615Y-90220666D02*
X174380182Y-90363521D01*
X174309320Y-90506661D01*
X174238175Y-90578373D01*
X174095603Y-90650368D01*
X173810174Y-90722929D01*
X173453034Y-90724346D01*
X173167039Y-90654053D01*
X173023900Y-90583191D01*
X172952188Y-90512046D01*
X172880193Y-90369474D01*
X172879627Y-90226618D01*
X172950487Y-90083479D01*
X173021632Y-90011767D01*
X173164204Y-89939772D01*
X173449633Y-89867210D01*
X173806773Y-89865793D01*
X174092768Y-89936088D01*
X174235907Y-90006948D01*
X174307619Y-90078093D01*
X174379615Y-90220666D01*
X174385284Y-91649225D02*
X174385850Y-91792081D01*
X174314989Y-91935220D01*
X174243844Y-92006932D01*
X174101272Y-92078928D01*
X173815843Y-92151489D01*
X173458703Y-92152906D01*
X173172708Y-92082612D01*
X173029568Y-92011751D01*
X172957857Y-91940606D01*
X172885862Y-91798034D01*
X172885295Y-91655178D01*
X172956156Y-91512038D01*
X173027301Y-91440326D01*
X173169873Y-91368332D01*
X173455302Y-91295770D01*
X173812442Y-91294353D01*
X174098437Y-91364647D01*
X174241576Y-91435508D01*
X174313288Y-91506653D01*
X174385284Y-91649225D01*
X172894366Y-93940874D02*
X173894358Y-93936905D01*
X174394354Y-93934921D02*
X174322642Y-93863776D01*
X174251497Y-93935488D01*
X174323209Y-94006632D01*
X174394354Y-93934921D01*
X174251497Y-93935488D01*
X173897192Y-94651186D02*
X172897200Y-94655154D01*
X173754335Y-94651753D02*
X173826047Y-94722897D01*
X173898043Y-94865470D01*
X173898893Y-95079753D01*
X173828031Y-95222893D01*
X173685459Y-95294888D01*
X172899751Y-95298006D01*
X172334778Y-122126140D02*
X172080778Y-58118140D01*
X160274000Y-122174000D02*
X175034757Y-122115426D01*
X160020000Y-58166000D02*
X174780757Y-58107426D01*
X172080778Y-58118140D02*
X172671664Y-59242308D01*
X172080778Y-58118140D02*
X171498832Y-59246962D01*
X172334778Y-122126140D02*
X172916724Y-120997318D01*
X172334778Y-122126140D02*
X171743892Y-121001972D01*
X131533001Y-53192571D02*
X131533001Y-54192571D01*
X131175858Y-52621143D02*
X130818715Y-53692571D01*
X131747287Y-53692571D01*
X132533001Y-53335429D02*
X132390143Y-53264000D01*
X132318715Y-53192571D01*
X132247286Y-53049714D01*
X132247286Y-52978286D01*
X132318715Y-52835429D01*
X132390143Y-52764000D01*
X132533001Y-52692571D01*
X132818715Y-52692571D01*
X132961572Y-52764000D01*
X133033001Y-52835429D01*
X133104429Y-52978286D01*
X133104429Y-53049714D01*
X133033001Y-53192571D01*
X132961572Y-53264000D01*
X132818715Y-53335429D01*
X132533001Y-53335429D01*
X132390143Y-53406857D01*
X132318715Y-53478286D01*
X132247286Y-53621143D01*
X132247286Y-53906857D01*
X132318715Y-54049714D01*
X132390143Y-54121143D01*
X132533001Y-54192571D01*
X132818715Y-54192571D01*
X132961572Y-54121143D01*
X133033001Y-54049714D01*
X133104429Y-53906857D01*
X133104429Y-53621143D01*
X133033001Y-53478286D01*
X132961572Y-53406857D01*
X132818715Y-53335429D01*
X133747286Y-54049714D02*
X133818714Y-54121143D01*
X133747286Y-54192571D01*
X133675857Y-54121143D01*
X133747286Y-54049714D01*
X133747286Y-54192571D01*
X134747286Y-52692571D02*
X134890143Y-52692571D01*
X135033000Y-52764000D01*
X135104429Y-52835429D01*
X135175858Y-52978286D01*
X135247286Y-53264000D01*
X135247286Y-53621143D01*
X135175858Y-53906857D01*
X135104429Y-54049714D01*
X135033000Y-54121143D01*
X134890143Y-54192571D01*
X134747286Y-54192571D01*
X134604429Y-54121143D01*
X134533000Y-54049714D01*
X134461572Y-53906857D01*
X134390143Y-53621143D01*
X134390143Y-53264000D01*
X134461572Y-52978286D01*
X134533000Y-52835429D01*
X134604429Y-52764000D01*
X134747286Y-52692571D01*
X136175857Y-52692571D02*
X136318714Y-52692571D01*
X136461571Y-52764000D01*
X136533000Y-52835429D01*
X136604429Y-52978286D01*
X136675857Y-53264000D01*
X136675857Y-53621143D01*
X136604429Y-53906857D01*
X136533000Y-54049714D01*
X136461571Y-54121143D01*
X136318714Y-54192571D01*
X136175857Y-54192571D01*
X136033000Y-54121143D01*
X135961571Y-54049714D01*
X135890143Y-53906857D01*
X135818714Y-53621143D01*
X135818714Y-53264000D01*
X135890143Y-52978286D01*
X135961571Y-52835429D01*
X136033000Y-52764000D01*
X136175857Y-52692571D01*
X137961571Y-52692571D02*
X137675857Y-52692571D01*
X137533000Y-52764000D01*
X137461571Y-52835429D01*
X137318714Y-53049714D01*
X137247285Y-53335429D01*
X137247285Y-53906857D01*
X137318714Y-54049714D01*
X137390142Y-54121143D01*
X137533000Y-54192571D01*
X137818714Y-54192571D01*
X137961571Y-54121143D01*
X138033000Y-54049714D01*
X138104428Y-53906857D01*
X138104428Y-53549714D01*
X138033000Y-53406857D01*
X137961571Y-53335429D01*
X137818714Y-53264000D01*
X137533000Y-53264000D01*
X137390142Y-53335429D01*
X137318714Y-53406857D01*
X137247285Y-53549714D01*
X139890142Y-54192571D02*
X139890142Y-53192571D01*
X139890142Y-53335429D02*
X139961570Y-53264000D01*
X140104428Y-53192571D01*
X140318713Y-53192571D01*
X140461570Y-53264000D01*
X140532999Y-53406857D01*
X140532999Y-54192571D01*
X140532999Y-53406857D02*
X140604428Y-53264000D01*
X140747285Y-53192571D01*
X140961570Y-53192571D01*
X141104428Y-53264000D01*
X141175856Y-53406857D01*
X141175856Y-54192571D01*
X141890142Y-54192571D02*
X141890142Y-53192571D01*
X141890142Y-53335429D02*
X141961570Y-53264000D01*
X142104428Y-53192571D01*
X142318713Y-53192571D01*
X142461570Y-53264000D01*
X142532999Y-53406857D01*
X142532999Y-54192571D01*
X142532999Y-53406857D02*
X142604428Y-53264000D01*
X142747285Y-53192571D01*
X142961570Y-53192571D01*
X143104428Y-53264000D01*
X143175856Y-53406857D01*
X143175856Y-54192571D01*
X113030000Y-54864000D02*
X161036000Y-54864000D01*
X113030000Y-58801000D02*
X113030000Y-52164000D01*
X161036000Y-58801000D02*
X161036000Y-52164000D01*
X161036000Y-54864000D02*
X159909496Y-55450421D01*
X161036000Y-54864000D02*
X159909496Y-54277579D01*
X113030000Y-54864000D02*
X114156504Y-55450421D01*
X113030000Y-54864000D02*
X114156504Y-54277579D01*
X168160429Y-84670001D02*
X168160429Y-84384287D01*
X168089000Y-84241430D01*
X168017571Y-84170001D01*
X167803286Y-84027144D01*
X167517571Y-83955715D01*
X166946143Y-83955715D01*
X166803286Y-84027144D01*
X166731857Y-84098572D01*
X166660429Y-84241430D01*
X166660429Y-84527144D01*
X166731857Y-84670001D01*
X166803286Y-84741430D01*
X166946143Y-84812858D01*
X167303286Y-84812858D01*
X167446143Y-84741430D01*
X167517571Y-84670001D01*
X167589000Y-84527144D01*
X167589000Y-84241430D01*
X167517571Y-84098572D01*
X167446143Y-84027144D01*
X167303286Y-83955715D01*
X167660429Y-86098572D02*
X166660429Y-86098572D01*
X168231857Y-85741429D02*
X167160429Y-85384286D01*
X167160429Y-86312858D01*
X166803286Y-86884286D02*
X166731857Y-86955714D01*
X166660429Y-86884286D01*
X166731857Y-86812857D01*
X166803286Y-86884286D01*
X166660429Y-86884286D01*
X168160429Y-87884286D02*
X168160429Y-88027143D01*
X168089000Y-88170000D01*
X168017571Y-88241429D01*
X167874714Y-88312858D01*
X167589000Y-88384286D01*
X167231857Y-88384286D01*
X166946143Y-88312858D01*
X166803286Y-88241429D01*
X166731857Y-88170000D01*
X166660429Y-88027143D01*
X166660429Y-87884286D01*
X166731857Y-87741429D01*
X166803286Y-87670000D01*
X166946143Y-87598572D01*
X167231857Y-87527143D01*
X167589000Y-87527143D01*
X167874714Y-87598572D01*
X168017571Y-87670000D01*
X168089000Y-87741429D01*
X168160429Y-87884286D01*
X168160429Y-89312857D02*
X168160429Y-89455714D01*
X168089000Y-89598571D01*
X168017571Y-89670000D01*
X167874714Y-89741429D01*
X167589000Y-89812857D01*
X167231857Y-89812857D01*
X166946143Y-89741429D01*
X166803286Y-89670000D01*
X166731857Y-89598571D01*
X166660429Y-89455714D01*
X166660429Y-89312857D01*
X166731857Y-89170000D01*
X166803286Y-89098571D01*
X166946143Y-89027143D01*
X167231857Y-88955714D01*
X167589000Y-88955714D01*
X167874714Y-89027143D01*
X168017571Y-89098571D01*
X168089000Y-89170000D01*
X168160429Y-89312857D01*
X167517571Y-90670000D02*
X167589000Y-90527142D01*
X167660429Y-90455714D01*
X167803286Y-90384285D01*
X167874714Y-90384285D01*
X168017571Y-90455714D01*
X168089000Y-90527142D01*
X168160429Y-90670000D01*
X168160429Y-90955714D01*
X168089000Y-91098571D01*
X168017571Y-91170000D01*
X167874714Y-91241428D01*
X167803286Y-91241428D01*
X167660429Y-91170000D01*
X167589000Y-91098571D01*
X167517571Y-90955714D01*
X167517571Y-90670000D01*
X167446143Y-90527142D01*
X167374714Y-90455714D01*
X167231857Y-90384285D01*
X166946143Y-90384285D01*
X166803286Y-90455714D01*
X166731857Y-90527142D01*
X166660429Y-90670000D01*
X166660429Y-90955714D01*
X166731857Y-91098571D01*
X166803286Y-91170000D01*
X166946143Y-91241428D01*
X167231857Y-91241428D01*
X167374714Y-91170000D01*
X167446143Y-91098571D01*
X167517571Y-90955714D01*
X166660429Y-93027142D02*
X167660429Y-93027142D01*
X167517571Y-93027142D02*
X167589000Y-93098570D01*
X167660429Y-93241428D01*
X167660429Y-93455713D01*
X167589000Y-93598570D01*
X167446143Y-93669999D01*
X166660429Y-93669999D01*
X167446143Y-93669999D02*
X167589000Y-93741428D01*
X167660429Y-93884285D01*
X167660429Y-94098570D01*
X167589000Y-94241428D01*
X167446143Y-94312856D01*
X166660429Y-94312856D01*
X166660429Y-95027142D02*
X167660429Y-95027142D01*
X167517571Y-95027142D02*
X167589000Y-95098570D01*
X167660429Y-95241428D01*
X167660429Y-95455713D01*
X167589000Y-95598570D01*
X167446143Y-95669999D01*
X166660429Y-95669999D01*
X167446143Y-95669999D02*
X167589000Y-95741428D01*
X167660429Y-95884285D01*
X167660429Y-96098570D01*
X167589000Y-96241428D01*
X167446143Y-96312856D01*
X166660429Y-96312856D01*
X165989000Y-58166000D02*
X165989000Y-122174000D01*
X162941000Y-58166000D02*
X168689000Y-58166000D01*
X162941000Y-122174000D02*
X168689000Y-122174000D01*
X165989000Y-122174000D02*
X165402579Y-121047496D01*
X165989000Y-122174000D02*
X166575421Y-121047496D01*
X165989000Y-58166000D02*
X165402579Y-59292504D01*
X165989000Y-58166000D02*
X166575421Y-59292504D01*
D12*
X150622000Y-112522000D02*
X150622000Y-110617000D01*
X150622000Y-102997000D02*
X150622000Y-110617000D01*
X143510000Y-102997000D02*
X150622000Y-102997000D01*
X143510000Y-110617000D02*
X143510000Y-102997000D01*
X143510000Y-112522000D02*
X150622000Y-112522000D01*
X143510000Y-110617000D02*
X143510000Y-112522000D01*
X145542000Y-87757000D02*
X145542000Y-85217000D01*
X149479000Y-87757000D02*
X145542000Y-87757000D01*
X149479000Y-85217000D02*
X149479000Y-87757000D01*
X145542000Y-85217000D02*
X149479000Y-85217000D01*
X148336000Y-86487000D02*
G75*
G03X148336000Y-86487000I-762000J0D01*
G01*
X150876000Y-67437000D02*
X143256000Y-67437000D01*
X150876000Y-72517000D02*
X150876000Y-67437000D01*
X143256000Y-72517000D02*
X150876000Y-72517000D01*
X143256000Y-67437000D02*
X143256000Y-72517000D01*
M02*
