G04 #@! TF.FileFunction,Legend,Top*
%FSLAX46Y46*%
G04 Gerber Fmt 4.6, Leading zero omitted, Abs format (unit mm)*
G04 Created by KiCad (PCBNEW 4.0.7) date 07/05/18 08:47:21*
%MOMM*%
%LPD*%
G01*
G04 APERTURE LIST*
%ADD10C,0.100000*%
%ADD11C,0.250000*%
%ADD12C,0.300000*%
%ADD13C,0.150000*%
G04 APERTURE END LIST*
D10*
D11*
X120671814Y-72913240D02*
G75*
G03X120671814Y-72913240I-3247614J0D01*
G01*
D12*
X116622938Y-73418474D02*
X116551509Y-73489903D01*
X116337223Y-73561331D01*
X116194366Y-73561331D01*
X115980081Y-73489903D01*
X115837223Y-73347046D01*
X115765795Y-73204189D01*
X115694366Y-72918474D01*
X115694366Y-72704189D01*
X115765795Y-72418474D01*
X115837223Y-72275617D01*
X115980081Y-72132760D01*
X116194366Y-72061331D01*
X116337223Y-72061331D01*
X116551509Y-72132760D01*
X116622938Y-72204189D01*
X119265795Y-73418474D02*
X119194366Y-73489903D01*
X118980080Y-73561331D01*
X118837223Y-73561331D01*
X118622938Y-73489903D01*
X118480080Y-73347046D01*
X118408652Y-73204189D01*
X118337223Y-72918474D01*
X118337223Y-72704189D01*
X118408652Y-72418474D01*
X118480080Y-72275617D01*
X118622938Y-72132760D01*
X118837223Y-72061331D01*
X118980080Y-72061331D01*
X119194366Y-72132760D01*
X119265795Y-72204189D01*
X158081589Y-69228751D02*
X159581589Y-69228751D01*
X159581589Y-69800179D01*
X159510160Y-69943037D01*
X159438731Y-70014465D01*
X159295874Y-70085894D01*
X159081589Y-70085894D01*
X158938731Y-70014465D01*
X158867303Y-69943037D01*
X158795874Y-69800179D01*
X158795874Y-69228751D01*
X159653017Y-71800179D02*
X157724446Y-70514465D01*
X158081589Y-72300180D02*
X159581589Y-72300180D01*
X158081589Y-73157323D01*
X159581589Y-73157323D01*
X158224446Y-73871609D02*
X158153017Y-73943037D01*
X158081589Y-73871609D01*
X158153017Y-73800180D01*
X158224446Y-73871609D01*
X158081589Y-73871609D01*
X159010160Y-73871609D02*
X158938731Y-73943037D01*
X158867303Y-73871609D01*
X158938731Y-73800180D01*
X159010160Y-73871609D01*
X158867303Y-73871609D01*
X159438731Y-74514466D02*
X159510160Y-74585895D01*
X159581589Y-74728752D01*
X159581589Y-75085895D01*
X159510160Y-75228752D01*
X159438731Y-75300181D01*
X159295874Y-75371609D01*
X159153017Y-75371609D01*
X158938731Y-75300181D01*
X158081589Y-74443038D01*
X158081589Y-75371609D01*
X159581589Y-76300180D02*
X159581589Y-76443037D01*
X159510160Y-76585894D01*
X159438731Y-76657323D01*
X159295874Y-76728752D01*
X159010160Y-76800180D01*
X158653017Y-76800180D01*
X158367303Y-76728752D01*
X158224446Y-76657323D01*
X158153017Y-76585894D01*
X158081589Y-76443037D01*
X158081589Y-76300180D01*
X158153017Y-76157323D01*
X158224446Y-76085894D01*
X158367303Y-76014466D01*
X158653017Y-75943037D01*
X159010160Y-75943037D01*
X159295874Y-76014466D01*
X159438731Y-76085894D01*
X159510160Y-76157323D01*
X159581589Y-76300180D01*
X158081589Y-78228751D02*
X158081589Y-77371608D01*
X158081589Y-77800180D02*
X159581589Y-77800180D01*
X159367303Y-77657323D01*
X159224446Y-77514465D01*
X159153017Y-77371608D01*
X159581589Y-79514465D02*
X159581589Y-79228751D01*
X159510160Y-79085894D01*
X159438731Y-79014465D01*
X159224446Y-78871608D01*
X158938731Y-78800179D01*
X158367303Y-78800179D01*
X158224446Y-78871608D01*
X158153017Y-78943036D01*
X158081589Y-79085894D01*
X158081589Y-79371608D01*
X158153017Y-79514465D01*
X158224446Y-79585894D01*
X158367303Y-79657322D01*
X158724446Y-79657322D01*
X158867303Y-79585894D01*
X158938731Y-79514465D01*
X159010160Y-79371608D01*
X159010160Y-79085894D01*
X158938731Y-78943036D01*
X158867303Y-78871608D01*
X158724446Y-78800179D01*
X159581589Y-80585893D02*
X159581589Y-80728750D01*
X159510160Y-80871607D01*
X159438731Y-80943036D01*
X159295874Y-81014465D01*
X159010160Y-81085893D01*
X158653017Y-81085893D01*
X158367303Y-81014465D01*
X158224446Y-80943036D01*
X158153017Y-80871607D01*
X158081589Y-80728750D01*
X158081589Y-80585893D01*
X158153017Y-80443036D01*
X158224446Y-80371607D01*
X158367303Y-80300179D01*
X158653017Y-80228750D01*
X159010160Y-80228750D01*
X159295874Y-80300179D01*
X159438731Y-80371607D01*
X159510160Y-80443036D01*
X159581589Y-80585893D01*
X158081589Y-81800178D02*
X158081589Y-82085893D01*
X158153017Y-82228750D01*
X158224446Y-82300178D01*
X158438731Y-82443036D01*
X158724446Y-82514464D01*
X159295874Y-82514464D01*
X159438731Y-82443036D01*
X159510160Y-82371607D01*
X159581589Y-82228750D01*
X159581589Y-81943036D01*
X159510160Y-81800178D01*
X159438731Y-81728750D01*
X159295874Y-81657321D01*
X158938731Y-81657321D01*
X158795874Y-81728750D01*
X158724446Y-81800178D01*
X158653017Y-81943036D01*
X158653017Y-82228750D01*
X158724446Y-82371607D01*
X158795874Y-82443036D01*
X158938731Y-82514464D01*
X159438731Y-83085892D02*
X159510160Y-83157321D01*
X159581589Y-83300178D01*
X159581589Y-83657321D01*
X159510160Y-83800178D01*
X159438731Y-83871607D01*
X159295874Y-83943035D01*
X159153017Y-83943035D01*
X158938731Y-83871607D01*
X158081589Y-83014464D01*
X158081589Y-83943035D01*
X159581589Y-85300178D02*
X159581589Y-84585892D01*
X158867303Y-84514463D01*
X158938731Y-84585892D01*
X159010160Y-84728749D01*
X159010160Y-85085892D01*
X158938731Y-85228749D01*
X158867303Y-85300178D01*
X158724446Y-85371606D01*
X158367303Y-85371606D01*
X158224446Y-85300178D01*
X158153017Y-85228749D01*
X158081589Y-85085892D01*
X158081589Y-84728749D01*
X158153017Y-84585892D01*
X158224446Y-84514463D01*
X159581589Y-86300177D02*
X159581589Y-86443034D01*
X159510160Y-86585891D01*
X159438731Y-86657320D01*
X159295874Y-86728749D01*
X159010160Y-86800177D01*
X158653017Y-86800177D01*
X158367303Y-86728749D01*
X158224446Y-86657320D01*
X158153017Y-86585891D01*
X158081589Y-86443034D01*
X158081589Y-86300177D01*
X158153017Y-86157320D01*
X158224446Y-86085891D01*
X158367303Y-86014463D01*
X158653017Y-85943034D01*
X159010160Y-85943034D01*
X159295874Y-86014463D01*
X159438731Y-86085891D01*
X159510160Y-86157320D01*
X159581589Y-86300177D01*
X159581589Y-87728748D02*
X159581589Y-87871605D01*
X159510160Y-88014462D01*
X159438731Y-88085891D01*
X159295874Y-88157320D01*
X159010160Y-88228748D01*
X158653017Y-88228748D01*
X158367303Y-88157320D01*
X158224446Y-88085891D01*
X158153017Y-88014462D01*
X158081589Y-87871605D01*
X158081589Y-87728748D01*
X158153017Y-87585891D01*
X158224446Y-87514462D01*
X158367303Y-87443034D01*
X158653017Y-87371605D01*
X159010160Y-87371605D01*
X159295874Y-87443034D01*
X159438731Y-87514462D01*
X159510160Y-87585891D01*
X159581589Y-87728748D01*
X158081589Y-89728748D02*
X158795874Y-89228748D01*
X158081589Y-88871605D02*
X159581589Y-88871605D01*
X159581589Y-89443033D01*
X159510160Y-89585891D01*
X159438731Y-89657319D01*
X159295874Y-89728748D01*
X159081589Y-89728748D01*
X158938731Y-89657319D01*
X158867303Y-89585891D01*
X158795874Y-89443033D01*
X158795874Y-88871605D01*
X159581589Y-90657319D02*
X159581589Y-90800176D01*
X159510160Y-90943033D01*
X159438731Y-91014462D01*
X159295874Y-91085891D01*
X159010160Y-91157319D01*
X158653017Y-91157319D01*
X158367303Y-91085891D01*
X158224446Y-91014462D01*
X158153017Y-90943033D01*
X158081589Y-90800176D01*
X158081589Y-90657319D01*
X158153017Y-90514462D01*
X158224446Y-90443033D01*
X158367303Y-90371605D01*
X158653017Y-90300176D01*
X159010160Y-90300176D01*
X159295874Y-90371605D01*
X159438731Y-90443033D01*
X159510160Y-90514462D01*
X159581589Y-90657319D01*
X124628750Y-60019737D02*
X124843036Y-60091166D01*
X124914464Y-60162594D01*
X124985893Y-60305451D01*
X124985893Y-60519737D01*
X124914464Y-60662594D01*
X124843036Y-60734023D01*
X124700178Y-60805451D01*
X124128750Y-60805451D01*
X124128750Y-59305451D01*
X124628750Y-59305451D01*
X124771607Y-59376880D01*
X124843036Y-59448309D01*
X124914464Y-59591166D01*
X124914464Y-59734023D01*
X124843036Y-59876880D01*
X124771607Y-59948309D01*
X124628750Y-60019737D01*
X124128750Y-60019737D01*
X126057321Y-59305451D02*
X126057321Y-60376880D01*
X125985893Y-60591166D01*
X125843036Y-60734023D01*
X125628750Y-60805451D01*
X125485893Y-60805451D01*
X126557321Y-59305451D02*
X127414464Y-59305451D01*
X126985893Y-60805451D02*
X126985893Y-59305451D01*
X129057321Y-60805451D02*
X129057321Y-59305451D01*
X129057321Y-60019737D02*
X129914464Y-60019737D01*
X129914464Y-60805451D02*
X129914464Y-59305451D01*
X130557321Y-60734023D02*
X130771607Y-60805451D01*
X131128750Y-60805451D01*
X131271607Y-60734023D01*
X131343036Y-60662594D01*
X131414464Y-60519737D01*
X131414464Y-60376880D01*
X131343036Y-60234023D01*
X131271607Y-60162594D01*
X131128750Y-60091166D01*
X130843036Y-60019737D01*
X130700178Y-59948309D01*
X130628750Y-59876880D01*
X130557321Y-59734023D01*
X130557321Y-59591166D01*
X130628750Y-59448309D01*
X130700178Y-59376880D01*
X130843036Y-59305451D01*
X131200178Y-59305451D01*
X131414464Y-59376880D01*
X133200178Y-60805451D02*
X133200178Y-59305451D01*
X133557321Y-59305451D01*
X133771606Y-59376880D01*
X133914464Y-59519737D01*
X133985892Y-59662594D01*
X134057321Y-59948309D01*
X134057321Y-60162594D01*
X133985892Y-60448309D01*
X133914464Y-60591166D01*
X133771606Y-60734023D01*
X133557321Y-60805451D01*
X133200178Y-60805451D01*
X135557321Y-60662594D02*
X135485892Y-60734023D01*
X135271606Y-60805451D01*
X135128749Y-60805451D01*
X134914464Y-60734023D01*
X134771606Y-60591166D01*
X134700178Y-60448309D01*
X134628749Y-60162594D01*
X134628749Y-59948309D01*
X134700178Y-59662594D01*
X134771606Y-59519737D01*
X134914464Y-59376880D01*
X135128749Y-59305451D01*
X135271606Y-59305451D01*
X135485892Y-59376880D01*
X135557321Y-59448309D01*
X137343035Y-60805451D02*
X137343035Y-59305451D01*
X137843035Y-60376880D01*
X138343035Y-59305451D01*
X138343035Y-60805451D01*
X139271607Y-60805451D02*
X139128749Y-60734023D01*
X139057321Y-60662594D01*
X138985892Y-60519737D01*
X138985892Y-60091166D01*
X139057321Y-59948309D01*
X139128749Y-59876880D01*
X139271607Y-59805451D01*
X139485892Y-59805451D01*
X139628749Y-59876880D01*
X139700178Y-59948309D01*
X139771607Y-60091166D01*
X139771607Y-60519737D01*
X139700178Y-60662594D01*
X139628749Y-60734023D01*
X139485892Y-60805451D01*
X139271607Y-60805451D01*
X140200178Y-59805451D02*
X140771607Y-59805451D01*
X140414464Y-59305451D02*
X140414464Y-60591166D01*
X140485892Y-60734023D01*
X140628750Y-60805451D01*
X140771607Y-60805451D01*
X141485893Y-60805451D02*
X141343035Y-60734023D01*
X141271607Y-60662594D01*
X141200178Y-60519737D01*
X141200178Y-60091166D01*
X141271607Y-59948309D01*
X141343035Y-59876880D01*
X141485893Y-59805451D01*
X141700178Y-59805451D01*
X141843035Y-59876880D01*
X141914464Y-59948309D01*
X141985893Y-60091166D01*
X141985893Y-60519737D01*
X141914464Y-60662594D01*
X141843035Y-60734023D01*
X141700178Y-60805451D01*
X141485893Y-60805451D01*
X142628750Y-60805451D02*
X142628750Y-59805451D01*
X142628750Y-60091166D02*
X142700178Y-59948309D01*
X142771607Y-59876880D01*
X142914464Y-59805451D01*
X143057321Y-59805451D01*
X144700178Y-60805451D02*
X144700178Y-59305451D01*
X145057321Y-59305451D01*
X145271606Y-59376880D01*
X145414464Y-59519737D01*
X145485892Y-59662594D01*
X145557321Y-59948309D01*
X145557321Y-60162594D01*
X145485892Y-60448309D01*
X145414464Y-60591166D01*
X145271606Y-60734023D01*
X145057321Y-60805451D01*
X144700178Y-60805451D01*
X146200178Y-60805451D02*
X146200178Y-59805451D01*
X146200178Y-60091166D02*
X146271606Y-59948309D01*
X146343035Y-59876880D01*
X146485892Y-59805451D01*
X146628749Y-59805451D01*
X147128749Y-60805451D02*
X147128749Y-59805451D01*
X147128749Y-59305451D02*
X147057320Y-59376880D01*
X147128749Y-59448309D01*
X147200177Y-59376880D01*
X147128749Y-59305451D01*
X147128749Y-59448309D01*
X147700178Y-59805451D02*
X148057321Y-60805451D01*
X148414463Y-59805451D01*
X149557320Y-60734023D02*
X149414463Y-60805451D01*
X149128749Y-60805451D01*
X148985892Y-60734023D01*
X148914463Y-60591166D01*
X148914463Y-60019737D01*
X148985892Y-59876880D01*
X149128749Y-59805451D01*
X149414463Y-59805451D01*
X149557320Y-59876880D01*
X149628749Y-60019737D01*
X149628749Y-60162594D01*
X148914463Y-60305451D01*
X150271606Y-60805451D02*
X150271606Y-59805451D01*
X150271606Y-60091166D02*
X150343034Y-59948309D01*
X150414463Y-59876880D01*
X150557320Y-59805451D01*
X150700177Y-59805451D01*
D13*
X142017715Y-71699381D02*
X141446286Y-71699381D01*
X141732000Y-71699381D02*
X141732000Y-70699381D01*
X141636762Y-70842238D01*
X141541524Y-70937476D01*
X141446286Y-70985095D01*
X151292000Y-71851000D02*
X151292000Y-71151000D01*
X152492000Y-71151000D02*
X152492000Y-71851000D01*
X151292000Y-74899000D02*
X151292000Y-74199000D01*
X152492000Y-74199000D02*
X152492000Y-74899000D01*
X134147000Y-83662000D02*
X134147000Y-82962000D01*
X135347000Y-82962000D02*
X135347000Y-83662000D01*
X130398000Y-87849000D02*
X129698000Y-87849000D01*
X129698000Y-86649000D02*
X130398000Y-86649000D01*
X121066000Y-85313000D02*
X121066000Y-84613000D01*
X122266000Y-84613000D02*
X122266000Y-85313000D01*
X151034000Y-98587000D02*
X151734000Y-98587000D01*
X151734000Y-99787000D02*
X151034000Y-99787000D01*
X131199000Y-81241000D02*
X132199000Y-81241000D01*
X132199000Y-79541000D02*
X131199000Y-79541000D01*
X151419000Y-102839000D02*
X151419000Y-102139000D01*
X152619000Y-102139000D02*
X152619000Y-102839000D01*
X144686020Y-74055440D02*
X144686020Y-74957140D01*
X144686020Y-72904820D02*
X144686020Y-71906600D01*
X150086060Y-76555460D02*
X148884640Y-76555460D01*
X143283940Y-76555460D02*
X144485360Y-76555460D01*
X150086060Y-69806820D02*
X148884640Y-69806820D01*
X143283940Y-69806820D02*
X144485360Y-69806820D01*
X150086060Y-77005180D02*
X148833840Y-77005180D01*
X143283940Y-77005180D02*
X144536160Y-77005180D01*
X143885920Y-74055440D02*
X145486120Y-74055440D01*
X145435320Y-72904820D02*
X143885920Y-72904820D01*
X144686020Y-74055440D02*
X145435320Y-72904820D01*
X144686020Y-74055440D02*
X143885920Y-72904820D01*
X150086060Y-77005180D02*
X150086060Y-69806820D01*
X143283940Y-77005180D02*
X143283940Y-69806820D01*
X146791680Y-82572000D02*
X146791680Y-82372200D01*
X147248720Y-82522000D02*
X147248720Y-82373000D01*
X151394160Y-82572000D02*
X151394160Y-82423000D01*
X146796760Y-78972000D02*
X146796760Y-79121000D01*
X147248720Y-78972000D02*
X147248720Y-79121000D01*
X151399240Y-78972000D02*
X151399240Y-79121000D01*
X147248720Y-82720980D02*
X147248720Y-82522860D01*
X147248720Y-78773020D02*
X147248720Y-78971140D01*
X151394160Y-82768440D02*
X151394160Y-82570320D01*
X146791680Y-82768440D02*
X151394160Y-82768440D01*
X146791680Y-82768440D02*
X146791680Y-82570320D01*
X146796760Y-78773020D02*
X146796760Y-78971140D01*
X146796760Y-78773020D02*
X151399240Y-78773020D01*
X151399240Y-78773020D02*
X151399240Y-78971140D01*
X143652240Y-81817160D02*
X143652240Y-81768900D01*
X142951200Y-79018180D02*
X143652240Y-79018180D01*
X143652240Y-79018180D02*
X143652240Y-79267100D01*
X143652240Y-81817160D02*
X143652240Y-82017820D01*
X143652240Y-82017820D02*
X142951200Y-82017820D01*
X147360000Y-72779000D02*
X147360000Y-73779000D01*
X146010000Y-73779000D02*
X146010000Y-72779000D01*
X135723000Y-83812000D02*
X135723000Y-82812000D01*
X137073000Y-82812000D02*
X137073000Y-83812000D01*
X134077000Y-88251000D02*
X132877000Y-88251000D01*
X132877000Y-86501000D02*
X134077000Y-86501000D01*
X147455000Y-100290000D02*
X148455000Y-100290000D01*
X148455000Y-101640000D02*
X147455000Y-101640000D01*
X120277000Y-86828000D02*
X121277000Y-86828000D01*
X121277000Y-88178000D02*
X120277000Y-88178000D01*
X129105660Y-85846920D02*
X128805940Y-85598000D01*
X128805940Y-85598000D02*
X128656080Y-85496400D01*
X128656080Y-85496400D02*
X129504440Y-85496400D01*
X127604520Y-86197440D02*
X129405380Y-86197440D01*
X127604520Y-86197440D02*
X127604520Y-85547200D01*
X127604520Y-81696560D02*
X129405380Y-81696560D01*
X127604520Y-81696560D02*
X127604520Y-82346800D01*
X133893000Y-92552000D02*
X133893000Y-91852000D01*
X135093000Y-91852000D02*
X135093000Y-92552000D01*
X130271000Y-96739000D02*
X129571000Y-96739000D01*
X129571000Y-95539000D02*
X130271000Y-95539000D01*
X133766000Y-101950000D02*
X133766000Y-101250000D01*
X134966000Y-101250000D02*
X134966000Y-101950000D01*
X130271000Y-106391000D02*
X129571000Y-106391000D01*
X129571000Y-105191000D02*
X130271000Y-105191000D01*
X131199000Y-90385000D02*
X132199000Y-90385000D01*
X132199000Y-88685000D02*
X131199000Y-88685000D01*
X131326000Y-99783000D02*
X132326000Y-99783000D01*
X132326000Y-98083000D02*
X131326000Y-98083000D01*
X121066000Y-90266000D02*
X121066000Y-89566000D01*
X122266000Y-89566000D02*
X122266000Y-90266000D01*
X121066000Y-95473000D02*
X121066000Y-94773000D01*
X122266000Y-94773000D02*
X122266000Y-95473000D01*
X151034000Y-96047000D02*
X151734000Y-96047000D01*
X151734000Y-97247000D02*
X151034000Y-97247000D01*
X151034000Y-93507000D02*
X151734000Y-93507000D01*
X151734000Y-94707000D02*
X151034000Y-94707000D01*
X135950400Y-111307360D02*
X135950400Y-110607360D01*
X137150400Y-110607360D02*
X137150400Y-111307360D01*
X131033000Y-115789000D02*
X130333000Y-115789000D01*
X130333000Y-114589000D02*
X131033000Y-114589000D01*
X131834000Y-109308000D02*
X132834000Y-109308000D01*
X132834000Y-107608000D02*
X131834000Y-107608000D01*
X121066000Y-100553000D02*
X121066000Y-99853000D01*
X122266000Y-99853000D02*
X122266000Y-100553000D01*
X151034000Y-90967000D02*
X151734000Y-90967000D01*
X151734000Y-92167000D02*
X151034000Y-92167000D01*
X122139000Y-106457000D02*
X122139000Y-107157000D01*
X120939000Y-107157000D02*
X120939000Y-106457000D01*
X125476000Y-72517000D02*
X125476000Y-69977000D01*
X125476000Y-69977000D02*
X122936000Y-69977000D01*
X122936000Y-69977000D02*
X122936000Y-72517000D01*
X125476000Y-72517000D02*
X125476000Y-108077000D01*
X125476000Y-108077000D02*
X122936000Y-108077000D01*
X122936000Y-108077000D02*
X122936000Y-72517000D01*
X122936000Y-72517000D02*
X125476000Y-72517000D01*
X143652240Y-85246160D02*
X143652240Y-85197900D01*
X142951200Y-82447180D02*
X143652240Y-82447180D01*
X143652240Y-82447180D02*
X143652240Y-82696100D01*
X143652240Y-85246160D02*
X143652240Y-85446820D01*
X143652240Y-85446820D02*
X142951200Y-85446820D01*
X143652240Y-88675160D02*
X143652240Y-88626900D01*
X142951200Y-85876180D02*
X143652240Y-85876180D01*
X143652240Y-85876180D02*
X143652240Y-86125100D01*
X143652240Y-88675160D02*
X143652240Y-88875820D01*
X143652240Y-88875820D02*
X142951200Y-88875820D01*
X128978660Y-94736920D02*
X128678940Y-94488000D01*
X128678940Y-94488000D02*
X128529080Y-94386400D01*
X128529080Y-94386400D02*
X129377440Y-94386400D01*
X127477520Y-95087440D02*
X129278380Y-95087440D01*
X127477520Y-95087440D02*
X127477520Y-94437200D01*
X127477520Y-90586560D02*
X129278380Y-90586560D01*
X127477520Y-90586560D02*
X127477520Y-91236800D01*
X128978660Y-104134920D02*
X128678940Y-103886000D01*
X128678940Y-103886000D02*
X128529080Y-103784400D01*
X128529080Y-103784400D02*
X129377440Y-103784400D01*
X127477520Y-104485440D02*
X129278380Y-104485440D01*
X127477520Y-104485440D02*
X127477520Y-103835200D01*
X127477520Y-99984560D02*
X129278380Y-99984560D01*
X127477520Y-99984560D02*
X127477520Y-100634800D01*
X143652240Y-92104160D02*
X143652240Y-92055900D01*
X142951200Y-89305180D02*
X143652240Y-89305180D01*
X143652240Y-89305180D02*
X143652240Y-89554100D01*
X143652240Y-92104160D02*
X143652240Y-92304820D01*
X143652240Y-92304820D02*
X142951200Y-92304820D01*
X129613660Y-113659920D02*
X129313940Y-113411000D01*
X129313940Y-113411000D02*
X129164080Y-113309400D01*
X129164080Y-113309400D02*
X130012440Y-113309400D01*
X128112520Y-114010440D02*
X129913380Y-114010440D01*
X128112520Y-114010440D02*
X128112520Y-113360200D01*
X128112520Y-109509560D02*
X129913380Y-109509560D01*
X128112520Y-109509560D02*
X128112520Y-110159800D01*
X134585000Y-97014000D02*
X133385000Y-97014000D01*
X133385000Y-95264000D02*
X134585000Y-95264000D01*
X134458000Y-106666000D02*
X133258000Y-106666000D01*
X133258000Y-104916000D02*
X134458000Y-104916000D01*
X135469000Y-92575000D02*
X135469000Y-91575000D01*
X136819000Y-91575000D02*
X136819000Y-92575000D01*
X135342000Y-102100000D02*
X135342000Y-101100000D01*
X136692000Y-101100000D02*
X136692000Y-102100000D01*
X120404000Y-92035000D02*
X121404000Y-92035000D01*
X121404000Y-93385000D02*
X120404000Y-93385000D01*
X120404000Y-97115000D02*
X121404000Y-97115000D01*
X121404000Y-98465000D02*
X120404000Y-98465000D01*
X147709000Y-96988000D02*
X148709000Y-96988000D01*
X148709000Y-98338000D02*
X147709000Y-98338000D01*
X147963000Y-92035000D02*
X148963000Y-92035000D01*
X148963000Y-93385000D02*
X147963000Y-93385000D01*
X134712000Y-115810000D02*
X133512000Y-115810000D01*
X133512000Y-114060000D02*
X134712000Y-114060000D01*
X134320920Y-111492920D02*
X134320920Y-110492920D01*
X135670920Y-110492920D02*
X135670920Y-111492920D01*
X120404000Y-102068000D02*
X121404000Y-102068000D01*
X121404000Y-103418000D02*
X120404000Y-103418000D01*
X148090000Y-89114000D02*
X149090000Y-89114000D01*
X149090000Y-90464000D02*
X148090000Y-90464000D01*
X118908080Y-107715760D02*
X119608080Y-107715760D01*
X119608080Y-108915760D02*
X118908080Y-108915760D01*
X132842000Y-83562000D02*
X132842000Y-83812000D01*
X132842000Y-83062000D02*
X132842000Y-82812000D01*
X132842000Y-83062000D02*
X133192000Y-83562000D01*
X133192000Y-83562000D02*
X132492000Y-83562000D01*
X132492000Y-83562000D02*
X132842000Y-83062000D01*
X133192000Y-83062000D02*
X132492000Y-83062000D01*
X132042000Y-82012000D02*
X132042000Y-84412000D01*
X133642000Y-82012000D02*
X133642000Y-84412000D01*
X119761000Y-85340000D02*
X119761000Y-85590000D01*
X119761000Y-84840000D02*
X119761000Y-84590000D01*
X119761000Y-84840000D02*
X120111000Y-85340000D01*
X120111000Y-85340000D02*
X119411000Y-85340000D01*
X119411000Y-85340000D02*
X119761000Y-84840000D01*
X120111000Y-84840000D02*
X119411000Y-84840000D01*
X118961000Y-83790000D02*
X118961000Y-86190000D01*
X120561000Y-83790000D02*
X120561000Y-86190000D01*
X119761000Y-90293000D02*
X119761000Y-90543000D01*
X119761000Y-89793000D02*
X119761000Y-89543000D01*
X119761000Y-89793000D02*
X120111000Y-90293000D01*
X120111000Y-90293000D02*
X119411000Y-90293000D01*
X119411000Y-90293000D02*
X119761000Y-89793000D01*
X120111000Y-89793000D02*
X119411000Y-89793000D01*
X118961000Y-88743000D02*
X118961000Y-91143000D01*
X120561000Y-88743000D02*
X120561000Y-91143000D01*
X119888000Y-95500000D02*
X119888000Y-95750000D01*
X119888000Y-95000000D02*
X119888000Y-94750000D01*
X119888000Y-95000000D02*
X120238000Y-95500000D01*
X120238000Y-95500000D02*
X119538000Y-95500000D01*
X119538000Y-95500000D02*
X119888000Y-95000000D01*
X120238000Y-95000000D02*
X119538000Y-95000000D01*
X119088000Y-93950000D02*
X119088000Y-96350000D01*
X120688000Y-93950000D02*
X120688000Y-96350000D01*
X132715000Y-92452000D02*
X132715000Y-92702000D01*
X132715000Y-91952000D02*
X132715000Y-91702000D01*
X132715000Y-91952000D02*
X133065000Y-92452000D01*
X133065000Y-92452000D02*
X132365000Y-92452000D01*
X132365000Y-92452000D02*
X132715000Y-91952000D01*
X133065000Y-91952000D02*
X132365000Y-91952000D01*
X131915000Y-90902000D02*
X131915000Y-93302000D01*
X133515000Y-90902000D02*
X133515000Y-93302000D01*
X132588000Y-101850000D02*
X132588000Y-102100000D01*
X132588000Y-101350000D02*
X132588000Y-101100000D01*
X132588000Y-101350000D02*
X132938000Y-101850000D01*
X132938000Y-101850000D02*
X132238000Y-101850000D01*
X132238000Y-101850000D02*
X132588000Y-101350000D01*
X132938000Y-101350000D02*
X132238000Y-101350000D01*
X131788000Y-100300000D02*
X131788000Y-102700000D01*
X133388000Y-100300000D02*
X133388000Y-102700000D01*
X119888000Y-100580000D02*
X119888000Y-100830000D01*
X119888000Y-100080000D02*
X119888000Y-99830000D01*
X119888000Y-100080000D02*
X120238000Y-100580000D01*
X120238000Y-100580000D02*
X119538000Y-100580000D01*
X119538000Y-100580000D02*
X119888000Y-100080000D01*
X120238000Y-100080000D02*
X119538000Y-100080000D01*
X119088000Y-99030000D02*
X119088000Y-101430000D01*
X120688000Y-99030000D02*
X120688000Y-101430000D01*
X133223000Y-111375000D02*
X133223000Y-111625000D01*
X133223000Y-110875000D02*
X133223000Y-110625000D01*
X133223000Y-110875000D02*
X133573000Y-111375000D01*
X133573000Y-111375000D02*
X132873000Y-111375000D01*
X132873000Y-111375000D02*
X133223000Y-110875000D01*
X133573000Y-110875000D02*
X132873000Y-110875000D01*
X132423000Y-109825000D02*
X132423000Y-112225000D01*
X134023000Y-109825000D02*
X134023000Y-112225000D01*
X140716000Y-72517000D02*
X140716000Y-69977000D01*
X140716000Y-69977000D02*
X138176000Y-69977000D01*
X138176000Y-69977000D02*
X138176000Y-72517000D01*
X140716000Y-72517000D02*
X140716000Y-108077000D01*
X140716000Y-108077000D02*
X138176000Y-108077000D01*
X138176000Y-108077000D02*
X138176000Y-72517000D01*
X138176000Y-72517000D02*
X140716000Y-72517000D01*
X155956000Y-72517000D02*
X155956000Y-69977000D01*
X155956000Y-69977000D02*
X153416000Y-69977000D01*
X153416000Y-69977000D02*
X153416000Y-72517000D01*
X155956000Y-72517000D02*
X155956000Y-108077000D01*
X155956000Y-108077000D02*
X153416000Y-108077000D01*
X153416000Y-108077000D02*
X153416000Y-72517000D01*
X153416000Y-72517000D02*
X155956000Y-72517000D01*
X117856000Y-109347000D02*
X117856000Y-115697000D01*
X125476000Y-109347000D02*
X125476000Y-115697000D01*
X125476000Y-111252000D02*
X117856000Y-111252000D01*
X117856000Y-109347000D02*
X125476000Y-109347000D01*
X125476000Y-115697000D02*
X117856000Y-115697000D01*
X159440880Y-62113160D02*
G75*
G03X159440880Y-62113160I-2286000J0D01*
G01*
X159252920Y-119161560D02*
G75*
G03X159252920Y-119161560I-2286000J0D01*
G01*
X118430040Y-119100600D02*
G75*
G03X118430040Y-119100600I-2286000J0D01*
G01*
X118562120Y-62174120D02*
G75*
G03X118562120Y-62174120I-2286000J0D01*
G01*
X150702720Y-88361000D02*
X150702720Y-87661000D01*
X151902720Y-87661000D02*
X151902720Y-88361000D01*
X150061040Y-85395440D02*
X151061040Y-85395440D01*
X151061040Y-86745440D02*
X150061040Y-86745440D01*
X151725000Y-86352000D02*
X151725000Y-85352000D01*
X153075000Y-85352000D02*
X153075000Y-86352000D01*
X151725334Y-69445143D02*
X151677715Y-69492762D01*
X151534858Y-69540381D01*
X151439620Y-69540381D01*
X151296762Y-69492762D01*
X151201524Y-69397524D01*
X151153905Y-69302286D01*
X151106286Y-69111810D01*
X151106286Y-68968952D01*
X151153905Y-68778476D01*
X151201524Y-68683238D01*
X151296762Y-68588000D01*
X151439620Y-68540381D01*
X151534858Y-68540381D01*
X151677715Y-68588000D01*
X151725334Y-68635619D01*
X152677715Y-69540381D02*
X152106286Y-69540381D01*
X152392000Y-69540381D02*
X152392000Y-68540381D01*
X152296762Y-68683238D01*
X152201524Y-68778476D01*
X152106286Y-68826095D01*
X151725334Y-77319143D02*
X151677715Y-77366762D01*
X151534858Y-77414381D01*
X151439620Y-77414381D01*
X151296762Y-77366762D01*
X151201524Y-77271524D01*
X151153905Y-77176286D01*
X151106286Y-76985810D01*
X151106286Y-76842952D01*
X151153905Y-76652476D01*
X151201524Y-76557238D01*
X151296762Y-76462000D01*
X151439620Y-76414381D01*
X151534858Y-76414381D01*
X151677715Y-76462000D01*
X151725334Y-76509619D01*
X152106286Y-76509619D02*
X152153905Y-76462000D01*
X152249143Y-76414381D01*
X152487239Y-76414381D01*
X152582477Y-76462000D01*
X152630096Y-76509619D01*
X152677715Y-76604857D01*
X152677715Y-76700095D01*
X152630096Y-76842952D01*
X152058667Y-77414381D01*
X152677715Y-77414381D01*
X135479494Y-80031863D02*
X135431875Y-80079482D01*
X135289018Y-80127101D01*
X135193780Y-80127101D01*
X135050922Y-80079482D01*
X134955684Y-79984244D01*
X134908065Y-79889006D01*
X134860446Y-79698530D01*
X134860446Y-79555672D01*
X134908065Y-79365196D01*
X134955684Y-79269958D01*
X135050922Y-79174720D01*
X135193780Y-79127101D01*
X135289018Y-79127101D01*
X135431875Y-79174720D01*
X135479494Y-79222339D01*
X135812827Y-79127101D02*
X136431875Y-79127101D01*
X136098541Y-79508053D01*
X136241399Y-79508053D01*
X136336637Y-79555672D01*
X136384256Y-79603291D01*
X136431875Y-79698530D01*
X136431875Y-79936625D01*
X136384256Y-80031863D01*
X136336637Y-80079482D01*
X136241399Y-80127101D01*
X135955684Y-80127101D01*
X135860446Y-80079482D01*
X135812827Y-80031863D01*
X127178774Y-87733143D02*
X127131155Y-87780762D01*
X126988298Y-87828381D01*
X126893060Y-87828381D01*
X126750202Y-87780762D01*
X126654964Y-87685524D01*
X126607345Y-87590286D01*
X126559726Y-87399810D01*
X126559726Y-87256952D01*
X126607345Y-87066476D01*
X126654964Y-86971238D01*
X126750202Y-86876000D01*
X126893060Y-86828381D01*
X126988298Y-86828381D01*
X127131155Y-86876000D01*
X127178774Y-86923619D01*
X128035917Y-87161714D02*
X128035917Y-87828381D01*
X127797821Y-86780762D02*
X127559726Y-87495048D01*
X128178774Y-87495048D01*
X120864334Y-83034143D02*
X120816715Y-83081762D01*
X120673858Y-83129381D01*
X120578620Y-83129381D01*
X120435762Y-83081762D01*
X120340524Y-82986524D01*
X120292905Y-82891286D01*
X120245286Y-82700810D01*
X120245286Y-82557952D01*
X120292905Y-82367476D01*
X120340524Y-82272238D01*
X120435762Y-82177000D01*
X120578620Y-82129381D01*
X120673858Y-82129381D01*
X120816715Y-82177000D01*
X120864334Y-82224619D01*
X121769096Y-82129381D02*
X121292905Y-82129381D01*
X121245286Y-82605571D01*
X121292905Y-82557952D01*
X121388143Y-82510333D01*
X121626239Y-82510333D01*
X121721477Y-82557952D01*
X121769096Y-82605571D01*
X121816715Y-82700810D01*
X121816715Y-82938905D01*
X121769096Y-83034143D01*
X121721477Y-83081762D01*
X121626239Y-83129381D01*
X121388143Y-83129381D01*
X121292905Y-83081762D01*
X121245286Y-83034143D01*
X148677334Y-99798143D02*
X148629715Y-99845762D01*
X148486858Y-99893381D01*
X148391620Y-99893381D01*
X148248762Y-99845762D01*
X148153524Y-99750524D01*
X148105905Y-99655286D01*
X148058286Y-99464810D01*
X148058286Y-99321952D01*
X148105905Y-99131476D01*
X148153524Y-99036238D01*
X148248762Y-98941000D01*
X148391620Y-98893381D01*
X148486858Y-98893381D01*
X148629715Y-98941000D01*
X148677334Y-98988619D01*
X149534477Y-98893381D02*
X149344000Y-98893381D01*
X149248762Y-98941000D01*
X149201143Y-98988619D01*
X149105905Y-99131476D01*
X149058286Y-99321952D01*
X149058286Y-99702905D01*
X149105905Y-99798143D01*
X149153524Y-99845762D01*
X149248762Y-99893381D01*
X149439239Y-99893381D01*
X149534477Y-99845762D01*
X149582096Y-99798143D01*
X149629715Y-99702905D01*
X149629715Y-99464810D01*
X149582096Y-99369571D01*
X149534477Y-99321952D01*
X149439239Y-99274333D01*
X149248762Y-99274333D01*
X149153524Y-99321952D01*
X149105905Y-99369571D01*
X149058286Y-99464810D01*
X131532334Y-78843143D02*
X131484715Y-78890762D01*
X131341858Y-78938381D01*
X131246620Y-78938381D01*
X131103762Y-78890762D01*
X131008524Y-78795524D01*
X130960905Y-78700286D01*
X130913286Y-78509810D01*
X130913286Y-78366952D01*
X130960905Y-78176476D01*
X131008524Y-78081238D01*
X131103762Y-77986000D01*
X131246620Y-77938381D01*
X131341858Y-77938381D01*
X131484715Y-77986000D01*
X131532334Y-78033619D01*
X131865667Y-77938381D02*
X132532334Y-77938381D01*
X132103762Y-78938381D01*
X150160694Y-102739463D02*
X150113075Y-102787082D01*
X149970218Y-102834701D01*
X149874980Y-102834701D01*
X149732122Y-102787082D01*
X149636884Y-102691844D01*
X149589265Y-102596606D01*
X149541646Y-102406130D01*
X149541646Y-102263272D01*
X149589265Y-102072796D01*
X149636884Y-101977558D01*
X149732122Y-101882320D01*
X149874980Y-101834701D01*
X149970218Y-101834701D01*
X150113075Y-101882320D01*
X150160694Y-101929939D01*
X150732122Y-102263272D02*
X150636884Y-102215653D01*
X150589265Y-102168034D01*
X150541646Y-102072796D01*
X150541646Y-102025177D01*
X150589265Y-101929939D01*
X150636884Y-101882320D01*
X150732122Y-101834701D01*
X150922599Y-101834701D01*
X151017837Y-101882320D01*
X151065456Y-101929939D01*
X151113075Y-102025177D01*
X151113075Y-102072796D01*
X151065456Y-102168034D01*
X151017837Y-102215653D01*
X150922599Y-102263272D01*
X150732122Y-102263272D01*
X150636884Y-102310891D01*
X150589265Y-102358510D01*
X150541646Y-102453749D01*
X150541646Y-102644225D01*
X150589265Y-102739463D01*
X150636884Y-102787082D01*
X150732122Y-102834701D01*
X150922599Y-102834701D01*
X151017837Y-102787082D01*
X151065456Y-102739463D01*
X151113075Y-102644225D01*
X151113075Y-102453749D01*
X151065456Y-102358510D01*
X151017837Y-102310891D01*
X150922599Y-102263272D01*
X146327905Y-67254381D02*
X146327905Y-66254381D01*
X146566000Y-66254381D01*
X146708858Y-66302000D01*
X146804096Y-66397238D01*
X146851715Y-66492476D01*
X146899334Y-66682952D01*
X146899334Y-66825810D01*
X146851715Y-67016286D01*
X146804096Y-67111524D01*
X146708858Y-67206762D01*
X146566000Y-67254381D01*
X146327905Y-67254381D01*
X147851715Y-67254381D02*
X147280286Y-67254381D01*
X147566000Y-67254381D02*
X147566000Y-66254381D01*
X147470762Y-66397238D01*
X147375524Y-66492476D01*
X147280286Y-66540095D01*
X148486905Y-84272381D02*
X148486905Y-83272381D01*
X148725000Y-83272381D01*
X148867858Y-83320000D01*
X148963096Y-83415238D01*
X149010715Y-83510476D01*
X149058334Y-83700952D01*
X149058334Y-83843810D01*
X149010715Y-84034286D01*
X148963096Y-84129524D01*
X148867858Y-84224762D01*
X148725000Y-84272381D01*
X148486905Y-84272381D01*
X149915477Y-83605714D02*
X149915477Y-84272381D01*
X149677381Y-83224762D02*
X149439286Y-83939048D01*
X150058334Y-83939048D01*
X145788095Y-83510381D02*
X145788095Y-82510381D01*
X146359524Y-83510381D02*
X145930952Y-82938952D01*
X146359524Y-82510381D02*
X145788095Y-83081810D01*
X152161905Y-78652667D02*
X152638096Y-78652667D01*
X152066667Y-78938381D02*
X152400000Y-77938381D01*
X152733334Y-78938381D01*
X142678162Y-78576419D02*
X142582924Y-78528800D01*
X142487686Y-78433562D01*
X142344829Y-78290705D01*
X142249590Y-78243086D01*
X142154352Y-78243086D01*
X142201971Y-78481181D02*
X142106733Y-78433562D01*
X142011495Y-78338324D01*
X141963876Y-78147848D01*
X141963876Y-77814514D01*
X142011495Y-77624038D01*
X142106733Y-77528800D01*
X142201971Y-77481181D01*
X142392448Y-77481181D01*
X142487686Y-77528800D01*
X142582924Y-77624038D01*
X142630543Y-77814514D01*
X142630543Y-78147848D01*
X142582924Y-78338324D01*
X142487686Y-78433562D01*
X142392448Y-78481181D01*
X142201971Y-78481181D01*
X143582924Y-78481181D02*
X143011495Y-78481181D01*
X143297209Y-78481181D02*
X143297209Y-77481181D01*
X143201971Y-77624038D01*
X143106733Y-77719276D01*
X143011495Y-77766895D01*
X142347654Y-74635621D02*
X142014320Y-74159430D01*
X141776225Y-74635621D02*
X141776225Y-73635621D01*
X142157178Y-73635621D01*
X142252416Y-73683240D01*
X142300035Y-73730859D01*
X142347654Y-73826097D01*
X142347654Y-73968954D01*
X142300035Y-74064192D01*
X142252416Y-74111811D01*
X142157178Y-74159430D01*
X141776225Y-74159430D01*
X143300035Y-74635621D02*
X142728606Y-74635621D01*
X143014320Y-74635621D02*
X143014320Y-73635621D01*
X142919082Y-73778478D01*
X142823844Y-73873716D01*
X142728606Y-73921335D01*
X136307534Y-85704941D02*
X135974200Y-85228750D01*
X135736105Y-85704941D02*
X135736105Y-84704941D01*
X136117058Y-84704941D01*
X136212296Y-84752560D01*
X136259915Y-84800179D01*
X136307534Y-84895417D01*
X136307534Y-85038274D01*
X136259915Y-85133512D01*
X136212296Y-85181131D01*
X136117058Y-85228750D01*
X135736105Y-85228750D01*
X136688486Y-84800179D02*
X136736105Y-84752560D01*
X136831343Y-84704941D01*
X137069439Y-84704941D01*
X137164677Y-84752560D01*
X137212296Y-84800179D01*
X137259915Y-84895417D01*
X137259915Y-84990655D01*
X137212296Y-85133512D01*
X136640867Y-85704941D01*
X137259915Y-85704941D01*
X136719014Y-88427821D02*
X136385680Y-87951630D01*
X136147585Y-88427821D02*
X136147585Y-87427821D01*
X136528538Y-87427821D01*
X136623776Y-87475440D01*
X136671395Y-87523059D01*
X136719014Y-87618297D01*
X136719014Y-87761154D01*
X136671395Y-87856392D01*
X136623776Y-87904011D01*
X136528538Y-87951630D01*
X136147585Y-87951630D01*
X137052347Y-87427821D02*
X137671395Y-87427821D01*
X137338061Y-87808773D01*
X137480919Y-87808773D01*
X137576157Y-87856392D01*
X137623776Y-87904011D01*
X137671395Y-87999250D01*
X137671395Y-88237345D01*
X137623776Y-88332583D01*
X137576157Y-88380202D01*
X137480919Y-88427821D01*
X137195204Y-88427821D01*
X137099966Y-88380202D01*
X137052347Y-88332583D01*
X145375334Y-101417381D02*
X145042000Y-100941190D01*
X144803905Y-101417381D02*
X144803905Y-100417381D01*
X145184858Y-100417381D01*
X145280096Y-100465000D01*
X145327715Y-100512619D01*
X145375334Y-100607857D01*
X145375334Y-100750714D01*
X145327715Y-100845952D01*
X145280096Y-100893571D01*
X145184858Y-100941190D01*
X144803905Y-100941190D01*
X146232477Y-100750714D02*
X146232477Y-101417381D01*
X145994381Y-100369762D02*
X145756286Y-101084048D01*
X146375334Y-101084048D01*
X117445494Y-88107781D02*
X117112160Y-87631590D01*
X116874065Y-88107781D02*
X116874065Y-87107781D01*
X117255018Y-87107781D01*
X117350256Y-87155400D01*
X117397875Y-87203019D01*
X117445494Y-87298257D01*
X117445494Y-87441114D01*
X117397875Y-87536352D01*
X117350256Y-87583971D01*
X117255018Y-87631590D01*
X116874065Y-87631590D01*
X118350256Y-87107781D02*
X117874065Y-87107781D01*
X117826446Y-87583971D01*
X117874065Y-87536352D01*
X117969303Y-87488733D01*
X118207399Y-87488733D01*
X118302637Y-87536352D01*
X118350256Y-87583971D01*
X118397875Y-87679210D01*
X118397875Y-87917305D01*
X118350256Y-88012543D01*
X118302637Y-88060162D01*
X118207399Y-88107781D01*
X117969303Y-88107781D01*
X117874065Y-88060162D01*
X117826446Y-88012543D01*
X126920002Y-81212939D02*
X126824764Y-81165320D01*
X126729526Y-81070082D01*
X126586669Y-80927225D01*
X126491430Y-80879606D01*
X126396192Y-80879606D01*
X126443811Y-81117701D02*
X126348573Y-81070082D01*
X126253335Y-80974844D01*
X126205716Y-80784368D01*
X126205716Y-80451034D01*
X126253335Y-80260558D01*
X126348573Y-80165320D01*
X126443811Y-80117701D01*
X126634288Y-80117701D01*
X126729526Y-80165320D01*
X126824764Y-80260558D01*
X126872383Y-80451034D01*
X126872383Y-80784368D01*
X126824764Y-80974844D01*
X126729526Y-81070082D01*
X126634288Y-81117701D01*
X126443811Y-81117701D01*
X127253335Y-80212939D02*
X127300954Y-80165320D01*
X127396192Y-80117701D01*
X127634288Y-80117701D01*
X127729526Y-80165320D01*
X127777145Y-80212939D01*
X127824764Y-80308177D01*
X127824764Y-80403415D01*
X127777145Y-80546272D01*
X127205716Y-81117701D01*
X127824764Y-81117701D01*
X135885894Y-94636863D02*
X135838275Y-94684482D01*
X135695418Y-94732101D01*
X135600180Y-94732101D01*
X135457322Y-94684482D01*
X135362084Y-94589244D01*
X135314465Y-94494006D01*
X135266846Y-94303530D01*
X135266846Y-94160672D01*
X135314465Y-93970196D01*
X135362084Y-93874958D01*
X135457322Y-93779720D01*
X135600180Y-93732101D01*
X135695418Y-93732101D01*
X135838275Y-93779720D01*
X135885894Y-93827339D01*
X136362084Y-94732101D02*
X136552560Y-94732101D01*
X136647799Y-94684482D01*
X136695418Y-94636863D01*
X136790656Y-94494006D01*
X136838275Y-94303530D01*
X136838275Y-93922577D01*
X136790656Y-93827339D01*
X136743037Y-93779720D01*
X136647799Y-93732101D01*
X136457322Y-93732101D01*
X136362084Y-93779720D01*
X136314465Y-93827339D01*
X136266846Y-93922577D01*
X136266846Y-94160672D01*
X136314465Y-94255910D01*
X136362084Y-94303530D01*
X136457322Y-94351149D01*
X136647799Y-94351149D01*
X136743037Y-94303530D01*
X136790656Y-94255910D01*
X136838275Y-94160672D01*
X128465343Y-97908383D02*
X128417724Y-97956002D01*
X128274867Y-98003621D01*
X128179629Y-98003621D01*
X128036771Y-97956002D01*
X127941533Y-97860764D01*
X127893914Y-97765526D01*
X127846295Y-97575050D01*
X127846295Y-97432192D01*
X127893914Y-97241716D01*
X127941533Y-97146478D01*
X128036771Y-97051240D01*
X128179629Y-97003621D01*
X128274867Y-97003621D01*
X128417724Y-97051240D01*
X128465343Y-97098859D01*
X129417724Y-98003621D02*
X128846295Y-98003621D01*
X129132009Y-98003621D02*
X129132009Y-97003621D01*
X129036771Y-97146478D01*
X128941533Y-97241716D01*
X128846295Y-97289335D01*
X130036771Y-97003621D02*
X130132010Y-97003621D01*
X130227248Y-97051240D01*
X130274867Y-97098859D01*
X130322486Y-97194097D01*
X130370105Y-97384573D01*
X130370105Y-97622669D01*
X130322486Y-97813145D01*
X130274867Y-97908383D01*
X130227248Y-97956002D01*
X130132010Y-98003621D01*
X130036771Y-98003621D01*
X129941533Y-97956002D01*
X129893914Y-97908383D01*
X129846295Y-97813145D01*
X129798676Y-97622669D01*
X129798676Y-97384573D01*
X129846295Y-97194097D01*
X129893914Y-97098859D01*
X129941533Y-97051240D01*
X130036771Y-97003621D01*
X135369063Y-107834703D02*
X135321444Y-107882322D01*
X135178587Y-107929941D01*
X135083349Y-107929941D01*
X134940491Y-107882322D01*
X134845253Y-107787084D01*
X134797634Y-107691846D01*
X134750015Y-107501370D01*
X134750015Y-107358512D01*
X134797634Y-107168036D01*
X134845253Y-107072798D01*
X134940491Y-106977560D01*
X135083349Y-106929941D01*
X135178587Y-106929941D01*
X135321444Y-106977560D01*
X135369063Y-107025179D01*
X136321444Y-107929941D02*
X135750015Y-107929941D01*
X136035729Y-107929941D02*
X136035729Y-106929941D01*
X135940491Y-107072798D01*
X135845253Y-107168036D01*
X135750015Y-107215655D01*
X137273825Y-107929941D02*
X136702396Y-107929941D01*
X136988110Y-107929941D02*
X136988110Y-106929941D01*
X136892872Y-107072798D01*
X136797634Y-107168036D01*
X136702396Y-107215655D01*
X126738143Y-107418143D02*
X126690524Y-107465762D01*
X126547667Y-107513381D01*
X126452429Y-107513381D01*
X126309571Y-107465762D01*
X126214333Y-107370524D01*
X126166714Y-107275286D01*
X126119095Y-107084810D01*
X126119095Y-106941952D01*
X126166714Y-106751476D01*
X126214333Y-106656238D01*
X126309571Y-106561000D01*
X126452429Y-106513381D01*
X126547667Y-106513381D01*
X126690524Y-106561000D01*
X126738143Y-106608619D01*
X127690524Y-107513381D02*
X127119095Y-107513381D01*
X127404809Y-107513381D02*
X127404809Y-106513381D01*
X127309571Y-106656238D01*
X127214333Y-106751476D01*
X127119095Y-106799095D01*
X128071476Y-106608619D02*
X128119095Y-106561000D01*
X128214333Y-106513381D01*
X128452429Y-106513381D01*
X128547667Y-106561000D01*
X128595286Y-106608619D01*
X128642905Y-106703857D01*
X128642905Y-106799095D01*
X128595286Y-106941952D01*
X128023857Y-107513381D01*
X128642905Y-107513381D01*
X128028463Y-88972663D02*
X127980844Y-89020282D01*
X127837987Y-89067901D01*
X127742749Y-89067901D01*
X127599891Y-89020282D01*
X127504653Y-88925044D01*
X127457034Y-88829806D01*
X127409415Y-88639330D01*
X127409415Y-88496472D01*
X127457034Y-88305996D01*
X127504653Y-88210758D01*
X127599891Y-88115520D01*
X127742749Y-88067901D01*
X127837987Y-88067901D01*
X127980844Y-88115520D01*
X128028463Y-88163139D01*
X128980844Y-89067901D02*
X128409415Y-89067901D01*
X128695129Y-89067901D02*
X128695129Y-88067901D01*
X128599891Y-88210758D01*
X128504653Y-88305996D01*
X128409415Y-88353615D01*
X129314177Y-88067901D02*
X129933225Y-88067901D01*
X129599891Y-88448853D01*
X129742749Y-88448853D01*
X129837987Y-88496472D01*
X129885606Y-88544091D01*
X129933225Y-88639330D01*
X129933225Y-88877425D01*
X129885606Y-88972663D01*
X129837987Y-89020282D01*
X129742749Y-89067901D01*
X129457034Y-89067901D01*
X129361796Y-89020282D01*
X129314177Y-88972663D01*
X134520703Y-98136983D02*
X134473084Y-98184602D01*
X134330227Y-98232221D01*
X134234989Y-98232221D01*
X134092131Y-98184602D01*
X133996893Y-98089364D01*
X133949274Y-97994126D01*
X133901655Y-97803650D01*
X133901655Y-97660792D01*
X133949274Y-97470316D01*
X133996893Y-97375078D01*
X134092131Y-97279840D01*
X134234989Y-97232221D01*
X134330227Y-97232221D01*
X134473084Y-97279840D01*
X134520703Y-97327459D01*
X135473084Y-98232221D02*
X134901655Y-98232221D01*
X135187369Y-98232221D02*
X135187369Y-97232221D01*
X135092131Y-97375078D01*
X134996893Y-97470316D01*
X134901655Y-97517935D01*
X136330227Y-97565554D02*
X136330227Y-98232221D01*
X136092131Y-97184602D02*
X135854036Y-97898888D01*
X136473084Y-97898888D01*
X116705143Y-89638143D02*
X116657524Y-89685762D01*
X116514667Y-89733381D01*
X116419429Y-89733381D01*
X116276571Y-89685762D01*
X116181333Y-89590524D01*
X116133714Y-89495286D01*
X116086095Y-89304810D01*
X116086095Y-89161952D01*
X116133714Y-88971476D01*
X116181333Y-88876238D01*
X116276571Y-88781000D01*
X116419429Y-88733381D01*
X116514667Y-88733381D01*
X116657524Y-88781000D01*
X116705143Y-88828619D01*
X117657524Y-89733381D02*
X117086095Y-89733381D01*
X117371809Y-89733381D02*
X117371809Y-88733381D01*
X117276571Y-88876238D01*
X117181333Y-88971476D01*
X117086095Y-89019095D01*
X118562286Y-88733381D02*
X118086095Y-88733381D01*
X118038476Y-89209571D01*
X118086095Y-89161952D01*
X118181333Y-89114333D01*
X118419429Y-89114333D01*
X118514667Y-89161952D01*
X118562286Y-89209571D01*
X118609905Y-89304810D01*
X118609905Y-89542905D01*
X118562286Y-89638143D01*
X118514667Y-89685762D01*
X118419429Y-89733381D01*
X118181333Y-89733381D01*
X118086095Y-89685762D01*
X118038476Y-89638143D01*
X116705143Y-94972143D02*
X116657524Y-95019762D01*
X116514667Y-95067381D01*
X116419429Y-95067381D01*
X116276571Y-95019762D01*
X116181333Y-94924524D01*
X116133714Y-94829286D01*
X116086095Y-94638810D01*
X116086095Y-94495952D01*
X116133714Y-94305476D01*
X116181333Y-94210238D01*
X116276571Y-94115000D01*
X116419429Y-94067381D01*
X116514667Y-94067381D01*
X116657524Y-94115000D01*
X116705143Y-94162619D01*
X117657524Y-95067381D02*
X117086095Y-95067381D01*
X117371809Y-95067381D02*
X117371809Y-94067381D01*
X117276571Y-94210238D01*
X117181333Y-94305476D01*
X117086095Y-94353095D01*
X118514667Y-94067381D02*
X118324190Y-94067381D01*
X118228952Y-94115000D01*
X118181333Y-94162619D01*
X118086095Y-94305476D01*
X118038476Y-94495952D01*
X118038476Y-94876905D01*
X118086095Y-94972143D01*
X118133714Y-95019762D01*
X118228952Y-95067381D01*
X118419429Y-95067381D01*
X118514667Y-95019762D01*
X118562286Y-94972143D01*
X118609905Y-94876905D01*
X118609905Y-94638810D01*
X118562286Y-94543571D01*
X118514667Y-94495952D01*
X118419429Y-94448333D01*
X118228952Y-94448333D01*
X118133714Y-94495952D01*
X118086095Y-94543571D01*
X118038476Y-94638810D01*
X150720823Y-98319863D02*
X150673204Y-98367482D01*
X150530347Y-98415101D01*
X150435109Y-98415101D01*
X150292251Y-98367482D01*
X150197013Y-98272244D01*
X150149394Y-98177006D01*
X150101775Y-97986530D01*
X150101775Y-97843672D01*
X150149394Y-97653196D01*
X150197013Y-97557958D01*
X150292251Y-97462720D01*
X150435109Y-97415101D01*
X150530347Y-97415101D01*
X150673204Y-97462720D01*
X150720823Y-97510339D01*
X151673204Y-98415101D02*
X151101775Y-98415101D01*
X151387489Y-98415101D02*
X151387489Y-97415101D01*
X151292251Y-97557958D01*
X151197013Y-97653196D01*
X151101775Y-97700815D01*
X152006537Y-97415101D02*
X152673204Y-97415101D01*
X152244632Y-98415101D01*
X150685263Y-93209383D02*
X150637644Y-93257002D01*
X150494787Y-93304621D01*
X150399549Y-93304621D01*
X150256691Y-93257002D01*
X150161453Y-93161764D01*
X150113834Y-93066526D01*
X150066215Y-92876050D01*
X150066215Y-92733192D01*
X150113834Y-92542716D01*
X150161453Y-92447478D01*
X150256691Y-92352240D01*
X150399549Y-92304621D01*
X150494787Y-92304621D01*
X150637644Y-92352240D01*
X150685263Y-92399859D01*
X151637644Y-93304621D02*
X151066215Y-93304621D01*
X151351929Y-93304621D02*
X151351929Y-92304621D01*
X151256691Y-92447478D01*
X151161453Y-92542716D01*
X151066215Y-92590335D01*
X152209072Y-92733192D02*
X152113834Y-92685573D01*
X152066215Y-92637954D01*
X152018596Y-92542716D01*
X152018596Y-92495097D01*
X152066215Y-92399859D01*
X152113834Y-92352240D01*
X152209072Y-92304621D01*
X152399549Y-92304621D01*
X152494787Y-92352240D01*
X152542406Y-92399859D01*
X152590025Y-92495097D01*
X152590025Y-92542716D01*
X152542406Y-92637954D01*
X152494787Y-92685573D01*
X152399549Y-92733192D01*
X152209072Y-92733192D01*
X152113834Y-92780811D01*
X152066215Y-92828430D01*
X152018596Y-92923669D01*
X152018596Y-93114145D01*
X152066215Y-93209383D01*
X152113834Y-93257002D01*
X152209072Y-93304621D01*
X152399549Y-93304621D01*
X152494787Y-93257002D01*
X152542406Y-93209383D01*
X152590025Y-93114145D01*
X152590025Y-92923669D01*
X152542406Y-92828430D01*
X152494787Y-92780811D01*
X152399549Y-92733192D01*
X138503423Y-113366823D02*
X138455804Y-113414442D01*
X138312947Y-113462061D01*
X138217709Y-113462061D01*
X138074851Y-113414442D01*
X137979613Y-113319204D01*
X137931994Y-113223966D01*
X137884375Y-113033490D01*
X137884375Y-112890632D01*
X137931994Y-112700156D01*
X137979613Y-112604918D01*
X138074851Y-112509680D01*
X138217709Y-112462061D01*
X138312947Y-112462061D01*
X138455804Y-112509680D01*
X138503423Y-112557299D01*
X139455804Y-113462061D02*
X138884375Y-113462061D01*
X139170089Y-113462061D02*
X139170089Y-112462061D01*
X139074851Y-112604918D01*
X138979613Y-112700156D01*
X138884375Y-112747775D01*
X139931994Y-113462061D02*
X140122470Y-113462061D01*
X140217709Y-113414442D01*
X140265328Y-113366823D01*
X140360566Y-113223966D01*
X140408185Y-113033490D01*
X140408185Y-112652537D01*
X140360566Y-112557299D01*
X140312947Y-112509680D01*
X140217709Y-112462061D01*
X140027232Y-112462061D01*
X139931994Y-112509680D01*
X139884375Y-112557299D01*
X139836756Y-112652537D01*
X139836756Y-112890632D01*
X139884375Y-112985870D01*
X139931994Y-113033490D01*
X140027232Y-113081109D01*
X140217709Y-113081109D01*
X140312947Y-113033490D01*
X140360566Y-112985870D01*
X140408185Y-112890632D01*
X130040143Y-117070143D02*
X129992524Y-117117762D01*
X129849667Y-117165381D01*
X129754429Y-117165381D01*
X129611571Y-117117762D01*
X129516333Y-117022524D01*
X129468714Y-116927286D01*
X129421095Y-116736810D01*
X129421095Y-116593952D01*
X129468714Y-116403476D01*
X129516333Y-116308238D01*
X129611571Y-116213000D01*
X129754429Y-116165381D01*
X129849667Y-116165381D01*
X129992524Y-116213000D01*
X130040143Y-116260619D01*
X130421095Y-116260619D02*
X130468714Y-116213000D01*
X130563952Y-116165381D01*
X130802048Y-116165381D01*
X130897286Y-116213000D01*
X130944905Y-116260619D01*
X130992524Y-116355857D01*
X130992524Y-116451095D01*
X130944905Y-116593952D01*
X130373476Y-117165381D01*
X130992524Y-117165381D01*
X131611571Y-116165381D02*
X131706810Y-116165381D01*
X131802048Y-116213000D01*
X131849667Y-116260619D01*
X131897286Y-116355857D01*
X131944905Y-116546333D01*
X131944905Y-116784429D01*
X131897286Y-116974905D01*
X131849667Y-117070143D01*
X131802048Y-117117762D01*
X131706810Y-117165381D01*
X131611571Y-117165381D01*
X131516333Y-117117762D01*
X131468714Y-117070143D01*
X131421095Y-116974905D01*
X131373476Y-116784429D01*
X131373476Y-116546333D01*
X131421095Y-116355857D01*
X131468714Y-116260619D01*
X131516333Y-116213000D01*
X131611571Y-116165381D01*
X127500143Y-108942143D02*
X127452524Y-108989762D01*
X127309667Y-109037381D01*
X127214429Y-109037381D01*
X127071571Y-108989762D01*
X126976333Y-108894524D01*
X126928714Y-108799286D01*
X126881095Y-108608810D01*
X126881095Y-108465952D01*
X126928714Y-108275476D01*
X126976333Y-108180238D01*
X127071571Y-108085000D01*
X127214429Y-108037381D01*
X127309667Y-108037381D01*
X127452524Y-108085000D01*
X127500143Y-108132619D01*
X127881095Y-108132619D02*
X127928714Y-108085000D01*
X128023952Y-108037381D01*
X128262048Y-108037381D01*
X128357286Y-108085000D01*
X128404905Y-108132619D01*
X128452524Y-108227857D01*
X128452524Y-108323095D01*
X128404905Y-108465952D01*
X127833476Y-109037381D01*
X128452524Y-109037381D01*
X129404905Y-109037381D02*
X128833476Y-109037381D01*
X129119190Y-109037381D02*
X129119190Y-108037381D01*
X129023952Y-108180238D01*
X128928714Y-108275476D01*
X128833476Y-108323095D01*
X116832143Y-100306143D02*
X116784524Y-100353762D01*
X116641667Y-100401381D01*
X116546429Y-100401381D01*
X116403571Y-100353762D01*
X116308333Y-100258524D01*
X116260714Y-100163286D01*
X116213095Y-99972810D01*
X116213095Y-99829952D01*
X116260714Y-99639476D01*
X116308333Y-99544238D01*
X116403571Y-99449000D01*
X116546429Y-99401381D01*
X116641667Y-99401381D01*
X116784524Y-99449000D01*
X116832143Y-99496619D01*
X117213095Y-99496619D02*
X117260714Y-99449000D01*
X117355952Y-99401381D01*
X117594048Y-99401381D01*
X117689286Y-99449000D01*
X117736905Y-99496619D01*
X117784524Y-99591857D01*
X117784524Y-99687095D01*
X117736905Y-99829952D01*
X117165476Y-100401381D01*
X117784524Y-100401381D01*
X118165476Y-99496619D02*
X118213095Y-99449000D01*
X118308333Y-99401381D01*
X118546429Y-99401381D01*
X118641667Y-99449000D01*
X118689286Y-99496619D01*
X118736905Y-99591857D01*
X118736905Y-99687095D01*
X118689286Y-99829952D01*
X118117857Y-100401381D01*
X118736905Y-100401381D01*
X150797023Y-90440783D02*
X150749404Y-90488402D01*
X150606547Y-90536021D01*
X150511309Y-90536021D01*
X150368451Y-90488402D01*
X150273213Y-90393164D01*
X150225594Y-90297926D01*
X150177975Y-90107450D01*
X150177975Y-89964592D01*
X150225594Y-89774116D01*
X150273213Y-89678878D01*
X150368451Y-89583640D01*
X150511309Y-89536021D01*
X150606547Y-89536021D01*
X150749404Y-89583640D01*
X150797023Y-89631259D01*
X151177975Y-89631259D02*
X151225594Y-89583640D01*
X151320832Y-89536021D01*
X151558928Y-89536021D01*
X151654166Y-89583640D01*
X151701785Y-89631259D01*
X151749404Y-89726497D01*
X151749404Y-89821735D01*
X151701785Y-89964592D01*
X151130356Y-90536021D01*
X151749404Y-90536021D01*
X152082737Y-89536021D02*
X152701785Y-89536021D01*
X152368451Y-89916973D01*
X152511309Y-89916973D01*
X152606547Y-89964592D01*
X152654166Y-90012211D01*
X152701785Y-90107450D01*
X152701785Y-90345545D01*
X152654166Y-90440783D01*
X152606547Y-90488402D01*
X152511309Y-90536021D01*
X152225594Y-90536021D01*
X152130356Y-90488402D01*
X152082737Y-90440783D01*
X118112303Y-106879663D02*
X118064684Y-106927282D01*
X117921827Y-106974901D01*
X117826589Y-106974901D01*
X117683731Y-106927282D01*
X117588493Y-106832044D01*
X117540874Y-106736806D01*
X117493255Y-106546330D01*
X117493255Y-106403472D01*
X117540874Y-106212996D01*
X117588493Y-106117758D01*
X117683731Y-106022520D01*
X117826589Y-105974901D01*
X117921827Y-105974901D01*
X118064684Y-106022520D01*
X118112303Y-106070139D01*
X118493255Y-106070139D02*
X118540874Y-106022520D01*
X118636112Y-105974901D01*
X118874208Y-105974901D01*
X118969446Y-106022520D01*
X119017065Y-106070139D01*
X119064684Y-106165377D01*
X119064684Y-106260615D01*
X119017065Y-106403472D01*
X118445636Y-106974901D01*
X119064684Y-106974901D01*
X119921827Y-106308234D02*
X119921827Y-106974901D01*
X119683731Y-105927282D02*
X119445636Y-106641568D01*
X120064684Y-106641568D01*
X123594905Y-68905381D02*
X123594905Y-67905381D01*
X123975858Y-67905381D01*
X124071096Y-67953000D01*
X124118715Y-68000619D01*
X124166334Y-68095857D01*
X124166334Y-68238714D01*
X124118715Y-68333952D01*
X124071096Y-68381571D01*
X123975858Y-68429190D01*
X123594905Y-68429190D01*
X124499667Y-67905381D02*
X125166334Y-67905381D01*
X124737762Y-68905381D01*
X146676122Y-84895939D02*
X146580884Y-84848320D01*
X146485646Y-84753082D01*
X146342789Y-84610225D01*
X146247550Y-84562606D01*
X146152312Y-84562606D01*
X146199931Y-84800701D02*
X146104693Y-84753082D01*
X146009455Y-84657844D01*
X145961836Y-84467368D01*
X145961836Y-84134034D01*
X146009455Y-83943558D01*
X146104693Y-83848320D01*
X146199931Y-83800701D01*
X146390408Y-83800701D01*
X146485646Y-83848320D01*
X146580884Y-83943558D01*
X146628503Y-84134034D01*
X146628503Y-84467368D01*
X146580884Y-84657844D01*
X146485646Y-84753082D01*
X146390408Y-84800701D01*
X146199931Y-84800701D01*
X146961836Y-83800701D02*
X147580884Y-83800701D01*
X147247550Y-84181653D01*
X147390408Y-84181653D01*
X147485646Y-84229272D01*
X147533265Y-84276891D01*
X147580884Y-84372130D01*
X147580884Y-84610225D01*
X147533265Y-84705463D01*
X147485646Y-84753082D01*
X147390408Y-84800701D01*
X147104693Y-84800701D01*
X147009455Y-84753082D01*
X146961836Y-84705463D01*
X144938762Y-86653619D02*
X144843524Y-86606000D01*
X144748286Y-86510762D01*
X144605429Y-86367905D01*
X144510190Y-86320286D01*
X144414952Y-86320286D01*
X144462571Y-86558381D02*
X144367333Y-86510762D01*
X144272095Y-86415524D01*
X144224476Y-86225048D01*
X144224476Y-85891714D01*
X144272095Y-85701238D01*
X144367333Y-85606000D01*
X144462571Y-85558381D01*
X144653048Y-85558381D01*
X144748286Y-85606000D01*
X144843524Y-85701238D01*
X144891143Y-85891714D01*
X144891143Y-86225048D01*
X144843524Y-86415524D01*
X144748286Y-86510762D01*
X144653048Y-86558381D01*
X144462571Y-86558381D01*
X145748286Y-85891714D02*
X145748286Y-86558381D01*
X145510190Y-85510762D02*
X145272095Y-86225048D01*
X145891143Y-86225048D01*
X127031762Y-96686619D02*
X126936524Y-96639000D01*
X126841286Y-96543762D01*
X126698429Y-96400905D01*
X126603190Y-96353286D01*
X126507952Y-96353286D01*
X126555571Y-96591381D02*
X126460333Y-96543762D01*
X126365095Y-96448524D01*
X126317476Y-96258048D01*
X126317476Y-95924714D01*
X126365095Y-95734238D01*
X126460333Y-95639000D01*
X126555571Y-95591381D01*
X126746048Y-95591381D01*
X126841286Y-95639000D01*
X126936524Y-95734238D01*
X126984143Y-95924714D01*
X126984143Y-96258048D01*
X126936524Y-96448524D01*
X126841286Y-96543762D01*
X126746048Y-96591381D01*
X126555571Y-96591381D01*
X127888905Y-95591381D02*
X127412714Y-95591381D01*
X127365095Y-96067571D01*
X127412714Y-96019952D01*
X127507952Y-95972333D01*
X127746048Y-95972333D01*
X127841286Y-96019952D01*
X127888905Y-96067571D01*
X127936524Y-96162810D01*
X127936524Y-96400905D01*
X127888905Y-96496143D01*
X127841286Y-96543762D01*
X127746048Y-96591381D01*
X127507952Y-96591381D01*
X127412714Y-96543762D01*
X127365095Y-96496143D01*
X127367042Y-105993179D02*
X127271804Y-105945560D01*
X127176566Y-105850322D01*
X127033709Y-105707465D01*
X126938470Y-105659846D01*
X126843232Y-105659846D01*
X126890851Y-105897941D02*
X126795613Y-105850322D01*
X126700375Y-105755084D01*
X126652756Y-105564608D01*
X126652756Y-105231274D01*
X126700375Y-105040798D01*
X126795613Y-104945560D01*
X126890851Y-104897941D01*
X127081328Y-104897941D01*
X127176566Y-104945560D01*
X127271804Y-105040798D01*
X127319423Y-105231274D01*
X127319423Y-105564608D01*
X127271804Y-105755084D01*
X127176566Y-105850322D01*
X127081328Y-105897941D01*
X126890851Y-105897941D01*
X128176566Y-104897941D02*
X127986089Y-104897941D01*
X127890851Y-104945560D01*
X127843232Y-104993179D01*
X127747994Y-105136036D01*
X127700375Y-105326512D01*
X127700375Y-105707465D01*
X127747994Y-105802703D01*
X127795613Y-105850322D01*
X127890851Y-105897941D01*
X128081328Y-105897941D01*
X128176566Y-105850322D01*
X128224185Y-105802703D01*
X128271804Y-105707465D01*
X128271804Y-105469370D01*
X128224185Y-105374131D01*
X128176566Y-105326512D01*
X128081328Y-105278893D01*
X127890851Y-105278893D01*
X127795613Y-105326512D01*
X127747994Y-105374131D01*
X127700375Y-105469370D01*
X144938762Y-89955619D02*
X144843524Y-89908000D01*
X144748286Y-89812762D01*
X144605429Y-89669905D01*
X144510190Y-89622286D01*
X144414952Y-89622286D01*
X144462571Y-89860381D02*
X144367333Y-89812762D01*
X144272095Y-89717524D01*
X144224476Y-89527048D01*
X144224476Y-89193714D01*
X144272095Y-89003238D01*
X144367333Y-88908000D01*
X144462571Y-88860381D01*
X144653048Y-88860381D01*
X144748286Y-88908000D01*
X144843524Y-89003238D01*
X144891143Y-89193714D01*
X144891143Y-89527048D01*
X144843524Y-89717524D01*
X144748286Y-89812762D01*
X144653048Y-89860381D01*
X144462571Y-89860381D01*
X145224476Y-88860381D02*
X145891143Y-88860381D01*
X145462571Y-89860381D01*
X127006362Y-115320059D02*
X126911124Y-115272440D01*
X126815886Y-115177202D01*
X126673029Y-115034345D01*
X126577790Y-114986726D01*
X126482552Y-114986726D01*
X126530171Y-115224821D02*
X126434933Y-115177202D01*
X126339695Y-115081964D01*
X126292076Y-114891488D01*
X126292076Y-114558154D01*
X126339695Y-114367678D01*
X126434933Y-114272440D01*
X126530171Y-114224821D01*
X126720648Y-114224821D01*
X126815886Y-114272440D01*
X126911124Y-114367678D01*
X126958743Y-114558154D01*
X126958743Y-114891488D01*
X126911124Y-115081964D01*
X126815886Y-115177202D01*
X126720648Y-115224821D01*
X126530171Y-115224821D01*
X127530171Y-114653392D02*
X127434933Y-114605773D01*
X127387314Y-114558154D01*
X127339695Y-114462916D01*
X127339695Y-114415297D01*
X127387314Y-114320059D01*
X127434933Y-114272440D01*
X127530171Y-114224821D01*
X127720648Y-114224821D01*
X127815886Y-114272440D01*
X127863505Y-114320059D01*
X127911124Y-114415297D01*
X127911124Y-114462916D01*
X127863505Y-114558154D01*
X127815886Y-114605773D01*
X127720648Y-114653392D01*
X127530171Y-114653392D01*
X127434933Y-114701011D01*
X127387314Y-114748630D01*
X127339695Y-114843869D01*
X127339695Y-115034345D01*
X127387314Y-115129583D01*
X127434933Y-115177202D01*
X127530171Y-115224821D01*
X127720648Y-115224821D01*
X127815886Y-115177202D01*
X127863505Y-115129583D01*
X127911124Y-115034345D01*
X127911124Y-114843869D01*
X127863505Y-114748630D01*
X127815886Y-114701011D01*
X127720648Y-114653392D01*
X131151334Y-96591381D02*
X130818000Y-96115190D01*
X130579905Y-96591381D02*
X130579905Y-95591381D01*
X130960858Y-95591381D01*
X131056096Y-95639000D01*
X131103715Y-95686619D01*
X131151334Y-95781857D01*
X131151334Y-95924714D01*
X131103715Y-96019952D01*
X131056096Y-96067571D01*
X130960858Y-96115190D01*
X130579905Y-96115190D01*
X132008477Y-95591381D02*
X131818000Y-95591381D01*
X131722762Y-95639000D01*
X131675143Y-95686619D01*
X131579905Y-95829476D01*
X131532286Y-96019952D01*
X131532286Y-96400905D01*
X131579905Y-96496143D01*
X131627524Y-96543762D01*
X131722762Y-96591381D01*
X131913239Y-96591381D01*
X132008477Y-96543762D01*
X132056096Y-96496143D01*
X132103715Y-96400905D01*
X132103715Y-96162810D01*
X132056096Y-96067571D01*
X132008477Y-96019952D01*
X131913239Y-95972333D01*
X131722762Y-95972333D01*
X131627524Y-96019952D01*
X131579905Y-96067571D01*
X131532286Y-96162810D01*
X136307534Y-105328981D02*
X135974200Y-104852790D01*
X135736105Y-105328981D02*
X135736105Y-104328981D01*
X136117058Y-104328981D01*
X136212296Y-104376600D01*
X136259915Y-104424219D01*
X136307534Y-104519457D01*
X136307534Y-104662314D01*
X136259915Y-104757552D01*
X136212296Y-104805171D01*
X136117058Y-104852790D01*
X135736105Y-104852790D01*
X136640867Y-104328981D02*
X137307534Y-104328981D01*
X136878962Y-105328981D01*
X136571694Y-90718901D02*
X136238360Y-90242710D01*
X136000265Y-90718901D02*
X136000265Y-89718901D01*
X136381218Y-89718901D01*
X136476456Y-89766520D01*
X136524075Y-89814139D01*
X136571694Y-89909377D01*
X136571694Y-90052234D01*
X136524075Y-90147472D01*
X136476456Y-90195091D01*
X136381218Y-90242710D01*
X136000265Y-90242710D01*
X137143122Y-90147472D02*
X137047884Y-90099853D01*
X137000265Y-90052234D01*
X136952646Y-89956996D01*
X136952646Y-89909377D01*
X137000265Y-89814139D01*
X137047884Y-89766520D01*
X137143122Y-89718901D01*
X137333599Y-89718901D01*
X137428837Y-89766520D01*
X137476456Y-89814139D01*
X137524075Y-89909377D01*
X137524075Y-89956996D01*
X137476456Y-90052234D01*
X137428837Y-90099853D01*
X137333599Y-90147472D01*
X137143122Y-90147472D01*
X137047884Y-90195091D01*
X137000265Y-90242710D01*
X136952646Y-90337949D01*
X136952646Y-90528425D01*
X137000265Y-90623663D01*
X137047884Y-90671282D01*
X137143122Y-90718901D01*
X137333599Y-90718901D01*
X137428837Y-90671282D01*
X137476456Y-90623663D01*
X137524075Y-90528425D01*
X137524075Y-90337949D01*
X137476456Y-90242710D01*
X137428837Y-90195091D01*
X137333599Y-90147472D01*
X136078934Y-99807021D02*
X135745600Y-99330830D01*
X135507505Y-99807021D02*
X135507505Y-98807021D01*
X135888458Y-98807021D01*
X135983696Y-98854640D01*
X136031315Y-98902259D01*
X136078934Y-98997497D01*
X136078934Y-99140354D01*
X136031315Y-99235592D01*
X135983696Y-99283211D01*
X135888458Y-99330830D01*
X135507505Y-99330830D01*
X136555124Y-99807021D02*
X136745600Y-99807021D01*
X136840839Y-99759402D01*
X136888458Y-99711783D01*
X136983696Y-99568926D01*
X137031315Y-99378450D01*
X137031315Y-98997497D01*
X136983696Y-98902259D01*
X136936077Y-98854640D01*
X136840839Y-98807021D01*
X136650362Y-98807021D01*
X136555124Y-98854640D01*
X136507505Y-98902259D01*
X136459886Y-98997497D01*
X136459886Y-99235592D01*
X136507505Y-99330830D01*
X136555124Y-99378450D01*
X136650362Y-99426069D01*
X136840839Y-99426069D01*
X136936077Y-99378450D01*
X136983696Y-99330830D01*
X137031315Y-99235592D01*
X116578143Y-93253821D02*
X116244809Y-92777630D01*
X116006714Y-93253821D02*
X116006714Y-92253821D01*
X116387667Y-92253821D01*
X116482905Y-92301440D01*
X116530524Y-92349059D01*
X116578143Y-92444297D01*
X116578143Y-92587154D01*
X116530524Y-92682392D01*
X116482905Y-92730011D01*
X116387667Y-92777630D01*
X116006714Y-92777630D01*
X117530524Y-93253821D02*
X116959095Y-93253821D01*
X117244809Y-93253821D02*
X117244809Y-92253821D01*
X117149571Y-92396678D01*
X117054333Y-92491916D01*
X116959095Y-92539535D01*
X118149571Y-92253821D02*
X118244810Y-92253821D01*
X118340048Y-92301440D01*
X118387667Y-92349059D01*
X118435286Y-92444297D01*
X118482905Y-92634773D01*
X118482905Y-92872869D01*
X118435286Y-93063345D01*
X118387667Y-93158583D01*
X118340048Y-93206202D01*
X118244810Y-93253821D01*
X118149571Y-93253821D01*
X118054333Y-93206202D01*
X118006714Y-93158583D01*
X117959095Y-93063345D01*
X117911476Y-92872869D01*
X117911476Y-92634773D01*
X117959095Y-92444297D01*
X118006714Y-92349059D01*
X118054333Y-92301440D01*
X118149571Y-92253821D01*
X116613703Y-98288101D02*
X116280369Y-97811910D01*
X116042274Y-98288101D02*
X116042274Y-97288101D01*
X116423227Y-97288101D01*
X116518465Y-97335720D01*
X116566084Y-97383339D01*
X116613703Y-97478577D01*
X116613703Y-97621434D01*
X116566084Y-97716672D01*
X116518465Y-97764291D01*
X116423227Y-97811910D01*
X116042274Y-97811910D01*
X117566084Y-98288101D02*
X116994655Y-98288101D01*
X117280369Y-98288101D02*
X117280369Y-97288101D01*
X117185131Y-97430958D01*
X117089893Y-97526196D01*
X116994655Y-97573815D01*
X118518465Y-98288101D02*
X117947036Y-98288101D01*
X118232750Y-98288101D02*
X118232750Y-97288101D01*
X118137512Y-97430958D01*
X118042274Y-97526196D01*
X117947036Y-97573815D01*
X146997183Y-96626941D02*
X146663849Y-96150750D01*
X146425754Y-96626941D02*
X146425754Y-95626941D01*
X146806707Y-95626941D01*
X146901945Y-95674560D01*
X146949564Y-95722179D01*
X146997183Y-95817417D01*
X146997183Y-95960274D01*
X146949564Y-96055512D01*
X146901945Y-96103131D01*
X146806707Y-96150750D01*
X146425754Y-96150750D01*
X147949564Y-96626941D02*
X147378135Y-96626941D01*
X147663849Y-96626941D02*
X147663849Y-95626941D01*
X147568611Y-95769798D01*
X147473373Y-95865036D01*
X147378135Y-95912655D01*
X148330516Y-95722179D02*
X148378135Y-95674560D01*
X148473373Y-95626941D01*
X148711469Y-95626941D01*
X148806707Y-95674560D01*
X148854326Y-95722179D01*
X148901945Y-95817417D01*
X148901945Y-95912655D01*
X148854326Y-96055512D01*
X148282897Y-96626941D01*
X148901945Y-96626941D01*
X144624823Y-94158061D02*
X144291489Y-93681870D01*
X144053394Y-94158061D02*
X144053394Y-93158061D01*
X144434347Y-93158061D01*
X144529585Y-93205680D01*
X144577204Y-93253299D01*
X144624823Y-93348537D01*
X144624823Y-93491394D01*
X144577204Y-93586632D01*
X144529585Y-93634251D01*
X144434347Y-93681870D01*
X144053394Y-93681870D01*
X145577204Y-94158061D02*
X145005775Y-94158061D01*
X145291489Y-94158061D02*
X145291489Y-93158061D01*
X145196251Y-93300918D01*
X145101013Y-93396156D01*
X145005775Y-93443775D01*
X145910537Y-93158061D02*
X146529585Y-93158061D01*
X146196251Y-93539013D01*
X146339109Y-93539013D01*
X146434347Y-93586632D01*
X146481966Y-93634251D01*
X146529585Y-93729490D01*
X146529585Y-93967585D01*
X146481966Y-94062823D01*
X146434347Y-94110442D01*
X146339109Y-94158061D01*
X146053394Y-94158061D01*
X145958156Y-94110442D01*
X145910537Y-94062823D01*
X136491743Y-116002061D02*
X136158409Y-115525870D01*
X135920314Y-116002061D02*
X135920314Y-115002061D01*
X136301267Y-115002061D01*
X136396505Y-115049680D01*
X136444124Y-115097299D01*
X136491743Y-115192537D01*
X136491743Y-115335394D01*
X136444124Y-115430632D01*
X136396505Y-115478251D01*
X136301267Y-115525870D01*
X135920314Y-115525870D01*
X137444124Y-116002061D02*
X136872695Y-116002061D01*
X137158409Y-116002061D02*
X137158409Y-115002061D01*
X137063171Y-115144918D01*
X136967933Y-115240156D01*
X136872695Y-115287775D01*
X138301267Y-115335394D02*
X138301267Y-116002061D01*
X138063171Y-114954442D02*
X137825076Y-115668728D01*
X138444124Y-115668728D01*
X135369063Y-109159301D02*
X135035729Y-108683110D01*
X134797634Y-109159301D02*
X134797634Y-108159301D01*
X135178587Y-108159301D01*
X135273825Y-108206920D01*
X135321444Y-108254539D01*
X135369063Y-108349777D01*
X135369063Y-108492634D01*
X135321444Y-108587872D01*
X135273825Y-108635491D01*
X135178587Y-108683110D01*
X134797634Y-108683110D01*
X136321444Y-109159301D02*
X135750015Y-109159301D01*
X136035729Y-109159301D02*
X136035729Y-108159301D01*
X135940491Y-108302158D01*
X135845253Y-108397396D01*
X135750015Y-108445015D01*
X137226206Y-108159301D02*
X136750015Y-108159301D01*
X136702396Y-108635491D01*
X136750015Y-108587872D01*
X136845253Y-108540253D01*
X137083349Y-108540253D01*
X137178587Y-108587872D01*
X137226206Y-108635491D01*
X137273825Y-108730730D01*
X137273825Y-108968825D01*
X137226206Y-109064063D01*
X137178587Y-109111682D01*
X137083349Y-109159301D01*
X136845253Y-109159301D01*
X136750015Y-109111682D01*
X136702396Y-109064063D01*
X119047023Y-104902261D02*
X118713689Y-104426070D01*
X118475594Y-104902261D02*
X118475594Y-103902261D01*
X118856547Y-103902261D01*
X118951785Y-103949880D01*
X118999404Y-103997499D01*
X119047023Y-104092737D01*
X119047023Y-104235594D01*
X118999404Y-104330832D01*
X118951785Y-104378451D01*
X118856547Y-104426070D01*
X118475594Y-104426070D01*
X119999404Y-104902261D02*
X119427975Y-104902261D01*
X119713689Y-104902261D02*
X119713689Y-103902261D01*
X119618451Y-104045118D01*
X119523213Y-104140356D01*
X119427975Y-104187975D01*
X120856547Y-103902261D02*
X120666070Y-103902261D01*
X120570832Y-103949880D01*
X120523213Y-103997499D01*
X120427975Y-104140356D01*
X120380356Y-104330832D01*
X120380356Y-104711785D01*
X120427975Y-104807023D01*
X120475594Y-104854642D01*
X120570832Y-104902261D01*
X120761309Y-104902261D01*
X120856547Y-104854642D01*
X120904166Y-104807023D01*
X120951785Y-104711785D01*
X120951785Y-104473690D01*
X120904166Y-104378451D01*
X120856547Y-104330832D01*
X120761309Y-104283213D01*
X120570832Y-104283213D01*
X120475594Y-104330832D01*
X120427975Y-104378451D01*
X120380356Y-104473690D01*
X147693143Y-91892381D02*
X147359809Y-91416190D01*
X147121714Y-91892381D02*
X147121714Y-90892381D01*
X147502667Y-90892381D01*
X147597905Y-90940000D01*
X147645524Y-90987619D01*
X147693143Y-91082857D01*
X147693143Y-91225714D01*
X147645524Y-91320952D01*
X147597905Y-91368571D01*
X147502667Y-91416190D01*
X147121714Y-91416190D01*
X148645524Y-91892381D02*
X148074095Y-91892381D01*
X148359809Y-91892381D02*
X148359809Y-90892381D01*
X148264571Y-91035238D01*
X148169333Y-91130476D01*
X148074095Y-91178095D01*
X148978857Y-90892381D02*
X149645524Y-90892381D01*
X149216952Y-91892381D01*
X115384343Y-108810063D02*
X115336724Y-108857682D01*
X115193867Y-108905301D01*
X115098629Y-108905301D01*
X114955771Y-108857682D01*
X114860533Y-108762444D01*
X114812914Y-108667206D01*
X114765295Y-108476730D01*
X114765295Y-108333872D01*
X114812914Y-108143396D01*
X114860533Y-108048158D01*
X114955771Y-107952920D01*
X115098629Y-107905301D01*
X115193867Y-107905301D01*
X115336724Y-107952920D01*
X115384343Y-108000539D01*
X115765295Y-108000539D02*
X115812914Y-107952920D01*
X115908152Y-107905301D01*
X116146248Y-107905301D01*
X116241486Y-107952920D01*
X116289105Y-108000539D01*
X116336724Y-108095777D01*
X116336724Y-108191015D01*
X116289105Y-108333872D01*
X115717676Y-108905301D01*
X116336724Y-108905301D01*
X117241486Y-107905301D02*
X116765295Y-107905301D01*
X116717676Y-108381491D01*
X116765295Y-108333872D01*
X116860533Y-108286253D01*
X117098629Y-108286253D01*
X117193867Y-108333872D01*
X117241486Y-108381491D01*
X117289105Y-108476730D01*
X117289105Y-108714825D01*
X117241486Y-108810063D01*
X117193867Y-108857682D01*
X117098629Y-108905301D01*
X116860533Y-108905301D01*
X116765295Y-108857682D01*
X116717676Y-108810063D01*
X133561865Y-86035141D02*
X133561865Y-85035141D01*
X133799960Y-85035141D01*
X133942818Y-85082760D01*
X134038056Y-85177998D01*
X134085675Y-85273236D01*
X134133294Y-85463712D01*
X134133294Y-85606570D01*
X134085675Y-85797046D01*
X134038056Y-85892284D01*
X133942818Y-85987522D01*
X133799960Y-86035141D01*
X133561865Y-86035141D01*
X134514246Y-85130379D02*
X134561865Y-85082760D01*
X134657103Y-85035141D01*
X134895199Y-85035141D01*
X134990437Y-85082760D01*
X135038056Y-85130379D01*
X135085675Y-85225617D01*
X135085675Y-85320855D01*
X135038056Y-85463712D01*
X134466627Y-86035141D01*
X135085675Y-86035141D01*
X117067105Y-85186781D02*
X117067105Y-84186781D01*
X117305200Y-84186781D01*
X117448058Y-84234400D01*
X117543296Y-84329638D01*
X117590915Y-84424876D01*
X117638534Y-84615352D01*
X117638534Y-84758210D01*
X117590915Y-84948686D01*
X117543296Y-85043924D01*
X117448058Y-85139162D01*
X117305200Y-85186781D01*
X117067105Y-85186781D01*
X117971867Y-84186781D02*
X118590915Y-84186781D01*
X118257581Y-84567733D01*
X118400439Y-84567733D01*
X118495677Y-84615352D01*
X118543296Y-84662971D01*
X118590915Y-84758210D01*
X118590915Y-84996305D01*
X118543296Y-85091543D01*
X118495677Y-85139162D01*
X118400439Y-85186781D01*
X118114724Y-85186781D01*
X118019486Y-85139162D01*
X117971867Y-85091543D01*
X115898705Y-91216741D02*
X115898705Y-90216741D01*
X116136800Y-90216741D01*
X116279658Y-90264360D01*
X116374896Y-90359598D01*
X116422515Y-90454836D01*
X116470134Y-90645312D01*
X116470134Y-90788170D01*
X116422515Y-90978646D01*
X116374896Y-91073884D01*
X116279658Y-91169122D01*
X116136800Y-91216741D01*
X115898705Y-91216741D01*
X117374896Y-90216741D02*
X116898705Y-90216741D01*
X116851086Y-90692931D01*
X116898705Y-90645312D01*
X116993943Y-90597693D01*
X117232039Y-90597693D01*
X117327277Y-90645312D01*
X117374896Y-90692931D01*
X117422515Y-90788170D01*
X117422515Y-91026265D01*
X117374896Y-91121503D01*
X117327277Y-91169122D01*
X117232039Y-91216741D01*
X116993943Y-91216741D01*
X116898705Y-91169122D01*
X116851086Y-91121503D01*
X116061265Y-96484701D02*
X116061265Y-95484701D01*
X116299360Y-95484701D01*
X116442218Y-95532320D01*
X116537456Y-95627558D01*
X116585075Y-95722796D01*
X116632694Y-95913272D01*
X116632694Y-96056130D01*
X116585075Y-96246606D01*
X116537456Y-96341844D01*
X116442218Y-96437082D01*
X116299360Y-96484701D01*
X116061265Y-96484701D01*
X117489837Y-95484701D02*
X117299360Y-95484701D01*
X117204122Y-95532320D01*
X117156503Y-95579939D01*
X117061265Y-95722796D01*
X117013646Y-95913272D01*
X117013646Y-96294225D01*
X117061265Y-96389463D01*
X117108884Y-96437082D01*
X117204122Y-96484701D01*
X117394599Y-96484701D01*
X117489837Y-96437082D01*
X117537456Y-96389463D01*
X117585075Y-96294225D01*
X117585075Y-96056130D01*
X117537456Y-95960891D01*
X117489837Y-95913272D01*
X117394599Y-95865653D01*
X117204122Y-95865653D01*
X117108884Y-95913272D01*
X117061265Y-95960891D01*
X117013646Y-96056130D01*
X133277385Y-94787981D02*
X133277385Y-93787981D01*
X133515480Y-93787981D01*
X133658338Y-93835600D01*
X133753576Y-93930838D01*
X133801195Y-94026076D01*
X133848814Y-94216552D01*
X133848814Y-94359410D01*
X133801195Y-94549886D01*
X133753576Y-94645124D01*
X133658338Y-94740362D01*
X133515480Y-94787981D01*
X133277385Y-94787981D01*
X134182147Y-93787981D02*
X134848814Y-93787981D01*
X134420242Y-94787981D01*
X133018305Y-104069141D02*
X133018305Y-103069141D01*
X133256400Y-103069141D01*
X133399258Y-103116760D01*
X133494496Y-103211998D01*
X133542115Y-103307236D01*
X133589734Y-103497712D01*
X133589734Y-103640570D01*
X133542115Y-103831046D01*
X133494496Y-103926284D01*
X133399258Y-104021522D01*
X133256400Y-104069141D01*
X133018305Y-104069141D01*
X134161162Y-103497712D02*
X134065924Y-103450093D01*
X134018305Y-103402474D01*
X133970686Y-103307236D01*
X133970686Y-103259617D01*
X134018305Y-103164379D01*
X134065924Y-103116760D01*
X134161162Y-103069141D01*
X134351639Y-103069141D01*
X134446877Y-103116760D01*
X134494496Y-103164379D01*
X134542115Y-103259617D01*
X134542115Y-103307236D01*
X134494496Y-103402474D01*
X134446877Y-103450093D01*
X134351639Y-103497712D01*
X134161162Y-103497712D01*
X134065924Y-103545331D01*
X134018305Y-103592950D01*
X133970686Y-103688189D01*
X133970686Y-103878665D01*
X134018305Y-103973903D01*
X134065924Y-104021522D01*
X134161162Y-104069141D01*
X134351639Y-104069141D01*
X134446877Y-104021522D01*
X134494496Y-103973903D01*
X134542115Y-103878665D01*
X134542115Y-103688189D01*
X134494496Y-103592950D01*
X134446877Y-103545331D01*
X134351639Y-103497712D01*
X115842825Y-101925381D02*
X115842825Y-100925381D01*
X116080920Y-100925381D01*
X116223778Y-100973000D01*
X116319016Y-101068238D01*
X116366635Y-101163476D01*
X116414254Y-101353952D01*
X116414254Y-101496810D01*
X116366635Y-101687286D01*
X116319016Y-101782524D01*
X116223778Y-101877762D01*
X116080920Y-101925381D01*
X115842825Y-101925381D01*
X116890444Y-101925381D02*
X117080920Y-101925381D01*
X117176159Y-101877762D01*
X117223778Y-101830143D01*
X117319016Y-101687286D01*
X117366635Y-101496810D01*
X117366635Y-101115857D01*
X117319016Y-101020619D01*
X117271397Y-100973000D01*
X117176159Y-100925381D01*
X116985682Y-100925381D01*
X116890444Y-100973000D01*
X116842825Y-101020619D01*
X116795206Y-101115857D01*
X116795206Y-101353952D01*
X116842825Y-101449190D01*
X116890444Y-101496810D01*
X116985682Y-101544429D01*
X117176159Y-101544429D01*
X117271397Y-101496810D01*
X117319016Y-101449190D01*
X117366635Y-101353952D01*
X132460834Y-113736381D02*
X132460834Y-112736381D01*
X132698929Y-112736381D01*
X132841787Y-112784000D01*
X132937025Y-112879238D01*
X132984644Y-112974476D01*
X133032263Y-113164952D01*
X133032263Y-113307810D01*
X132984644Y-113498286D01*
X132937025Y-113593524D01*
X132841787Y-113688762D01*
X132698929Y-113736381D01*
X132460834Y-113736381D01*
X133984644Y-113736381D02*
X133413215Y-113736381D01*
X133698929Y-113736381D02*
X133698929Y-112736381D01*
X133603691Y-112879238D01*
X133508453Y-112974476D01*
X133413215Y-113022095D01*
X134603691Y-112736381D02*
X134698930Y-112736381D01*
X134794168Y-112784000D01*
X134841787Y-112831619D01*
X134889406Y-112926857D01*
X134937025Y-113117333D01*
X134937025Y-113355429D01*
X134889406Y-113545905D01*
X134841787Y-113641143D01*
X134794168Y-113688762D01*
X134698930Y-113736381D01*
X134603691Y-113736381D01*
X134508453Y-113688762D01*
X134460834Y-113641143D01*
X134413215Y-113545905D01*
X134365596Y-113355429D01*
X134365596Y-113117333D01*
X134413215Y-112926857D01*
X134460834Y-112831619D01*
X134508453Y-112784000D01*
X134603691Y-112736381D01*
X138834905Y-66111381D02*
X138834905Y-65111381D01*
X139215858Y-65111381D01*
X139311096Y-65159000D01*
X139358715Y-65206619D01*
X139406334Y-65301857D01*
X139406334Y-65444714D01*
X139358715Y-65539952D01*
X139311096Y-65587571D01*
X139215858Y-65635190D01*
X138834905Y-65635190D01*
X140358715Y-66111381D02*
X139787286Y-66111381D01*
X140073000Y-66111381D02*
X140073000Y-65111381D01*
X139977762Y-65254238D01*
X139882524Y-65349476D01*
X139787286Y-65397095D01*
X156548865Y-67706501D02*
X156548865Y-66706501D01*
X156929818Y-66706501D01*
X157025056Y-66754120D01*
X157072675Y-66801739D01*
X157120294Y-66896977D01*
X157120294Y-67039834D01*
X157072675Y-67135072D01*
X157025056Y-67182691D01*
X156929818Y-67230310D01*
X156548865Y-67230310D01*
X157501246Y-66801739D02*
X157548865Y-66754120D01*
X157644103Y-66706501D01*
X157882199Y-66706501D01*
X157977437Y-66754120D01*
X158025056Y-66801739D01*
X158072675Y-66896977D01*
X158072675Y-66992215D01*
X158025056Y-67135072D01*
X157453627Y-67706501D01*
X158072675Y-67706501D01*
X114884034Y-110429301D02*
X114884034Y-109429301D01*
X115264987Y-109429301D01*
X115360225Y-109476920D01*
X115407844Y-109524539D01*
X115455463Y-109619777D01*
X115455463Y-109762634D01*
X115407844Y-109857872D01*
X115360225Y-109905491D01*
X115264987Y-109953110D01*
X114884034Y-109953110D01*
X116407844Y-110429301D02*
X115836415Y-110429301D01*
X116122129Y-110429301D02*
X116122129Y-109429301D01*
X116026891Y-109572158D01*
X115931653Y-109667396D01*
X115836415Y-109715015D01*
X116788796Y-109524539D02*
X116836415Y-109476920D01*
X116931653Y-109429301D01*
X117169749Y-109429301D01*
X117264987Y-109476920D01*
X117312606Y-109524539D01*
X117360225Y-109619777D01*
X117360225Y-109715015D01*
X117312606Y-109857872D01*
X116741177Y-110429301D01*
X117360225Y-110429301D01*
X158350167Y-66102130D02*
X159057274Y-65395023D01*
X159326649Y-65664397D01*
X159360320Y-65765413D01*
X159360320Y-65832756D01*
X159326649Y-65933771D01*
X159225633Y-66034786D01*
X159124618Y-66068458D01*
X159057275Y-66068458D01*
X158956260Y-66034786D01*
X158686885Y-65765412D01*
X159562351Y-66506190D02*
X159528679Y-66405175D01*
X159528679Y-66337832D01*
X159562351Y-66236817D01*
X159596022Y-66203145D01*
X159697037Y-66169473D01*
X159764381Y-66169473D01*
X159865396Y-66203145D01*
X160000084Y-66337832D01*
X160033755Y-66438848D01*
X160033755Y-66506191D01*
X160000084Y-66607206D01*
X159966412Y-66640878D01*
X159865397Y-66674550D01*
X159798053Y-66674550D01*
X159697038Y-66640878D01*
X159562351Y-66506190D01*
X159461335Y-66472519D01*
X159393992Y-66472519D01*
X159292976Y-66506191D01*
X159158289Y-66640878D01*
X159124618Y-66741893D01*
X159124618Y-66809236D01*
X159158289Y-66910252D01*
X159292977Y-67044939D01*
X159393992Y-67078611D01*
X159461335Y-67078611D01*
X159562351Y-67044939D01*
X159697037Y-66910252D01*
X159730710Y-66809236D01*
X159730710Y-66741893D01*
X159697038Y-66640878D01*
X150986265Y-121285261D02*
X150986265Y-120285261D01*
X151367218Y-120285261D01*
X151462456Y-120332880D01*
X151510075Y-120380499D01*
X151557694Y-120475737D01*
X151557694Y-120618594D01*
X151510075Y-120713832D01*
X151462456Y-120761451D01*
X151367218Y-120809070D01*
X150986265Y-120809070D01*
X152033884Y-121285261D02*
X152224360Y-121285261D01*
X152319599Y-121237642D01*
X152367218Y-121190023D01*
X152462456Y-121047166D01*
X152510075Y-120856690D01*
X152510075Y-120475737D01*
X152462456Y-120380499D01*
X152414837Y-120332880D01*
X152319599Y-120285261D01*
X152129122Y-120285261D01*
X152033884Y-120332880D01*
X151986265Y-120380499D01*
X151938646Y-120475737D01*
X151938646Y-120713832D01*
X151986265Y-120809070D01*
X152033884Y-120856690D01*
X152129122Y-120904309D01*
X152319599Y-120904309D01*
X152414837Y-120856690D01*
X152462456Y-120809070D01*
X152510075Y-120713832D01*
X119456034Y-121381781D02*
X119456034Y-120381781D01*
X119836987Y-120381781D01*
X119932225Y-120429400D01*
X119979844Y-120477019D01*
X120027463Y-120572257D01*
X120027463Y-120715114D01*
X119979844Y-120810352D01*
X119932225Y-120857971D01*
X119836987Y-120905590D01*
X119456034Y-120905590D01*
X120979844Y-121381781D02*
X120408415Y-121381781D01*
X120694129Y-121381781D02*
X120694129Y-120381781D01*
X120598891Y-120524638D01*
X120503653Y-120619876D01*
X120408415Y-120667495D01*
X121598891Y-120381781D02*
X121694130Y-120381781D01*
X121789368Y-120429400D01*
X121836987Y-120477019D01*
X121884606Y-120572257D01*
X121932225Y-120762733D01*
X121932225Y-121000829D01*
X121884606Y-121191305D01*
X121836987Y-121286543D01*
X121789368Y-121334162D01*
X121694130Y-121381781D01*
X121598891Y-121381781D01*
X121503653Y-121334162D01*
X121456034Y-121286543D01*
X121408415Y-121191305D01*
X121360796Y-121000829D01*
X121360796Y-120762733D01*
X121408415Y-120572257D01*
X121456034Y-120477019D01*
X121503653Y-120429400D01*
X121598891Y-120381781D01*
X114137274Y-67797941D02*
X114137274Y-66797941D01*
X114518227Y-66797941D01*
X114613465Y-66845560D01*
X114661084Y-66893179D01*
X114708703Y-66988417D01*
X114708703Y-67131274D01*
X114661084Y-67226512D01*
X114613465Y-67274131D01*
X114518227Y-67321750D01*
X114137274Y-67321750D01*
X115661084Y-67797941D02*
X115089655Y-67797941D01*
X115375369Y-67797941D02*
X115375369Y-66797941D01*
X115280131Y-66940798D01*
X115184893Y-67036036D01*
X115089655Y-67083655D01*
X116613465Y-67797941D02*
X116042036Y-67797941D01*
X116327750Y-67797941D02*
X116327750Y-66797941D01*
X116232512Y-66940798D01*
X116137274Y-67036036D01*
X116042036Y-67083655D01*
X148201143Y-87987143D02*
X148153524Y-88034762D01*
X148010667Y-88082381D01*
X147915429Y-88082381D01*
X147772571Y-88034762D01*
X147677333Y-87939524D01*
X147629714Y-87844286D01*
X147582095Y-87653810D01*
X147582095Y-87510952D01*
X147629714Y-87320476D01*
X147677333Y-87225238D01*
X147772571Y-87130000D01*
X147915429Y-87082381D01*
X148010667Y-87082381D01*
X148153524Y-87130000D01*
X148201143Y-87177619D01*
X148582095Y-87177619D02*
X148629714Y-87130000D01*
X148724952Y-87082381D01*
X148963048Y-87082381D01*
X149058286Y-87130000D01*
X149105905Y-87177619D01*
X149153524Y-87272857D01*
X149153524Y-87368095D01*
X149105905Y-87510952D01*
X148534476Y-88082381D01*
X149153524Y-88082381D01*
X150010667Y-87082381D02*
X149820190Y-87082381D01*
X149724952Y-87130000D01*
X149677333Y-87177619D01*
X149582095Y-87320476D01*
X149534476Y-87510952D01*
X149534476Y-87891905D01*
X149582095Y-87987143D01*
X149629714Y-88034762D01*
X149724952Y-88082381D01*
X149915429Y-88082381D01*
X150010667Y-88034762D01*
X150058286Y-87987143D01*
X150105905Y-87891905D01*
X150105905Y-87653810D01*
X150058286Y-87558571D01*
X150010667Y-87510952D01*
X149915429Y-87463333D01*
X149724952Y-87463333D01*
X149629714Y-87510952D01*
X149582095Y-87558571D01*
X149534476Y-87653810D01*
X146931143Y-86304381D02*
X146597809Y-85828190D01*
X146359714Y-86304381D02*
X146359714Y-85304381D01*
X146740667Y-85304381D01*
X146835905Y-85352000D01*
X146883524Y-85399619D01*
X146931143Y-85494857D01*
X146931143Y-85637714D01*
X146883524Y-85732952D01*
X146835905Y-85780571D01*
X146740667Y-85828190D01*
X146359714Y-85828190D01*
X147883524Y-86304381D02*
X147312095Y-86304381D01*
X147597809Y-86304381D02*
X147597809Y-85304381D01*
X147502571Y-85447238D01*
X147407333Y-85542476D01*
X147312095Y-85590095D01*
X148454952Y-85732952D02*
X148359714Y-85685333D01*
X148312095Y-85637714D01*
X148264476Y-85542476D01*
X148264476Y-85494857D01*
X148312095Y-85399619D01*
X148359714Y-85352000D01*
X148454952Y-85304381D01*
X148645429Y-85304381D01*
X148740667Y-85352000D01*
X148788286Y-85399619D01*
X148835905Y-85494857D01*
X148835905Y-85542476D01*
X148788286Y-85637714D01*
X148740667Y-85685333D01*
X148645429Y-85732952D01*
X148454952Y-85732952D01*
X148359714Y-85780571D01*
X148312095Y-85828190D01*
X148264476Y-85923429D01*
X148264476Y-86113905D01*
X148312095Y-86209143D01*
X148359714Y-86256762D01*
X148454952Y-86304381D01*
X148645429Y-86304381D01*
X148740667Y-86256762D01*
X148788286Y-86209143D01*
X148835905Y-86113905D01*
X148835905Y-85923429D01*
X148788286Y-85828190D01*
X148740667Y-85780571D01*
X148645429Y-85732952D01*
X151249143Y-84272381D02*
X150915809Y-83796190D01*
X150677714Y-84272381D02*
X150677714Y-83272381D01*
X151058667Y-83272381D01*
X151153905Y-83320000D01*
X151201524Y-83367619D01*
X151249143Y-83462857D01*
X151249143Y-83605714D01*
X151201524Y-83700952D01*
X151153905Y-83748571D01*
X151058667Y-83796190D01*
X150677714Y-83796190D01*
X152201524Y-84272381D02*
X151630095Y-84272381D01*
X151915809Y-84272381D02*
X151915809Y-83272381D01*
X151820571Y-83415238D01*
X151725333Y-83510476D01*
X151630095Y-83558095D01*
X152677714Y-84272381D02*
X152868190Y-84272381D01*
X152963429Y-84224762D01*
X153011048Y-84177143D01*
X153106286Y-84034286D01*
X153153905Y-83843810D01*
X153153905Y-83462857D01*
X153106286Y-83367619D01*
X153058667Y-83320000D01*
X152963429Y-83272381D01*
X152772952Y-83272381D01*
X152677714Y-83320000D01*
X152630095Y-83367619D01*
X152582476Y-83462857D01*
X152582476Y-83700952D01*
X152630095Y-83796190D01*
X152677714Y-83843810D01*
X152772952Y-83891429D01*
X152963429Y-83891429D01*
X153058667Y-83843810D01*
X153106286Y-83796190D01*
X153153905Y-83700952D01*
M02*
