G04 #@! TF.FileFunction,Copper,L1,Top,Signal*
%FSLAX46Y46*%
G04 Gerber Fmt 4.6, Leading zero omitted, Abs format (unit mm)*
G04 Created by KiCad (PCBNEW 4.0.7) date 07/05/18 08:47:19*
%MOMM*%
%LPD*%
G01*
G04 APERTURE LIST*
%ADD10C,0.100000*%
%ADD11R,0.750000X0.800000*%
%ADD12R,0.800000X0.750000*%
%ADD13R,1.000000X1.250000*%
%ADD14R,3.299460X2.499360*%
%ADD15R,2.499360X2.301240*%
%ADD16R,0.800100X0.800100*%
%ADD17R,0.900000X0.500000*%
%ADD18R,0.700000X1.300000*%
%ADD19R,0.500000X0.900000*%
%ADD20R,1.501140X1.000760*%
%ADD21R,2.999740X1.998980*%
%ADD22O,2.032000X1.727200*%
%ADD23R,0.450000X0.590000*%
%ADD24C,2.540000*%
%ADD25O,1.506220X3.014980*%
%ADD26C,5.500000*%
%ADD27O,7.500000X5.500000*%
%ADD28C,5.500000*%
%ADD29O,5.500000X7.500000*%
%ADD30C,0.600000*%
%ADD31C,0.250000*%
%ADD32C,0.500000*%
%ADD33C,0.254000*%
G04 APERTURE END LIST*
D10*
D11*
X151892000Y-72251000D03*
X151892000Y-70751000D03*
X151892000Y-75299000D03*
X151892000Y-73799000D03*
X134747000Y-84062000D03*
X134747000Y-82562000D03*
D12*
X130798000Y-87249000D03*
X129298000Y-87249000D03*
D11*
X121666000Y-85713000D03*
X121666000Y-84213000D03*
D12*
X150634000Y-99187000D03*
X152134000Y-99187000D03*
D13*
X132699000Y-80391000D03*
X130699000Y-80391000D03*
D11*
X152019000Y-103239000D03*
X152019000Y-101739000D03*
D14*
X146685000Y-76807060D03*
X146685000Y-70004940D03*
D15*
X146949160Y-80772000D03*
X151246840Y-80772000D03*
D16*
X142001240Y-79568000D03*
X142001240Y-81468000D03*
X144000220Y-80518000D03*
D17*
X146685000Y-74029000D03*
X146685000Y-72529000D03*
X136398000Y-82562000D03*
X136398000Y-84062000D03*
D18*
X132527000Y-87376000D03*
X134427000Y-87376000D03*
D19*
X148705000Y-100965000D03*
X147205000Y-100965000D03*
X121527000Y-87503000D03*
X120027000Y-87503000D03*
D20*
X130756660Y-85448140D03*
X130756660Y-83947000D03*
X130756660Y-82445860D03*
D21*
X127805180Y-83947000D03*
D10*
G36*
X129279650Y-82946240D02*
X130028950Y-83446620D01*
X130028950Y-84447380D01*
X129279650Y-84947760D01*
X129279650Y-82946240D01*
X129279650Y-82946240D01*
G37*
D11*
X134493000Y-92952000D03*
X134493000Y-91452000D03*
D12*
X130671000Y-96139000D03*
X129171000Y-96139000D03*
D11*
X134366000Y-102350000D03*
X134366000Y-100850000D03*
D12*
X130671000Y-105791000D03*
X129171000Y-105791000D03*
D13*
X132699000Y-89535000D03*
X130699000Y-89535000D03*
X132826000Y-98933000D03*
X130826000Y-98933000D03*
D11*
X121666000Y-90666000D03*
X121666000Y-89166000D03*
X121666000Y-95873000D03*
X121666000Y-94373000D03*
D12*
X150634000Y-96647000D03*
X152134000Y-96647000D03*
X150634000Y-94107000D03*
X152134000Y-94107000D03*
D11*
X136550400Y-111707360D03*
X136550400Y-110207360D03*
D12*
X131433000Y-115189000D03*
X129933000Y-115189000D03*
D13*
X133334000Y-108458000D03*
X131334000Y-108458000D03*
D11*
X121666000Y-100953000D03*
X121666000Y-99453000D03*
D12*
X150634000Y-91567000D03*
X152134000Y-91567000D03*
D11*
X121539000Y-106057000D03*
X121539000Y-107557000D03*
D22*
X124206000Y-71247000D03*
X124206000Y-73787000D03*
X124206000Y-76327000D03*
X124206000Y-78867000D03*
X124206000Y-81407000D03*
X124206000Y-83947000D03*
X124206000Y-86487000D03*
X124206000Y-89027000D03*
X124206000Y-91567000D03*
X124206000Y-94107000D03*
X124206000Y-96647000D03*
X124206000Y-99187000D03*
X124206000Y-101727000D03*
X124206000Y-104267000D03*
X124206000Y-106807000D03*
D16*
X142001240Y-82997000D03*
X142001240Y-84897000D03*
X144000220Y-83947000D03*
X142001240Y-86426000D03*
X142001240Y-88326000D03*
X144000220Y-87376000D03*
D20*
X130629660Y-94338140D03*
X130629660Y-92837000D03*
X130629660Y-91335860D03*
D21*
X127678180Y-92837000D03*
D10*
G36*
X129152650Y-91836240D02*
X129901950Y-92336620D01*
X129901950Y-93337380D01*
X129152650Y-93837760D01*
X129152650Y-91836240D01*
X129152650Y-91836240D01*
G37*
D20*
X130629660Y-103736140D03*
X130629660Y-102235000D03*
X130629660Y-100733860D03*
D21*
X127678180Y-102235000D03*
D10*
G36*
X129152650Y-101234240D02*
X129901950Y-101734620D01*
X129901950Y-102735380D01*
X129152650Y-103235760D01*
X129152650Y-101234240D01*
X129152650Y-101234240D01*
G37*
D16*
X142001240Y-89855000D03*
X142001240Y-91755000D03*
X144000220Y-90805000D03*
D20*
X131264660Y-113261140D03*
X131264660Y-111760000D03*
X131264660Y-110258860D03*
D21*
X128313180Y-111760000D03*
D10*
G36*
X129787650Y-110759240D02*
X130536950Y-111259620D01*
X130536950Y-112260380D01*
X129787650Y-112760760D01*
X129787650Y-110759240D01*
X129787650Y-110759240D01*
G37*
D18*
X133035000Y-96139000D03*
X134935000Y-96139000D03*
X132908000Y-105791000D03*
X134808000Y-105791000D03*
D17*
X136144000Y-91325000D03*
X136144000Y-92825000D03*
X136017000Y-100850000D03*
X136017000Y-102350000D03*
D19*
X121654000Y-92710000D03*
X120154000Y-92710000D03*
X121654000Y-97790000D03*
X120154000Y-97790000D03*
X148959000Y-97663000D03*
X147459000Y-97663000D03*
X149213000Y-92710000D03*
X147713000Y-92710000D03*
D18*
X133162000Y-114935000D03*
X135062000Y-114935000D03*
D17*
X134995920Y-110242920D03*
X134995920Y-111742920D03*
D19*
X121654000Y-102743000D03*
X120154000Y-102743000D03*
X149340000Y-89789000D03*
X147840000Y-89789000D03*
D12*
X118508080Y-108315760D03*
X120008080Y-108315760D03*
D23*
X132842000Y-82257000D03*
X132842000Y-84367000D03*
X119761000Y-84035000D03*
X119761000Y-86145000D03*
X119761000Y-88988000D03*
X119761000Y-91098000D03*
X119888000Y-94195000D03*
X119888000Y-96305000D03*
X132715000Y-91147000D03*
X132715000Y-93257000D03*
X132588000Y-100545000D03*
X132588000Y-102655000D03*
X119888000Y-99275000D03*
X119888000Y-101385000D03*
X133223000Y-110070000D03*
X133223000Y-112180000D03*
D22*
X139446000Y-71247000D03*
X139446000Y-73787000D03*
X139446000Y-76327000D03*
X139446000Y-78867000D03*
X139446000Y-81407000D03*
X139446000Y-83947000D03*
X139446000Y-86487000D03*
X139446000Y-89027000D03*
X139446000Y-91567000D03*
X139446000Y-94107000D03*
X139446000Y-96647000D03*
X139446000Y-99187000D03*
X139446000Y-101727000D03*
X139446000Y-104267000D03*
X139446000Y-106807000D03*
X154686000Y-71247000D03*
X154686000Y-73787000D03*
X154686000Y-76327000D03*
X154686000Y-78867000D03*
X154686000Y-81407000D03*
X154686000Y-83947000D03*
X154686000Y-86487000D03*
X154686000Y-89027000D03*
X154686000Y-91567000D03*
X154686000Y-94107000D03*
X154686000Y-96647000D03*
X154686000Y-99187000D03*
X154686000Y-101727000D03*
X154686000Y-104267000D03*
X154686000Y-106807000D03*
D24*
X139446000Y-68707000D03*
X139446000Y-109347000D03*
X154686000Y-109347000D03*
X154686000Y-68707000D03*
D25*
X119126000Y-112522000D03*
X121666000Y-112522000D03*
X124206000Y-112522000D03*
D26*
X157861987Y-61406053D02*
X156447773Y-62820267D01*
D27*
X156966920Y-119161560D03*
D28*
X116144040Y-119100600D03*
D29*
X116276120Y-62174120D03*
D11*
X151302720Y-88761000D03*
X151302720Y-87261000D03*
D19*
X151311040Y-86070440D03*
X149811040Y-86070440D03*
D17*
X152400000Y-85102000D03*
X152400000Y-86602000D03*
D30*
X142367000Y-75438001D03*
X142367000Y-73152000D03*
X151003000Y-77597000D03*
X150622000Y-73279000D03*
X153416000Y-77977982D03*
X121539000Y-108331000D03*
X157226000Y-114173000D03*
X157226000Y-101727000D03*
X121539000Y-110363000D03*
X122555000Y-106807000D03*
X153162000Y-100457000D03*
X152057990Y-84328000D03*
X152057990Y-88747525D03*
X151277320Y-89565480D03*
X150427720Y-88761000D03*
X158686500Y-110617000D03*
X155765500Y-115570000D03*
X153606500Y-116268500D03*
X151802922Y-118658640D03*
X149580600Y-120437034D03*
X146898360Y-120487035D03*
X144139920Y-120487035D03*
X141112240Y-120487035D03*
X138247120Y-120487035D03*
X134726680Y-120487035D03*
X131226560Y-120487035D03*
X127650240Y-120487035D03*
X123246274Y-120437034D03*
X121686320Y-118877080D03*
X119842280Y-117033040D03*
X115443000Y-114046000D03*
X120406160Y-114325400D03*
X128270000Y-90170000D03*
X127127000Y-86233000D03*
X128270000Y-81661000D03*
X131191000Y-88265000D03*
X132969000Y-85852000D03*
X132334000Y-104267000D03*
X132588000Y-94705010D03*
X130937000Y-97409000D03*
X131699000Y-107061000D03*
X127635000Y-113554480D03*
X126213308Y-111956731D03*
X138049000Y-111887000D03*
X140462000Y-111760000D03*
X144907000Y-117432967D03*
X142367000Y-117432967D03*
X140335000Y-117432967D03*
X137541000Y-117432967D03*
X134239000Y-117602000D03*
X129794000Y-117602000D03*
X127127000Y-117602000D03*
X146772075Y-117054075D03*
X149987000Y-115189000D03*
X153289000Y-115316000D03*
X146685000Y-89027000D03*
X146558000Y-92456000D03*
X146685000Y-95123000D03*
X146608998Y-97790000D03*
X146812000Y-103124000D03*
X145585264Y-115570000D03*
X146812000Y-113919000D03*
X158686500Y-103060500D03*
X158559500Y-108902500D03*
X158623000Y-106172000D03*
X158623000Y-111633000D03*
X158242000Y-115062000D03*
X157099000Y-68707000D03*
X154686000Y-66421000D03*
X152400000Y-68199000D03*
X150114000Y-69342000D03*
X148018500Y-67627500D03*
X147066000Y-65151000D03*
X143510000Y-61849000D03*
X139827000Y-61849000D03*
X135636000Y-61849000D03*
X133731000Y-63627000D03*
X131421235Y-66004670D03*
X128511260Y-66090555D03*
X123825000Y-68834000D03*
X122174000Y-72517000D03*
X122301000Y-74803000D03*
X122428000Y-77597000D03*
X141224000Y-74803000D03*
X141478000Y-70231000D03*
X140779500Y-66357500D03*
X138049000Y-66548000D03*
X156337000Y-80137000D03*
X156337000Y-80137000D03*
X156337000Y-77470000D03*
X156337000Y-77470000D03*
X156337000Y-69977000D03*
X149606000Y-95758000D03*
X140970000Y-82296000D03*
X114046000Y-81407000D03*
X125791585Y-87757000D03*
X140970000Y-95377000D03*
X140843000Y-98044000D03*
X140843000Y-100584000D03*
X140970000Y-102997000D03*
X140970000Y-105410000D03*
X140970000Y-107950000D03*
X137922000Y-107950000D03*
X137922000Y-105664000D03*
X137922000Y-102997000D03*
X137922000Y-100584000D03*
X138012010Y-97917000D03*
X137541000Y-95250000D03*
X137541000Y-92964000D03*
X137541000Y-89154000D03*
X137415019Y-86854983D03*
X137415019Y-83566000D03*
X118999000Y-105283000D03*
X125730000Y-104267000D03*
X125476000Y-100711000D03*
X127307021Y-100329569D03*
X128057279Y-99001372D03*
X125578308Y-102743000D03*
X125766990Y-105537000D03*
X122555000Y-109855000D03*
X125857000Y-98044000D03*
X125713480Y-96093906D03*
X126761262Y-94449845D03*
X125857000Y-90805000D03*
X125857000Y-90805000D03*
X126301500Y-85788500D03*
X126301500Y-85788500D03*
X126047500Y-81343500D03*
X137415019Y-75368764D03*
X134117994Y-77471120D03*
X133016777Y-77062365D03*
X131191000Y-77052010D03*
X129540000Y-77052010D03*
X128143000Y-77052010D03*
X126872364Y-77378356D03*
X128016000Y-74938139D03*
X129540000Y-74938139D03*
X131191000Y-74938139D03*
X133767990Y-73279000D03*
X133767990Y-71835276D03*
X137415019Y-72898000D03*
X137541000Y-70521990D03*
X134783990Y-70160766D03*
X134838811Y-76865603D03*
X133223000Y-74938139D03*
X126118153Y-75421528D03*
X125937859Y-78312859D03*
X158115000Y-100838000D03*
X156375990Y-113284000D03*
X149823010Y-113322990D03*
X142113000Y-80645000D03*
X142113000Y-84074000D03*
X142113000Y-87503000D03*
X141986000Y-91059000D03*
X152082500Y-104584500D03*
X153225500Y-103251000D03*
X149987000Y-99187000D03*
X149869009Y-94107000D03*
X150634000Y-95377000D03*
X122428000Y-81407000D03*
X151638000Y-83566000D03*
X149352000Y-91186000D03*
X153162000Y-75057000D03*
X119126000Y-92710000D03*
X134366000Y-89535000D03*
X121539000Y-104267000D03*
X121539000Y-105029000D03*
X119126000Y-109982000D03*
X120650000Y-106045000D03*
X118999000Y-102743000D03*
X119126000Y-97790000D03*
X134366000Y-98933000D03*
X134366000Y-108331000D03*
X118999000Y-87503000D03*
X119126000Y-81407000D03*
X125730000Y-74930000D03*
X152019000Y-78359000D03*
X152146000Y-76835000D03*
X141097000Y-77343000D03*
X140970000Y-87757000D03*
X140970000Y-85090000D03*
X137668000Y-78867000D03*
X137541000Y-80391000D03*
X134239000Y-80391000D03*
X126873000Y-78613000D03*
X134239000Y-78613000D03*
X147828000Y-86106000D03*
X146812000Y-82804000D03*
X136906000Y-65912998D03*
X142312767Y-65980791D03*
X136398000Y-81280000D03*
X142113000Y-76581000D03*
X129286000Y-80391000D03*
X129413000Y-89535000D03*
X129413000Y-98933000D03*
X129667000Y-108458000D03*
X147828000Y-117475000D03*
X147447000Y-102235000D03*
X118110004Y-86233000D03*
X125349000Y-118110004D03*
X136144000Y-65151000D03*
X142875000Y-65278000D03*
X144000220Y-79646780D03*
X135636000Y-87376000D03*
X127127000Y-99314000D03*
X125857000Y-95123000D03*
X148281958Y-118133742D03*
X118236998Y-91186000D03*
X124361238Y-118432794D03*
X116377720Y-114142520D03*
X116392956Y-112842044D03*
X147374984Y-99005988D03*
X117088920Y-114721640D03*
X148777924Y-118761466D03*
X118110000Y-96266000D03*
X116665441Y-112089867D03*
X123443998Y-118491000D03*
X147701000Y-94107000D03*
X126707020Y-109474000D03*
X126238000Y-99060000D03*
X149534784Y-119020662D03*
X118110004Y-101473000D03*
X117177622Y-111475303D03*
X147828000Y-90716990D03*
X145669000Y-113538002D03*
X136144000Y-96393000D03*
X137160000Y-113284000D03*
X145288000Y-84074000D03*
X145043980Y-87503000D03*
X145362435Y-114403943D03*
X136026980Y-105791000D03*
X136652000Y-114300000D03*
X144593969Y-90932000D03*
X144272000Y-115062000D03*
X142113002Y-94615000D03*
X141732000Y-115372958D03*
X141732000Y-112268000D03*
X133878269Y-75788140D03*
X134493000Y-71247000D03*
X133984994Y-76581000D03*
X135255000Y-72009000D03*
D31*
X141942736Y-75438001D02*
X142367000Y-75438001D01*
X141053737Y-76327000D02*
X141942736Y-75438001D01*
X139446000Y-76327000D02*
X141053737Y-76327000D01*
X150622000Y-73279000D02*
X142494000Y-73279000D01*
X142494000Y-73279000D02*
X142367000Y-73152000D01*
X152527000Y-77597000D02*
X153797000Y-76327000D01*
X151003000Y-77597000D02*
X152527000Y-77597000D01*
X153797000Y-76327000D02*
X154686000Y-76327000D01*
D32*
X124206000Y-71247000D02*
X124333000Y-71247000D01*
X124333000Y-71247000D02*
X128651000Y-66929000D01*
X128651000Y-66929000D02*
X131699000Y-66929000D01*
X131699000Y-66929000D02*
X135763000Y-62865000D01*
X135763000Y-62865000D02*
X143256000Y-62865000D01*
X143256000Y-62865000D02*
X146685000Y-66294000D01*
X146685000Y-66294000D02*
X146685000Y-70004940D01*
X146685000Y-72529000D02*
X146685000Y-70004940D01*
X151892000Y-70751000D02*
X149491000Y-70751000D01*
X149491000Y-70751000D02*
X148744940Y-70004940D01*
X148744940Y-70004940D02*
X146685000Y-70004940D01*
X154686000Y-71247000D02*
X153289000Y-71247000D01*
X153047000Y-71005000D02*
X152146000Y-71005000D01*
X153289000Y-71247000D02*
X153047000Y-71005000D01*
X152146000Y-71005000D02*
X151892000Y-70751000D01*
D31*
X146685000Y-70004940D02*
X148744940Y-70004940D01*
X148744940Y-70004940D02*
X149491000Y-70751000D01*
X154686000Y-71247000D02*
X153543000Y-71247000D01*
X153543000Y-71247000D02*
X153047000Y-70751000D01*
X153047000Y-70751000D02*
X151892000Y-70751000D01*
D32*
X120008080Y-108315760D02*
X121523760Y-108315760D01*
X121523760Y-108315760D02*
X121539000Y-108331000D01*
X132272401Y-116585012D02*
X132251401Y-116564012D01*
X157226000Y-114173000D02*
X148451056Y-114173000D01*
X132251401Y-116564012D02*
X128993401Y-116564012D01*
X128532988Y-116078000D02*
X124575002Y-116078000D01*
X148451056Y-114173000D02*
X146041099Y-116582957D01*
X124575002Y-116078000D02*
X123026492Y-114529490D01*
X146041099Y-116582957D02*
X136334654Y-116582957D01*
X136334654Y-116582957D02*
X136332599Y-116585012D01*
X123026492Y-114529490D02*
X122919110Y-114529490D01*
X136332599Y-116585012D02*
X132272401Y-116585012D01*
X128993401Y-116564012D02*
X128532988Y-116103599D01*
X128532988Y-116103599D02*
X128532988Y-116078000D01*
X122919110Y-114529490D02*
X121666000Y-113276380D01*
X121666000Y-113276380D02*
X121666000Y-112522000D01*
D31*
X153415982Y-77977982D02*
X153416000Y-77977982D01*
X153289000Y-77851000D02*
X153415982Y-77977982D01*
X153258298Y-77820298D02*
X153289000Y-77851000D01*
D32*
X121539000Y-107557000D02*
X121539000Y-108331000D01*
X154686000Y-101727000D02*
X157226000Y-101727000D01*
X124206000Y-106807000D02*
X122555000Y-106807000D01*
X121666000Y-112522000D02*
X121666000Y-110490000D01*
X121666000Y-110490000D02*
X121539000Y-110363000D01*
X154686000Y-101727000D02*
X156202000Y-101727000D01*
X153162000Y-100457000D02*
X153162000Y-101600000D01*
X153162000Y-101600000D02*
X153035000Y-101727000D01*
X154686000Y-101727000D02*
X153035000Y-101727000D01*
X153035000Y-101727000D02*
X152031000Y-101727000D01*
X152031000Y-101727000D02*
X152019000Y-101739000D01*
X154686000Y-101727000D02*
X154432000Y-101727000D01*
X154686000Y-101727000D02*
X156210000Y-101727000D01*
X154686000Y-78867000D02*
X154305000Y-78867000D01*
X154305000Y-78867000D02*
X153258298Y-77820298D01*
D31*
X154305000Y-78867000D02*
X153258298Y-77820298D01*
X152031000Y-101727000D02*
X152019000Y-101739000D01*
X152031000Y-101727000D02*
X152019000Y-101739000D01*
X151892000Y-72251000D02*
X151892000Y-73799000D01*
D32*
X151638000Y-83566000D02*
X151638000Y-83908010D01*
X151638000Y-83908010D02*
X152057990Y-84328000D01*
X152400000Y-85102000D02*
X152400000Y-84670010D01*
X152400000Y-84670010D02*
X152057990Y-84328000D01*
X152057990Y-88747525D02*
X151316195Y-88747525D01*
X151316195Y-88747525D02*
X151302720Y-88761000D01*
X151302720Y-88761000D02*
X151302720Y-89540080D01*
X151302720Y-89540080D02*
X151277320Y-89565480D01*
X151302720Y-88761000D02*
X150728680Y-88761000D01*
X150728680Y-88761000D02*
X150427720Y-88761000D01*
X150134920Y-88468200D02*
X147243800Y-88468200D01*
X147243800Y-88468200D02*
X146685000Y-89027000D01*
X150427720Y-88761000D02*
X150134920Y-88468200D01*
X118744960Y-117033040D02*
X117547722Y-115835802D01*
X119842280Y-117033040D02*
X118744960Y-117033040D01*
X115486102Y-114444224D02*
X115443000Y-114046000D01*
X117547722Y-115835802D02*
X116645358Y-115835802D01*
X115486102Y-114676546D02*
X115486102Y-114444224D01*
X116645358Y-115835802D02*
X115486102Y-114676546D01*
X158432491Y-110617000D02*
X158076001Y-101311990D01*
X158076001Y-112433999D02*
X158432491Y-110617000D01*
X158432491Y-110617000D02*
X158686500Y-110617000D01*
X155766187Y-115580959D02*
X154632482Y-115829080D01*
X156972000Y-115570000D02*
X155766187Y-115580959D01*
X155766187Y-115580959D02*
X155766187Y-115570687D01*
X155766187Y-115570687D02*
X155765500Y-115570000D01*
X153623029Y-116289494D02*
X151802922Y-118658640D01*
X154632482Y-115829080D02*
X153623029Y-116289494D01*
X153623029Y-116289494D02*
X153623029Y-116285029D01*
X153623029Y-116285029D02*
X153606500Y-116268500D01*
X151802922Y-118658640D02*
X150024528Y-120437034D01*
X149580600Y-120437034D02*
X146898360Y-120437034D01*
X150024528Y-120437034D02*
X149580600Y-120437034D01*
X146898360Y-120437034D02*
X144139920Y-120437034D01*
X146898360Y-120437034D02*
X146898360Y-120487035D01*
X144139920Y-120437034D02*
X141112240Y-120437034D01*
X144139920Y-120437034D02*
X144139920Y-120487035D01*
X141112240Y-120437034D02*
X138247120Y-120437034D01*
X141112240Y-120437034D02*
X141112240Y-120487035D01*
X138247120Y-120437034D02*
X134726680Y-120437034D01*
X138247120Y-120437034D02*
X138247120Y-120487035D01*
X134726680Y-120437034D02*
X131226560Y-120437034D01*
X134726680Y-120437034D02*
X134726680Y-120487035D01*
X131226560Y-120437034D02*
X127650240Y-120437034D01*
X131226560Y-120437034D02*
X131226560Y-120487035D01*
X127650240Y-120437034D02*
X123246274Y-120437034D01*
X127650240Y-120437034D02*
X127650240Y-120487035D01*
X121686320Y-118877080D02*
X119842280Y-117033040D01*
X123246274Y-120437034D02*
X121686320Y-118877080D01*
X115484617Y-114051720D02*
X115448720Y-114051720D01*
X115448720Y-114051720D02*
X115443000Y-114046000D01*
X158076001Y-114581001D02*
X156972000Y-115570000D01*
X115484617Y-114051720D02*
X115542955Y-111851968D01*
X115542955Y-111851968D02*
X116769621Y-110625302D01*
X116769621Y-110625302D02*
X117585623Y-110625302D01*
X117585623Y-110625302D02*
X119369009Y-112408688D01*
X119126000Y-112522000D02*
X119126000Y-113045240D01*
X119126000Y-113045240D02*
X120406160Y-114325400D01*
X119126000Y-112522000D02*
X120519561Y-113915561D01*
X120519561Y-113915561D02*
X120519561Y-114074879D01*
X120519561Y-114074879D02*
X121024182Y-114579500D01*
X124136246Y-116878010D02*
X121837736Y-114579500D01*
X121837736Y-114579500D02*
X121024182Y-114579500D01*
X127127000Y-117602000D02*
X126403010Y-116878010D01*
X126403010Y-116878010D02*
X124136246Y-116878010D01*
X118508080Y-108315760D02*
X118508080Y-109364080D01*
X118508080Y-109364080D02*
X119126000Y-109982000D01*
X125791585Y-87757000D02*
X125857000Y-87757000D01*
X125857000Y-87757000D02*
X128270000Y-90170000D01*
X126047500Y-81343500D02*
X128016000Y-81407000D01*
X128016000Y-81407000D02*
X128270000Y-81661000D01*
X125791585Y-87757000D02*
X126299585Y-88265000D01*
X126299585Y-88265000D02*
X131191000Y-88265000D01*
X137415019Y-86854983D02*
X136412036Y-85852000D01*
X136412036Y-85852000D02*
X132969000Y-85852000D01*
X137922000Y-102997000D02*
X136652000Y-104267000D01*
X136652000Y-104267000D02*
X132334000Y-104267000D01*
X125857000Y-111600423D02*
X125857000Y-108596998D01*
X125857000Y-108596998D02*
X127170999Y-107282999D01*
X126213308Y-111956731D02*
X125857000Y-111600423D01*
X127170999Y-107282999D02*
X135830001Y-107282999D01*
X121130999Y-109512999D02*
X124244999Y-109512999D01*
X124244999Y-109512999D02*
X125984000Y-111252000D01*
X125984000Y-111252000D02*
X125984000Y-112141000D01*
X125984000Y-112141000D02*
X126263309Y-112420309D01*
X126263309Y-112420309D02*
X126263309Y-113199491D01*
X126263309Y-113199491D02*
X126373309Y-113309491D01*
X126373309Y-113309491D02*
X127152491Y-113309491D01*
X127152491Y-113309491D02*
X127447480Y-113604480D01*
X127447480Y-113604480D02*
X127585000Y-113604480D01*
X127585000Y-113604480D02*
X127635000Y-113554480D01*
X122555000Y-109855000D02*
X122854999Y-110154999D01*
X122854999Y-110154999D02*
X125013999Y-110154999D01*
X125013999Y-110154999D02*
X126213308Y-111354308D01*
X126213308Y-111354308D02*
X126213308Y-111956731D01*
X128057279Y-99001372D02*
X129649651Y-97409000D01*
X129649651Y-97409000D02*
X130937000Y-97409000D01*
X127290990Y-107061000D02*
X131699000Y-107061000D01*
X125766990Y-105537000D02*
X127290990Y-107061000D01*
X148169673Y-113322999D02*
X157634001Y-113322999D01*
X145122001Y-115253944D02*
X146238728Y-115253944D01*
X146238728Y-115253944D02*
X148169673Y-113322999D01*
X158076001Y-114581001D02*
X157634001Y-115023001D01*
X157634001Y-115023001D02*
X148732439Y-115023001D01*
X148732439Y-115023001D02*
X146370418Y-117385022D01*
X146370418Y-117385022D02*
X128683027Y-117385022D01*
X128683027Y-117385022D02*
X128176015Y-116878010D01*
X120017000Y-110626998D02*
X121130999Y-109512999D01*
X142963003Y-78739661D02*
X142963003Y-109574003D01*
X142963003Y-109574003D02*
X146519001Y-113130001D01*
X146519001Y-113130001D02*
X146519001Y-114505379D01*
X146519001Y-114505379D02*
X145770436Y-115253944D01*
X145770436Y-115253944D02*
X145122001Y-115253944D01*
X126238000Y-111956731D02*
X126213308Y-111956731D01*
X140462000Y-111760000D02*
X138176000Y-111760000D01*
X138176000Y-111760000D02*
X138049000Y-111887000D01*
X140970000Y-107950000D02*
X141269999Y-108249999D01*
X141269999Y-110952001D02*
X140462000Y-111760000D01*
X141269999Y-108249999D02*
X141269999Y-110952001D01*
X144907000Y-117382967D02*
X142367000Y-117382967D01*
X146443183Y-117382967D02*
X144907000Y-117382967D01*
X144907000Y-117382967D02*
X144907000Y-117432967D01*
X142367000Y-117382967D02*
X140335000Y-117382967D01*
X142367000Y-117382967D02*
X142367000Y-117432967D01*
X140335000Y-117382967D02*
X137541000Y-117382967D01*
X140335000Y-117382967D02*
X140335000Y-117432967D01*
X137541000Y-117432967D02*
X136666028Y-117382967D01*
X137541000Y-117382967D02*
X137541000Y-117432967D01*
X134239000Y-117602000D02*
X136017000Y-117602000D01*
X129794000Y-117602000D02*
X134239000Y-117602000D01*
X127127000Y-117602000D02*
X129794000Y-117602000D01*
X126098998Y-117602000D02*
X127127000Y-117602000D01*
X140083505Y-78617949D02*
X142841291Y-78617949D01*
X119519000Y-111124998D02*
X121130999Y-109512999D01*
X142963003Y-78739661D02*
X142963003Y-108216311D01*
X121130999Y-109512999D02*
X123677748Y-109512999D01*
X137879990Y-105233010D02*
X137879990Y-80821464D01*
X123677748Y-109512999D02*
X125907748Y-107282999D01*
X157634001Y-113322999D02*
X158076001Y-113764999D01*
X158076001Y-113764999D02*
X158076001Y-114581001D01*
X125907748Y-107282999D02*
X135830001Y-107282999D01*
X148069691Y-113322999D02*
X157634001Y-113322999D01*
X135830001Y-107282999D02*
X137879990Y-105233010D01*
X137879990Y-80821464D02*
X140083505Y-78617949D01*
X136017000Y-117602000D02*
X136233978Y-117385022D01*
X142841291Y-78617949D02*
X142963003Y-78739661D01*
X142963003Y-108216311D02*
X148069691Y-113322999D01*
X125757001Y-117260003D02*
X126098998Y-117602000D01*
X137538945Y-117385022D02*
X137541000Y-117382967D01*
X136233978Y-117385022D02*
X137538945Y-117385022D01*
X146772075Y-117054075D02*
X146443183Y-117382967D01*
X149987000Y-115189000D02*
X148637150Y-115189000D01*
X148637150Y-115189000D02*
X146772075Y-117054075D01*
X158242000Y-115062000D02*
X153543000Y-115062000D01*
X153543000Y-115062000D02*
X153289000Y-115316000D01*
D31*
X148705000Y-103239000D02*
X148705000Y-102419998D01*
X148705000Y-102419998D02*
X147955000Y-101669998D01*
X147955000Y-101669998D02*
X147955000Y-99949000D01*
X147955000Y-99949000D02*
X148717000Y-99187000D01*
D32*
X147111999Y-113619001D02*
X146812000Y-113919000D01*
X149823010Y-113322990D02*
X147408010Y-113322990D01*
X147408010Y-113322990D02*
X147111999Y-113619001D01*
X157099000Y-68707000D02*
X157099000Y-69215000D01*
X157099000Y-69215000D02*
X156337000Y-69977000D01*
X154178000Y-66421000D02*
X154686000Y-66421000D01*
X152400000Y-68199000D02*
X154178000Y-66421000D01*
X148762999Y-67990999D02*
X150114000Y-69342000D01*
X148018500Y-67627500D02*
X147873999Y-67990999D01*
X147873999Y-67990999D02*
X148762999Y-67990999D01*
X143891000Y-61976000D02*
X147066000Y-65151000D01*
X143510000Y-61849000D02*
X143637000Y-61976000D01*
X143637000Y-61976000D02*
X143891000Y-61976000D01*
X135636000Y-61849000D02*
X139827000Y-61849000D01*
X131421235Y-66004670D02*
X131421235Y-65936765D01*
X131421235Y-65936765D02*
X133731000Y-63627000D01*
X123825000Y-68834000D02*
X126530010Y-66128990D01*
X126530010Y-66128990D02*
X128472825Y-66128990D01*
X128472825Y-66128990D02*
X128511260Y-66090555D01*
X122301000Y-74803000D02*
X122301000Y-72644000D01*
X122301000Y-72644000D02*
X122174000Y-72517000D01*
X122428000Y-81407000D02*
X122428000Y-77597000D01*
X149606000Y-96647000D02*
X149606000Y-95758000D01*
X150634000Y-96647000D02*
X149606000Y-96647000D01*
D31*
X140970000Y-81871736D02*
X140970000Y-82296000D01*
X140970000Y-81849190D02*
X140970000Y-81871736D01*
X141925000Y-81468000D02*
X141798000Y-81468000D01*
X142001240Y-81468000D02*
X141351190Y-81468000D01*
X141269999Y-81996001D02*
X140970000Y-82296000D01*
X141798000Y-81468000D02*
X141269999Y-81996001D01*
X141351190Y-81468000D02*
X140970000Y-81849190D01*
D32*
X142001240Y-91755000D02*
X141798000Y-91755000D01*
X141798000Y-91755000D02*
X141101666Y-92451334D01*
X137541000Y-89154000D02*
X137840999Y-89453999D01*
X120650000Y-106045000D02*
X121527000Y-106045000D01*
X121527000Y-106045000D02*
X121539000Y-106057000D01*
X121539000Y-106057000D02*
X121539000Y-105029000D01*
X124206000Y-104267000D02*
X121539000Y-104267000D01*
X124206000Y-104267000D02*
X125730000Y-104267000D01*
X125857431Y-100329569D02*
X125775999Y-100411001D01*
X125775999Y-100411001D02*
X125476000Y-100711000D01*
X127307021Y-100329569D02*
X125857431Y-100329569D01*
X125857000Y-98044000D02*
X127099907Y-98044000D01*
X127099907Y-98044000D02*
X127757280Y-98701373D01*
X127757280Y-98701373D02*
X128057279Y-99001372D01*
X122255001Y-109555001D02*
X122174000Y-109474000D01*
X122174000Y-109474000D02*
X119634000Y-109474000D01*
X119425999Y-109682001D02*
X119126000Y-109982000D01*
X119634000Y-109474000D02*
X119425999Y-109682001D01*
X122081001Y-109555001D02*
X122255001Y-109555001D01*
X122555000Y-109855000D02*
X122255001Y-109555001D01*
X125972002Y-96266000D02*
X125885574Y-96266000D01*
X125885574Y-96266000D02*
X125713480Y-96093906D01*
X126761262Y-94449845D02*
X126761262Y-95476740D01*
X126761262Y-95476740D02*
X125972002Y-96266000D01*
X124206000Y-81407000D02*
X126047500Y-81343500D01*
X135138810Y-76443190D02*
X136213236Y-75368764D01*
X136213236Y-75368764D02*
X137415019Y-75368764D01*
X134838811Y-76865603D02*
X135138810Y-76565604D01*
X135138810Y-76565604D02*
X135138810Y-76443190D01*
X134112000Y-77431001D02*
X134392995Y-77431001D01*
X133456123Y-77431001D02*
X134112000Y-77431001D01*
X134112000Y-77431001D02*
X134112000Y-77465126D01*
X134112000Y-77465126D02*
X134117994Y-77471120D01*
X131191000Y-77002010D02*
X133016777Y-77062365D01*
X133027132Y-77002010D02*
X133027132Y-77052010D01*
X133027132Y-77052010D02*
X133016777Y-77062365D01*
X129540000Y-77002010D02*
X131191000Y-77002010D01*
X131191000Y-77002010D02*
X131191000Y-77052010D01*
X128143000Y-77002010D02*
X129540000Y-77002010D01*
X129540000Y-77002010D02*
X129540000Y-77052010D01*
X127177998Y-77002010D02*
X128143000Y-77002010D01*
X128143000Y-77002010D02*
X128143000Y-77052010D01*
X126837008Y-77343000D02*
X127177998Y-77002010D01*
X126111000Y-78069008D02*
X126837008Y-77343000D01*
X126837008Y-77343000D02*
X126872364Y-77378356D01*
X125937859Y-78312859D02*
X126111000Y-78139718D01*
X126111000Y-78139718D02*
X126111000Y-78069008D01*
X133027132Y-77002010D02*
X133456123Y-77431001D01*
X134392995Y-77431001D02*
X134834995Y-76989001D01*
X134834995Y-76989001D02*
X134834995Y-75486864D01*
X134834995Y-75486864D02*
X134286270Y-74938139D01*
X134286270Y-74938139D02*
X133477000Y-74938139D01*
X128016000Y-74938139D02*
X126601542Y-74938139D01*
X129540000Y-74938139D02*
X128016000Y-74938139D01*
X131191000Y-74938139D02*
X129540000Y-74938139D01*
X133477000Y-74938139D02*
X131191000Y-74938139D01*
X137415019Y-72898000D02*
X137376020Y-72859001D01*
X137376020Y-72859001D02*
X134846999Y-72859001D01*
X134846999Y-72859001D02*
X133642999Y-71655001D01*
X133642999Y-71655001D02*
X133642999Y-70838999D01*
X133642999Y-70838999D02*
X134321232Y-70160766D01*
X134321232Y-70160766D02*
X134359726Y-70160766D01*
X134359726Y-70160766D02*
X134783990Y-70160766D01*
X134783990Y-70160766D02*
X137179776Y-70160766D01*
X137179776Y-70160766D02*
X137541000Y-70521990D01*
X133477000Y-74938139D02*
X133223000Y-74938139D01*
X126601542Y-74938139D02*
X126118153Y-75421528D01*
X157226000Y-113284000D02*
X158076001Y-112433999D01*
X158076001Y-101311990D02*
X158115000Y-100838000D01*
X156375990Y-113284000D02*
X157226000Y-113284000D01*
X119126000Y-112522000D02*
X119126000Y-113411000D01*
X132699000Y-80391000D02*
X134239000Y-80391000D01*
X137541000Y-80391000D02*
X134239000Y-80391000D01*
X142001240Y-81468000D02*
X142001240Y-80756760D01*
X142001240Y-80756760D02*
X142113000Y-80645000D01*
X142001240Y-84897000D02*
X142001240Y-84185760D01*
X142001240Y-84185760D02*
X142113000Y-84074000D01*
X142001240Y-88326000D02*
X142001240Y-87614760D01*
X142001240Y-87614760D02*
X142113000Y-87503000D01*
X142001240Y-91755000D02*
X142001240Y-91074240D01*
X142001240Y-91074240D02*
X141986000Y-91059000D01*
X152082500Y-104584500D02*
X152019000Y-103239000D01*
X152019000Y-103239000D02*
X153213500Y-103239000D01*
X153213500Y-103239000D02*
X153225500Y-103251000D01*
X149987000Y-99187000D02*
X148717000Y-99187000D01*
X150634000Y-99187000D02*
X149987000Y-99187000D01*
D31*
X149869009Y-94107000D02*
X148971000Y-94107000D01*
D32*
X150634000Y-94107000D02*
X149869009Y-94107000D01*
X150634000Y-95377000D02*
X150634000Y-96647000D01*
X150634000Y-94107000D02*
X150634000Y-95377000D01*
X132826000Y-98933000D02*
X134366000Y-98933000D01*
X125730000Y-74930000D02*
X125349000Y-74930000D01*
X125349000Y-74930000D02*
X124206000Y-73787000D01*
X134239000Y-78613000D02*
X126873000Y-78613000D01*
X133334000Y-108458000D02*
X134239000Y-108458000D01*
X134239000Y-108458000D02*
X134366000Y-108331000D01*
X132699000Y-89535000D02*
X134366000Y-89535000D01*
X124206000Y-81407000D02*
X122428000Y-81407000D01*
X120154000Y-92710000D02*
X119126000Y-92710000D01*
X120154000Y-97790000D02*
X119126000Y-97790000D01*
X120154000Y-102743000D02*
X118999000Y-102743000D01*
X119126000Y-112522000D02*
X119126000Y-109982000D01*
X152019000Y-103239000D02*
X148705000Y-103239000D01*
X142001240Y-84897000D02*
X141163000Y-84897000D01*
X141163000Y-84897000D02*
X140970000Y-85090000D01*
X142001240Y-88326000D02*
X141539000Y-88326000D01*
X141539000Y-88326000D02*
X140970000Y-87757000D01*
X142001240Y-91755000D02*
X142809000Y-91755000D01*
X146685000Y-91567000D02*
X148717000Y-91567000D01*
X146177000Y-92075000D02*
X146685000Y-91567000D01*
X143129000Y-92075000D02*
X146177000Y-92075000D01*
X142809000Y-91755000D02*
X143129000Y-92075000D01*
X150634000Y-91567000D02*
X148717000Y-91567000D01*
X150634000Y-91567000D02*
X149733000Y-91567000D01*
X149733000Y-91567000D02*
X149352000Y-91186000D01*
X151892000Y-75299000D02*
X151892000Y-76581000D01*
X151892000Y-76581000D02*
X152146000Y-76835000D01*
X151246840Y-80772000D02*
X151246840Y-79044162D01*
X152019000Y-78272002D02*
X152019000Y-78359000D01*
X151246840Y-79044162D02*
X152019000Y-78272002D01*
X151246840Y-80772000D02*
X151246840Y-83174840D01*
X151246840Y-83174840D02*
X151638000Y-83566000D01*
X154686000Y-73787000D02*
X154432000Y-73787000D01*
X154432000Y-73787000D02*
X153162000Y-75057000D01*
X151892000Y-75299000D02*
X153047000Y-75299000D01*
X153047000Y-75299000D02*
X153416000Y-74930000D01*
X154686000Y-73787000D02*
X154559000Y-73787000D01*
X154559000Y-73787000D02*
X153416000Y-74930000D01*
D31*
X120027000Y-87503000D02*
X118999000Y-87503000D01*
X154559000Y-73787000D02*
X153416000Y-74930000D01*
X149352000Y-91186000D02*
X149352000Y-91567000D01*
X151246840Y-83174840D02*
X151638000Y-83566000D01*
X152146000Y-76835000D02*
X151892000Y-76581000D01*
X141097000Y-77343000D02*
X139573000Y-78867000D01*
X139573000Y-78867000D02*
X139446000Y-78867000D01*
X141539000Y-88326000D02*
X140970000Y-87757000D01*
X140970000Y-85090000D02*
X141163000Y-84897000D01*
X139446000Y-78867000D02*
X137668000Y-78867000D01*
X148590000Y-91694000D02*
X148717000Y-91567000D01*
X148971000Y-94107000D02*
X148463000Y-93599000D01*
X148463000Y-93599000D02*
X148463000Y-91821000D01*
X148463000Y-91821000D02*
X148590000Y-91694000D01*
X148717000Y-91567000D02*
X149352000Y-91567000D01*
X149352000Y-91567000D02*
X150634000Y-91567000D01*
X130798000Y-87249000D02*
X132400000Y-87249000D01*
X132400000Y-87249000D02*
X132527000Y-87376000D01*
X130756660Y-85448140D02*
X130756660Y-87207660D01*
X130756660Y-87207660D02*
X130798000Y-87249000D01*
X130756660Y-85448140D02*
X132057140Y-85448140D01*
X134747000Y-84836000D02*
X134747000Y-84062000D01*
X134493000Y-85090000D02*
X134747000Y-84836000D01*
X132415280Y-85090000D02*
X134493000Y-85090000D01*
X132057140Y-85448140D02*
X132415280Y-85090000D01*
X136398000Y-84062000D02*
X134747000Y-84062000D01*
D32*
X147828000Y-86106000D02*
X149775480Y-86106000D01*
X149775480Y-86106000D02*
X149811040Y-86070440D01*
X146949160Y-80772000D02*
X146949160Y-82666840D01*
X146949160Y-82666840D02*
X146812000Y-82804000D01*
X136550400Y-110207360D02*
X135031480Y-110207360D01*
X135031480Y-110207360D02*
X134995920Y-110242920D01*
X134995920Y-110242920D02*
X134383080Y-110242920D01*
X134383080Y-110242920D02*
X134378000Y-110248000D01*
X142312767Y-65980791D02*
X141609976Y-65278000D01*
X141609976Y-65278000D02*
X137540998Y-65278000D01*
X137540998Y-65278000D02*
X136906000Y-65912998D01*
X136398000Y-82562000D02*
X136398000Y-81280000D01*
X146685000Y-76807060D02*
X142339060Y-76807060D01*
X142339060Y-76807060D02*
X142113000Y-76581000D01*
X134378000Y-110248000D02*
X134239000Y-110109000D01*
X134239000Y-110109000D02*
X134112000Y-110109000D01*
X135128000Y-110248000D02*
X134378000Y-110248000D01*
D31*
X133223000Y-110070000D02*
X133731000Y-110070000D01*
D32*
X133731000Y-110070000D02*
X134073000Y-110070000D01*
X134073000Y-110070000D02*
X134112000Y-110109000D01*
X131264660Y-110258860D02*
X132311140Y-110258860D01*
X132311140Y-110258860D02*
X132500000Y-110070000D01*
X131334000Y-108458000D02*
X131334000Y-110189520D01*
X131334000Y-110189520D02*
X131264660Y-110258860D01*
X133438000Y-100545000D02*
X133438000Y-100797000D01*
X133438000Y-100797000D02*
X133491000Y-100850000D01*
X133491000Y-100850000D02*
X133743000Y-100850000D01*
X134366000Y-100850000D02*
X133743000Y-100850000D01*
D31*
X133096000Y-100545000D02*
X132588000Y-100545000D01*
D32*
X133096000Y-100545000D02*
X133438000Y-100545000D01*
D31*
X131953000Y-100733860D02*
X132399140Y-100733860D01*
D32*
X130629660Y-100733860D02*
X131953000Y-100733860D01*
X130826000Y-98933000D02*
X130826000Y-100537520D01*
X130826000Y-100537520D02*
X130629660Y-100733860D01*
X130826000Y-98933000D02*
X129413000Y-98933000D01*
X129286000Y-80391000D02*
X130699000Y-80391000D01*
X129667000Y-108458000D02*
X131334000Y-108458000D01*
X136144000Y-91325000D02*
X135243000Y-91325000D01*
X134493000Y-91452000D02*
X135116000Y-91452000D01*
D31*
X133223000Y-91147000D02*
X132715000Y-91147000D01*
D32*
X133223000Y-91147000D02*
X133528000Y-91452000D01*
X133528000Y-91452000D02*
X134493000Y-91452000D01*
D31*
X132080000Y-91335860D02*
X132526140Y-91335860D01*
D32*
X130629660Y-91335860D02*
X132080000Y-91335860D01*
X130629660Y-91335860D02*
X130629660Y-89604340D01*
X130629660Y-89604340D02*
X130699000Y-89535000D01*
X130699000Y-89535000D02*
X129413000Y-89535000D01*
X134747000Y-82562000D02*
X136398000Y-82562000D01*
X134747000Y-82562000D02*
X133870000Y-82562000D01*
X133870000Y-82562000D02*
X133731000Y-82423000D01*
D31*
X133350000Y-82423000D02*
X133008000Y-82423000D01*
D32*
X133350000Y-82423000D02*
X133731000Y-82423000D01*
D31*
X132207000Y-82445860D02*
X132653140Y-82445860D01*
D32*
X130756660Y-82445860D02*
X132207000Y-82445860D01*
X130756660Y-82445860D02*
X130756660Y-80448660D01*
X130756660Y-80448660D02*
X130699000Y-80391000D01*
X146685000Y-76807060D02*
X146685000Y-73954002D01*
X146685000Y-73954002D02*
X146685000Y-74029000D01*
X146949160Y-80772000D02*
X146949160Y-77071220D01*
X146949160Y-77071220D02*
X146685000Y-76807060D01*
D31*
X146685000Y-76807060D02*
X146685000Y-80507840D01*
X146685000Y-80507840D02*
X146949160Y-80772000D01*
X146685000Y-74029000D02*
X146685000Y-76807060D01*
X133008000Y-82423000D02*
X132842000Y-82257000D01*
X132653140Y-82445860D02*
X132842000Y-82257000D01*
X135116000Y-91452000D02*
X135243000Y-91325000D01*
X132526140Y-91335860D02*
X132715000Y-91147000D01*
X134366000Y-100850000D02*
X136017000Y-100850000D01*
X132399140Y-100733860D02*
X132588000Y-100545000D01*
X132500000Y-110070000D02*
X133223000Y-110070000D01*
X133085140Y-110258860D02*
X133096000Y-110248000D01*
X130756660Y-83947000D02*
X129654300Y-83947000D01*
X130756660Y-83947000D02*
X127805180Y-83947000D01*
X124206000Y-83947000D02*
X127805180Y-83947000D01*
X124206000Y-83947000D02*
X122809000Y-83947000D01*
X122543000Y-84213000D02*
X121666000Y-84213000D01*
X122809000Y-83947000D02*
X122543000Y-84213000D01*
X119761000Y-84035000D02*
X121488000Y-84035000D01*
X121488000Y-84035000D02*
X121666000Y-84213000D01*
X129298000Y-87249000D02*
X128651000Y-87249000D01*
X127805180Y-85387180D02*
X127805180Y-83947000D01*
X128270000Y-85852000D02*
X127805180Y-85387180D01*
X128270000Y-86868000D02*
X128270000Y-85852000D01*
X128651000Y-87249000D02*
X128270000Y-86868000D01*
X132842000Y-84367000D02*
X132373000Y-84367000D01*
X131953000Y-83947000D02*
X130756660Y-83947000D01*
X132373000Y-84367000D02*
X131953000Y-83947000D01*
X125602996Y-118364000D02*
X146939000Y-118364000D01*
X125349000Y-118110004D02*
X125602996Y-118364000D01*
X146939000Y-118364000D02*
X147528001Y-117774999D01*
X147528001Y-117774999D02*
X147828000Y-117475000D01*
X147205000Y-101993000D02*
X147447000Y-102235000D01*
X147205000Y-100965000D02*
X147205000Y-101993000D01*
X119761000Y-86145000D02*
X118198004Y-86145000D01*
X118198004Y-86145000D02*
X118110004Y-86233000D01*
X119761000Y-86145000D02*
X120230000Y-86145000D01*
X120662000Y-85713000D02*
X121666000Y-85713000D01*
X120230000Y-86145000D02*
X120662000Y-85713000D01*
X121527000Y-87503000D02*
X121527000Y-85852000D01*
X121527000Y-85852000D02*
X121666000Y-85713000D01*
X124206000Y-86487000D02*
X123063000Y-86487000D01*
X122428000Y-85852000D02*
X121805000Y-85852000D01*
X123063000Y-86487000D02*
X122428000Y-85852000D01*
X121805000Y-85852000D02*
X121666000Y-85713000D01*
X152134000Y-99187000D02*
X152134000Y-99961000D01*
X152134000Y-99961000D02*
X151892000Y-100203000D01*
X151892000Y-100203000D02*
X150241000Y-100203000D01*
X150241000Y-100203000D02*
X149479000Y-100965000D01*
X149479000Y-100965000D02*
X149352000Y-100965000D01*
X149352000Y-100965000D02*
X148705000Y-100965000D01*
X152134000Y-99187000D02*
X154686000Y-99187000D01*
X142001240Y-79568000D02*
X141539000Y-79568000D01*
X140843000Y-80010000D02*
X139446000Y-81407000D01*
X141097000Y-80010000D02*
X140843000Y-80010000D01*
X141539000Y-79568000D02*
X141097000Y-80010000D01*
X141051240Y-83947000D02*
X142001240Y-82997000D01*
X139446000Y-83947000D02*
X141051240Y-83947000D01*
X142001240Y-86426000D02*
X139507000Y-86426000D01*
X139507000Y-86426000D02*
X139446000Y-86487000D01*
X142001240Y-89855000D02*
X140274000Y-89855000D01*
X140274000Y-89855000D02*
X139446000Y-89027000D01*
X152134000Y-91567000D02*
X152134000Y-90920000D01*
X149987000Y-89789000D02*
X149340000Y-89789000D01*
X150114000Y-89916000D02*
X149987000Y-89789000D01*
X150114000Y-90297000D02*
X150114000Y-89916000D01*
X150495000Y-90678000D02*
X150114000Y-90297000D01*
X151892000Y-90678000D02*
X150495000Y-90678000D01*
X152134000Y-90920000D02*
X151892000Y-90678000D01*
X154686000Y-91567000D02*
X152134000Y-91567000D01*
X152134000Y-94107000D02*
X152134000Y-93460000D01*
X149606000Y-92710000D02*
X149213000Y-92710000D01*
X150114000Y-93218000D02*
X149606000Y-92710000D01*
X151892000Y-93218000D02*
X150114000Y-93218000D01*
X152134000Y-93460000D02*
X151892000Y-93218000D01*
X154686000Y-94107000D02*
X152134000Y-94107000D01*
X152134000Y-96647000D02*
X152134000Y-97040000D01*
X152134000Y-97040000D02*
X151511000Y-97663000D01*
X151511000Y-97663000D02*
X149606000Y-97663000D01*
X149606000Y-97663000D02*
X148959000Y-97663000D01*
X154686000Y-96647000D02*
X152134000Y-96647000D01*
X142875000Y-65278000D02*
X142113000Y-64516000D01*
X142113000Y-64516000D02*
X136779000Y-64516000D01*
X136779000Y-64516000D02*
X136144000Y-65151000D01*
X144000220Y-80518000D02*
X144000220Y-79646780D01*
X135636000Y-87376000D02*
X134427000Y-87376000D01*
X130629660Y-94338140D02*
X131721860Y-94338140D01*
X134493000Y-93599000D02*
X134493000Y-92952000D01*
X134112000Y-93980000D02*
X134493000Y-93599000D01*
X132080000Y-93980000D02*
X134112000Y-93980000D01*
X131721860Y-94338140D02*
X132080000Y-93980000D01*
X136144000Y-92825000D02*
X135394000Y-92825000D01*
X135394000Y-92825000D02*
X135267000Y-92952000D01*
X135267000Y-92952000D02*
X134493000Y-92952000D01*
X130671000Y-96139000D02*
X131572000Y-96139000D01*
X131826000Y-96393000D02*
X133035000Y-96393000D01*
X131572000Y-96139000D02*
X131826000Y-96393000D01*
X130671000Y-96139000D02*
X130671000Y-94379480D01*
X130671000Y-94379480D02*
X130629660Y-94338140D01*
X130629660Y-92837000D02*
X129527300Y-92837000D01*
X130629660Y-92837000D02*
X127678180Y-92837000D01*
X119761000Y-88988000D02*
X120230000Y-88988000D01*
X120408000Y-89166000D02*
X121666000Y-89166000D01*
X120230000Y-88988000D02*
X120408000Y-89166000D01*
X121666000Y-89166000D02*
X122416000Y-89166000D01*
X122555000Y-89027000D02*
X124206000Y-89027000D01*
X122416000Y-89166000D02*
X122555000Y-89027000D01*
X124206000Y-89027000D02*
X125476000Y-89027000D01*
X127678180Y-91229180D02*
X127678180Y-92837000D01*
X125476000Y-89027000D02*
X127678180Y-91229180D01*
X132715000Y-93257000D02*
X132119000Y-93257000D01*
X131699000Y-92837000D02*
X130629660Y-92837000D01*
X132119000Y-93257000D02*
X131699000Y-92837000D01*
X129171000Y-96139000D02*
X128143000Y-96139000D01*
X127635000Y-95631000D02*
X127635000Y-92880180D01*
X128143000Y-96139000D02*
X127635000Y-95631000D01*
X127635000Y-92880180D02*
X127678180Y-92837000D01*
X130671000Y-105791000D02*
X132908000Y-105791000D01*
X130671000Y-105791000D02*
X130671000Y-103777480D01*
X130671000Y-103777480D02*
X130629660Y-103736140D01*
X130629660Y-103736140D02*
X131721860Y-103736140D01*
X134366000Y-102997000D02*
X134366000Y-102350000D01*
X133985000Y-103378000D02*
X134366000Y-102997000D01*
X132080000Y-103378000D02*
X133985000Y-103378000D01*
X131721860Y-103736140D02*
X132080000Y-103378000D01*
X134366000Y-102350000D02*
X136017000Y-102350000D01*
X127426999Y-99613999D02*
X127127000Y-99314000D01*
X127678180Y-102235000D02*
X127678180Y-100985510D01*
X127678180Y-100985510D02*
X128032023Y-100631667D01*
X128032023Y-100631667D02*
X128032023Y-99981567D01*
X128032023Y-99981567D02*
X127664455Y-99613999D01*
X127664455Y-99613999D02*
X127426999Y-99613999D01*
X130629660Y-102235000D02*
X129527300Y-102235000D01*
X127678180Y-102235000D02*
X130629660Y-102235000D01*
X124206000Y-94107000D02*
X122936000Y-94107000D01*
X122670000Y-94373000D02*
X121666000Y-94373000D01*
X122936000Y-94107000D02*
X122670000Y-94373000D01*
X119888000Y-94195000D02*
X120357000Y-94195000D01*
X120357000Y-94195000D02*
X120535000Y-94373000D01*
X120535000Y-94373000D02*
X121666000Y-94373000D01*
X125857000Y-95123000D02*
X124841000Y-94107000D01*
X124841000Y-94107000D02*
X124206000Y-94107000D01*
X129171000Y-105791000D02*
X128397000Y-105791000D01*
X127678180Y-104056180D02*
X127678180Y-102235000D01*
X128016000Y-104394000D02*
X127678180Y-104056180D01*
X128016000Y-105410000D02*
X128016000Y-104394000D01*
X128397000Y-105791000D02*
X128016000Y-105410000D01*
X130629660Y-102235000D02*
X131572000Y-102235000D01*
X131572000Y-102235000D02*
X131992000Y-102655000D01*
X131992000Y-102655000D02*
X132588000Y-102655000D01*
X116392956Y-112842044D02*
X116392956Y-114127284D01*
X116392956Y-114127284D02*
X116377720Y-114142520D01*
X147601689Y-118814011D02*
X147981959Y-118433741D01*
X124742455Y-118814011D02*
X147601689Y-118814011D01*
X147981959Y-118433741D02*
X148281958Y-118133742D01*
X124361238Y-118432794D02*
X124742455Y-118814011D01*
X118324998Y-91098000D02*
X118236998Y-91186000D01*
X119761000Y-91098000D02*
X118324998Y-91098000D01*
X147459000Y-98921972D02*
X147374984Y-99005988D01*
X147459000Y-97663000D02*
X147459000Y-98921972D01*
X121654000Y-92710000D02*
X121654000Y-90678000D01*
X121654000Y-90678000D02*
X121666000Y-90666000D01*
X124206000Y-91567000D02*
X123063000Y-91567000D01*
X122428000Y-90932000D02*
X121932000Y-90932000D01*
X123063000Y-91567000D02*
X122428000Y-90932000D01*
X121932000Y-90932000D02*
X121666000Y-90666000D01*
X119761000Y-91098000D02*
X120103000Y-91098000D01*
X120103000Y-91098000D02*
X120535000Y-90666000D01*
X120535000Y-90666000D02*
X121666000Y-90666000D01*
X117088920Y-114297376D02*
X117088920Y-114721640D01*
X117094000Y-112518426D02*
X117088920Y-112523506D01*
X117088920Y-112523506D02*
X117088920Y-114297376D01*
X116665441Y-112089867D02*
X117094000Y-112518426D01*
X117094000Y-112518426D02*
X117094000Y-114853720D01*
X148477925Y-119061465D02*
X148777924Y-118761466D01*
X148275368Y-119264022D02*
X148477925Y-119061465D01*
X124217020Y-119264022D02*
X148275368Y-119264022D01*
X123443998Y-118491000D02*
X124217020Y-119264022D01*
X118149000Y-96305000D02*
X118110000Y-96266000D01*
X119888000Y-96305000D02*
X118149000Y-96305000D01*
X147713000Y-92710000D02*
X147713000Y-94095000D01*
X147713000Y-94095000D02*
X147701000Y-94107000D01*
X121666000Y-95873000D02*
X121666000Y-97778000D01*
X121666000Y-97778000D02*
X121654000Y-97790000D01*
X124206000Y-96647000D02*
X123063000Y-96647000D01*
X122301000Y-95885000D02*
X121678000Y-95885000D01*
X123063000Y-96647000D02*
X122301000Y-95885000D01*
X121678000Y-95885000D02*
X121666000Y-95873000D01*
X119888000Y-96305000D02*
X120230000Y-96305000D01*
X120662000Y-95873000D02*
X121666000Y-95873000D01*
X120230000Y-96305000D02*
X120662000Y-95873000D01*
X136550400Y-111707360D02*
X135031480Y-111707360D01*
X135031480Y-111707360D02*
X134995920Y-111742920D01*
X134995920Y-111742920D02*
X134995920Y-112242920D01*
X134995920Y-112242920D02*
X134874000Y-112364840D01*
X134874000Y-112364840D02*
X134874000Y-112522000D01*
X131433000Y-115189000D02*
X133035000Y-115189000D01*
X133035000Y-115189000D02*
X133162000Y-115316000D01*
X135128000Y-111748000D02*
X136779000Y-111748000D01*
X132102860Y-113261140D02*
X131264660Y-113261140D01*
X132461000Y-112903000D02*
X132102860Y-113261140D01*
X133731000Y-112903000D02*
X132461000Y-112903000D01*
X134112000Y-112522000D02*
X133731000Y-112903000D01*
X134874000Y-112522000D02*
X134112000Y-112522000D01*
X131264660Y-113261140D02*
X131264660Y-115020660D01*
X131264660Y-115020660D02*
X131433000Y-115189000D01*
X127276670Y-109474000D02*
X127131284Y-109474000D01*
X128313180Y-110510510D02*
X127276670Y-109474000D01*
X128313180Y-111760000D02*
X128313180Y-110510510D01*
X127131284Y-109474000D02*
X126707020Y-109474000D01*
X131264660Y-111760000D02*
X130162300Y-111760000D01*
X128313180Y-111760000D02*
X131264660Y-111760000D01*
X124206000Y-99187000D02*
X123063000Y-99187000D01*
X122797000Y-99453000D02*
X121666000Y-99453000D01*
X123063000Y-99187000D02*
X122797000Y-99453000D01*
X119888000Y-99275000D02*
X121488000Y-99275000D01*
X121488000Y-99275000D02*
X121666000Y-99453000D01*
X126111000Y-99187000D02*
X124206000Y-99187000D01*
X126238000Y-99060000D02*
X126111000Y-99187000D01*
X133223000Y-112180000D02*
X132881000Y-112180000D01*
X132881000Y-112180000D02*
X132461000Y-111760000D01*
X132461000Y-111760000D02*
X131264660Y-111760000D01*
X129933000Y-115189000D02*
X129933000Y-114312000D01*
X128313180Y-113073180D02*
X128313180Y-111760000D01*
X128651000Y-113411000D02*
X128313180Y-113073180D01*
X129032000Y-113411000D02*
X128651000Y-113411000D01*
X129933000Y-114312000D02*
X129032000Y-113411000D01*
X123742028Y-119714032D02*
X124894607Y-119714032D01*
X117544010Y-111841691D02*
X117544010Y-113516014D01*
X117544010Y-113516014D02*
X123742028Y-119714032D01*
X148793421Y-119762025D02*
X149234785Y-119320661D01*
X124942600Y-119762025D02*
X148793421Y-119762025D01*
X124894607Y-119714032D02*
X124942600Y-119762025D01*
X117177622Y-111475303D02*
X117544010Y-111841691D01*
X149234785Y-119320661D02*
X149534784Y-119020662D01*
X118198004Y-101385000D02*
X118110004Y-101473000D01*
X119888000Y-101385000D02*
X118198004Y-101385000D01*
X147840000Y-89789000D02*
X147840000Y-90704990D01*
X147840000Y-90704990D02*
X147828000Y-90716990D01*
X121666000Y-100953000D02*
X121666000Y-102731000D01*
X121666000Y-102731000D02*
X121654000Y-102743000D01*
X124206000Y-101727000D02*
X123063000Y-101727000D01*
X122301000Y-100965000D02*
X121678000Y-100965000D01*
X123063000Y-101727000D02*
X122301000Y-100965000D01*
X121678000Y-100965000D02*
X121666000Y-100953000D01*
X119888000Y-101385000D02*
X120484000Y-101385000D01*
X120904000Y-100965000D02*
X121654000Y-100965000D01*
X120484000Y-101385000D02*
X120904000Y-100965000D01*
X121654000Y-100965000D02*
X121666000Y-100953000D01*
X145414998Y-113284000D02*
X145669000Y-113538002D01*
X137160000Y-113284000D02*
X145414998Y-113284000D01*
X144000220Y-83947000D02*
X145161000Y-83947000D01*
X136144000Y-96393000D02*
X134935000Y-96393000D01*
X145161000Y-83947000D02*
X145288000Y-84074000D01*
X144916980Y-87376000D02*
X145043980Y-87503000D01*
X144000220Y-87376000D02*
X144916980Y-87376000D01*
X136652000Y-114300000D02*
X136951999Y-114000001D01*
X144958493Y-114000001D02*
X145062436Y-114103944D01*
X136951999Y-114000001D02*
X144958493Y-114000001D01*
X145062436Y-114103944D02*
X145362435Y-114403943D01*
X134808000Y-105791000D02*
X136026980Y-105791000D01*
X144169705Y-90932000D02*
X144593969Y-90932000D01*
X144000220Y-90805000D02*
X144127220Y-90932000D01*
X144127220Y-90932000D02*
X144169705Y-90932000D01*
X144272000Y-115062000D02*
X143957957Y-114747957D01*
X135662000Y-115316000D02*
X135062000Y-115316000D01*
X143957957Y-114747957D02*
X141431999Y-114747957D01*
X141431999Y-114747957D02*
X141235988Y-114943968D01*
X136034032Y-114943968D02*
X135662000Y-115316000D01*
X141235988Y-114943968D02*
X136034032Y-114943968D01*
X124206000Y-112522000D02*
X124206000Y-113665000D01*
X124206000Y-113665000D02*
X125857000Y-115316000D01*
X125857000Y-115316000D02*
X128778000Y-115316000D01*
X129207999Y-115824001D02*
X129272999Y-115889001D01*
X128778000Y-115316000D02*
X129207999Y-115745999D01*
X129207999Y-115745999D02*
X129207999Y-115824001D01*
X141432001Y-115672957D02*
X141732000Y-115372958D01*
X129272999Y-115889001D02*
X132530999Y-115889001D01*
X132530999Y-115889001D02*
X132551999Y-115910001D01*
X132551999Y-115910001D02*
X136053001Y-115910001D01*
X136053001Y-115910001D02*
X136290045Y-115672957D01*
X136290045Y-115672957D02*
X141432001Y-115672957D01*
X141813003Y-94315001D02*
X142113002Y-94615000D01*
X139446000Y-91567000D02*
X139446000Y-91947998D01*
X139446000Y-91947998D02*
X141813003Y-94315001D01*
X124206000Y-76327000D02*
X126238000Y-76327000D01*
X126238000Y-76327000D02*
X126776860Y-75788140D01*
X126776860Y-75788140D02*
X133454005Y-75788140D01*
X133454005Y-75788140D02*
X133878269Y-75788140D01*
X134493000Y-71247000D02*
X139446000Y-71247000D01*
X135255000Y-72009000D02*
X135509000Y-71755000D01*
X135509000Y-71755000D02*
X137414000Y-71755000D01*
X137414000Y-71755000D02*
X139446000Y-73787000D01*
X124206000Y-78867000D02*
X124358400Y-78867000D01*
X124358400Y-78867000D02*
X126898400Y-76327000D01*
X126898400Y-76327000D02*
X133306730Y-76327000D01*
X133306730Y-76327000D02*
X133560730Y-76581000D01*
X133560730Y-76581000D02*
X133984994Y-76581000D01*
X134066001Y-76662007D02*
X133984994Y-76581000D01*
X152872440Y-88143080D02*
X152105360Y-87376000D01*
X152105360Y-87376000D02*
X151990360Y-87261000D01*
X152400000Y-86602000D02*
X152400000Y-87102000D01*
X152400000Y-87102000D02*
X152126000Y-87376000D01*
X152126000Y-87376000D02*
X152105360Y-87376000D01*
X151302720Y-87261000D02*
X151302720Y-86078760D01*
X151302720Y-86078760D02*
X151311040Y-86070440D01*
X151990360Y-87261000D02*
X151302720Y-87261000D01*
X152872440Y-88479440D02*
X152872440Y-88143080D01*
X154686000Y-89027000D02*
X153420000Y-89027000D01*
X153420000Y-89027000D02*
X152872440Y-88479440D01*
D33*
G36*
X155529175Y-58951752D02*
X153993472Y-60487456D01*
X153259696Y-61585628D01*
X153002029Y-62881012D01*
X153259696Y-64176396D01*
X153993472Y-65274568D01*
X155091644Y-66008344D01*
X156387028Y-66266011D01*
X157682412Y-66008344D01*
X158780584Y-65274568D01*
X160316288Y-63738865D01*
X160326000Y-63724330D01*
X160326000Y-116687567D01*
X159348210Y-116034228D01*
X158052827Y-115776560D01*
X155881013Y-115776560D01*
X154585630Y-116034228D01*
X153487457Y-116768004D01*
X152753681Y-117866177D01*
X152496013Y-119161560D01*
X152753681Y-120456943D01*
X153426575Y-121464000D01*
X118567807Y-121464000D01*
X119012030Y-121020552D01*
X119528451Y-119776872D01*
X119529626Y-118430236D01*
X119015377Y-117185657D01*
X118063992Y-116232610D01*
X116820312Y-115716189D01*
X115473676Y-115715014D01*
X114229097Y-116229263D01*
X113740000Y-116717507D01*
X113740000Y-114327687D01*
X115442558Y-114327687D01*
X115584603Y-114671463D01*
X115847393Y-114934712D01*
X116190921Y-115077358D01*
X116224240Y-115077387D01*
X116295803Y-115250583D01*
X116558593Y-115513832D01*
X116902121Y-115656478D01*
X117274087Y-115656802D01*
X117617863Y-115514757D01*
X117881112Y-115251967D01*
X117976190Y-115022996D01*
X123204627Y-120251433D01*
X123451189Y-120416180D01*
X123742028Y-120474032D01*
X124701324Y-120474032D01*
X124942600Y-120522025D01*
X148793421Y-120522025D01*
X149084260Y-120464173D01*
X149330822Y-120299426D01*
X149674464Y-119955784D01*
X149719951Y-119955824D01*
X150063727Y-119813779D01*
X150326976Y-119550989D01*
X150469622Y-119207461D01*
X150469946Y-118835495D01*
X150327901Y-118491719D01*
X150065111Y-118228470D01*
X149721583Y-118085824D01*
X149424339Y-118085565D01*
X149308251Y-117969274D01*
X149208570Y-117927883D01*
X149075075Y-117604799D01*
X148812285Y-117341550D01*
X148763135Y-117321141D01*
X148763162Y-117289833D01*
X148621117Y-116946057D01*
X148358327Y-116682808D01*
X148014799Y-116540162D01*
X147642833Y-116539838D01*
X147299057Y-116681883D01*
X147035808Y-116944673D01*
X146893162Y-117288201D01*
X146893121Y-117335077D01*
X146624198Y-117604000D01*
X126151595Y-117604000D01*
X126142117Y-117581061D01*
X125879327Y-117317812D01*
X125535799Y-117175166D01*
X125163833Y-117174842D01*
X124820057Y-117316887D01*
X124612046Y-117524535D01*
X124548037Y-117497956D01*
X124176071Y-117497632D01*
X123832295Y-117639677D01*
X123832186Y-117639786D01*
X123630797Y-117556162D01*
X123258831Y-117555838D01*
X122915055Y-117697883D01*
X122857818Y-117755020D01*
X119650244Y-114547446D01*
X120017740Y-114347724D01*
X120359846Y-113924919D01*
X120382984Y-113846694D01*
X120383554Y-113849561D01*
X120684458Y-114299896D01*
X121134793Y-114600800D01*
X121666000Y-114706464D01*
X121814889Y-114676848D01*
X122293318Y-115155277D01*
X122293320Y-115155280D01*
X122527120Y-115311499D01*
X122580435Y-115347123D01*
X122595552Y-115350130D01*
X123949210Y-116703787D01*
X123949212Y-116703790D01*
X124236327Y-116895633D01*
X124271785Y-116902686D01*
X124575002Y-116963001D01*
X124575007Y-116963000D01*
X128140810Y-116963000D01*
X128367609Y-117189799D01*
X128367611Y-117189802D01*
X128654726Y-117381645D01*
X128993401Y-117449012D01*
X132166827Y-117449012D01*
X132272401Y-117470012D01*
X136332594Y-117470012D01*
X136332599Y-117470013D01*
X136342935Y-117467957D01*
X146041094Y-117467957D01*
X146041099Y-117467958D01*
X146323583Y-117411767D01*
X146379774Y-117400590D01*
X146666889Y-117208747D01*
X148817635Y-115058000D01*
X156919178Y-115058000D01*
X157039201Y-115107838D01*
X157411167Y-115108162D01*
X157754943Y-114966117D01*
X158018192Y-114703327D01*
X158160838Y-114359799D01*
X158161162Y-113987833D01*
X158019117Y-113644057D01*
X157756327Y-113380808D01*
X157412799Y-113238162D01*
X157040833Y-113237838D01*
X156919431Y-113288000D01*
X148451061Y-113288000D01*
X148451056Y-113287999D01*
X148169808Y-113343944D01*
X148112381Y-113355367D01*
X147825266Y-113547210D01*
X147825264Y-113547213D01*
X145674519Y-115697957D01*
X144958378Y-115697957D01*
X145064192Y-115592327D01*
X145170380Y-115336599D01*
X145175636Y-115338781D01*
X145547602Y-115339105D01*
X145891378Y-115197060D01*
X146154627Y-114934270D01*
X146297273Y-114590742D01*
X146297586Y-114231650D01*
X146461192Y-114068329D01*
X146603838Y-113724801D01*
X146604162Y-113352835D01*
X146462117Y-113009059D01*
X146199327Y-112745810D01*
X145855799Y-112603164D01*
X145737579Y-112603061D01*
X145705837Y-112581852D01*
X145414998Y-112524000D01*
X142638103Y-112524000D01*
X142666838Y-112454799D01*
X142667162Y-112082833D01*
X142525117Y-111739057D01*
X142262327Y-111475808D01*
X141918799Y-111333162D01*
X141546833Y-111332838D01*
X141203057Y-111474883D01*
X140939808Y-111737673D01*
X140797162Y-112081201D01*
X140796838Y-112453167D01*
X140826106Y-112524000D01*
X137722463Y-112524000D01*
X137690327Y-112491808D01*
X137488516Y-112408008D01*
X137521831Y-112359250D01*
X137572840Y-112107360D01*
X137572840Y-111307360D01*
X137528562Y-111072043D01*
X137454780Y-110957382D01*
X137521831Y-110859250D01*
X137572840Y-110607360D01*
X137572840Y-109807360D01*
X137571030Y-109797743D01*
X137830078Y-110424686D01*
X138365495Y-110961039D01*
X139065410Y-111251668D01*
X139823265Y-111252330D01*
X140523686Y-110962922D01*
X141060039Y-110427505D01*
X141350668Y-109727590D01*
X141351330Y-108969735D01*
X141061922Y-108269314D01*
X140672158Y-107878869D01*
X140690415Y-107866670D01*
X141015271Y-107380489D01*
X141129345Y-106807000D01*
X141015271Y-106233511D01*
X140690415Y-105747330D01*
X140375634Y-105537000D01*
X140690415Y-105326670D01*
X141015271Y-104840489D01*
X141129345Y-104267000D01*
X141015271Y-103693511D01*
X140902509Y-103524750D01*
X151009000Y-103524750D01*
X151009000Y-103765309D01*
X151105673Y-103998698D01*
X151284301Y-104177327D01*
X151517690Y-104274000D01*
X151733250Y-104274000D01*
X151892000Y-104115250D01*
X151892000Y-103366000D01*
X152146000Y-103366000D01*
X152146000Y-104115250D01*
X152304750Y-104274000D01*
X152520310Y-104274000D01*
X152753699Y-104177327D01*
X152932327Y-103998698D01*
X153029000Y-103765309D01*
X153029000Y-103524750D01*
X152870250Y-103366000D01*
X152146000Y-103366000D01*
X151892000Y-103366000D01*
X151167750Y-103366000D01*
X151009000Y-103524750D01*
X140902509Y-103524750D01*
X140690415Y-103207330D01*
X140375634Y-102997000D01*
X140690415Y-102786670D01*
X141015271Y-102300489D01*
X141129345Y-101727000D01*
X141015271Y-101153511D01*
X140690415Y-100667330D01*
X140462438Y-100515000D01*
X146307560Y-100515000D01*
X146307560Y-101415000D01*
X146351838Y-101650317D01*
X146445000Y-101795095D01*
X146445000Y-101993000D01*
X146502852Y-102283839D01*
X146511945Y-102297448D01*
X146511838Y-102420167D01*
X146653883Y-102763943D01*
X146916673Y-103027192D01*
X147260201Y-103169838D01*
X147632167Y-103170162D01*
X147975943Y-103028117D01*
X148239192Y-102765327D01*
X148381838Y-102421799D01*
X148382162Y-102049833D01*
X148381196Y-102047494D01*
X148455000Y-102062440D01*
X148955000Y-102062440D01*
X149190317Y-102018162D01*
X149406441Y-101879090D01*
X149516874Y-101717466D01*
X149769839Y-101667148D01*
X150016401Y-101502401D01*
X150555802Y-100963000D01*
X151132370Y-100963000D01*
X151047569Y-101087110D01*
X150996560Y-101339000D01*
X150996560Y-102139000D01*
X151040838Y-102374317D01*
X151107329Y-102477646D01*
X151105673Y-102479302D01*
X151009000Y-102712691D01*
X151009000Y-102953250D01*
X151167750Y-103112000D01*
X151892000Y-103112000D01*
X151892000Y-103092000D01*
X152146000Y-103092000D01*
X152146000Y-103112000D01*
X152870250Y-103112000D01*
X153029000Y-102953250D01*
X153029000Y-102712691D01*
X152987292Y-102612000D01*
X153034995Y-102612000D01*
X153035000Y-102612001D01*
X153035005Y-102612000D01*
X153324874Y-102612000D01*
X153441585Y-102786670D01*
X153756366Y-102997000D01*
X153441585Y-103207330D01*
X153116729Y-103693511D01*
X153002655Y-104267000D01*
X153116729Y-104840489D01*
X153441585Y-105326670D01*
X153756366Y-105537000D01*
X153441585Y-105747330D01*
X153116729Y-106233511D01*
X153002655Y-106807000D01*
X153116729Y-107380489D01*
X153441585Y-107866670D01*
X153460095Y-107879038D01*
X153071961Y-108266495D01*
X152781332Y-108966410D01*
X152780670Y-109724265D01*
X153070078Y-110424686D01*
X153605495Y-110961039D01*
X154305410Y-111251668D01*
X155063265Y-111252330D01*
X155763686Y-110962922D01*
X156300039Y-110427505D01*
X156590668Y-109727590D01*
X156591330Y-108969735D01*
X156301922Y-108269314D01*
X155912158Y-107878869D01*
X155930415Y-107866670D01*
X156255271Y-107380489D01*
X156369345Y-106807000D01*
X156255271Y-106233511D01*
X155930415Y-105747330D01*
X155615634Y-105537000D01*
X155930415Y-105326670D01*
X156255271Y-104840489D01*
X156369345Y-104267000D01*
X156255271Y-103693511D01*
X155930415Y-103207330D01*
X155615634Y-102997000D01*
X155930415Y-102786670D01*
X156047126Y-102612000D01*
X156919178Y-102612000D01*
X157039201Y-102661838D01*
X157411167Y-102662162D01*
X157754943Y-102520117D01*
X158018192Y-102257327D01*
X158160838Y-101913799D01*
X158161162Y-101541833D01*
X158019117Y-101198057D01*
X157756327Y-100934808D01*
X157412799Y-100792162D01*
X157040833Y-100791838D01*
X156919431Y-100842000D01*
X156047126Y-100842000D01*
X155930415Y-100667330D01*
X155615634Y-100457000D01*
X155930415Y-100246670D01*
X156255271Y-99760489D01*
X156369345Y-99187000D01*
X156255271Y-98613511D01*
X155930415Y-98127330D01*
X155615634Y-97917000D01*
X155930415Y-97706670D01*
X156255271Y-97220489D01*
X156369345Y-96647000D01*
X156255271Y-96073511D01*
X155930415Y-95587330D01*
X155615634Y-95377000D01*
X155930415Y-95166670D01*
X156255271Y-94680489D01*
X156369345Y-94107000D01*
X156255271Y-93533511D01*
X155930415Y-93047330D01*
X155615634Y-92837000D01*
X155930415Y-92626670D01*
X156255271Y-92140489D01*
X156369345Y-91567000D01*
X156255271Y-90993511D01*
X155930415Y-90507330D01*
X155615634Y-90297000D01*
X155930415Y-90086670D01*
X156255271Y-89600489D01*
X156369345Y-89027000D01*
X156255271Y-88453511D01*
X155930415Y-87967330D01*
X155615634Y-87757000D01*
X155930415Y-87546670D01*
X156255271Y-87060489D01*
X156369345Y-86487000D01*
X156255271Y-85913511D01*
X155930415Y-85427330D01*
X155615634Y-85217000D01*
X155930415Y-85006670D01*
X156255271Y-84520489D01*
X156369345Y-83947000D01*
X156255271Y-83373511D01*
X155930415Y-82887330D01*
X155615634Y-82677000D01*
X155930415Y-82466670D01*
X156255271Y-81980489D01*
X156369345Y-81407000D01*
X156255271Y-80833511D01*
X155930415Y-80347330D01*
X155615634Y-80137000D01*
X155930415Y-79926670D01*
X156255271Y-79440489D01*
X156369345Y-78867000D01*
X156255271Y-78293511D01*
X155930415Y-77807330D01*
X155615634Y-77597000D01*
X155930415Y-77386670D01*
X156255271Y-76900489D01*
X156369345Y-76327000D01*
X156255271Y-75753511D01*
X155930415Y-75267330D01*
X155620931Y-75060539D01*
X156036732Y-74689036D01*
X156290709Y-74161791D01*
X156293358Y-74146026D01*
X156172217Y-73914000D01*
X154813000Y-73914000D01*
X154813000Y-73934000D01*
X154559000Y-73934000D01*
X154559000Y-73914000D01*
X153199783Y-73914000D01*
X153078642Y-74146026D01*
X153081291Y-74161791D01*
X153335268Y-74689036D01*
X153751069Y-75060539D01*
X153441585Y-75267330D01*
X153116729Y-75753511D01*
X153072293Y-75976905D01*
X152212198Y-76837000D01*
X151565463Y-76837000D01*
X151533327Y-76804808D01*
X151189799Y-76662162D01*
X150817833Y-76661838D01*
X150474057Y-76803883D01*
X150210808Y-77066673D01*
X150068162Y-77410201D01*
X150067838Y-77782167D01*
X150209883Y-78125943D01*
X150472673Y-78389192D01*
X150816201Y-78531838D01*
X151188167Y-78532162D01*
X151531943Y-78390117D01*
X151565118Y-78357000D01*
X152527000Y-78357000D01*
X152558358Y-78350762D01*
X152622883Y-78506925D01*
X152885673Y-78770174D01*
X153006956Y-78820535D01*
X153011078Y-78824657D01*
X153002655Y-78867000D01*
X153116729Y-79440489D01*
X153441585Y-79926670D01*
X153756366Y-80137000D01*
X153441585Y-80347330D01*
X153116729Y-80833511D01*
X153081979Y-81008209D01*
X152972770Y-80899000D01*
X151373840Y-80899000D01*
X151373840Y-82398870D01*
X151532590Y-82557620D01*
X152622829Y-82557620D01*
X152856218Y-82460947D01*
X153034847Y-82282319D01*
X153131520Y-82048930D01*
X153131520Y-82002625D01*
X153441585Y-82466670D01*
X153756366Y-82677000D01*
X153441585Y-82887330D01*
X153116729Y-83373511D01*
X153002655Y-83947000D01*
X153063549Y-84253136D01*
X152976310Y-84217000D01*
X152685750Y-84217000D01*
X152527000Y-84375750D01*
X152527000Y-84977000D01*
X153326250Y-84977000D01*
X153383504Y-84919746D01*
X153441585Y-85006670D01*
X153756366Y-85217000D01*
X153485000Y-85398321D01*
X153485000Y-85385750D01*
X153326250Y-85227000D01*
X152527000Y-85227000D01*
X152527000Y-85249000D01*
X152273000Y-85249000D01*
X152273000Y-85227000D01*
X152253000Y-85227000D01*
X152253000Y-84977000D01*
X152273000Y-84977000D01*
X152273000Y-84375750D01*
X152114250Y-84217000D01*
X151823690Y-84217000D01*
X151590301Y-84313673D01*
X151411673Y-84492302D01*
X151315000Y-84725691D01*
X151315000Y-84818250D01*
X151469750Y-84973000D01*
X151061040Y-84973000D01*
X150825723Y-85017278D01*
X150609599Y-85156350D01*
X150561906Y-85226151D01*
X150525130Y-85168999D01*
X150312930Y-85024009D01*
X150061040Y-84973000D01*
X149561040Y-84973000D01*
X149325723Y-85017278D01*
X149109599Y-85156350D01*
X149065426Y-85221000D01*
X148134822Y-85221000D01*
X148014799Y-85171162D01*
X147642833Y-85170838D01*
X147299057Y-85312883D01*
X147035808Y-85575673D01*
X146893162Y-85919201D01*
X146892838Y-86291167D01*
X147034883Y-86634943D01*
X147297673Y-86898192D01*
X147641201Y-87040838D01*
X148013167Y-87041162D01*
X148134569Y-86991000D01*
X149124932Y-86991000D01*
X149309150Y-87116871D01*
X149561040Y-87167880D01*
X150061040Y-87167880D01*
X150280280Y-87126627D01*
X150280280Y-87661000D01*
X150324558Y-87896317D01*
X150391049Y-87999646D01*
X150389393Y-88001302D01*
X150292720Y-88234691D01*
X150292720Y-88475250D01*
X150451470Y-88634000D01*
X151175720Y-88634000D01*
X151175720Y-88614000D01*
X151429720Y-88614000D01*
X151429720Y-88634000D01*
X151449720Y-88634000D01*
X151449720Y-88888000D01*
X151429720Y-88888000D01*
X151429720Y-89637250D01*
X151588470Y-89796000D01*
X151804030Y-89796000D01*
X152037419Y-89699327D01*
X152216047Y-89520698D01*
X152312720Y-89287309D01*
X152312720Y-89046750D01*
X152153972Y-88888002D01*
X152248952Y-88888002D01*
X152335039Y-89016841D01*
X152882599Y-89564401D01*
X153129161Y-89729148D01*
X153213968Y-89746017D01*
X153441585Y-90086670D01*
X153756366Y-90297000D01*
X153441585Y-90507330D01*
X153241352Y-90807000D01*
X153040844Y-90807000D01*
X152998090Y-90740559D01*
X152836320Y-90630026D01*
X152836148Y-90629161D01*
X152671401Y-90382599D01*
X152429401Y-90140599D01*
X152182839Y-89975852D01*
X151892000Y-89918000D01*
X150874000Y-89918000D01*
X150874000Y-89916000D01*
X150850130Y-89796000D01*
X151016970Y-89796000D01*
X151175720Y-89637250D01*
X151175720Y-88888000D01*
X150451470Y-88888000D01*
X150292720Y-89046750D01*
X150292720Y-89096795D01*
X150277839Y-89086852D01*
X150168312Y-89065066D01*
X150054090Y-88887559D01*
X149841890Y-88742569D01*
X149590000Y-88691560D01*
X149090000Y-88691560D01*
X148854683Y-88735838D01*
X148638559Y-88874910D01*
X148590866Y-88944711D01*
X148554090Y-88887559D01*
X148341890Y-88742569D01*
X148090000Y-88691560D01*
X147590000Y-88691560D01*
X147354683Y-88735838D01*
X147138559Y-88874910D01*
X146993569Y-89087110D01*
X146942560Y-89339000D01*
X146942560Y-90239000D01*
X146964861Y-90357521D01*
X146893162Y-90530191D01*
X146892838Y-90902157D01*
X147034883Y-91245933D01*
X147297673Y-91509182D01*
X147546634Y-91612560D01*
X147463000Y-91612560D01*
X147227683Y-91656838D01*
X147011559Y-91795910D01*
X146866569Y-92008110D01*
X146815560Y-92260000D01*
X146815560Y-93160000D01*
X146859838Y-93395317D01*
X146950047Y-93535506D01*
X146908808Y-93576673D01*
X146766162Y-93920201D01*
X146765838Y-94292167D01*
X146907883Y-94635943D01*
X147170673Y-94899192D01*
X147514201Y-95041838D01*
X147886167Y-95042162D01*
X148229943Y-94900117D01*
X148493192Y-94637327D01*
X148594749Y-94392750D01*
X149599000Y-94392750D01*
X149599000Y-94608310D01*
X149695673Y-94841699D01*
X149874302Y-95020327D01*
X150107691Y-95117000D01*
X150348250Y-95117000D01*
X150507000Y-94958250D01*
X150507000Y-94234000D01*
X149757750Y-94234000D01*
X149599000Y-94392750D01*
X148594749Y-94392750D01*
X148635838Y-94293799D01*
X148636162Y-93921833D01*
X148511452Y-93620010D01*
X148711110Y-93756431D01*
X148963000Y-93807440D01*
X149463000Y-93807440D01*
X149599000Y-93781850D01*
X149599000Y-93821250D01*
X149757750Y-93980000D01*
X150507000Y-93980000D01*
X150507000Y-93978000D01*
X150761000Y-93978000D01*
X150761000Y-93980000D01*
X150781000Y-93980000D01*
X150781000Y-94234000D01*
X150761000Y-94234000D01*
X150761000Y-94958250D01*
X150919750Y-95117000D01*
X151160309Y-95117000D01*
X151393698Y-95020327D01*
X151395068Y-95018957D01*
X151482110Y-95078431D01*
X151734000Y-95129440D01*
X152534000Y-95129440D01*
X152769317Y-95085162D01*
X152985441Y-94946090D01*
X153039481Y-94867000D01*
X153241352Y-94867000D01*
X153441585Y-95166670D01*
X153756366Y-95377000D01*
X153441585Y-95587330D01*
X153241352Y-95887000D01*
X153040844Y-95887000D01*
X152998090Y-95820559D01*
X152785890Y-95675569D01*
X152534000Y-95624560D01*
X151734000Y-95624560D01*
X151498683Y-95668838D01*
X151395354Y-95735329D01*
X151393698Y-95733673D01*
X151160309Y-95637000D01*
X150919750Y-95637000D01*
X150761000Y-95795750D01*
X150761000Y-96520000D01*
X150781000Y-96520000D01*
X150781000Y-96774000D01*
X150761000Y-96774000D01*
X150761000Y-96794000D01*
X150507000Y-96794000D01*
X150507000Y-96774000D01*
X149757750Y-96774000D01*
X149711109Y-96820641D01*
X149673090Y-96761559D01*
X149460890Y-96616569D01*
X149209000Y-96565560D01*
X148709000Y-96565560D01*
X148473683Y-96609838D01*
X148257559Y-96748910D01*
X148209866Y-96818711D01*
X148173090Y-96761559D01*
X147960890Y-96616569D01*
X147709000Y-96565560D01*
X147209000Y-96565560D01*
X146973683Y-96609838D01*
X146757559Y-96748910D01*
X146612569Y-96961110D01*
X146561560Y-97213000D01*
X146561560Y-98113000D01*
X146605838Y-98348317D01*
X146646718Y-98411846D01*
X146582792Y-98475661D01*
X146440146Y-98819189D01*
X146439822Y-99191155D01*
X146581867Y-99534931D01*
X146844657Y-99798180D01*
X147011742Y-99867560D01*
X146955000Y-99867560D01*
X146719683Y-99911838D01*
X146503559Y-100050910D01*
X146358569Y-100263110D01*
X146307560Y-100515000D01*
X140462438Y-100515000D01*
X140375634Y-100457000D01*
X140690415Y-100246670D01*
X141015271Y-99760489D01*
X141129345Y-99187000D01*
X141015271Y-98613511D01*
X140690415Y-98127330D01*
X140375634Y-97917000D01*
X140690415Y-97706670D01*
X141015271Y-97220489D01*
X141129345Y-96647000D01*
X141029629Y-96145690D01*
X149599000Y-96145690D01*
X149599000Y-96361250D01*
X149757750Y-96520000D01*
X150507000Y-96520000D01*
X150507000Y-95795750D01*
X150348250Y-95637000D01*
X150107691Y-95637000D01*
X149874302Y-95733673D01*
X149695673Y-95912301D01*
X149599000Y-96145690D01*
X141029629Y-96145690D01*
X141015271Y-96073511D01*
X140690415Y-95587330D01*
X140375634Y-95377000D01*
X140690415Y-95166670D01*
X141015271Y-94680489D01*
X141029940Y-94606740D01*
X141177880Y-94754680D01*
X141177840Y-94800167D01*
X141319885Y-95143943D01*
X141582675Y-95407192D01*
X141926203Y-95549838D01*
X142298169Y-95550162D01*
X142641945Y-95408117D01*
X142905194Y-95145327D01*
X143047840Y-94801799D01*
X143048164Y-94429833D01*
X142906119Y-94086057D01*
X142643329Y-93822808D01*
X142299801Y-93680162D01*
X142252925Y-93680121D01*
X141283640Y-92710836D01*
X141474880Y-92790050D01*
X141715490Y-92790050D01*
X141874240Y-92631300D01*
X141874240Y-91882000D01*
X142128240Y-91882000D01*
X142128240Y-92631300D01*
X142286990Y-92790050D01*
X142527600Y-92790050D01*
X142760989Y-92693377D01*
X142939617Y-92514748D01*
X143036290Y-92281359D01*
X143036290Y-92040750D01*
X142877540Y-91882000D01*
X142128240Y-91882000D01*
X141874240Y-91882000D01*
X141854240Y-91882000D01*
X141854240Y-91628000D01*
X141874240Y-91628000D01*
X141874240Y-91608000D01*
X142128240Y-91608000D01*
X142128240Y-91628000D01*
X142877540Y-91628000D01*
X143023697Y-91481843D01*
X143136080Y-91656491D01*
X143348280Y-91801481D01*
X143600170Y-91852490D01*
X144372616Y-91852490D01*
X144407170Y-91866838D01*
X144779136Y-91867162D01*
X145122912Y-91725117D01*
X145386161Y-91462327D01*
X145528807Y-91118799D01*
X145529131Y-90746833D01*
X145387086Y-90403057D01*
X145124296Y-90139808D01*
X144933172Y-90060446D01*
X144864360Y-89953509D01*
X144652160Y-89808519D01*
X144400270Y-89757510D01*
X143600170Y-89757510D01*
X143364853Y-89801788D01*
X143148729Y-89940860D01*
X143048730Y-90087213D01*
X143048730Y-89454950D01*
X143004452Y-89219633D01*
X142926646Y-89098719D01*
X142939617Y-89085748D01*
X143036290Y-88852359D01*
X143036290Y-88611750D01*
X142877540Y-88453000D01*
X142128240Y-88453000D01*
X142128240Y-88473000D01*
X141874240Y-88473000D01*
X141874240Y-88453000D01*
X141124940Y-88453000D01*
X141033381Y-88544559D01*
X141015271Y-88453511D01*
X140690415Y-87967330D01*
X140375634Y-87757000D01*
X140690415Y-87546670D01*
X140931407Y-87186000D01*
X141078227Y-87186000D01*
X141137100Y-87277491D01*
X141276849Y-87372977D01*
X141241491Y-87387623D01*
X141062863Y-87566252D01*
X140966190Y-87799641D01*
X140966190Y-88040250D01*
X141124940Y-88199000D01*
X141874240Y-88199000D01*
X141874240Y-88179000D01*
X142128240Y-88179000D01*
X142128240Y-88199000D01*
X142877540Y-88199000D01*
X143023697Y-88052843D01*
X143136080Y-88227491D01*
X143348280Y-88372481D01*
X143600170Y-88423490D01*
X144400270Y-88423490D01*
X144635587Y-88379212D01*
X144667123Y-88358919D01*
X144857181Y-88437838D01*
X145229147Y-88438162D01*
X145572923Y-88296117D01*
X145836172Y-88033327D01*
X145978818Y-87689799D01*
X145979142Y-87317833D01*
X145837097Y-86974057D01*
X145574307Y-86710808D01*
X145230779Y-86568162D01*
X144892260Y-86567867D01*
X144864360Y-86524509D01*
X144652160Y-86379519D01*
X144400270Y-86328510D01*
X143600170Y-86328510D01*
X143364853Y-86372788D01*
X143148729Y-86511860D01*
X143048730Y-86658213D01*
X143048730Y-86025950D01*
X143004452Y-85790633D01*
X142926646Y-85669719D01*
X142939617Y-85656748D01*
X143036290Y-85423359D01*
X143036290Y-85182750D01*
X142877540Y-85024000D01*
X142128240Y-85024000D01*
X142128240Y-85044000D01*
X141874240Y-85044000D01*
X141874240Y-85024000D01*
X141124940Y-85024000D01*
X140966190Y-85182750D01*
X140966190Y-85423359D01*
X141062863Y-85656748D01*
X141072115Y-85666000D01*
X140849889Y-85666000D01*
X140690415Y-85427330D01*
X140375634Y-85217000D01*
X140690415Y-85006670D01*
X140890648Y-84707000D01*
X141051240Y-84707000D01*
X141060165Y-84705225D01*
X141124940Y-84770000D01*
X141874240Y-84770000D01*
X141874240Y-84750000D01*
X142128240Y-84750000D01*
X142128240Y-84770000D01*
X142877540Y-84770000D01*
X143023697Y-84623843D01*
X143136080Y-84798491D01*
X143348280Y-84943481D01*
X143600170Y-84994490D01*
X144400270Y-84994490D01*
X144635587Y-84950212D01*
X144762830Y-84868333D01*
X145101201Y-85008838D01*
X145473167Y-85009162D01*
X145816943Y-84867117D01*
X146080192Y-84604327D01*
X146222838Y-84260799D01*
X146223162Y-83888833D01*
X146081117Y-83545057D01*
X145818327Y-83281808D01*
X145474799Y-83139162D01*
X145102833Y-83138838D01*
X144986272Y-83187000D01*
X144923233Y-83187000D01*
X144864360Y-83095509D01*
X144652160Y-82950519D01*
X144400270Y-82899510D01*
X143600170Y-82899510D01*
X143364853Y-82943788D01*
X143148729Y-83082860D01*
X143048730Y-83229213D01*
X143048730Y-82596950D01*
X143004452Y-82361633D01*
X142926646Y-82240719D01*
X142939617Y-82227748D01*
X143036290Y-81994359D01*
X143036290Y-81753750D01*
X142877540Y-81595000D01*
X142128240Y-81595000D01*
X142128240Y-81615000D01*
X141874240Y-81615000D01*
X141874240Y-81595000D01*
X141854240Y-81595000D01*
X141854240Y-81341000D01*
X141874240Y-81341000D01*
X141874240Y-81321000D01*
X142128240Y-81321000D01*
X142128240Y-81341000D01*
X142877540Y-81341000D01*
X143023697Y-81194843D01*
X143136080Y-81369491D01*
X143348280Y-81514481D01*
X143600170Y-81565490D01*
X144400270Y-81565490D01*
X144635587Y-81521212D01*
X144851711Y-81382140D01*
X144996701Y-81169940D01*
X145047710Y-80918050D01*
X145047710Y-80117950D01*
X145003432Y-79882633D01*
X144935108Y-79776454D01*
X144935382Y-79461613D01*
X144793337Y-79117837D01*
X144530547Y-78854588D01*
X144187019Y-78711942D01*
X143815053Y-78711618D01*
X143471277Y-78853663D01*
X143208028Y-79116453D01*
X143065382Y-79459981D01*
X143065107Y-79776246D01*
X143048730Y-79800213D01*
X143048730Y-79167950D01*
X143004452Y-78932633D01*
X142865380Y-78716509D01*
X142653180Y-78571519D01*
X142401290Y-78520510D01*
X141601190Y-78520510D01*
X141365873Y-78564788D01*
X141149749Y-78703860D01*
X141097000Y-78781061D01*
X141097000Y-78739998D01*
X140932218Y-78739998D01*
X141053358Y-78507974D01*
X141050709Y-78492209D01*
X140796732Y-77964964D01*
X140380931Y-77593461D01*
X140690415Y-77386670D01*
X140890648Y-77087000D01*
X141053737Y-77087000D01*
X141290910Y-77039823D01*
X141319883Y-77109943D01*
X141582673Y-77373192D01*
X141703987Y-77423566D01*
X141713268Y-77432847D01*
X141713270Y-77432850D01*
X141914131Y-77567060D01*
X142000385Y-77624693D01*
X142339060Y-77692061D01*
X142339065Y-77692060D01*
X144387830Y-77692060D01*
X144387830Y-78056740D01*
X144432108Y-78292057D01*
X144571180Y-78508181D01*
X144783380Y-78653171D01*
X145035270Y-78704180D01*
X145925000Y-78704180D01*
X145925000Y-78973940D01*
X145699480Y-78973940D01*
X145464163Y-79018218D01*
X145248039Y-79157290D01*
X145103049Y-79369490D01*
X145052040Y-79621380D01*
X145052040Y-81922620D01*
X145096318Y-82157937D01*
X145235390Y-82374061D01*
X145447590Y-82519051D01*
X145699480Y-82570060D01*
X145896737Y-82570060D01*
X145877162Y-82617201D01*
X145876838Y-82989167D01*
X146018883Y-83332943D01*
X146281673Y-83596192D01*
X146625201Y-83738838D01*
X146997167Y-83739162D01*
X147340943Y-83597117D01*
X147604192Y-83334327D01*
X147697936Y-83108567D01*
X147722603Y-83071650D01*
X147766794Y-83005514D01*
X147834161Y-82666840D01*
X147834160Y-82666835D01*
X147834160Y-82570060D01*
X148198840Y-82570060D01*
X148434157Y-82525782D01*
X148650281Y-82386710D01*
X148795271Y-82174510D01*
X148846280Y-81922620D01*
X148846280Y-81057750D01*
X149362160Y-81057750D01*
X149362160Y-82048930D01*
X149458833Y-82282319D01*
X149637462Y-82460947D01*
X149870851Y-82557620D01*
X150961090Y-82557620D01*
X151119840Y-82398870D01*
X151119840Y-80899000D01*
X149520910Y-80899000D01*
X149362160Y-81057750D01*
X148846280Y-81057750D01*
X148846280Y-79621380D01*
X148822514Y-79495070D01*
X149362160Y-79495070D01*
X149362160Y-80486250D01*
X149520910Y-80645000D01*
X151119840Y-80645000D01*
X151119840Y-79145130D01*
X151373840Y-79145130D01*
X151373840Y-80645000D01*
X152972770Y-80645000D01*
X153131520Y-80486250D01*
X153131520Y-79495070D01*
X153034847Y-79261681D01*
X152856218Y-79083053D01*
X152622829Y-78986380D01*
X151532590Y-78986380D01*
X151373840Y-79145130D01*
X151119840Y-79145130D01*
X150961090Y-78986380D01*
X149870851Y-78986380D01*
X149637462Y-79083053D01*
X149458833Y-79261681D01*
X149362160Y-79495070D01*
X148822514Y-79495070D01*
X148802002Y-79386063D01*
X148662930Y-79169939D01*
X148450730Y-79024949D01*
X148198840Y-78973940D01*
X147834160Y-78973940D01*
X147834160Y-78704180D01*
X148334730Y-78704180D01*
X148570047Y-78659902D01*
X148786171Y-78520830D01*
X148931161Y-78308630D01*
X148982170Y-78056740D01*
X148982170Y-75584750D01*
X150882000Y-75584750D01*
X150882000Y-75825309D01*
X150978673Y-76058698D01*
X151157301Y-76237327D01*
X151390690Y-76334000D01*
X151606250Y-76334000D01*
X151765000Y-76175250D01*
X151765000Y-75426000D01*
X152019000Y-75426000D01*
X152019000Y-76175250D01*
X152177750Y-76334000D01*
X152393310Y-76334000D01*
X152626699Y-76237327D01*
X152805327Y-76058698D01*
X152902000Y-75825309D01*
X152902000Y-75584750D01*
X152743250Y-75426000D01*
X152019000Y-75426000D01*
X151765000Y-75426000D01*
X151040750Y-75426000D01*
X150882000Y-75584750D01*
X148982170Y-75584750D01*
X148982170Y-75557380D01*
X148937892Y-75322063D01*
X148798820Y-75105939D01*
X148586620Y-74960949D01*
X148334730Y-74909940D01*
X147570000Y-74909940D01*
X147570000Y-74753669D01*
X147586441Y-74743090D01*
X147731431Y-74530890D01*
X147782440Y-74279000D01*
X147782440Y-74039000D01*
X150059537Y-74039000D01*
X150091673Y-74071192D01*
X150435201Y-74213838D01*
X150807167Y-74214162D01*
X150869560Y-74188382D01*
X150869560Y-74199000D01*
X150913838Y-74434317D01*
X150980329Y-74537646D01*
X150978673Y-74539302D01*
X150882000Y-74772691D01*
X150882000Y-75013250D01*
X151040750Y-75172000D01*
X151765000Y-75172000D01*
X151765000Y-75152000D01*
X152019000Y-75152000D01*
X152019000Y-75172000D01*
X152743250Y-75172000D01*
X152902000Y-75013250D01*
X152902000Y-74772691D01*
X152805327Y-74539302D01*
X152803957Y-74537932D01*
X152863431Y-74450890D01*
X152914440Y-74199000D01*
X152914440Y-73399000D01*
X152870162Y-73163683D01*
X152780473Y-73024303D01*
X152863431Y-72902890D01*
X152914440Y-72651000D01*
X152914440Y-72040656D01*
X152950325Y-72064633D01*
X153006516Y-72075810D01*
X153289000Y-72132001D01*
X153289005Y-72132000D01*
X153324874Y-72132000D01*
X153441585Y-72306670D01*
X153751069Y-72513461D01*
X153335268Y-72884964D01*
X153081291Y-73412209D01*
X153078642Y-73427974D01*
X153199783Y-73660000D01*
X154559000Y-73660000D01*
X154559000Y-73640000D01*
X154813000Y-73640000D01*
X154813000Y-73660000D01*
X156172217Y-73660000D01*
X156293358Y-73427974D01*
X156290709Y-73412209D01*
X156036732Y-72884964D01*
X155620931Y-72513461D01*
X155930415Y-72306670D01*
X156255271Y-71820489D01*
X156369345Y-71247000D01*
X156255271Y-70673511D01*
X155930415Y-70187330D01*
X155911905Y-70174962D01*
X156300039Y-69787505D01*
X156590668Y-69087590D01*
X156591330Y-68329735D01*
X156301922Y-67629314D01*
X155766505Y-67092961D01*
X155066590Y-66802332D01*
X154308735Y-66801670D01*
X153608314Y-67091078D01*
X153071961Y-67626495D01*
X152781332Y-68326410D01*
X152780670Y-69084265D01*
X153070078Y-69784686D01*
X153332778Y-70047845D01*
X153047000Y-69991000D01*
X152789931Y-69991000D01*
X152731090Y-69899559D01*
X152518890Y-69754569D01*
X152267000Y-69703560D01*
X151517000Y-69703560D01*
X151281683Y-69747838D01*
X151098054Y-69866000D01*
X149857579Y-69866000D01*
X149370730Y-69379150D01*
X149083615Y-69187307D01*
X149027424Y-69176130D01*
X148982170Y-69167128D01*
X148982170Y-68755260D01*
X148937892Y-68519943D01*
X148798820Y-68303819D01*
X148586620Y-68158829D01*
X148334730Y-68107820D01*
X147570000Y-68107820D01*
X147570000Y-66294000D01*
X147502633Y-65955325D01*
X147310790Y-65668210D01*
X147310787Y-65668208D01*
X143881790Y-62239210D01*
X143594675Y-62047367D01*
X143538484Y-62036190D01*
X143256000Y-61979999D01*
X143255995Y-61980000D01*
X135763005Y-61980000D01*
X135763000Y-61979999D01*
X135480516Y-62036190D01*
X135424325Y-62047367D01*
X135137210Y-62239210D01*
X135137208Y-62239213D01*
X131332420Y-66044000D01*
X128651005Y-66044000D01*
X128651000Y-66043999D01*
X128312325Y-66111367D01*
X128025210Y-66303210D01*
X128025208Y-66303213D01*
X124548617Y-69779803D01*
X124390745Y-69748400D01*
X124021255Y-69748400D01*
X123447766Y-69862474D01*
X122961585Y-70187330D01*
X122636729Y-70673511D01*
X122522655Y-71247000D01*
X122636729Y-71820489D01*
X122961585Y-72306670D01*
X123271069Y-72513461D01*
X122855268Y-72884964D01*
X122601291Y-73412209D01*
X122598642Y-73427974D01*
X122719783Y-73660000D01*
X124079000Y-73660000D01*
X124079000Y-73640000D01*
X124333000Y-73640000D01*
X124333000Y-73660000D01*
X125692217Y-73660000D01*
X125813358Y-73427974D01*
X125810709Y-73412209D01*
X125556732Y-72884964D01*
X125140931Y-72513461D01*
X125450415Y-72306670D01*
X125775271Y-71820489D01*
X125889345Y-71247000D01*
X125838781Y-70992799D01*
X129017579Y-67814000D01*
X131698995Y-67814000D01*
X131699000Y-67814001D01*
X131981484Y-67757810D01*
X132037675Y-67746633D01*
X132324790Y-67554790D01*
X134543412Y-65336167D01*
X135208838Y-65336167D01*
X135350883Y-65679943D01*
X135613673Y-65943192D01*
X135957201Y-66085838D01*
X135970849Y-66085850D01*
X135970838Y-66098165D01*
X136112883Y-66441941D01*
X136375673Y-66705190D01*
X136719201Y-66847836D01*
X137091167Y-66848160D01*
X137434943Y-66706115D01*
X137698192Y-66443325D01*
X137748566Y-66322012D01*
X137907577Y-66163000D01*
X141243396Y-66163000D01*
X141470022Y-66389626D01*
X141519650Y-66509734D01*
X141782440Y-66772983D01*
X142125968Y-66915629D01*
X142497934Y-66915953D01*
X142841710Y-66773908D01*
X143104959Y-66511118D01*
X143247605Y-66167590D01*
X143247633Y-66135703D01*
X143403943Y-66071117D01*
X143667192Y-65808327D01*
X143809838Y-65464799D01*
X143810162Y-65092833D01*
X143668117Y-64749057D01*
X143405327Y-64485808D01*
X143061799Y-64343162D01*
X143014923Y-64343121D01*
X142650401Y-63978599D01*
X142403839Y-63813852D01*
X142113000Y-63756000D01*
X136779000Y-63756000D01*
X136488161Y-63813852D01*
X136241599Y-63978599D01*
X136004320Y-64215878D01*
X135958833Y-64215838D01*
X135615057Y-64357883D01*
X135351808Y-64620673D01*
X135209162Y-64964201D01*
X135208838Y-65336167D01*
X134543412Y-65336167D01*
X136129579Y-63750000D01*
X142889420Y-63750000D01*
X145800000Y-66660579D01*
X145800000Y-68107820D01*
X145035270Y-68107820D01*
X144799953Y-68152098D01*
X144583829Y-68291170D01*
X144438839Y-68503370D01*
X144387830Y-68755260D01*
X144387830Y-71254620D01*
X144432108Y-71489937D01*
X144571180Y-71706061D01*
X144783380Y-71851051D01*
X145035270Y-71902060D01*
X145724012Y-71902060D01*
X145638569Y-72027110D01*
X145587560Y-72279000D01*
X145587560Y-72519000D01*
X143056241Y-72519000D01*
X142897327Y-72359808D01*
X142553799Y-72217162D01*
X142181833Y-72216838D01*
X141838057Y-72358883D01*
X141574808Y-72621673D01*
X141432162Y-72965201D01*
X141431838Y-73337167D01*
X141573883Y-73680943D01*
X141836673Y-73944192D01*
X142180201Y-74086838D01*
X142552167Y-74087162D01*
X142668728Y-74039000D01*
X145587560Y-74039000D01*
X145587560Y-74279000D01*
X145631838Y-74514317D01*
X145770910Y-74730441D01*
X145800000Y-74750317D01*
X145800000Y-74909940D01*
X145035270Y-74909940D01*
X144799953Y-74954218D01*
X144583829Y-75093290D01*
X144438839Y-75305490D01*
X144387830Y-75557380D01*
X144387830Y-75922060D01*
X143178404Y-75922060D01*
X143301838Y-75624800D01*
X143302162Y-75252834D01*
X143160117Y-74909058D01*
X142897327Y-74645809D01*
X142553799Y-74503163D01*
X142181833Y-74502839D01*
X141838057Y-74644884D01*
X141770578Y-74712246D01*
X141700150Y-74726255D01*
X141651896Y-74735853D01*
X141405335Y-74900600D01*
X140829880Y-75476055D01*
X140690415Y-75267330D01*
X140375634Y-75057000D01*
X140690415Y-74846670D01*
X141015271Y-74360489D01*
X141129345Y-73787000D01*
X141015271Y-73213511D01*
X140690415Y-72727330D01*
X140375634Y-72517000D01*
X140690415Y-72306670D01*
X141015271Y-71820489D01*
X141129345Y-71247000D01*
X141015271Y-70673511D01*
X140690415Y-70187330D01*
X140671905Y-70174962D01*
X141060039Y-69787505D01*
X141350668Y-69087590D01*
X141351330Y-68329735D01*
X141061922Y-67629314D01*
X140526505Y-67092961D01*
X139826590Y-66802332D01*
X139068735Y-66801670D01*
X138368314Y-67091078D01*
X137831961Y-67626495D01*
X137541332Y-68326410D01*
X137540670Y-69084265D01*
X137830078Y-69784686D01*
X138219842Y-70175131D01*
X138201585Y-70187330D01*
X138001352Y-70487000D01*
X135055463Y-70487000D01*
X135023327Y-70454808D01*
X134679799Y-70312162D01*
X134307833Y-70311838D01*
X133964057Y-70453883D01*
X133700808Y-70716673D01*
X133558162Y-71060201D01*
X133557838Y-71432167D01*
X133699883Y-71775943D01*
X133962673Y-72039192D01*
X134306201Y-72181838D01*
X134319849Y-72181850D01*
X134319838Y-72194167D01*
X134461883Y-72537943D01*
X134724673Y-72801192D01*
X135068201Y-72943838D01*
X135440167Y-72944162D01*
X135783943Y-72802117D01*
X136047192Y-72539327D01*
X136057294Y-72515000D01*
X137099198Y-72515000D01*
X137863619Y-73279421D01*
X137762655Y-73787000D01*
X137876729Y-74360489D01*
X138201585Y-74846670D01*
X138516366Y-75057000D01*
X138201585Y-75267330D01*
X137876729Y-75753511D01*
X137762655Y-76327000D01*
X137876729Y-76900489D01*
X138201585Y-77386670D01*
X138511069Y-77593461D01*
X138095268Y-77964964D01*
X137841291Y-78492209D01*
X137838642Y-78507974D01*
X137959783Y-78740000D01*
X139319000Y-78740000D01*
X139319000Y-78720000D01*
X139573000Y-78720000D01*
X139573000Y-78740000D01*
X139593000Y-78740000D01*
X139593000Y-78994000D01*
X139573000Y-78994000D01*
X139573000Y-79014000D01*
X139319000Y-79014000D01*
X139319000Y-78994000D01*
X137959783Y-78994000D01*
X137838642Y-79226026D01*
X137841291Y-79241791D01*
X138095268Y-79769036D01*
X138511069Y-80140539D01*
X138201585Y-80347330D01*
X137876729Y-80833511D01*
X137762655Y-81407000D01*
X137876729Y-81980489D01*
X138201585Y-82466670D01*
X138516366Y-82677000D01*
X138201585Y-82887330D01*
X137876729Y-83373511D01*
X137762655Y-83947000D01*
X137876729Y-84520489D01*
X138201585Y-85006670D01*
X138516366Y-85217000D01*
X138201585Y-85427330D01*
X137876729Y-85913511D01*
X137762655Y-86487000D01*
X137876729Y-87060489D01*
X138201585Y-87546670D01*
X138516366Y-87757000D01*
X138201585Y-87967330D01*
X137876729Y-88453511D01*
X137762655Y-89027000D01*
X137876729Y-89600489D01*
X138201585Y-90086670D01*
X138516366Y-90297000D01*
X138201585Y-90507330D01*
X137876729Y-90993511D01*
X137762655Y-91567000D01*
X137876729Y-92140489D01*
X138201585Y-92626670D01*
X138516366Y-92837000D01*
X138201585Y-93047330D01*
X137876729Y-93533511D01*
X137762655Y-94107000D01*
X137876729Y-94680489D01*
X138201585Y-95166670D01*
X138516366Y-95377000D01*
X138201585Y-95587330D01*
X137876729Y-96073511D01*
X137762655Y-96647000D01*
X137876729Y-97220489D01*
X138201585Y-97706670D01*
X138516366Y-97917000D01*
X138201585Y-98127330D01*
X137876729Y-98613511D01*
X137762655Y-99187000D01*
X137876729Y-99760489D01*
X138201585Y-100246670D01*
X138516366Y-100457000D01*
X138201585Y-100667330D01*
X137876729Y-101153511D01*
X137762655Y-101727000D01*
X137876729Y-102300489D01*
X138201585Y-102786670D01*
X138516366Y-102997000D01*
X138201585Y-103207330D01*
X137876729Y-103693511D01*
X137762655Y-104267000D01*
X137876729Y-104840489D01*
X138201585Y-105326670D01*
X138516366Y-105537000D01*
X138201585Y-105747330D01*
X137876729Y-106233511D01*
X137762655Y-106807000D01*
X137876729Y-107380489D01*
X138201585Y-107866670D01*
X138220095Y-107879038D01*
X137831961Y-108266495D01*
X137541332Y-108966410D01*
X137540746Y-109636797D01*
X137528562Y-109572043D01*
X137389490Y-109355919D01*
X137177290Y-109210929D01*
X136925400Y-109159920D01*
X136175400Y-109159920D01*
X135940083Y-109204198D01*
X135756454Y-109322360D01*
X135031480Y-109322360D01*
X134915249Y-109345480D01*
X134658661Y-109345480D01*
X134577675Y-109291367D01*
X134521484Y-109280190D01*
X134445871Y-109265149D01*
X134469000Y-109209310D01*
X134469000Y-108743750D01*
X134310250Y-108585000D01*
X133461000Y-108585000D01*
X133461000Y-108605000D01*
X133207000Y-108605000D01*
X133207000Y-108585000D01*
X133187000Y-108585000D01*
X133187000Y-108331000D01*
X133207000Y-108331000D01*
X133207000Y-107356750D01*
X133461000Y-107356750D01*
X133461000Y-108331000D01*
X134310250Y-108331000D01*
X134469000Y-108172250D01*
X134469000Y-107706690D01*
X134372327Y-107473301D01*
X134193698Y-107294673D01*
X133960309Y-107198000D01*
X133619750Y-107198000D01*
X133461000Y-107356750D01*
X133207000Y-107356750D01*
X133048250Y-107198000D01*
X132707691Y-107198000D01*
X132474302Y-107294673D01*
X132333064Y-107435910D01*
X132298090Y-107381559D01*
X132085890Y-107236569D01*
X131834000Y-107185560D01*
X130834000Y-107185560D01*
X130598683Y-107229838D01*
X130382559Y-107368910D01*
X130243110Y-107573000D01*
X129973822Y-107573000D01*
X129853799Y-107523162D01*
X129481833Y-107522838D01*
X129138057Y-107664883D01*
X128874808Y-107927673D01*
X128732162Y-108271201D01*
X128731838Y-108643167D01*
X128873883Y-108986943D01*
X129136673Y-109250192D01*
X129480201Y-109392838D01*
X129852167Y-109393162D01*
X129973569Y-109343000D01*
X130029435Y-109343000D01*
X129917659Y-109506590D01*
X129866650Y-109758480D01*
X129866650Y-110123924D01*
X129813050Y-110113070D01*
X129808750Y-110113070D01*
X129805537Y-110112047D01*
X129799654Y-110113070D01*
X128944100Y-110113070D01*
X128941380Y-110109000D01*
X128850581Y-109973108D01*
X127814071Y-108936599D01*
X127567509Y-108771852D01*
X127276670Y-108714000D01*
X127269483Y-108714000D01*
X127237347Y-108681808D01*
X126893819Y-108539162D01*
X126521853Y-108538838D01*
X126178077Y-108680883D01*
X125914828Y-108943673D01*
X125772182Y-109287201D01*
X125771858Y-109659167D01*
X125913903Y-110002943D01*
X126176693Y-110266192D01*
X126337032Y-110332771D01*
X126216879Y-110508620D01*
X126165870Y-110760510D01*
X126165870Y-112759490D01*
X126210148Y-112994807D01*
X126349220Y-113210931D01*
X126561420Y-113355921D01*
X126813310Y-113406930D01*
X127639704Y-113406930D01*
X127775779Y-113610581D01*
X128113599Y-113948401D01*
X128360161Y-114113148D01*
X128651000Y-114171000D01*
X128717198Y-114171000D01*
X129006281Y-114460083D01*
X128936569Y-114562110D01*
X128931618Y-114586557D01*
X128778000Y-114556000D01*
X126171802Y-114556000D01*
X125479200Y-113863398D01*
X125488446Y-113849561D01*
X125594110Y-113318354D01*
X125594110Y-111725646D01*
X125488446Y-111194439D01*
X125187542Y-110744104D01*
X124737207Y-110443200D01*
X124206000Y-110337536D01*
X123674793Y-110443200D01*
X123224458Y-110744104D01*
X122936000Y-111175812D01*
X122647542Y-110744104D01*
X122551000Y-110679597D01*
X122551000Y-110490005D01*
X122551001Y-110490000D01*
X122483633Y-110151325D01*
X122457388Y-110112047D01*
X122430113Y-110071226D01*
X122332117Y-109834057D01*
X122069327Y-109570808D01*
X121725799Y-109428162D01*
X121353833Y-109427838D01*
X121010057Y-109569883D01*
X120746808Y-109832673D01*
X120604162Y-110176201D01*
X120603838Y-110548167D01*
X120684724Y-110743926D01*
X120684458Y-110744104D01*
X120383554Y-111194439D01*
X120382984Y-111197306D01*
X120359846Y-111119081D01*
X120017740Y-110696276D01*
X119539875Y-110436573D01*
X119467674Y-110422217D01*
X119253000Y-110544838D01*
X119253000Y-112395000D01*
X119273000Y-112395000D01*
X119273000Y-112649000D01*
X119253000Y-112649000D01*
X119253000Y-112669000D01*
X118999000Y-112669000D01*
X118999000Y-112649000D01*
X118979000Y-112649000D01*
X118979000Y-112395000D01*
X118999000Y-112395000D01*
X118999000Y-110544838D01*
X118784326Y-110422217D01*
X118712125Y-110436573D01*
X118234260Y-110696276D01*
X117991417Y-110996404D01*
X117970739Y-110946360D01*
X117707949Y-110683111D01*
X117364421Y-110540465D01*
X116992455Y-110540141D01*
X116648679Y-110682186D01*
X116385430Y-110944976D01*
X116260663Y-111245446D01*
X116136498Y-111296750D01*
X115873249Y-111559540D01*
X115730603Y-111903068D01*
X115730360Y-112182347D01*
X115600764Y-112311717D01*
X115458118Y-112655245D01*
X115457794Y-113027211D01*
X115599839Y-113370987D01*
X115632956Y-113404162D01*
X115632956Y-113564848D01*
X115585528Y-113612193D01*
X115442882Y-113955721D01*
X115442558Y-114327687D01*
X113740000Y-114327687D01*
X113740000Y-108601510D01*
X117473080Y-108601510D01*
X117473080Y-108817070D01*
X117569753Y-109050459D01*
X117748382Y-109229087D01*
X117981771Y-109325760D01*
X118222330Y-109325760D01*
X118381080Y-109167010D01*
X118381080Y-108442760D01*
X117631830Y-108442760D01*
X117473080Y-108601510D01*
X113740000Y-108601510D01*
X113740000Y-107814450D01*
X117473080Y-107814450D01*
X117473080Y-108030010D01*
X117631830Y-108188760D01*
X118381080Y-108188760D01*
X118381080Y-107464510D01*
X118635080Y-107464510D01*
X118635080Y-108188760D01*
X118655080Y-108188760D01*
X118655080Y-108442760D01*
X118635080Y-108442760D01*
X118635080Y-109167010D01*
X118793830Y-109325760D01*
X119034389Y-109325760D01*
X119267778Y-109229087D01*
X119269148Y-109227717D01*
X119356190Y-109287191D01*
X119608080Y-109338200D01*
X120408080Y-109338200D01*
X120643397Y-109293922D01*
X120788175Y-109200760D01*
X121195477Y-109200760D01*
X121352201Y-109265838D01*
X121724167Y-109266162D01*
X122067943Y-109124117D01*
X122331192Y-108861327D01*
X122473838Y-108517799D01*
X122474061Y-108262120D01*
X122510431Y-108208890D01*
X122561440Y-107957000D01*
X122561440Y-107742006D01*
X122740167Y-107742162D01*
X122848486Y-107697406D01*
X122961585Y-107866670D01*
X123447766Y-108191526D01*
X124021255Y-108305600D01*
X124390745Y-108305600D01*
X124964234Y-108191526D01*
X125450415Y-107866670D01*
X125775271Y-107380489D01*
X125889345Y-106807000D01*
X125775271Y-106233511D01*
X125450415Y-105747330D01*
X125140931Y-105540539D01*
X125556732Y-105169036D01*
X125810709Y-104641791D01*
X125813358Y-104626026D01*
X125692217Y-104394000D01*
X124333000Y-104394000D01*
X124333000Y-104414000D01*
X124079000Y-104414000D01*
X124079000Y-104394000D01*
X122719783Y-104394000D01*
X122598642Y-104626026D01*
X122601291Y-104641791D01*
X122855268Y-105169036D01*
X123271069Y-105540539D01*
X122961585Y-105747330D01*
X122848555Y-105916491D01*
X122741799Y-105872162D01*
X122448344Y-105871906D01*
X122549000Y-105771250D01*
X122549000Y-105530691D01*
X122452327Y-105297302D01*
X122273699Y-105118673D01*
X122040310Y-105022000D01*
X121824750Y-105022000D01*
X121666000Y-105180750D01*
X121666000Y-105930000D01*
X121686000Y-105930000D01*
X121686000Y-106184000D01*
X121666000Y-106184000D01*
X121666000Y-106204000D01*
X121412000Y-106204000D01*
X121412000Y-106184000D01*
X120687750Y-106184000D01*
X120529000Y-106342750D01*
X120529000Y-106583309D01*
X120625673Y-106816698D01*
X120627043Y-106818068D01*
X120567569Y-106905110D01*
X120516560Y-107157000D01*
X120516560Y-107315288D01*
X120408080Y-107293320D01*
X119608080Y-107293320D01*
X119372763Y-107337598D01*
X119269434Y-107404089D01*
X119267778Y-107402433D01*
X119034389Y-107305760D01*
X118793830Y-107305760D01*
X118635080Y-107464510D01*
X118381080Y-107464510D01*
X118222330Y-107305760D01*
X117981771Y-107305760D01*
X117748382Y-107402433D01*
X117569753Y-107581061D01*
X117473080Y-107814450D01*
X113740000Y-107814450D01*
X113740000Y-105530691D01*
X120529000Y-105530691D01*
X120529000Y-105771250D01*
X120687750Y-105930000D01*
X121412000Y-105930000D01*
X121412000Y-105180750D01*
X121253250Y-105022000D01*
X121037690Y-105022000D01*
X120804301Y-105118673D01*
X120625673Y-105297302D01*
X120529000Y-105530691D01*
X113740000Y-105530691D01*
X113740000Y-103028750D01*
X119269000Y-103028750D01*
X119269000Y-103319310D01*
X119365673Y-103552699D01*
X119544302Y-103731327D01*
X119777691Y-103828000D01*
X119870250Y-103828000D01*
X120029000Y-103669250D01*
X120029000Y-102870000D01*
X119427750Y-102870000D01*
X119269000Y-103028750D01*
X113740000Y-103028750D01*
X113740000Y-96451167D01*
X117174838Y-96451167D01*
X117316883Y-96794943D01*
X117579673Y-97058192D01*
X117923201Y-97200838D01*
X118295167Y-97201162D01*
X118624705Y-97065000D01*
X119218754Y-97065000D01*
X119305920Y-97124558D01*
X119269000Y-97213690D01*
X119269000Y-97504250D01*
X119427750Y-97663000D01*
X120029000Y-97663000D01*
X120029000Y-97643000D01*
X120279000Y-97643000D01*
X120279000Y-97663000D01*
X120301000Y-97663000D01*
X120301000Y-97917000D01*
X120279000Y-97917000D01*
X120279000Y-97937000D01*
X120029000Y-97937000D01*
X120029000Y-97917000D01*
X119427750Y-97917000D01*
X119269000Y-98075750D01*
X119269000Y-98366310D01*
X119305837Y-98455243D01*
X119211559Y-98515910D01*
X119066569Y-98728110D01*
X119015560Y-98980000D01*
X119015560Y-99570000D01*
X119059838Y-99805317D01*
X119198910Y-100021441D01*
X119411110Y-100166431D01*
X119663000Y-100217440D01*
X120113000Y-100217440D01*
X120348317Y-100173162D01*
X120563027Y-100035000D01*
X120677806Y-100035000D01*
X120687838Y-100088317D01*
X120761620Y-100202978D01*
X120737626Y-100238094D01*
X120613161Y-100262852D01*
X120366599Y-100427599D01*
X120311451Y-100482747D01*
X120113000Y-100442560D01*
X119663000Y-100442560D01*
X119427683Y-100486838D01*
X119212973Y-100625000D01*
X118505931Y-100625000D01*
X118296803Y-100538162D01*
X117924837Y-100537838D01*
X117581061Y-100679883D01*
X117317812Y-100942673D01*
X117175166Y-101286201D01*
X117174842Y-101658167D01*
X117316887Y-102001943D01*
X117579677Y-102265192D01*
X117923205Y-102407838D01*
X118295171Y-102408162D01*
X118638947Y-102266117D01*
X118760276Y-102145000D01*
X119218754Y-102145000D01*
X119269000Y-102179331D01*
X119269000Y-102457250D01*
X119427750Y-102616000D01*
X120029000Y-102616000D01*
X120029000Y-102596000D01*
X120279000Y-102596000D01*
X120279000Y-102616000D01*
X120301000Y-102616000D01*
X120301000Y-102870000D01*
X120279000Y-102870000D01*
X120279000Y-103669250D01*
X120437750Y-103828000D01*
X120530309Y-103828000D01*
X120763698Y-103731327D01*
X120904936Y-103590090D01*
X120939910Y-103644441D01*
X121152110Y-103789431D01*
X121404000Y-103840440D01*
X121904000Y-103840440D01*
X122139317Y-103796162D01*
X122355441Y-103657090D01*
X122500431Y-103444890D01*
X122551440Y-103193000D01*
X122551440Y-102293000D01*
X122549001Y-102280038D01*
X122682800Y-102369439D01*
X122961585Y-102786670D01*
X123271069Y-102993461D01*
X122855268Y-103364964D01*
X122601291Y-103892209D01*
X122598642Y-103907974D01*
X122719783Y-104140000D01*
X124079000Y-104140000D01*
X124079000Y-104120000D01*
X124333000Y-104120000D01*
X124333000Y-104140000D01*
X125692217Y-104140000D01*
X125813358Y-103907974D01*
X125810709Y-103892209D01*
X125702779Y-103668151D01*
X125714220Y-103685931D01*
X125926420Y-103830921D01*
X126178310Y-103881930D01*
X126918180Y-103881930D01*
X126918180Y-104056180D01*
X126976032Y-104347019D01*
X127140779Y-104593581D01*
X127256000Y-104708802D01*
X127256000Y-105410000D01*
X127313852Y-105700839D01*
X127478599Y-105947401D01*
X127859599Y-106328401D01*
X128106160Y-106493148D01*
X128244657Y-106520697D01*
X128306910Y-106617441D01*
X128519110Y-106762431D01*
X128771000Y-106813440D01*
X129571000Y-106813440D01*
X129806317Y-106769162D01*
X129920978Y-106695380D01*
X130019110Y-106762431D01*
X130271000Y-106813440D01*
X131071000Y-106813440D01*
X131306317Y-106769162D01*
X131522441Y-106630090D01*
X131576481Y-106551000D01*
X131931258Y-106551000D01*
X131954838Y-106676317D01*
X132093910Y-106892441D01*
X132306110Y-107037431D01*
X132558000Y-107088440D01*
X133258000Y-107088440D01*
X133493317Y-107044162D01*
X133709441Y-106905090D01*
X133854431Y-106692890D01*
X133857081Y-106679803D01*
X133993910Y-106892441D01*
X134206110Y-107037431D01*
X134458000Y-107088440D01*
X135158000Y-107088440D01*
X135393317Y-107044162D01*
X135609441Y-106905090D01*
X135754431Y-106692890D01*
X135754928Y-106690438D01*
X135840181Y-106725838D01*
X136212147Y-106726162D01*
X136555923Y-106584117D01*
X136819172Y-106321327D01*
X136961818Y-105977799D01*
X136962142Y-105605833D01*
X136820097Y-105262057D01*
X136557307Y-104998808D01*
X136213779Y-104856162D01*
X135841813Y-104855838D01*
X135752764Y-104892632D01*
X135622090Y-104689559D01*
X135409890Y-104544569D01*
X135158000Y-104493560D01*
X134458000Y-104493560D01*
X134222683Y-104537838D01*
X134006559Y-104676910D01*
X133861569Y-104889110D01*
X133858919Y-104902197D01*
X133722090Y-104689559D01*
X133509890Y-104544569D01*
X133258000Y-104493560D01*
X132558000Y-104493560D01*
X132322683Y-104537838D01*
X132106559Y-104676910D01*
X131961569Y-104889110D01*
X131932836Y-105031000D01*
X131577844Y-105031000D01*
X131535090Y-104964559D01*
X131431000Y-104893437D01*
X131431000Y-104874407D01*
X131615547Y-104839682D01*
X131831671Y-104700610D01*
X131976661Y-104488410D01*
X131985724Y-104443654D01*
X132012699Y-104438288D01*
X132259261Y-104273541D01*
X132394802Y-104138000D01*
X133985000Y-104138000D01*
X134275839Y-104080148D01*
X134522401Y-103915401D01*
X134903401Y-103534401D01*
X135060845Y-103298770D01*
X135192441Y-103214090D01*
X135239709Y-103144911D01*
X135315110Y-103196431D01*
X135567000Y-103247440D01*
X136467000Y-103247440D01*
X136702317Y-103203162D01*
X136918441Y-103064090D01*
X137063431Y-102851890D01*
X137114440Y-102600000D01*
X137114440Y-102100000D01*
X137070162Y-101864683D01*
X136931090Y-101648559D01*
X136861289Y-101600866D01*
X136918441Y-101564090D01*
X137063431Y-101351890D01*
X137114440Y-101100000D01*
X137114440Y-100600000D01*
X137070162Y-100364683D01*
X136931090Y-100148559D01*
X136718890Y-100003569D01*
X136467000Y-99952560D01*
X135567000Y-99952560D01*
X135331683Y-99996838D01*
X135241376Y-100054949D01*
X135205090Y-99998559D01*
X134992890Y-99853569D01*
X134741000Y-99802560D01*
X133991000Y-99802560D01*
X133911576Y-99817505D01*
X133907075Y-99814497D01*
X133961000Y-99684310D01*
X133961000Y-99218750D01*
X133802250Y-99060000D01*
X132953000Y-99060000D01*
X132953000Y-99080000D01*
X132699000Y-99080000D01*
X132699000Y-99060000D01*
X132679000Y-99060000D01*
X132679000Y-98806000D01*
X132699000Y-98806000D01*
X132699000Y-97831750D01*
X132953000Y-97831750D01*
X132953000Y-98806000D01*
X133802250Y-98806000D01*
X133961000Y-98647250D01*
X133961000Y-98181690D01*
X133864327Y-97948301D01*
X133685698Y-97769673D01*
X133452309Y-97673000D01*
X133111750Y-97673000D01*
X132953000Y-97831750D01*
X132699000Y-97831750D01*
X132540250Y-97673000D01*
X132199691Y-97673000D01*
X131966302Y-97769673D01*
X131825064Y-97910910D01*
X131790090Y-97856559D01*
X131577890Y-97711569D01*
X131326000Y-97660560D01*
X130326000Y-97660560D01*
X130090683Y-97704838D01*
X129874559Y-97843910D01*
X129735110Y-98048000D01*
X129719822Y-98048000D01*
X129599799Y-97998162D01*
X129227833Y-97997838D01*
X128884057Y-98139883D01*
X128620808Y-98402673D01*
X128478162Y-98746201D01*
X128477838Y-99118167D01*
X128619883Y-99461943D01*
X128882673Y-99725192D01*
X129226201Y-99867838D01*
X129360303Y-99867955D01*
X129282659Y-99981590D01*
X129231650Y-100233480D01*
X129231650Y-100598924D01*
X129178050Y-100588070D01*
X129173750Y-100588070D01*
X129170537Y-100587047D01*
X129164654Y-100588070D01*
X128792023Y-100588070D01*
X128792023Y-99981567D01*
X128734171Y-99690728D01*
X128569424Y-99444166D01*
X128201856Y-99076598D01*
X127979072Y-98927739D01*
X127920117Y-98785057D01*
X127657327Y-98521808D01*
X127313799Y-98379162D01*
X126941833Y-98378838D01*
X126897464Y-98397171D01*
X126768327Y-98267808D01*
X126424799Y-98125162D01*
X126052833Y-98124838D01*
X125709057Y-98266883D01*
X125609840Y-98365927D01*
X125450415Y-98127330D01*
X125135634Y-97917000D01*
X125450415Y-97706670D01*
X125775271Y-97220489D01*
X125889345Y-96647000D01*
X125775271Y-96073511D01*
X125764854Y-96057920D01*
X126042167Y-96058162D01*
X126385943Y-95916117D01*
X126649192Y-95653327D01*
X126791838Y-95309799D01*
X126792162Y-94937833D01*
X126650117Y-94594057D01*
X126540182Y-94483930D01*
X126875000Y-94483930D01*
X126875000Y-95631000D01*
X126932852Y-95921839D01*
X127097599Y-96168401D01*
X127605599Y-96676401D01*
X127852161Y-96841148D01*
X128143000Y-96899000D01*
X128264156Y-96899000D01*
X128306910Y-96965441D01*
X128519110Y-97110431D01*
X128771000Y-97161440D01*
X129571000Y-97161440D01*
X129806317Y-97117162D01*
X129920978Y-97043380D01*
X130019110Y-97110431D01*
X130271000Y-97161440D01*
X131071000Y-97161440D01*
X131306317Y-97117162D01*
X131439676Y-97031348D01*
X131535160Y-97095148D01*
X131826000Y-97153000D01*
X132164643Y-97153000D01*
X132220910Y-97240441D01*
X132433110Y-97385431D01*
X132685000Y-97436440D01*
X133385000Y-97436440D01*
X133620317Y-97392162D01*
X133836441Y-97253090D01*
X133981431Y-97040890D01*
X133984081Y-97027803D01*
X134120910Y-97240441D01*
X134333110Y-97385431D01*
X134585000Y-97436440D01*
X135285000Y-97436440D01*
X135520317Y-97392162D01*
X135736441Y-97253090D01*
X135745447Y-97239910D01*
X135957201Y-97327838D01*
X136329167Y-97328162D01*
X136672943Y-97186117D01*
X136936192Y-96923327D01*
X137078838Y-96579799D01*
X137079162Y-96207833D01*
X136937117Y-95864057D01*
X136674327Y-95600808D01*
X136330799Y-95458162D01*
X135958833Y-95457838D01*
X135928903Y-95470205D01*
X135888162Y-95253683D01*
X135749090Y-95037559D01*
X135536890Y-94892569D01*
X135285000Y-94841560D01*
X134585000Y-94841560D01*
X134349683Y-94885838D01*
X134133559Y-95024910D01*
X133988569Y-95237110D01*
X133985919Y-95250197D01*
X133849090Y-95037559D01*
X133636890Y-94892569D01*
X133385000Y-94841560D01*
X132685000Y-94841560D01*
X132449683Y-94885838D01*
X132233559Y-95024910D01*
X132088569Y-95237110D01*
X132037560Y-95489000D01*
X132037560Y-95553597D01*
X131862839Y-95436852D01*
X131679673Y-95400418D01*
X131831671Y-95302610D01*
X131976661Y-95090410D01*
X131985724Y-95045654D01*
X132012699Y-95040288D01*
X132259261Y-94875541D01*
X132394802Y-94740000D01*
X134112000Y-94740000D01*
X134402839Y-94682148D01*
X134649401Y-94517401D01*
X135030401Y-94136401D01*
X135187845Y-93900770D01*
X135319441Y-93816090D01*
X135409998Y-93683556D01*
X135456402Y-93674325D01*
X135694000Y-93722440D01*
X136594000Y-93722440D01*
X136829317Y-93678162D01*
X137045441Y-93539090D01*
X137190431Y-93326890D01*
X137241440Y-93075000D01*
X137241440Y-92575000D01*
X137197162Y-92339683D01*
X137058090Y-92123559D01*
X136988289Y-92075866D01*
X137045441Y-92039090D01*
X137190431Y-91826890D01*
X137241440Y-91575000D01*
X137241440Y-91075000D01*
X137197162Y-90839683D01*
X137058090Y-90623559D01*
X136845890Y-90478569D01*
X136594000Y-90427560D01*
X135694000Y-90427560D01*
X135627887Y-90440000D01*
X135243000Y-90440000D01*
X135130000Y-90462477D01*
X135119890Y-90455569D01*
X134868000Y-90404560D01*
X134118000Y-90404560D01*
X133882683Y-90448838D01*
X133810241Y-90495453D01*
X133760999Y-90462550D01*
X133834000Y-90286310D01*
X133834000Y-89820750D01*
X133675250Y-89662000D01*
X132826000Y-89662000D01*
X132826000Y-89682000D01*
X132572000Y-89682000D01*
X132572000Y-89662000D01*
X132552000Y-89662000D01*
X132552000Y-89408000D01*
X132572000Y-89408000D01*
X132572000Y-89388000D01*
X132826000Y-89388000D01*
X132826000Y-89408000D01*
X133675250Y-89408000D01*
X133834000Y-89249250D01*
X133834000Y-88783690D01*
X133744347Y-88567248D01*
X133825110Y-88622431D01*
X134077000Y-88673440D01*
X134777000Y-88673440D01*
X135012317Y-88629162D01*
X135228441Y-88490090D01*
X135372640Y-88279047D01*
X135449201Y-88310838D01*
X135821167Y-88311162D01*
X136164943Y-88169117D01*
X136428192Y-87906327D01*
X136570838Y-87562799D01*
X136571162Y-87190833D01*
X136429117Y-86847057D01*
X136166327Y-86583808D01*
X135822799Y-86441162D01*
X135450833Y-86440838D01*
X135369668Y-86474375D01*
X135241090Y-86274559D01*
X135028890Y-86129569D01*
X134777000Y-86078560D01*
X134077000Y-86078560D01*
X133841683Y-86122838D01*
X133625559Y-86261910D01*
X133480569Y-86474110D01*
X133477919Y-86487197D01*
X133341090Y-86274559D01*
X133128890Y-86129569D01*
X132877000Y-86078560D01*
X132455328Y-86078560D01*
X132594541Y-85985541D01*
X132730082Y-85850000D01*
X134493000Y-85850000D01*
X134783839Y-85792148D01*
X135030401Y-85627401D01*
X135284401Y-85373401D01*
X135449148Y-85126840D01*
X135476697Y-84988343D01*
X135573441Y-84926090D01*
X135620709Y-84856911D01*
X135696110Y-84908431D01*
X135948000Y-84959440D01*
X136848000Y-84959440D01*
X137083317Y-84915162D01*
X137299441Y-84776090D01*
X137444431Y-84563890D01*
X137495440Y-84312000D01*
X137495440Y-83812000D01*
X137451162Y-83576683D01*
X137312090Y-83360559D01*
X137242289Y-83312866D01*
X137299441Y-83276090D01*
X137444431Y-83063890D01*
X137495440Y-82812000D01*
X137495440Y-82312000D01*
X137451162Y-82076683D01*
X137312090Y-81860559D01*
X137283000Y-81840683D01*
X137283000Y-81586822D01*
X137332838Y-81466799D01*
X137333162Y-81094833D01*
X137191117Y-80751057D01*
X136928327Y-80487808D01*
X136584799Y-80345162D01*
X136212833Y-80344838D01*
X135869057Y-80486883D01*
X135605808Y-80749673D01*
X135463162Y-81093201D01*
X135462838Y-81465167D01*
X135513000Y-81586569D01*
X135513000Y-81660619D01*
X135373890Y-81565569D01*
X135122000Y-81514560D01*
X134372000Y-81514560D01*
X134136683Y-81558838D01*
X134065626Y-81604562D01*
X134013484Y-81594190D01*
X133731000Y-81537999D01*
X133730995Y-81538000D01*
X133575025Y-81538000D01*
X133737327Y-81375699D01*
X133834000Y-81142310D01*
X133834000Y-80676750D01*
X133675250Y-80518000D01*
X132826000Y-80518000D01*
X132826000Y-80538000D01*
X132572000Y-80538000D01*
X132572000Y-80518000D01*
X132552000Y-80518000D01*
X132552000Y-80264000D01*
X132572000Y-80264000D01*
X132572000Y-79289750D01*
X132826000Y-79289750D01*
X132826000Y-80264000D01*
X133675250Y-80264000D01*
X133834000Y-80105250D01*
X133834000Y-79639690D01*
X133737327Y-79406301D01*
X133558698Y-79227673D01*
X133325309Y-79131000D01*
X132984750Y-79131000D01*
X132826000Y-79289750D01*
X132572000Y-79289750D01*
X132413250Y-79131000D01*
X132072691Y-79131000D01*
X131839302Y-79227673D01*
X131698064Y-79368910D01*
X131663090Y-79314559D01*
X131450890Y-79169569D01*
X131199000Y-79118560D01*
X130199000Y-79118560D01*
X129963683Y-79162838D01*
X129747559Y-79301910D01*
X129608110Y-79506000D01*
X129592822Y-79506000D01*
X129472799Y-79456162D01*
X129100833Y-79455838D01*
X128757057Y-79597883D01*
X128493808Y-79860673D01*
X128351162Y-80204201D01*
X128350838Y-80576167D01*
X128492883Y-80919943D01*
X128755673Y-81183192D01*
X129099201Y-81325838D01*
X129471167Y-81326162D01*
X129592569Y-81276000D01*
X129611721Y-81276000D01*
X129688473Y-81395276D01*
X129554649Y-81481390D01*
X129409659Y-81693590D01*
X129358650Y-81945480D01*
X129358650Y-82310924D01*
X129305050Y-82300070D01*
X129300750Y-82300070D01*
X129297537Y-82299047D01*
X129291654Y-82300070D01*
X126305310Y-82300070D01*
X126069993Y-82344348D01*
X125853869Y-82483420D01*
X125708879Y-82695620D01*
X125657870Y-82947510D01*
X125657870Y-83187000D01*
X125650648Y-83187000D01*
X125450415Y-82887330D01*
X125140931Y-82680539D01*
X125556732Y-82309036D01*
X125810709Y-81781791D01*
X125813358Y-81766026D01*
X125692217Y-81534000D01*
X124333000Y-81534000D01*
X124333000Y-81554000D01*
X124079000Y-81554000D01*
X124079000Y-81534000D01*
X122719783Y-81534000D01*
X122598642Y-81766026D01*
X122601291Y-81781791D01*
X122855268Y-82309036D01*
X123271069Y-82680539D01*
X122961585Y-82887330D01*
X122754048Y-83197931D01*
X122518161Y-83244852D01*
X122425195Y-83306969D01*
X122292890Y-83216569D01*
X122041000Y-83165560D01*
X121291000Y-83165560D01*
X121055683Y-83209838D01*
X120954418Y-83275000D01*
X120430246Y-83275000D01*
X120237890Y-83143569D01*
X119986000Y-83092560D01*
X119536000Y-83092560D01*
X119300683Y-83136838D01*
X119084559Y-83275910D01*
X118939569Y-83488110D01*
X118888560Y-83740000D01*
X118888560Y-84330000D01*
X118932838Y-84565317D01*
X119071910Y-84781441D01*
X119284110Y-84926431D01*
X119536000Y-84977440D01*
X119986000Y-84977440D01*
X120221317Y-84933162D01*
X120436027Y-84795000D01*
X120677806Y-84795000D01*
X120687838Y-84848317D01*
X120755200Y-84953000D01*
X120662000Y-84953000D01*
X120371160Y-85010852D01*
X120124599Y-85175599D01*
X120078838Y-85221360D01*
X119986000Y-85202560D01*
X119536000Y-85202560D01*
X119300683Y-85246838D01*
X119085973Y-85385000D01*
X118505931Y-85385000D01*
X118296803Y-85298162D01*
X117924837Y-85297838D01*
X117581061Y-85439883D01*
X117317812Y-85702673D01*
X117175166Y-86046201D01*
X117174842Y-86418167D01*
X117316887Y-86761943D01*
X117579677Y-87025192D01*
X117923205Y-87167838D01*
X118295171Y-87168162D01*
X118638947Y-87026117D01*
X118760276Y-86905000D01*
X119091754Y-86905000D01*
X119142000Y-86939331D01*
X119142000Y-87217250D01*
X119300750Y-87376000D01*
X119902000Y-87376000D01*
X119902000Y-87356000D01*
X120152000Y-87356000D01*
X120152000Y-87376000D01*
X120174000Y-87376000D01*
X120174000Y-87630000D01*
X120152000Y-87630000D01*
X120152000Y-87650000D01*
X119902000Y-87650000D01*
X119902000Y-87630000D01*
X119300750Y-87630000D01*
X119142000Y-87788750D01*
X119142000Y-88079310D01*
X119178837Y-88168243D01*
X119084559Y-88228910D01*
X118939569Y-88441110D01*
X118888560Y-88693000D01*
X118888560Y-89283000D01*
X118932838Y-89518317D01*
X119071910Y-89734441D01*
X119284110Y-89879431D01*
X119536000Y-89930440D01*
X119986000Y-89930440D01*
X120214331Y-89887476D01*
X120408000Y-89926000D01*
X120434454Y-89926000D01*
X120244160Y-89963852D01*
X119997599Y-90128599D01*
X119970638Y-90155560D01*
X119536000Y-90155560D01*
X119300683Y-90199838D01*
X119085973Y-90338000D01*
X118632925Y-90338000D01*
X118423797Y-90251162D01*
X118051831Y-90250838D01*
X117708055Y-90392883D01*
X117444806Y-90655673D01*
X117302160Y-90999201D01*
X117301836Y-91371167D01*
X117443881Y-91714943D01*
X117706671Y-91978192D01*
X118050199Y-92120838D01*
X118422165Y-92121162D01*
X118765941Y-91979117D01*
X118887270Y-91858000D01*
X119091754Y-91858000D01*
X119284110Y-91989431D01*
X119325299Y-91997772D01*
X119269000Y-92133690D01*
X119269000Y-92424250D01*
X119427750Y-92583000D01*
X120029000Y-92583000D01*
X120029000Y-92563000D01*
X120279000Y-92563000D01*
X120279000Y-92583000D01*
X120301000Y-92583000D01*
X120301000Y-92837000D01*
X120279000Y-92837000D01*
X120279000Y-92857000D01*
X120029000Y-92857000D01*
X120029000Y-92837000D01*
X119427750Y-92837000D01*
X119269000Y-92995750D01*
X119269000Y-93286310D01*
X119305837Y-93375243D01*
X119211559Y-93435910D01*
X119066569Y-93648110D01*
X119015560Y-93900000D01*
X119015560Y-94490000D01*
X119059838Y-94725317D01*
X119198910Y-94941441D01*
X119411110Y-95086431D01*
X119663000Y-95137440D01*
X120113000Y-95137440D01*
X120341331Y-95094476D01*
X120535000Y-95133000D01*
X120561454Y-95133000D01*
X120371160Y-95170852D01*
X120124599Y-95335599D01*
X120097638Y-95362560D01*
X119663000Y-95362560D01*
X119427683Y-95406838D01*
X119212973Y-95545000D01*
X118711395Y-95545000D01*
X118640327Y-95473808D01*
X118296799Y-95331162D01*
X117924833Y-95330838D01*
X117581057Y-95472883D01*
X117317808Y-95735673D01*
X117175162Y-96079201D01*
X117174838Y-96451167D01*
X113740000Y-96451167D01*
X113740000Y-76327000D01*
X122522655Y-76327000D01*
X122636729Y-76900489D01*
X122961585Y-77386670D01*
X123276366Y-77597000D01*
X122961585Y-77807330D01*
X122636729Y-78293511D01*
X122522655Y-78867000D01*
X122636729Y-79440489D01*
X122961585Y-79926670D01*
X123271069Y-80133461D01*
X122855268Y-80504964D01*
X122601291Y-81032209D01*
X122598642Y-81047974D01*
X122719783Y-81280000D01*
X124079000Y-81280000D01*
X124079000Y-81260000D01*
X124333000Y-81260000D01*
X124333000Y-81280000D01*
X125692217Y-81280000D01*
X125813358Y-81047974D01*
X125810709Y-81032209D01*
X125556732Y-80504964D01*
X125140931Y-80133461D01*
X125450415Y-79926670D01*
X125775271Y-79440489D01*
X125889345Y-78867000D01*
X125813666Y-78486536D01*
X127213202Y-77087000D01*
X132991928Y-77087000D01*
X133023329Y-77118401D01*
X133269890Y-77283148D01*
X133388290Y-77306699D01*
X133454667Y-77373192D01*
X133798195Y-77515838D01*
X134170161Y-77516162D01*
X134513937Y-77374117D01*
X134777186Y-77111327D01*
X134919832Y-76767799D01*
X134920156Y-76395833D01*
X134779594Y-76055647D01*
X134813107Y-75974939D01*
X134813431Y-75602973D01*
X134671386Y-75259197D01*
X134408596Y-74995948D01*
X134065068Y-74853302D01*
X133693102Y-74852978D01*
X133349326Y-74995023D01*
X133316151Y-75028140D01*
X126776860Y-75028140D01*
X126486021Y-75085992D01*
X126239459Y-75250739D01*
X125923198Y-75567000D01*
X125650648Y-75567000D01*
X125450415Y-75267330D01*
X125140931Y-75060539D01*
X125556732Y-74689036D01*
X125810709Y-74161791D01*
X125813358Y-74146026D01*
X125692217Y-73914000D01*
X124333000Y-73914000D01*
X124333000Y-73934000D01*
X124079000Y-73934000D01*
X124079000Y-73914000D01*
X122719783Y-73914000D01*
X122598642Y-74146026D01*
X122601291Y-74161791D01*
X122855268Y-74689036D01*
X123271069Y-75060539D01*
X122961585Y-75267330D01*
X122636729Y-75753511D01*
X122522655Y-76327000D01*
X113740000Y-76327000D01*
X113740000Y-65440221D01*
X113882564Y-65653583D01*
X114980737Y-66387359D01*
X116276120Y-66645027D01*
X117571503Y-66387359D01*
X118669676Y-65653583D01*
X119403452Y-64555410D01*
X119661120Y-63260027D01*
X119661120Y-61088213D01*
X119403452Y-59792830D01*
X118790846Y-58876000D01*
X155642546Y-58876000D01*
X155529175Y-58951752D01*
X155529175Y-58951752D01*
G37*
X155529175Y-58951752D02*
X153993472Y-60487456D01*
X153259696Y-61585628D01*
X153002029Y-62881012D01*
X153259696Y-64176396D01*
X153993472Y-65274568D01*
X155091644Y-66008344D01*
X156387028Y-66266011D01*
X157682412Y-66008344D01*
X158780584Y-65274568D01*
X160316288Y-63738865D01*
X160326000Y-63724330D01*
X160326000Y-116687567D01*
X159348210Y-116034228D01*
X158052827Y-115776560D01*
X155881013Y-115776560D01*
X154585630Y-116034228D01*
X153487457Y-116768004D01*
X152753681Y-117866177D01*
X152496013Y-119161560D01*
X152753681Y-120456943D01*
X153426575Y-121464000D01*
X118567807Y-121464000D01*
X119012030Y-121020552D01*
X119528451Y-119776872D01*
X119529626Y-118430236D01*
X119015377Y-117185657D01*
X118063992Y-116232610D01*
X116820312Y-115716189D01*
X115473676Y-115715014D01*
X114229097Y-116229263D01*
X113740000Y-116717507D01*
X113740000Y-114327687D01*
X115442558Y-114327687D01*
X115584603Y-114671463D01*
X115847393Y-114934712D01*
X116190921Y-115077358D01*
X116224240Y-115077387D01*
X116295803Y-115250583D01*
X116558593Y-115513832D01*
X116902121Y-115656478D01*
X117274087Y-115656802D01*
X117617863Y-115514757D01*
X117881112Y-115251967D01*
X117976190Y-115022996D01*
X123204627Y-120251433D01*
X123451189Y-120416180D01*
X123742028Y-120474032D01*
X124701324Y-120474032D01*
X124942600Y-120522025D01*
X148793421Y-120522025D01*
X149084260Y-120464173D01*
X149330822Y-120299426D01*
X149674464Y-119955784D01*
X149719951Y-119955824D01*
X150063727Y-119813779D01*
X150326976Y-119550989D01*
X150469622Y-119207461D01*
X150469946Y-118835495D01*
X150327901Y-118491719D01*
X150065111Y-118228470D01*
X149721583Y-118085824D01*
X149424339Y-118085565D01*
X149308251Y-117969274D01*
X149208570Y-117927883D01*
X149075075Y-117604799D01*
X148812285Y-117341550D01*
X148763135Y-117321141D01*
X148763162Y-117289833D01*
X148621117Y-116946057D01*
X148358327Y-116682808D01*
X148014799Y-116540162D01*
X147642833Y-116539838D01*
X147299057Y-116681883D01*
X147035808Y-116944673D01*
X146893162Y-117288201D01*
X146893121Y-117335077D01*
X146624198Y-117604000D01*
X126151595Y-117604000D01*
X126142117Y-117581061D01*
X125879327Y-117317812D01*
X125535799Y-117175166D01*
X125163833Y-117174842D01*
X124820057Y-117316887D01*
X124612046Y-117524535D01*
X124548037Y-117497956D01*
X124176071Y-117497632D01*
X123832295Y-117639677D01*
X123832186Y-117639786D01*
X123630797Y-117556162D01*
X123258831Y-117555838D01*
X122915055Y-117697883D01*
X122857818Y-117755020D01*
X119650244Y-114547446D01*
X120017740Y-114347724D01*
X120359846Y-113924919D01*
X120382984Y-113846694D01*
X120383554Y-113849561D01*
X120684458Y-114299896D01*
X121134793Y-114600800D01*
X121666000Y-114706464D01*
X121814889Y-114676848D01*
X122293318Y-115155277D01*
X122293320Y-115155280D01*
X122527120Y-115311499D01*
X122580435Y-115347123D01*
X122595552Y-115350130D01*
X123949210Y-116703787D01*
X123949212Y-116703790D01*
X124236327Y-116895633D01*
X124271785Y-116902686D01*
X124575002Y-116963001D01*
X124575007Y-116963000D01*
X128140810Y-116963000D01*
X128367609Y-117189799D01*
X128367611Y-117189802D01*
X128654726Y-117381645D01*
X128993401Y-117449012D01*
X132166827Y-117449012D01*
X132272401Y-117470012D01*
X136332594Y-117470012D01*
X136332599Y-117470013D01*
X136342935Y-117467957D01*
X146041094Y-117467957D01*
X146041099Y-117467958D01*
X146323583Y-117411767D01*
X146379774Y-117400590D01*
X146666889Y-117208747D01*
X148817635Y-115058000D01*
X156919178Y-115058000D01*
X157039201Y-115107838D01*
X157411167Y-115108162D01*
X157754943Y-114966117D01*
X158018192Y-114703327D01*
X158160838Y-114359799D01*
X158161162Y-113987833D01*
X158019117Y-113644057D01*
X157756327Y-113380808D01*
X157412799Y-113238162D01*
X157040833Y-113237838D01*
X156919431Y-113288000D01*
X148451061Y-113288000D01*
X148451056Y-113287999D01*
X148169808Y-113343944D01*
X148112381Y-113355367D01*
X147825266Y-113547210D01*
X147825264Y-113547213D01*
X145674519Y-115697957D01*
X144958378Y-115697957D01*
X145064192Y-115592327D01*
X145170380Y-115336599D01*
X145175636Y-115338781D01*
X145547602Y-115339105D01*
X145891378Y-115197060D01*
X146154627Y-114934270D01*
X146297273Y-114590742D01*
X146297586Y-114231650D01*
X146461192Y-114068329D01*
X146603838Y-113724801D01*
X146604162Y-113352835D01*
X146462117Y-113009059D01*
X146199327Y-112745810D01*
X145855799Y-112603164D01*
X145737579Y-112603061D01*
X145705837Y-112581852D01*
X145414998Y-112524000D01*
X142638103Y-112524000D01*
X142666838Y-112454799D01*
X142667162Y-112082833D01*
X142525117Y-111739057D01*
X142262327Y-111475808D01*
X141918799Y-111333162D01*
X141546833Y-111332838D01*
X141203057Y-111474883D01*
X140939808Y-111737673D01*
X140797162Y-112081201D01*
X140796838Y-112453167D01*
X140826106Y-112524000D01*
X137722463Y-112524000D01*
X137690327Y-112491808D01*
X137488516Y-112408008D01*
X137521831Y-112359250D01*
X137572840Y-112107360D01*
X137572840Y-111307360D01*
X137528562Y-111072043D01*
X137454780Y-110957382D01*
X137521831Y-110859250D01*
X137572840Y-110607360D01*
X137572840Y-109807360D01*
X137571030Y-109797743D01*
X137830078Y-110424686D01*
X138365495Y-110961039D01*
X139065410Y-111251668D01*
X139823265Y-111252330D01*
X140523686Y-110962922D01*
X141060039Y-110427505D01*
X141350668Y-109727590D01*
X141351330Y-108969735D01*
X141061922Y-108269314D01*
X140672158Y-107878869D01*
X140690415Y-107866670D01*
X141015271Y-107380489D01*
X141129345Y-106807000D01*
X141015271Y-106233511D01*
X140690415Y-105747330D01*
X140375634Y-105537000D01*
X140690415Y-105326670D01*
X141015271Y-104840489D01*
X141129345Y-104267000D01*
X141015271Y-103693511D01*
X140902509Y-103524750D01*
X151009000Y-103524750D01*
X151009000Y-103765309D01*
X151105673Y-103998698D01*
X151284301Y-104177327D01*
X151517690Y-104274000D01*
X151733250Y-104274000D01*
X151892000Y-104115250D01*
X151892000Y-103366000D01*
X152146000Y-103366000D01*
X152146000Y-104115250D01*
X152304750Y-104274000D01*
X152520310Y-104274000D01*
X152753699Y-104177327D01*
X152932327Y-103998698D01*
X153029000Y-103765309D01*
X153029000Y-103524750D01*
X152870250Y-103366000D01*
X152146000Y-103366000D01*
X151892000Y-103366000D01*
X151167750Y-103366000D01*
X151009000Y-103524750D01*
X140902509Y-103524750D01*
X140690415Y-103207330D01*
X140375634Y-102997000D01*
X140690415Y-102786670D01*
X141015271Y-102300489D01*
X141129345Y-101727000D01*
X141015271Y-101153511D01*
X140690415Y-100667330D01*
X140462438Y-100515000D01*
X146307560Y-100515000D01*
X146307560Y-101415000D01*
X146351838Y-101650317D01*
X146445000Y-101795095D01*
X146445000Y-101993000D01*
X146502852Y-102283839D01*
X146511945Y-102297448D01*
X146511838Y-102420167D01*
X146653883Y-102763943D01*
X146916673Y-103027192D01*
X147260201Y-103169838D01*
X147632167Y-103170162D01*
X147975943Y-103028117D01*
X148239192Y-102765327D01*
X148381838Y-102421799D01*
X148382162Y-102049833D01*
X148381196Y-102047494D01*
X148455000Y-102062440D01*
X148955000Y-102062440D01*
X149190317Y-102018162D01*
X149406441Y-101879090D01*
X149516874Y-101717466D01*
X149769839Y-101667148D01*
X150016401Y-101502401D01*
X150555802Y-100963000D01*
X151132370Y-100963000D01*
X151047569Y-101087110D01*
X150996560Y-101339000D01*
X150996560Y-102139000D01*
X151040838Y-102374317D01*
X151107329Y-102477646D01*
X151105673Y-102479302D01*
X151009000Y-102712691D01*
X151009000Y-102953250D01*
X151167750Y-103112000D01*
X151892000Y-103112000D01*
X151892000Y-103092000D01*
X152146000Y-103092000D01*
X152146000Y-103112000D01*
X152870250Y-103112000D01*
X153029000Y-102953250D01*
X153029000Y-102712691D01*
X152987292Y-102612000D01*
X153034995Y-102612000D01*
X153035000Y-102612001D01*
X153035005Y-102612000D01*
X153324874Y-102612000D01*
X153441585Y-102786670D01*
X153756366Y-102997000D01*
X153441585Y-103207330D01*
X153116729Y-103693511D01*
X153002655Y-104267000D01*
X153116729Y-104840489D01*
X153441585Y-105326670D01*
X153756366Y-105537000D01*
X153441585Y-105747330D01*
X153116729Y-106233511D01*
X153002655Y-106807000D01*
X153116729Y-107380489D01*
X153441585Y-107866670D01*
X153460095Y-107879038D01*
X153071961Y-108266495D01*
X152781332Y-108966410D01*
X152780670Y-109724265D01*
X153070078Y-110424686D01*
X153605495Y-110961039D01*
X154305410Y-111251668D01*
X155063265Y-111252330D01*
X155763686Y-110962922D01*
X156300039Y-110427505D01*
X156590668Y-109727590D01*
X156591330Y-108969735D01*
X156301922Y-108269314D01*
X155912158Y-107878869D01*
X155930415Y-107866670D01*
X156255271Y-107380489D01*
X156369345Y-106807000D01*
X156255271Y-106233511D01*
X155930415Y-105747330D01*
X155615634Y-105537000D01*
X155930415Y-105326670D01*
X156255271Y-104840489D01*
X156369345Y-104267000D01*
X156255271Y-103693511D01*
X155930415Y-103207330D01*
X155615634Y-102997000D01*
X155930415Y-102786670D01*
X156047126Y-102612000D01*
X156919178Y-102612000D01*
X157039201Y-102661838D01*
X157411167Y-102662162D01*
X157754943Y-102520117D01*
X158018192Y-102257327D01*
X158160838Y-101913799D01*
X158161162Y-101541833D01*
X158019117Y-101198057D01*
X157756327Y-100934808D01*
X157412799Y-100792162D01*
X157040833Y-100791838D01*
X156919431Y-100842000D01*
X156047126Y-100842000D01*
X155930415Y-100667330D01*
X155615634Y-100457000D01*
X155930415Y-100246670D01*
X156255271Y-99760489D01*
X156369345Y-99187000D01*
X156255271Y-98613511D01*
X155930415Y-98127330D01*
X155615634Y-97917000D01*
X155930415Y-97706670D01*
X156255271Y-97220489D01*
X156369345Y-96647000D01*
X156255271Y-96073511D01*
X155930415Y-95587330D01*
X155615634Y-95377000D01*
X155930415Y-95166670D01*
X156255271Y-94680489D01*
X156369345Y-94107000D01*
X156255271Y-93533511D01*
X155930415Y-93047330D01*
X155615634Y-92837000D01*
X155930415Y-92626670D01*
X156255271Y-92140489D01*
X156369345Y-91567000D01*
X156255271Y-90993511D01*
X155930415Y-90507330D01*
X155615634Y-90297000D01*
X155930415Y-90086670D01*
X156255271Y-89600489D01*
X156369345Y-89027000D01*
X156255271Y-88453511D01*
X155930415Y-87967330D01*
X155615634Y-87757000D01*
X155930415Y-87546670D01*
X156255271Y-87060489D01*
X156369345Y-86487000D01*
X156255271Y-85913511D01*
X155930415Y-85427330D01*
X155615634Y-85217000D01*
X155930415Y-85006670D01*
X156255271Y-84520489D01*
X156369345Y-83947000D01*
X156255271Y-83373511D01*
X155930415Y-82887330D01*
X155615634Y-82677000D01*
X155930415Y-82466670D01*
X156255271Y-81980489D01*
X156369345Y-81407000D01*
X156255271Y-80833511D01*
X155930415Y-80347330D01*
X155615634Y-80137000D01*
X155930415Y-79926670D01*
X156255271Y-79440489D01*
X156369345Y-78867000D01*
X156255271Y-78293511D01*
X155930415Y-77807330D01*
X155615634Y-77597000D01*
X155930415Y-77386670D01*
X156255271Y-76900489D01*
X156369345Y-76327000D01*
X156255271Y-75753511D01*
X155930415Y-75267330D01*
X155620931Y-75060539D01*
X156036732Y-74689036D01*
X156290709Y-74161791D01*
X156293358Y-74146026D01*
X156172217Y-73914000D01*
X154813000Y-73914000D01*
X154813000Y-73934000D01*
X154559000Y-73934000D01*
X154559000Y-73914000D01*
X153199783Y-73914000D01*
X153078642Y-74146026D01*
X153081291Y-74161791D01*
X153335268Y-74689036D01*
X153751069Y-75060539D01*
X153441585Y-75267330D01*
X153116729Y-75753511D01*
X153072293Y-75976905D01*
X152212198Y-76837000D01*
X151565463Y-76837000D01*
X151533327Y-76804808D01*
X151189799Y-76662162D01*
X150817833Y-76661838D01*
X150474057Y-76803883D01*
X150210808Y-77066673D01*
X150068162Y-77410201D01*
X150067838Y-77782167D01*
X150209883Y-78125943D01*
X150472673Y-78389192D01*
X150816201Y-78531838D01*
X151188167Y-78532162D01*
X151531943Y-78390117D01*
X151565118Y-78357000D01*
X152527000Y-78357000D01*
X152558358Y-78350762D01*
X152622883Y-78506925D01*
X152885673Y-78770174D01*
X153006956Y-78820535D01*
X153011078Y-78824657D01*
X153002655Y-78867000D01*
X153116729Y-79440489D01*
X153441585Y-79926670D01*
X153756366Y-80137000D01*
X153441585Y-80347330D01*
X153116729Y-80833511D01*
X153081979Y-81008209D01*
X152972770Y-80899000D01*
X151373840Y-80899000D01*
X151373840Y-82398870D01*
X151532590Y-82557620D01*
X152622829Y-82557620D01*
X152856218Y-82460947D01*
X153034847Y-82282319D01*
X153131520Y-82048930D01*
X153131520Y-82002625D01*
X153441585Y-82466670D01*
X153756366Y-82677000D01*
X153441585Y-82887330D01*
X153116729Y-83373511D01*
X153002655Y-83947000D01*
X153063549Y-84253136D01*
X152976310Y-84217000D01*
X152685750Y-84217000D01*
X152527000Y-84375750D01*
X152527000Y-84977000D01*
X153326250Y-84977000D01*
X153383504Y-84919746D01*
X153441585Y-85006670D01*
X153756366Y-85217000D01*
X153485000Y-85398321D01*
X153485000Y-85385750D01*
X153326250Y-85227000D01*
X152527000Y-85227000D01*
X152527000Y-85249000D01*
X152273000Y-85249000D01*
X152273000Y-85227000D01*
X152253000Y-85227000D01*
X152253000Y-84977000D01*
X152273000Y-84977000D01*
X152273000Y-84375750D01*
X152114250Y-84217000D01*
X151823690Y-84217000D01*
X151590301Y-84313673D01*
X151411673Y-84492302D01*
X151315000Y-84725691D01*
X151315000Y-84818250D01*
X151469750Y-84973000D01*
X151061040Y-84973000D01*
X150825723Y-85017278D01*
X150609599Y-85156350D01*
X150561906Y-85226151D01*
X150525130Y-85168999D01*
X150312930Y-85024009D01*
X150061040Y-84973000D01*
X149561040Y-84973000D01*
X149325723Y-85017278D01*
X149109599Y-85156350D01*
X149065426Y-85221000D01*
X148134822Y-85221000D01*
X148014799Y-85171162D01*
X147642833Y-85170838D01*
X147299057Y-85312883D01*
X147035808Y-85575673D01*
X146893162Y-85919201D01*
X146892838Y-86291167D01*
X147034883Y-86634943D01*
X147297673Y-86898192D01*
X147641201Y-87040838D01*
X148013167Y-87041162D01*
X148134569Y-86991000D01*
X149124932Y-86991000D01*
X149309150Y-87116871D01*
X149561040Y-87167880D01*
X150061040Y-87167880D01*
X150280280Y-87126627D01*
X150280280Y-87661000D01*
X150324558Y-87896317D01*
X150391049Y-87999646D01*
X150389393Y-88001302D01*
X150292720Y-88234691D01*
X150292720Y-88475250D01*
X150451470Y-88634000D01*
X151175720Y-88634000D01*
X151175720Y-88614000D01*
X151429720Y-88614000D01*
X151429720Y-88634000D01*
X151449720Y-88634000D01*
X151449720Y-88888000D01*
X151429720Y-88888000D01*
X151429720Y-89637250D01*
X151588470Y-89796000D01*
X151804030Y-89796000D01*
X152037419Y-89699327D01*
X152216047Y-89520698D01*
X152312720Y-89287309D01*
X152312720Y-89046750D01*
X152153972Y-88888002D01*
X152248952Y-88888002D01*
X152335039Y-89016841D01*
X152882599Y-89564401D01*
X153129161Y-89729148D01*
X153213968Y-89746017D01*
X153441585Y-90086670D01*
X153756366Y-90297000D01*
X153441585Y-90507330D01*
X153241352Y-90807000D01*
X153040844Y-90807000D01*
X152998090Y-90740559D01*
X152836320Y-90630026D01*
X152836148Y-90629161D01*
X152671401Y-90382599D01*
X152429401Y-90140599D01*
X152182839Y-89975852D01*
X151892000Y-89918000D01*
X150874000Y-89918000D01*
X150874000Y-89916000D01*
X150850130Y-89796000D01*
X151016970Y-89796000D01*
X151175720Y-89637250D01*
X151175720Y-88888000D01*
X150451470Y-88888000D01*
X150292720Y-89046750D01*
X150292720Y-89096795D01*
X150277839Y-89086852D01*
X150168312Y-89065066D01*
X150054090Y-88887559D01*
X149841890Y-88742569D01*
X149590000Y-88691560D01*
X149090000Y-88691560D01*
X148854683Y-88735838D01*
X148638559Y-88874910D01*
X148590866Y-88944711D01*
X148554090Y-88887559D01*
X148341890Y-88742569D01*
X148090000Y-88691560D01*
X147590000Y-88691560D01*
X147354683Y-88735838D01*
X147138559Y-88874910D01*
X146993569Y-89087110D01*
X146942560Y-89339000D01*
X146942560Y-90239000D01*
X146964861Y-90357521D01*
X146893162Y-90530191D01*
X146892838Y-90902157D01*
X147034883Y-91245933D01*
X147297673Y-91509182D01*
X147546634Y-91612560D01*
X147463000Y-91612560D01*
X147227683Y-91656838D01*
X147011559Y-91795910D01*
X146866569Y-92008110D01*
X146815560Y-92260000D01*
X146815560Y-93160000D01*
X146859838Y-93395317D01*
X146950047Y-93535506D01*
X146908808Y-93576673D01*
X146766162Y-93920201D01*
X146765838Y-94292167D01*
X146907883Y-94635943D01*
X147170673Y-94899192D01*
X147514201Y-95041838D01*
X147886167Y-95042162D01*
X148229943Y-94900117D01*
X148493192Y-94637327D01*
X148594749Y-94392750D01*
X149599000Y-94392750D01*
X149599000Y-94608310D01*
X149695673Y-94841699D01*
X149874302Y-95020327D01*
X150107691Y-95117000D01*
X150348250Y-95117000D01*
X150507000Y-94958250D01*
X150507000Y-94234000D01*
X149757750Y-94234000D01*
X149599000Y-94392750D01*
X148594749Y-94392750D01*
X148635838Y-94293799D01*
X148636162Y-93921833D01*
X148511452Y-93620010D01*
X148711110Y-93756431D01*
X148963000Y-93807440D01*
X149463000Y-93807440D01*
X149599000Y-93781850D01*
X149599000Y-93821250D01*
X149757750Y-93980000D01*
X150507000Y-93980000D01*
X150507000Y-93978000D01*
X150761000Y-93978000D01*
X150761000Y-93980000D01*
X150781000Y-93980000D01*
X150781000Y-94234000D01*
X150761000Y-94234000D01*
X150761000Y-94958250D01*
X150919750Y-95117000D01*
X151160309Y-95117000D01*
X151393698Y-95020327D01*
X151395068Y-95018957D01*
X151482110Y-95078431D01*
X151734000Y-95129440D01*
X152534000Y-95129440D01*
X152769317Y-95085162D01*
X152985441Y-94946090D01*
X153039481Y-94867000D01*
X153241352Y-94867000D01*
X153441585Y-95166670D01*
X153756366Y-95377000D01*
X153441585Y-95587330D01*
X153241352Y-95887000D01*
X153040844Y-95887000D01*
X152998090Y-95820559D01*
X152785890Y-95675569D01*
X152534000Y-95624560D01*
X151734000Y-95624560D01*
X151498683Y-95668838D01*
X151395354Y-95735329D01*
X151393698Y-95733673D01*
X151160309Y-95637000D01*
X150919750Y-95637000D01*
X150761000Y-95795750D01*
X150761000Y-96520000D01*
X150781000Y-96520000D01*
X150781000Y-96774000D01*
X150761000Y-96774000D01*
X150761000Y-96794000D01*
X150507000Y-96794000D01*
X150507000Y-96774000D01*
X149757750Y-96774000D01*
X149711109Y-96820641D01*
X149673090Y-96761559D01*
X149460890Y-96616569D01*
X149209000Y-96565560D01*
X148709000Y-96565560D01*
X148473683Y-96609838D01*
X148257559Y-96748910D01*
X148209866Y-96818711D01*
X148173090Y-96761559D01*
X147960890Y-96616569D01*
X147709000Y-96565560D01*
X147209000Y-96565560D01*
X146973683Y-96609838D01*
X146757559Y-96748910D01*
X146612569Y-96961110D01*
X146561560Y-97213000D01*
X146561560Y-98113000D01*
X146605838Y-98348317D01*
X146646718Y-98411846D01*
X146582792Y-98475661D01*
X146440146Y-98819189D01*
X146439822Y-99191155D01*
X146581867Y-99534931D01*
X146844657Y-99798180D01*
X147011742Y-99867560D01*
X146955000Y-99867560D01*
X146719683Y-99911838D01*
X146503559Y-100050910D01*
X146358569Y-100263110D01*
X146307560Y-100515000D01*
X140462438Y-100515000D01*
X140375634Y-100457000D01*
X140690415Y-100246670D01*
X141015271Y-99760489D01*
X141129345Y-99187000D01*
X141015271Y-98613511D01*
X140690415Y-98127330D01*
X140375634Y-97917000D01*
X140690415Y-97706670D01*
X141015271Y-97220489D01*
X141129345Y-96647000D01*
X141029629Y-96145690D01*
X149599000Y-96145690D01*
X149599000Y-96361250D01*
X149757750Y-96520000D01*
X150507000Y-96520000D01*
X150507000Y-95795750D01*
X150348250Y-95637000D01*
X150107691Y-95637000D01*
X149874302Y-95733673D01*
X149695673Y-95912301D01*
X149599000Y-96145690D01*
X141029629Y-96145690D01*
X141015271Y-96073511D01*
X140690415Y-95587330D01*
X140375634Y-95377000D01*
X140690415Y-95166670D01*
X141015271Y-94680489D01*
X141029940Y-94606740D01*
X141177880Y-94754680D01*
X141177840Y-94800167D01*
X141319885Y-95143943D01*
X141582675Y-95407192D01*
X141926203Y-95549838D01*
X142298169Y-95550162D01*
X142641945Y-95408117D01*
X142905194Y-95145327D01*
X143047840Y-94801799D01*
X143048164Y-94429833D01*
X142906119Y-94086057D01*
X142643329Y-93822808D01*
X142299801Y-93680162D01*
X142252925Y-93680121D01*
X141283640Y-92710836D01*
X141474880Y-92790050D01*
X141715490Y-92790050D01*
X141874240Y-92631300D01*
X141874240Y-91882000D01*
X142128240Y-91882000D01*
X142128240Y-92631300D01*
X142286990Y-92790050D01*
X142527600Y-92790050D01*
X142760989Y-92693377D01*
X142939617Y-92514748D01*
X143036290Y-92281359D01*
X143036290Y-92040750D01*
X142877540Y-91882000D01*
X142128240Y-91882000D01*
X141874240Y-91882000D01*
X141854240Y-91882000D01*
X141854240Y-91628000D01*
X141874240Y-91628000D01*
X141874240Y-91608000D01*
X142128240Y-91608000D01*
X142128240Y-91628000D01*
X142877540Y-91628000D01*
X143023697Y-91481843D01*
X143136080Y-91656491D01*
X143348280Y-91801481D01*
X143600170Y-91852490D01*
X144372616Y-91852490D01*
X144407170Y-91866838D01*
X144779136Y-91867162D01*
X145122912Y-91725117D01*
X145386161Y-91462327D01*
X145528807Y-91118799D01*
X145529131Y-90746833D01*
X145387086Y-90403057D01*
X145124296Y-90139808D01*
X144933172Y-90060446D01*
X144864360Y-89953509D01*
X144652160Y-89808519D01*
X144400270Y-89757510D01*
X143600170Y-89757510D01*
X143364853Y-89801788D01*
X143148729Y-89940860D01*
X143048730Y-90087213D01*
X143048730Y-89454950D01*
X143004452Y-89219633D01*
X142926646Y-89098719D01*
X142939617Y-89085748D01*
X143036290Y-88852359D01*
X143036290Y-88611750D01*
X142877540Y-88453000D01*
X142128240Y-88453000D01*
X142128240Y-88473000D01*
X141874240Y-88473000D01*
X141874240Y-88453000D01*
X141124940Y-88453000D01*
X141033381Y-88544559D01*
X141015271Y-88453511D01*
X140690415Y-87967330D01*
X140375634Y-87757000D01*
X140690415Y-87546670D01*
X140931407Y-87186000D01*
X141078227Y-87186000D01*
X141137100Y-87277491D01*
X141276849Y-87372977D01*
X141241491Y-87387623D01*
X141062863Y-87566252D01*
X140966190Y-87799641D01*
X140966190Y-88040250D01*
X141124940Y-88199000D01*
X141874240Y-88199000D01*
X141874240Y-88179000D01*
X142128240Y-88179000D01*
X142128240Y-88199000D01*
X142877540Y-88199000D01*
X143023697Y-88052843D01*
X143136080Y-88227491D01*
X143348280Y-88372481D01*
X143600170Y-88423490D01*
X144400270Y-88423490D01*
X144635587Y-88379212D01*
X144667123Y-88358919D01*
X144857181Y-88437838D01*
X145229147Y-88438162D01*
X145572923Y-88296117D01*
X145836172Y-88033327D01*
X145978818Y-87689799D01*
X145979142Y-87317833D01*
X145837097Y-86974057D01*
X145574307Y-86710808D01*
X145230779Y-86568162D01*
X144892260Y-86567867D01*
X144864360Y-86524509D01*
X144652160Y-86379519D01*
X144400270Y-86328510D01*
X143600170Y-86328510D01*
X143364853Y-86372788D01*
X143148729Y-86511860D01*
X143048730Y-86658213D01*
X143048730Y-86025950D01*
X143004452Y-85790633D01*
X142926646Y-85669719D01*
X142939617Y-85656748D01*
X143036290Y-85423359D01*
X143036290Y-85182750D01*
X142877540Y-85024000D01*
X142128240Y-85024000D01*
X142128240Y-85044000D01*
X141874240Y-85044000D01*
X141874240Y-85024000D01*
X141124940Y-85024000D01*
X140966190Y-85182750D01*
X140966190Y-85423359D01*
X141062863Y-85656748D01*
X141072115Y-85666000D01*
X140849889Y-85666000D01*
X140690415Y-85427330D01*
X140375634Y-85217000D01*
X140690415Y-85006670D01*
X140890648Y-84707000D01*
X141051240Y-84707000D01*
X141060165Y-84705225D01*
X141124940Y-84770000D01*
X141874240Y-84770000D01*
X141874240Y-84750000D01*
X142128240Y-84750000D01*
X142128240Y-84770000D01*
X142877540Y-84770000D01*
X143023697Y-84623843D01*
X143136080Y-84798491D01*
X143348280Y-84943481D01*
X143600170Y-84994490D01*
X144400270Y-84994490D01*
X144635587Y-84950212D01*
X144762830Y-84868333D01*
X145101201Y-85008838D01*
X145473167Y-85009162D01*
X145816943Y-84867117D01*
X146080192Y-84604327D01*
X146222838Y-84260799D01*
X146223162Y-83888833D01*
X146081117Y-83545057D01*
X145818327Y-83281808D01*
X145474799Y-83139162D01*
X145102833Y-83138838D01*
X144986272Y-83187000D01*
X144923233Y-83187000D01*
X144864360Y-83095509D01*
X144652160Y-82950519D01*
X144400270Y-82899510D01*
X143600170Y-82899510D01*
X143364853Y-82943788D01*
X143148729Y-83082860D01*
X143048730Y-83229213D01*
X143048730Y-82596950D01*
X143004452Y-82361633D01*
X142926646Y-82240719D01*
X142939617Y-82227748D01*
X143036290Y-81994359D01*
X143036290Y-81753750D01*
X142877540Y-81595000D01*
X142128240Y-81595000D01*
X142128240Y-81615000D01*
X141874240Y-81615000D01*
X141874240Y-81595000D01*
X141854240Y-81595000D01*
X141854240Y-81341000D01*
X141874240Y-81341000D01*
X141874240Y-81321000D01*
X142128240Y-81321000D01*
X142128240Y-81341000D01*
X142877540Y-81341000D01*
X143023697Y-81194843D01*
X143136080Y-81369491D01*
X143348280Y-81514481D01*
X143600170Y-81565490D01*
X144400270Y-81565490D01*
X144635587Y-81521212D01*
X144851711Y-81382140D01*
X144996701Y-81169940D01*
X145047710Y-80918050D01*
X145047710Y-80117950D01*
X145003432Y-79882633D01*
X144935108Y-79776454D01*
X144935382Y-79461613D01*
X144793337Y-79117837D01*
X144530547Y-78854588D01*
X144187019Y-78711942D01*
X143815053Y-78711618D01*
X143471277Y-78853663D01*
X143208028Y-79116453D01*
X143065382Y-79459981D01*
X143065107Y-79776246D01*
X143048730Y-79800213D01*
X143048730Y-79167950D01*
X143004452Y-78932633D01*
X142865380Y-78716509D01*
X142653180Y-78571519D01*
X142401290Y-78520510D01*
X141601190Y-78520510D01*
X141365873Y-78564788D01*
X141149749Y-78703860D01*
X141097000Y-78781061D01*
X141097000Y-78739998D01*
X140932218Y-78739998D01*
X141053358Y-78507974D01*
X141050709Y-78492209D01*
X140796732Y-77964964D01*
X140380931Y-77593461D01*
X140690415Y-77386670D01*
X140890648Y-77087000D01*
X141053737Y-77087000D01*
X141290910Y-77039823D01*
X141319883Y-77109943D01*
X141582673Y-77373192D01*
X141703987Y-77423566D01*
X141713268Y-77432847D01*
X141713270Y-77432850D01*
X141914131Y-77567060D01*
X142000385Y-77624693D01*
X142339060Y-77692061D01*
X142339065Y-77692060D01*
X144387830Y-77692060D01*
X144387830Y-78056740D01*
X144432108Y-78292057D01*
X144571180Y-78508181D01*
X144783380Y-78653171D01*
X145035270Y-78704180D01*
X145925000Y-78704180D01*
X145925000Y-78973940D01*
X145699480Y-78973940D01*
X145464163Y-79018218D01*
X145248039Y-79157290D01*
X145103049Y-79369490D01*
X145052040Y-79621380D01*
X145052040Y-81922620D01*
X145096318Y-82157937D01*
X145235390Y-82374061D01*
X145447590Y-82519051D01*
X145699480Y-82570060D01*
X145896737Y-82570060D01*
X145877162Y-82617201D01*
X145876838Y-82989167D01*
X146018883Y-83332943D01*
X146281673Y-83596192D01*
X146625201Y-83738838D01*
X146997167Y-83739162D01*
X147340943Y-83597117D01*
X147604192Y-83334327D01*
X147697936Y-83108567D01*
X147722603Y-83071650D01*
X147766794Y-83005514D01*
X147834161Y-82666840D01*
X147834160Y-82666835D01*
X147834160Y-82570060D01*
X148198840Y-82570060D01*
X148434157Y-82525782D01*
X148650281Y-82386710D01*
X148795271Y-82174510D01*
X148846280Y-81922620D01*
X148846280Y-81057750D01*
X149362160Y-81057750D01*
X149362160Y-82048930D01*
X149458833Y-82282319D01*
X149637462Y-82460947D01*
X149870851Y-82557620D01*
X150961090Y-82557620D01*
X151119840Y-82398870D01*
X151119840Y-80899000D01*
X149520910Y-80899000D01*
X149362160Y-81057750D01*
X148846280Y-81057750D01*
X148846280Y-79621380D01*
X148822514Y-79495070D01*
X149362160Y-79495070D01*
X149362160Y-80486250D01*
X149520910Y-80645000D01*
X151119840Y-80645000D01*
X151119840Y-79145130D01*
X151373840Y-79145130D01*
X151373840Y-80645000D01*
X152972770Y-80645000D01*
X153131520Y-80486250D01*
X153131520Y-79495070D01*
X153034847Y-79261681D01*
X152856218Y-79083053D01*
X152622829Y-78986380D01*
X151532590Y-78986380D01*
X151373840Y-79145130D01*
X151119840Y-79145130D01*
X150961090Y-78986380D01*
X149870851Y-78986380D01*
X149637462Y-79083053D01*
X149458833Y-79261681D01*
X149362160Y-79495070D01*
X148822514Y-79495070D01*
X148802002Y-79386063D01*
X148662930Y-79169939D01*
X148450730Y-79024949D01*
X148198840Y-78973940D01*
X147834160Y-78973940D01*
X147834160Y-78704180D01*
X148334730Y-78704180D01*
X148570047Y-78659902D01*
X148786171Y-78520830D01*
X148931161Y-78308630D01*
X148982170Y-78056740D01*
X148982170Y-75584750D01*
X150882000Y-75584750D01*
X150882000Y-75825309D01*
X150978673Y-76058698D01*
X151157301Y-76237327D01*
X151390690Y-76334000D01*
X151606250Y-76334000D01*
X151765000Y-76175250D01*
X151765000Y-75426000D01*
X152019000Y-75426000D01*
X152019000Y-76175250D01*
X152177750Y-76334000D01*
X152393310Y-76334000D01*
X152626699Y-76237327D01*
X152805327Y-76058698D01*
X152902000Y-75825309D01*
X152902000Y-75584750D01*
X152743250Y-75426000D01*
X152019000Y-75426000D01*
X151765000Y-75426000D01*
X151040750Y-75426000D01*
X150882000Y-75584750D01*
X148982170Y-75584750D01*
X148982170Y-75557380D01*
X148937892Y-75322063D01*
X148798820Y-75105939D01*
X148586620Y-74960949D01*
X148334730Y-74909940D01*
X147570000Y-74909940D01*
X147570000Y-74753669D01*
X147586441Y-74743090D01*
X147731431Y-74530890D01*
X147782440Y-74279000D01*
X147782440Y-74039000D01*
X150059537Y-74039000D01*
X150091673Y-74071192D01*
X150435201Y-74213838D01*
X150807167Y-74214162D01*
X150869560Y-74188382D01*
X150869560Y-74199000D01*
X150913838Y-74434317D01*
X150980329Y-74537646D01*
X150978673Y-74539302D01*
X150882000Y-74772691D01*
X150882000Y-75013250D01*
X151040750Y-75172000D01*
X151765000Y-75172000D01*
X151765000Y-75152000D01*
X152019000Y-75152000D01*
X152019000Y-75172000D01*
X152743250Y-75172000D01*
X152902000Y-75013250D01*
X152902000Y-74772691D01*
X152805327Y-74539302D01*
X152803957Y-74537932D01*
X152863431Y-74450890D01*
X152914440Y-74199000D01*
X152914440Y-73399000D01*
X152870162Y-73163683D01*
X152780473Y-73024303D01*
X152863431Y-72902890D01*
X152914440Y-72651000D01*
X152914440Y-72040656D01*
X152950325Y-72064633D01*
X153006516Y-72075810D01*
X153289000Y-72132001D01*
X153289005Y-72132000D01*
X153324874Y-72132000D01*
X153441585Y-72306670D01*
X153751069Y-72513461D01*
X153335268Y-72884964D01*
X153081291Y-73412209D01*
X153078642Y-73427974D01*
X153199783Y-73660000D01*
X154559000Y-73660000D01*
X154559000Y-73640000D01*
X154813000Y-73640000D01*
X154813000Y-73660000D01*
X156172217Y-73660000D01*
X156293358Y-73427974D01*
X156290709Y-73412209D01*
X156036732Y-72884964D01*
X155620931Y-72513461D01*
X155930415Y-72306670D01*
X156255271Y-71820489D01*
X156369345Y-71247000D01*
X156255271Y-70673511D01*
X155930415Y-70187330D01*
X155911905Y-70174962D01*
X156300039Y-69787505D01*
X156590668Y-69087590D01*
X156591330Y-68329735D01*
X156301922Y-67629314D01*
X155766505Y-67092961D01*
X155066590Y-66802332D01*
X154308735Y-66801670D01*
X153608314Y-67091078D01*
X153071961Y-67626495D01*
X152781332Y-68326410D01*
X152780670Y-69084265D01*
X153070078Y-69784686D01*
X153332778Y-70047845D01*
X153047000Y-69991000D01*
X152789931Y-69991000D01*
X152731090Y-69899559D01*
X152518890Y-69754569D01*
X152267000Y-69703560D01*
X151517000Y-69703560D01*
X151281683Y-69747838D01*
X151098054Y-69866000D01*
X149857579Y-69866000D01*
X149370730Y-69379150D01*
X149083615Y-69187307D01*
X149027424Y-69176130D01*
X148982170Y-69167128D01*
X148982170Y-68755260D01*
X148937892Y-68519943D01*
X148798820Y-68303819D01*
X148586620Y-68158829D01*
X148334730Y-68107820D01*
X147570000Y-68107820D01*
X147570000Y-66294000D01*
X147502633Y-65955325D01*
X147310790Y-65668210D01*
X147310787Y-65668208D01*
X143881790Y-62239210D01*
X143594675Y-62047367D01*
X143538484Y-62036190D01*
X143256000Y-61979999D01*
X143255995Y-61980000D01*
X135763005Y-61980000D01*
X135763000Y-61979999D01*
X135480516Y-62036190D01*
X135424325Y-62047367D01*
X135137210Y-62239210D01*
X135137208Y-62239213D01*
X131332420Y-66044000D01*
X128651005Y-66044000D01*
X128651000Y-66043999D01*
X128312325Y-66111367D01*
X128025210Y-66303210D01*
X128025208Y-66303213D01*
X124548617Y-69779803D01*
X124390745Y-69748400D01*
X124021255Y-69748400D01*
X123447766Y-69862474D01*
X122961585Y-70187330D01*
X122636729Y-70673511D01*
X122522655Y-71247000D01*
X122636729Y-71820489D01*
X122961585Y-72306670D01*
X123271069Y-72513461D01*
X122855268Y-72884964D01*
X122601291Y-73412209D01*
X122598642Y-73427974D01*
X122719783Y-73660000D01*
X124079000Y-73660000D01*
X124079000Y-73640000D01*
X124333000Y-73640000D01*
X124333000Y-73660000D01*
X125692217Y-73660000D01*
X125813358Y-73427974D01*
X125810709Y-73412209D01*
X125556732Y-72884964D01*
X125140931Y-72513461D01*
X125450415Y-72306670D01*
X125775271Y-71820489D01*
X125889345Y-71247000D01*
X125838781Y-70992799D01*
X129017579Y-67814000D01*
X131698995Y-67814000D01*
X131699000Y-67814001D01*
X131981484Y-67757810D01*
X132037675Y-67746633D01*
X132324790Y-67554790D01*
X134543412Y-65336167D01*
X135208838Y-65336167D01*
X135350883Y-65679943D01*
X135613673Y-65943192D01*
X135957201Y-66085838D01*
X135970849Y-66085850D01*
X135970838Y-66098165D01*
X136112883Y-66441941D01*
X136375673Y-66705190D01*
X136719201Y-66847836D01*
X137091167Y-66848160D01*
X137434943Y-66706115D01*
X137698192Y-66443325D01*
X137748566Y-66322012D01*
X137907577Y-66163000D01*
X141243396Y-66163000D01*
X141470022Y-66389626D01*
X141519650Y-66509734D01*
X141782440Y-66772983D01*
X142125968Y-66915629D01*
X142497934Y-66915953D01*
X142841710Y-66773908D01*
X143104959Y-66511118D01*
X143247605Y-66167590D01*
X143247633Y-66135703D01*
X143403943Y-66071117D01*
X143667192Y-65808327D01*
X143809838Y-65464799D01*
X143810162Y-65092833D01*
X143668117Y-64749057D01*
X143405327Y-64485808D01*
X143061799Y-64343162D01*
X143014923Y-64343121D01*
X142650401Y-63978599D01*
X142403839Y-63813852D01*
X142113000Y-63756000D01*
X136779000Y-63756000D01*
X136488161Y-63813852D01*
X136241599Y-63978599D01*
X136004320Y-64215878D01*
X135958833Y-64215838D01*
X135615057Y-64357883D01*
X135351808Y-64620673D01*
X135209162Y-64964201D01*
X135208838Y-65336167D01*
X134543412Y-65336167D01*
X136129579Y-63750000D01*
X142889420Y-63750000D01*
X145800000Y-66660579D01*
X145800000Y-68107820D01*
X145035270Y-68107820D01*
X144799953Y-68152098D01*
X144583829Y-68291170D01*
X144438839Y-68503370D01*
X144387830Y-68755260D01*
X144387830Y-71254620D01*
X144432108Y-71489937D01*
X144571180Y-71706061D01*
X144783380Y-71851051D01*
X145035270Y-71902060D01*
X145724012Y-71902060D01*
X145638569Y-72027110D01*
X145587560Y-72279000D01*
X145587560Y-72519000D01*
X143056241Y-72519000D01*
X142897327Y-72359808D01*
X142553799Y-72217162D01*
X142181833Y-72216838D01*
X141838057Y-72358883D01*
X141574808Y-72621673D01*
X141432162Y-72965201D01*
X141431838Y-73337167D01*
X141573883Y-73680943D01*
X141836673Y-73944192D01*
X142180201Y-74086838D01*
X142552167Y-74087162D01*
X142668728Y-74039000D01*
X145587560Y-74039000D01*
X145587560Y-74279000D01*
X145631838Y-74514317D01*
X145770910Y-74730441D01*
X145800000Y-74750317D01*
X145800000Y-74909940D01*
X145035270Y-74909940D01*
X144799953Y-74954218D01*
X144583829Y-75093290D01*
X144438839Y-75305490D01*
X144387830Y-75557380D01*
X144387830Y-75922060D01*
X143178404Y-75922060D01*
X143301838Y-75624800D01*
X143302162Y-75252834D01*
X143160117Y-74909058D01*
X142897327Y-74645809D01*
X142553799Y-74503163D01*
X142181833Y-74502839D01*
X141838057Y-74644884D01*
X141770578Y-74712246D01*
X141700150Y-74726255D01*
X141651896Y-74735853D01*
X141405335Y-74900600D01*
X140829880Y-75476055D01*
X140690415Y-75267330D01*
X140375634Y-75057000D01*
X140690415Y-74846670D01*
X141015271Y-74360489D01*
X141129345Y-73787000D01*
X141015271Y-73213511D01*
X140690415Y-72727330D01*
X140375634Y-72517000D01*
X140690415Y-72306670D01*
X141015271Y-71820489D01*
X141129345Y-71247000D01*
X141015271Y-70673511D01*
X140690415Y-70187330D01*
X140671905Y-70174962D01*
X141060039Y-69787505D01*
X141350668Y-69087590D01*
X141351330Y-68329735D01*
X141061922Y-67629314D01*
X140526505Y-67092961D01*
X139826590Y-66802332D01*
X139068735Y-66801670D01*
X138368314Y-67091078D01*
X137831961Y-67626495D01*
X137541332Y-68326410D01*
X137540670Y-69084265D01*
X137830078Y-69784686D01*
X138219842Y-70175131D01*
X138201585Y-70187330D01*
X138001352Y-70487000D01*
X135055463Y-70487000D01*
X135023327Y-70454808D01*
X134679799Y-70312162D01*
X134307833Y-70311838D01*
X133964057Y-70453883D01*
X133700808Y-70716673D01*
X133558162Y-71060201D01*
X133557838Y-71432167D01*
X133699883Y-71775943D01*
X133962673Y-72039192D01*
X134306201Y-72181838D01*
X134319849Y-72181850D01*
X134319838Y-72194167D01*
X134461883Y-72537943D01*
X134724673Y-72801192D01*
X135068201Y-72943838D01*
X135440167Y-72944162D01*
X135783943Y-72802117D01*
X136047192Y-72539327D01*
X136057294Y-72515000D01*
X137099198Y-72515000D01*
X137863619Y-73279421D01*
X137762655Y-73787000D01*
X137876729Y-74360489D01*
X138201585Y-74846670D01*
X138516366Y-75057000D01*
X138201585Y-75267330D01*
X137876729Y-75753511D01*
X137762655Y-76327000D01*
X137876729Y-76900489D01*
X138201585Y-77386670D01*
X138511069Y-77593461D01*
X138095268Y-77964964D01*
X137841291Y-78492209D01*
X137838642Y-78507974D01*
X137959783Y-78740000D01*
X139319000Y-78740000D01*
X139319000Y-78720000D01*
X139573000Y-78720000D01*
X139573000Y-78740000D01*
X139593000Y-78740000D01*
X139593000Y-78994000D01*
X139573000Y-78994000D01*
X139573000Y-79014000D01*
X139319000Y-79014000D01*
X139319000Y-78994000D01*
X137959783Y-78994000D01*
X137838642Y-79226026D01*
X137841291Y-79241791D01*
X138095268Y-79769036D01*
X138511069Y-80140539D01*
X138201585Y-80347330D01*
X137876729Y-80833511D01*
X137762655Y-81407000D01*
X137876729Y-81980489D01*
X138201585Y-82466670D01*
X138516366Y-82677000D01*
X138201585Y-82887330D01*
X137876729Y-83373511D01*
X137762655Y-83947000D01*
X137876729Y-84520489D01*
X138201585Y-85006670D01*
X138516366Y-85217000D01*
X138201585Y-85427330D01*
X137876729Y-85913511D01*
X137762655Y-86487000D01*
X137876729Y-87060489D01*
X138201585Y-87546670D01*
X138516366Y-87757000D01*
X138201585Y-87967330D01*
X137876729Y-88453511D01*
X137762655Y-89027000D01*
X137876729Y-89600489D01*
X138201585Y-90086670D01*
X138516366Y-90297000D01*
X138201585Y-90507330D01*
X137876729Y-90993511D01*
X137762655Y-91567000D01*
X137876729Y-92140489D01*
X138201585Y-92626670D01*
X138516366Y-92837000D01*
X138201585Y-93047330D01*
X137876729Y-93533511D01*
X137762655Y-94107000D01*
X137876729Y-94680489D01*
X138201585Y-95166670D01*
X138516366Y-95377000D01*
X138201585Y-95587330D01*
X137876729Y-96073511D01*
X137762655Y-96647000D01*
X137876729Y-97220489D01*
X138201585Y-97706670D01*
X138516366Y-97917000D01*
X138201585Y-98127330D01*
X137876729Y-98613511D01*
X137762655Y-99187000D01*
X137876729Y-99760489D01*
X138201585Y-100246670D01*
X138516366Y-100457000D01*
X138201585Y-100667330D01*
X137876729Y-101153511D01*
X137762655Y-101727000D01*
X137876729Y-102300489D01*
X138201585Y-102786670D01*
X138516366Y-102997000D01*
X138201585Y-103207330D01*
X137876729Y-103693511D01*
X137762655Y-104267000D01*
X137876729Y-104840489D01*
X138201585Y-105326670D01*
X138516366Y-105537000D01*
X138201585Y-105747330D01*
X137876729Y-106233511D01*
X137762655Y-106807000D01*
X137876729Y-107380489D01*
X138201585Y-107866670D01*
X138220095Y-107879038D01*
X137831961Y-108266495D01*
X137541332Y-108966410D01*
X137540746Y-109636797D01*
X137528562Y-109572043D01*
X137389490Y-109355919D01*
X137177290Y-109210929D01*
X136925400Y-109159920D01*
X136175400Y-109159920D01*
X135940083Y-109204198D01*
X135756454Y-109322360D01*
X135031480Y-109322360D01*
X134915249Y-109345480D01*
X134658661Y-109345480D01*
X134577675Y-109291367D01*
X134521484Y-109280190D01*
X134445871Y-109265149D01*
X134469000Y-109209310D01*
X134469000Y-108743750D01*
X134310250Y-108585000D01*
X133461000Y-108585000D01*
X133461000Y-108605000D01*
X133207000Y-108605000D01*
X133207000Y-108585000D01*
X133187000Y-108585000D01*
X133187000Y-108331000D01*
X133207000Y-108331000D01*
X133207000Y-107356750D01*
X133461000Y-107356750D01*
X133461000Y-108331000D01*
X134310250Y-108331000D01*
X134469000Y-108172250D01*
X134469000Y-107706690D01*
X134372327Y-107473301D01*
X134193698Y-107294673D01*
X133960309Y-107198000D01*
X133619750Y-107198000D01*
X133461000Y-107356750D01*
X133207000Y-107356750D01*
X133048250Y-107198000D01*
X132707691Y-107198000D01*
X132474302Y-107294673D01*
X132333064Y-107435910D01*
X132298090Y-107381559D01*
X132085890Y-107236569D01*
X131834000Y-107185560D01*
X130834000Y-107185560D01*
X130598683Y-107229838D01*
X130382559Y-107368910D01*
X130243110Y-107573000D01*
X129973822Y-107573000D01*
X129853799Y-107523162D01*
X129481833Y-107522838D01*
X129138057Y-107664883D01*
X128874808Y-107927673D01*
X128732162Y-108271201D01*
X128731838Y-108643167D01*
X128873883Y-108986943D01*
X129136673Y-109250192D01*
X129480201Y-109392838D01*
X129852167Y-109393162D01*
X129973569Y-109343000D01*
X130029435Y-109343000D01*
X129917659Y-109506590D01*
X129866650Y-109758480D01*
X129866650Y-110123924D01*
X129813050Y-110113070D01*
X129808750Y-110113070D01*
X129805537Y-110112047D01*
X129799654Y-110113070D01*
X128944100Y-110113070D01*
X128941380Y-110109000D01*
X128850581Y-109973108D01*
X127814071Y-108936599D01*
X127567509Y-108771852D01*
X127276670Y-108714000D01*
X127269483Y-108714000D01*
X127237347Y-108681808D01*
X126893819Y-108539162D01*
X126521853Y-108538838D01*
X126178077Y-108680883D01*
X125914828Y-108943673D01*
X125772182Y-109287201D01*
X125771858Y-109659167D01*
X125913903Y-110002943D01*
X126176693Y-110266192D01*
X126337032Y-110332771D01*
X126216879Y-110508620D01*
X126165870Y-110760510D01*
X126165870Y-112759490D01*
X126210148Y-112994807D01*
X126349220Y-113210931D01*
X126561420Y-113355921D01*
X126813310Y-113406930D01*
X127639704Y-113406930D01*
X127775779Y-113610581D01*
X128113599Y-113948401D01*
X128360161Y-114113148D01*
X128651000Y-114171000D01*
X128717198Y-114171000D01*
X129006281Y-114460083D01*
X128936569Y-114562110D01*
X128931618Y-114586557D01*
X128778000Y-114556000D01*
X126171802Y-114556000D01*
X125479200Y-113863398D01*
X125488446Y-113849561D01*
X125594110Y-113318354D01*
X125594110Y-111725646D01*
X125488446Y-111194439D01*
X125187542Y-110744104D01*
X124737207Y-110443200D01*
X124206000Y-110337536D01*
X123674793Y-110443200D01*
X123224458Y-110744104D01*
X122936000Y-111175812D01*
X122647542Y-110744104D01*
X122551000Y-110679597D01*
X122551000Y-110490005D01*
X122551001Y-110490000D01*
X122483633Y-110151325D01*
X122457388Y-110112047D01*
X122430113Y-110071226D01*
X122332117Y-109834057D01*
X122069327Y-109570808D01*
X121725799Y-109428162D01*
X121353833Y-109427838D01*
X121010057Y-109569883D01*
X120746808Y-109832673D01*
X120604162Y-110176201D01*
X120603838Y-110548167D01*
X120684724Y-110743926D01*
X120684458Y-110744104D01*
X120383554Y-111194439D01*
X120382984Y-111197306D01*
X120359846Y-111119081D01*
X120017740Y-110696276D01*
X119539875Y-110436573D01*
X119467674Y-110422217D01*
X119253000Y-110544838D01*
X119253000Y-112395000D01*
X119273000Y-112395000D01*
X119273000Y-112649000D01*
X119253000Y-112649000D01*
X119253000Y-112669000D01*
X118999000Y-112669000D01*
X118999000Y-112649000D01*
X118979000Y-112649000D01*
X118979000Y-112395000D01*
X118999000Y-112395000D01*
X118999000Y-110544838D01*
X118784326Y-110422217D01*
X118712125Y-110436573D01*
X118234260Y-110696276D01*
X117991417Y-110996404D01*
X117970739Y-110946360D01*
X117707949Y-110683111D01*
X117364421Y-110540465D01*
X116992455Y-110540141D01*
X116648679Y-110682186D01*
X116385430Y-110944976D01*
X116260663Y-111245446D01*
X116136498Y-111296750D01*
X115873249Y-111559540D01*
X115730603Y-111903068D01*
X115730360Y-112182347D01*
X115600764Y-112311717D01*
X115458118Y-112655245D01*
X115457794Y-113027211D01*
X115599839Y-113370987D01*
X115632956Y-113404162D01*
X115632956Y-113564848D01*
X115585528Y-113612193D01*
X115442882Y-113955721D01*
X115442558Y-114327687D01*
X113740000Y-114327687D01*
X113740000Y-108601510D01*
X117473080Y-108601510D01*
X117473080Y-108817070D01*
X117569753Y-109050459D01*
X117748382Y-109229087D01*
X117981771Y-109325760D01*
X118222330Y-109325760D01*
X118381080Y-109167010D01*
X118381080Y-108442760D01*
X117631830Y-108442760D01*
X117473080Y-108601510D01*
X113740000Y-108601510D01*
X113740000Y-107814450D01*
X117473080Y-107814450D01*
X117473080Y-108030010D01*
X117631830Y-108188760D01*
X118381080Y-108188760D01*
X118381080Y-107464510D01*
X118635080Y-107464510D01*
X118635080Y-108188760D01*
X118655080Y-108188760D01*
X118655080Y-108442760D01*
X118635080Y-108442760D01*
X118635080Y-109167010D01*
X118793830Y-109325760D01*
X119034389Y-109325760D01*
X119267778Y-109229087D01*
X119269148Y-109227717D01*
X119356190Y-109287191D01*
X119608080Y-109338200D01*
X120408080Y-109338200D01*
X120643397Y-109293922D01*
X120788175Y-109200760D01*
X121195477Y-109200760D01*
X121352201Y-109265838D01*
X121724167Y-109266162D01*
X122067943Y-109124117D01*
X122331192Y-108861327D01*
X122473838Y-108517799D01*
X122474061Y-108262120D01*
X122510431Y-108208890D01*
X122561440Y-107957000D01*
X122561440Y-107742006D01*
X122740167Y-107742162D01*
X122848486Y-107697406D01*
X122961585Y-107866670D01*
X123447766Y-108191526D01*
X124021255Y-108305600D01*
X124390745Y-108305600D01*
X124964234Y-108191526D01*
X125450415Y-107866670D01*
X125775271Y-107380489D01*
X125889345Y-106807000D01*
X125775271Y-106233511D01*
X125450415Y-105747330D01*
X125140931Y-105540539D01*
X125556732Y-105169036D01*
X125810709Y-104641791D01*
X125813358Y-104626026D01*
X125692217Y-104394000D01*
X124333000Y-104394000D01*
X124333000Y-104414000D01*
X124079000Y-104414000D01*
X124079000Y-104394000D01*
X122719783Y-104394000D01*
X122598642Y-104626026D01*
X122601291Y-104641791D01*
X122855268Y-105169036D01*
X123271069Y-105540539D01*
X122961585Y-105747330D01*
X122848555Y-105916491D01*
X122741799Y-105872162D01*
X122448344Y-105871906D01*
X122549000Y-105771250D01*
X122549000Y-105530691D01*
X122452327Y-105297302D01*
X122273699Y-105118673D01*
X122040310Y-105022000D01*
X121824750Y-105022000D01*
X121666000Y-105180750D01*
X121666000Y-105930000D01*
X121686000Y-105930000D01*
X121686000Y-106184000D01*
X121666000Y-106184000D01*
X121666000Y-106204000D01*
X121412000Y-106204000D01*
X121412000Y-106184000D01*
X120687750Y-106184000D01*
X120529000Y-106342750D01*
X120529000Y-106583309D01*
X120625673Y-106816698D01*
X120627043Y-106818068D01*
X120567569Y-106905110D01*
X120516560Y-107157000D01*
X120516560Y-107315288D01*
X120408080Y-107293320D01*
X119608080Y-107293320D01*
X119372763Y-107337598D01*
X119269434Y-107404089D01*
X119267778Y-107402433D01*
X119034389Y-107305760D01*
X118793830Y-107305760D01*
X118635080Y-107464510D01*
X118381080Y-107464510D01*
X118222330Y-107305760D01*
X117981771Y-107305760D01*
X117748382Y-107402433D01*
X117569753Y-107581061D01*
X117473080Y-107814450D01*
X113740000Y-107814450D01*
X113740000Y-105530691D01*
X120529000Y-105530691D01*
X120529000Y-105771250D01*
X120687750Y-105930000D01*
X121412000Y-105930000D01*
X121412000Y-105180750D01*
X121253250Y-105022000D01*
X121037690Y-105022000D01*
X120804301Y-105118673D01*
X120625673Y-105297302D01*
X120529000Y-105530691D01*
X113740000Y-105530691D01*
X113740000Y-103028750D01*
X119269000Y-103028750D01*
X119269000Y-103319310D01*
X119365673Y-103552699D01*
X119544302Y-103731327D01*
X119777691Y-103828000D01*
X119870250Y-103828000D01*
X120029000Y-103669250D01*
X120029000Y-102870000D01*
X119427750Y-102870000D01*
X119269000Y-103028750D01*
X113740000Y-103028750D01*
X113740000Y-96451167D01*
X117174838Y-96451167D01*
X117316883Y-96794943D01*
X117579673Y-97058192D01*
X117923201Y-97200838D01*
X118295167Y-97201162D01*
X118624705Y-97065000D01*
X119218754Y-97065000D01*
X119305920Y-97124558D01*
X119269000Y-97213690D01*
X119269000Y-97504250D01*
X119427750Y-97663000D01*
X120029000Y-97663000D01*
X120029000Y-97643000D01*
X120279000Y-97643000D01*
X120279000Y-97663000D01*
X120301000Y-97663000D01*
X120301000Y-97917000D01*
X120279000Y-97917000D01*
X120279000Y-97937000D01*
X120029000Y-97937000D01*
X120029000Y-97917000D01*
X119427750Y-97917000D01*
X119269000Y-98075750D01*
X119269000Y-98366310D01*
X119305837Y-98455243D01*
X119211559Y-98515910D01*
X119066569Y-98728110D01*
X119015560Y-98980000D01*
X119015560Y-99570000D01*
X119059838Y-99805317D01*
X119198910Y-100021441D01*
X119411110Y-100166431D01*
X119663000Y-100217440D01*
X120113000Y-100217440D01*
X120348317Y-100173162D01*
X120563027Y-100035000D01*
X120677806Y-100035000D01*
X120687838Y-100088317D01*
X120761620Y-100202978D01*
X120737626Y-100238094D01*
X120613161Y-100262852D01*
X120366599Y-100427599D01*
X120311451Y-100482747D01*
X120113000Y-100442560D01*
X119663000Y-100442560D01*
X119427683Y-100486838D01*
X119212973Y-100625000D01*
X118505931Y-100625000D01*
X118296803Y-100538162D01*
X117924837Y-100537838D01*
X117581061Y-100679883D01*
X117317812Y-100942673D01*
X117175166Y-101286201D01*
X117174842Y-101658167D01*
X117316887Y-102001943D01*
X117579677Y-102265192D01*
X117923205Y-102407838D01*
X118295171Y-102408162D01*
X118638947Y-102266117D01*
X118760276Y-102145000D01*
X119218754Y-102145000D01*
X119269000Y-102179331D01*
X119269000Y-102457250D01*
X119427750Y-102616000D01*
X120029000Y-102616000D01*
X120029000Y-102596000D01*
X120279000Y-102596000D01*
X120279000Y-102616000D01*
X120301000Y-102616000D01*
X120301000Y-102870000D01*
X120279000Y-102870000D01*
X120279000Y-103669250D01*
X120437750Y-103828000D01*
X120530309Y-103828000D01*
X120763698Y-103731327D01*
X120904936Y-103590090D01*
X120939910Y-103644441D01*
X121152110Y-103789431D01*
X121404000Y-103840440D01*
X121904000Y-103840440D01*
X122139317Y-103796162D01*
X122355441Y-103657090D01*
X122500431Y-103444890D01*
X122551440Y-103193000D01*
X122551440Y-102293000D01*
X122549001Y-102280038D01*
X122682800Y-102369439D01*
X122961585Y-102786670D01*
X123271069Y-102993461D01*
X122855268Y-103364964D01*
X122601291Y-103892209D01*
X122598642Y-103907974D01*
X122719783Y-104140000D01*
X124079000Y-104140000D01*
X124079000Y-104120000D01*
X124333000Y-104120000D01*
X124333000Y-104140000D01*
X125692217Y-104140000D01*
X125813358Y-103907974D01*
X125810709Y-103892209D01*
X125702779Y-103668151D01*
X125714220Y-103685931D01*
X125926420Y-103830921D01*
X126178310Y-103881930D01*
X126918180Y-103881930D01*
X126918180Y-104056180D01*
X126976032Y-104347019D01*
X127140779Y-104593581D01*
X127256000Y-104708802D01*
X127256000Y-105410000D01*
X127313852Y-105700839D01*
X127478599Y-105947401D01*
X127859599Y-106328401D01*
X128106160Y-106493148D01*
X128244657Y-106520697D01*
X128306910Y-106617441D01*
X128519110Y-106762431D01*
X128771000Y-106813440D01*
X129571000Y-106813440D01*
X129806317Y-106769162D01*
X129920978Y-106695380D01*
X130019110Y-106762431D01*
X130271000Y-106813440D01*
X131071000Y-106813440D01*
X131306317Y-106769162D01*
X131522441Y-106630090D01*
X131576481Y-106551000D01*
X131931258Y-106551000D01*
X131954838Y-106676317D01*
X132093910Y-106892441D01*
X132306110Y-107037431D01*
X132558000Y-107088440D01*
X133258000Y-107088440D01*
X133493317Y-107044162D01*
X133709441Y-106905090D01*
X133854431Y-106692890D01*
X133857081Y-106679803D01*
X133993910Y-106892441D01*
X134206110Y-107037431D01*
X134458000Y-107088440D01*
X135158000Y-107088440D01*
X135393317Y-107044162D01*
X135609441Y-106905090D01*
X135754431Y-106692890D01*
X135754928Y-106690438D01*
X135840181Y-106725838D01*
X136212147Y-106726162D01*
X136555923Y-106584117D01*
X136819172Y-106321327D01*
X136961818Y-105977799D01*
X136962142Y-105605833D01*
X136820097Y-105262057D01*
X136557307Y-104998808D01*
X136213779Y-104856162D01*
X135841813Y-104855838D01*
X135752764Y-104892632D01*
X135622090Y-104689559D01*
X135409890Y-104544569D01*
X135158000Y-104493560D01*
X134458000Y-104493560D01*
X134222683Y-104537838D01*
X134006559Y-104676910D01*
X133861569Y-104889110D01*
X133858919Y-104902197D01*
X133722090Y-104689559D01*
X133509890Y-104544569D01*
X133258000Y-104493560D01*
X132558000Y-104493560D01*
X132322683Y-104537838D01*
X132106559Y-104676910D01*
X131961569Y-104889110D01*
X131932836Y-105031000D01*
X131577844Y-105031000D01*
X131535090Y-104964559D01*
X131431000Y-104893437D01*
X131431000Y-104874407D01*
X131615547Y-104839682D01*
X131831671Y-104700610D01*
X131976661Y-104488410D01*
X131985724Y-104443654D01*
X132012699Y-104438288D01*
X132259261Y-104273541D01*
X132394802Y-104138000D01*
X133985000Y-104138000D01*
X134275839Y-104080148D01*
X134522401Y-103915401D01*
X134903401Y-103534401D01*
X135060845Y-103298770D01*
X135192441Y-103214090D01*
X135239709Y-103144911D01*
X135315110Y-103196431D01*
X135567000Y-103247440D01*
X136467000Y-103247440D01*
X136702317Y-103203162D01*
X136918441Y-103064090D01*
X137063431Y-102851890D01*
X137114440Y-102600000D01*
X137114440Y-102100000D01*
X137070162Y-101864683D01*
X136931090Y-101648559D01*
X136861289Y-101600866D01*
X136918441Y-101564090D01*
X137063431Y-101351890D01*
X137114440Y-101100000D01*
X137114440Y-100600000D01*
X137070162Y-100364683D01*
X136931090Y-100148559D01*
X136718890Y-100003569D01*
X136467000Y-99952560D01*
X135567000Y-99952560D01*
X135331683Y-99996838D01*
X135241376Y-100054949D01*
X135205090Y-99998559D01*
X134992890Y-99853569D01*
X134741000Y-99802560D01*
X133991000Y-99802560D01*
X133911576Y-99817505D01*
X133907075Y-99814497D01*
X133961000Y-99684310D01*
X133961000Y-99218750D01*
X133802250Y-99060000D01*
X132953000Y-99060000D01*
X132953000Y-99080000D01*
X132699000Y-99080000D01*
X132699000Y-99060000D01*
X132679000Y-99060000D01*
X132679000Y-98806000D01*
X132699000Y-98806000D01*
X132699000Y-97831750D01*
X132953000Y-97831750D01*
X132953000Y-98806000D01*
X133802250Y-98806000D01*
X133961000Y-98647250D01*
X133961000Y-98181690D01*
X133864327Y-97948301D01*
X133685698Y-97769673D01*
X133452309Y-97673000D01*
X133111750Y-97673000D01*
X132953000Y-97831750D01*
X132699000Y-97831750D01*
X132540250Y-97673000D01*
X132199691Y-97673000D01*
X131966302Y-97769673D01*
X131825064Y-97910910D01*
X131790090Y-97856559D01*
X131577890Y-97711569D01*
X131326000Y-97660560D01*
X130326000Y-97660560D01*
X130090683Y-97704838D01*
X129874559Y-97843910D01*
X129735110Y-98048000D01*
X129719822Y-98048000D01*
X129599799Y-97998162D01*
X129227833Y-97997838D01*
X128884057Y-98139883D01*
X128620808Y-98402673D01*
X128478162Y-98746201D01*
X128477838Y-99118167D01*
X128619883Y-99461943D01*
X128882673Y-99725192D01*
X129226201Y-99867838D01*
X129360303Y-99867955D01*
X129282659Y-99981590D01*
X129231650Y-100233480D01*
X129231650Y-100598924D01*
X129178050Y-100588070D01*
X129173750Y-100588070D01*
X129170537Y-100587047D01*
X129164654Y-100588070D01*
X128792023Y-100588070D01*
X128792023Y-99981567D01*
X128734171Y-99690728D01*
X128569424Y-99444166D01*
X128201856Y-99076598D01*
X127979072Y-98927739D01*
X127920117Y-98785057D01*
X127657327Y-98521808D01*
X127313799Y-98379162D01*
X126941833Y-98378838D01*
X126897464Y-98397171D01*
X126768327Y-98267808D01*
X126424799Y-98125162D01*
X126052833Y-98124838D01*
X125709057Y-98266883D01*
X125609840Y-98365927D01*
X125450415Y-98127330D01*
X125135634Y-97917000D01*
X125450415Y-97706670D01*
X125775271Y-97220489D01*
X125889345Y-96647000D01*
X125775271Y-96073511D01*
X125764854Y-96057920D01*
X126042167Y-96058162D01*
X126385943Y-95916117D01*
X126649192Y-95653327D01*
X126791838Y-95309799D01*
X126792162Y-94937833D01*
X126650117Y-94594057D01*
X126540182Y-94483930D01*
X126875000Y-94483930D01*
X126875000Y-95631000D01*
X126932852Y-95921839D01*
X127097599Y-96168401D01*
X127605599Y-96676401D01*
X127852161Y-96841148D01*
X128143000Y-96899000D01*
X128264156Y-96899000D01*
X128306910Y-96965441D01*
X128519110Y-97110431D01*
X128771000Y-97161440D01*
X129571000Y-97161440D01*
X129806317Y-97117162D01*
X129920978Y-97043380D01*
X130019110Y-97110431D01*
X130271000Y-97161440D01*
X131071000Y-97161440D01*
X131306317Y-97117162D01*
X131439676Y-97031348D01*
X131535160Y-97095148D01*
X131826000Y-97153000D01*
X132164643Y-97153000D01*
X132220910Y-97240441D01*
X132433110Y-97385431D01*
X132685000Y-97436440D01*
X133385000Y-97436440D01*
X133620317Y-97392162D01*
X133836441Y-97253090D01*
X133981431Y-97040890D01*
X133984081Y-97027803D01*
X134120910Y-97240441D01*
X134333110Y-97385431D01*
X134585000Y-97436440D01*
X135285000Y-97436440D01*
X135520317Y-97392162D01*
X135736441Y-97253090D01*
X135745447Y-97239910D01*
X135957201Y-97327838D01*
X136329167Y-97328162D01*
X136672943Y-97186117D01*
X136936192Y-96923327D01*
X137078838Y-96579799D01*
X137079162Y-96207833D01*
X136937117Y-95864057D01*
X136674327Y-95600808D01*
X136330799Y-95458162D01*
X135958833Y-95457838D01*
X135928903Y-95470205D01*
X135888162Y-95253683D01*
X135749090Y-95037559D01*
X135536890Y-94892569D01*
X135285000Y-94841560D01*
X134585000Y-94841560D01*
X134349683Y-94885838D01*
X134133559Y-95024910D01*
X133988569Y-95237110D01*
X133985919Y-95250197D01*
X133849090Y-95037559D01*
X133636890Y-94892569D01*
X133385000Y-94841560D01*
X132685000Y-94841560D01*
X132449683Y-94885838D01*
X132233559Y-95024910D01*
X132088569Y-95237110D01*
X132037560Y-95489000D01*
X132037560Y-95553597D01*
X131862839Y-95436852D01*
X131679673Y-95400418D01*
X131831671Y-95302610D01*
X131976661Y-95090410D01*
X131985724Y-95045654D01*
X132012699Y-95040288D01*
X132259261Y-94875541D01*
X132394802Y-94740000D01*
X134112000Y-94740000D01*
X134402839Y-94682148D01*
X134649401Y-94517401D01*
X135030401Y-94136401D01*
X135187845Y-93900770D01*
X135319441Y-93816090D01*
X135409998Y-93683556D01*
X135456402Y-93674325D01*
X135694000Y-93722440D01*
X136594000Y-93722440D01*
X136829317Y-93678162D01*
X137045441Y-93539090D01*
X137190431Y-93326890D01*
X137241440Y-93075000D01*
X137241440Y-92575000D01*
X137197162Y-92339683D01*
X137058090Y-92123559D01*
X136988289Y-92075866D01*
X137045441Y-92039090D01*
X137190431Y-91826890D01*
X137241440Y-91575000D01*
X137241440Y-91075000D01*
X137197162Y-90839683D01*
X137058090Y-90623559D01*
X136845890Y-90478569D01*
X136594000Y-90427560D01*
X135694000Y-90427560D01*
X135627887Y-90440000D01*
X135243000Y-90440000D01*
X135130000Y-90462477D01*
X135119890Y-90455569D01*
X134868000Y-90404560D01*
X134118000Y-90404560D01*
X133882683Y-90448838D01*
X133810241Y-90495453D01*
X133760999Y-90462550D01*
X133834000Y-90286310D01*
X133834000Y-89820750D01*
X133675250Y-89662000D01*
X132826000Y-89662000D01*
X132826000Y-89682000D01*
X132572000Y-89682000D01*
X132572000Y-89662000D01*
X132552000Y-89662000D01*
X132552000Y-89408000D01*
X132572000Y-89408000D01*
X132572000Y-89388000D01*
X132826000Y-89388000D01*
X132826000Y-89408000D01*
X133675250Y-89408000D01*
X133834000Y-89249250D01*
X133834000Y-88783690D01*
X133744347Y-88567248D01*
X133825110Y-88622431D01*
X134077000Y-88673440D01*
X134777000Y-88673440D01*
X135012317Y-88629162D01*
X135228441Y-88490090D01*
X135372640Y-88279047D01*
X135449201Y-88310838D01*
X135821167Y-88311162D01*
X136164943Y-88169117D01*
X136428192Y-87906327D01*
X136570838Y-87562799D01*
X136571162Y-87190833D01*
X136429117Y-86847057D01*
X136166327Y-86583808D01*
X135822799Y-86441162D01*
X135450833Y-86440838D01*
X135369668Y-86474375D01*
X135241090Y-86274559D01*
X135028890Y-86129569D01*
X134777000Y-86078560D01*
X134077000Y-86078560D01*
X133841683Y-86122838D01*
X133625559Y-86261910D01*
X133480569Y-86474110D01*
X133477919Y-86487197D01*
X133341090Y-86274559D01*
X133128890Y-86129569D01*
X132877000Y-86078560D01*
X132455328Y-86078560D01*
X132594541Y-85985541D01*
X132730082Y-85850000D01*
X134493000Y-85850000D01*
X134783839Y-85792148D01*
X135030401Y-85627401D01*
X135284401Y-85373401D01*
X135449148Y-85126840D01*
X135476697Y-84988343D01*
X135573441Y-84926090D01*
X135620709Y-84856911D01*
X135696110Y-84908431D01*
X135948000Y-84959440D01*
X136848000Y-84959440D01*
X137083317Y-84915162D01*
X137299441Y-84776090D01*
X137444431Y-84563890D01*
X137495440Y-84312000D01*
X137495440Y-83812000D01*
X137451162Y-83576683D01*
X137312090Y-83360559D01*
X137242289Y-83312866D01*
X137299441Y-83276090D01*
X137444431Y-83063890D01*
X137495440Y-82812000D01*
X137495440Y-82312000D01*
X137451162Y-82076683D01*
X137312090Y-81860559D01*
X137283000Y-81840683D01*
X137283000Y-81586822D01*
X137332838Y-81466799D01*
X137333162Y-81094833D01*
X137191117Y-80751057D01*
X136928327Y-80487808D01*
X136584799Y-80345162D01*
X136212833Y-80344838D01*
X135869057Y-80486883D01*
X135605808Y-80749673D01*
X135463162Y-81093201D01*
X135462838Y-81465167D01*
X135513000Y-81586569D01*
X135513000Y-81660619D01*
X135373890Y-81565569D01*
X135122000Y-81514560D01*
X134372000Y-81514560D01*
X134136683Y-81558838D01*
X134065626Y-81604562D01*
X134013484Y-81594190D01*
X133731000Y-81537999D01*
X133730995Y-81538000D01*
X133575025Y-81538000D01*
X133737327Y-81375699D01*
X133834000Y-81142310D01*
X133834000Y-80676750D01*
X133675250Y-80518000D01*
X132826000Y-80518000D01*
X132826000Y-80538000D01*
X132572000Y-80538000D01*
X132572000Y-80518000D01*
X132552000Y-80518000D01*
X132552000Y-80264000D01*
X132572000Y-80264000D01*
X132572000Y-79289750D01*
X132826000Y-79289750D01*
X132826000Y-80264000D01*
X133675250Y-80264000D01*
X133834000Y-80105250D01*
X133834000Y-79639690D01*
X133737327Y-79406301D01*
X133558698Y-79227673D01*
X133325309Y-79131000D01*
X132984750Y-79131000D01*
X132826000Y-79289750D01*
X132572000Y-79289750D01*
X132413250Y-79131000D01*
X132072691Y-79131000D01*
X131839302Y-79227673D01*
X131698064Y-79368910D01*
X131663090Y-79314559D01*
X131450890Y-79169569D01*
X131199000Y-79118560D01*
X130199000Y-79118560D01*
X129963683Y-79162838D01*
X129747559Y-79301910D01*
X129608110Y-79506000D01*
X129592822Y-79506000D01*
X129472799Y-79456162D01*
X129100833Y-79455838D01*
X128757057Y-79597883D01*
X128493808Y-79860673D01*
X128351162Y-80204201D01*
X128350838Y-80576167D01*
X128492883Y-80919943D01*
X128755673Y-81183192D01*
X129099201Y-81325838D01*
X129471167Y-81326162D01*
X129592569Y-81276000D01*
X129611721Y-81276000D01*
X129688473Y-81395276D01*
X129554649Y-81481390D01*
X129409659Y-81693590D01*
X129358650Y-81945480D01*
X129358650Y-82310924D01*
X129305050Y-82300070D01*
X129300750Y-82300070D01*
X129297537Y-82299047D01*
X129291654Y-82300070D01*
X126305310Y-82300070D01*
X126069993Y-82344348D01*
X125853869Y-82483420D01*
X125708879Y-82695620D01*
X125657870Y-82947510D01*
X125657870Y-83187000D01*
X125650648Y-83187000D01*
X125450415Y-82887330D01*
X125140931Y-82680539D01*
X125556732Y-82309036D01*
X125810709Y-81781791D01*
X125813358Y-81766026D01*
X125692217Y-81534000D01*
X124333000Y-81534000D01*
X124333000Y-81554000D01*
X124079000Y-81554000D01*
X124079000Y-81534000D01*
X122719783Y-81534000D01*
X122598642Y-81766026D01*
X122601291Y-81781791D01*
X122855268Y-82309036D01*
X123271069Y-82680539D01*
X122961585Y-82887330D01*
X122754048Y-83197931D01*
X122518161Y-83244852D01*
X122425195Y-83306969D01*
X122292890Y-83216569D01*
X122041000Y-83165560D01*
X121291000Y-83165560D01*
X121055683Y-83209838D01*
X120954418Y-83275000D01*
X120430246Y-83275000D01*
X120237890Y-83143569D01*
X119986000Y-83092560D01*
X119536000Y-83092560D01*
X119300683Y-83136838D01*
X119084559Y-83275910D01*
X118939569Y-83488110D01*
X118888560Y-83740000D01*
X118888560Y-84330000D01*
X118932838Y-84565317D01*
X119071910Y-84781441D01*
X119284110Y-84926431D01*
X119536000Y-84977440D01*
X119986000Y-84977440D01*
X120221317Y-84933162D01*
X120436027Y-84795000D01*
X120677806Y-84795000D01*
X120687838Y-84848317D01*
X120755200Y-84953000D01*
X120662000Y-84953000D01*
X120371160Y-85010852D01*
X120124599Y-85175599D01*
X120078838Y-85221360D01*
X119986000Y-85202560D01*
X119536000Y-85202560D01*
X119300683Y-85246838D01*
X119085973Y-85385000D01*
X118505931Y-85385000D01*
X118296803Y-85298162D01*
X117924837Y-85297838D01*
X117581061Y-85439883D01*
X117317812Y-85702673D01*
X117175166Y-86046201D01*
X117174842Y-86418167D01*
X117316887Y-86761943D01*
X117579677Y-87025192D01*
X117923205Y-87167838D01*
X118295171Y-87168162D01*
X118638947Y-87026117D01*
X118760276Y-86905000D01*
X119091754Y-86905000D01*
X119142000Y-86939331D01*
X119142000Y-87217250D01*
X119300750Y-87376000D01*
X119902000Y-87376000D01*
X119902000Y-87356000D01*
X120152000Y-87356000D01*
X120152000Y-87376000D01*
X120174000Y-87376000D01*
X120174000Y-87630000D01*
X120152000Y-87630000D01*
X120152000Y-87650000D01*
X119902000Y-87650000D01*
X119902000Y-87630000D01*
X119300750Y-87630000D01*
X119142000Y-87788750D01*
X119142000Y-88079310D01*
X119178837Y-88168243D01*
X119084559Y-88228910D01*
X118939569Y-88441110D01*
X118888560Y-88693000D01*
X118888560Y-89283000D01*
X118932838Y-89518317D01*
X119071910Y-89734441D01*
X119284110Y-89879431D01*
X119536000Y-89930440D01*
X119986000Y-89930440D01*
X120214331Y-89887476D01*
X120408000Y-89926000D01*
X120434454Y-89926000D01*
X120244160Y-89963852D01*
X119997599Y-90128599D01*
X119970638Y-90155560D01*
X119536000Y-90155560D01*
X119300683Y-90199838D01*
X119085973Y-90338000D01*
X118632925Y-90338000D01*
X118423797Y-90251162D01*
X118051831Y-90250838D01*
X117708055Y-90392883D01*
X117444806Y-90655673D01*
X117302160Y-90999201D01*
X117301836Y-91371167D01*
X117443881Y-91714943D01*
X117706671Y-91978192D01*
X118050199Y-92120838D01*
X118422165Y-92121162D01*
X118765941Y-91979117D01*
X118887270Y-91858000D01*
X119091754Y-91858000D01*
X119284110Y-91989431D01*
X119325299Y-91997772D01*
X119269000Y-92133690D01*
X119269000Y-92424250D01*
X119427750Y-92583000D01*
X120029000Y-92583000D01*
X120029000Y-92563000D01*
X120279000Y-92563000D01*
X120279000Y-92583000D01*
X120301000Y-92583000D01*
X120301000Y-92837000D01*
X120279000Y-92837000D01*
X120279000Y-92857000D01*
X120029000Y-92857000D01*
X120029000Y-92837000D01*
X119427750Y-92837000D01*
X119269000Y-92995750D01*
X119269000Y-93286310D01*
X119305837Y-93375243D01*
X119211559Y-93435910D01*
X119066569Y-93648110D01*
X119015560Y-93900000D01*
X119015560Y-94490000D01*
X119059838Y-94725317D01*
X119198910Y-94941441D01*
X119411110Y-95086431D01*
X119663000Y-95137440D01*
X120113000Y-95137440D01*
X120341331Y-95094476D01*
X120535000Y-95133000D01*
X120561454Y-95133000D01*
X120371160Y-95170852D01*
X120124599Y-95335599D01*
X120097638Y-95362560D01*
X119663000Y-95362560D01*
X119427683Y-95406838D01*
X119212973Y-95545000D01*
X118711395Y-95545000D01*
X118640327Y-95473808D01*
X118296799Y-95331162D01*
X117924833Y-95330838D01*
X117581057Y-95472883D01*
X117317808Y-95735673D01*
X117175162Y-96079201D01*
X117174838Y-96451167D01*
X113740000Y-96451167D01*
X113740000Y-76327000D01*
X122522655Y-76327000D01*
X122636729Y-76900489D01*
X122961585Y-77386670D01*
X123276366Y-77597000D01*
X122961585Y-77807330D01*
X122636729Y-78293511D01*
X122522655Y-78867000D01*
X122636729Y-79440489D01*
X122961585Y-79926670D01*
X123271069Y-80133461D01*
X122855268Y-80504964D01*
X122601291Y-81032209D01*
X122598642Y-81047974D01*
X122719783Y-81280000D01*
X124079000Y-81280000D01*
X124079000Y-81260000D01*
X124333000Y-81260000D01*
X124333000Y-81280000D01*
X125692217Y-81280000D01*
X125813358Y-81047974D01*
X125810709Y-81032209D01*
X125556732Y-80504964D01*
X125140931Y-80133461D01*
X125450415Y-79926670D01*
X125775271Y-79440489D01*
X125889345Y-78867000D01*
X125813666Y-78486536D01*
X127213202Y-77087000D01*
X132991928Y-77087000D01*
X133023329Y-77118401D01*
X133269890Y-77283148D01*
X133388290Y-77306699D01*
X133454667Y-77373192D01*
X133798195Y-77515838D01*
X134170161Y-77516162D01*
X134513937Y-77374117D01*
X134777186Y-77111327D01*
X134919832Y-76767799D01*
X134920156Y-76395833D01*
X134779594Y-76055647D01*
X134813107Y-75974939D01*
X134813431Y-75602973D01*
X134671386Y-75259197D01*
X134408596Y-74995948D01*
X134065068Y-74853302D01*
X133693102Y-74852978D01*
X133349326Y-74995023D01*
X133316151Y-75028140D01*
X126776860Y-75028140D01*
X126486021Y-75085992D01*
X126239459Y-75250739D01*
X125923198Y-75567000D01*
X125650648Y-75567000D01*
X125450415Y-75267330D01*
X125140931Y-75060539D01*
X125556732Y-74689036D01*
X125810709Y-74161791D01*
X125813358Y-74146026D01*
X125692217Y-73914000D01*
X124333000Y-73914000D01*
X124333000Y-73934000D01*
X124079000Y-73934000D01*
X124079000Y-73914000D01*
X122719783Y-73914000D01*
X122598642Y-74146026D01*
X122601291Y-74161791D01*
X122855268Y-74689036D01*
X123271069Y-75060539D01*
X122961585Y-75267330D01*
X122636729Y-75753511D01*
X122522655Y-76327000D01*
X113740000Y-76327000D01*
X113740000Y-65440221D01*
X113882564Y-65653583D01*
X114980737Y-66387359D01*
X116276120Y-66645027D01*
X117571503Y-66387359D01*
X118669676Y-65653583D01*
X119403452Y-64555410D01*
X119661120Y-63260027D01*
X119661120Y-61088213D01*
X119403452Y-59792830D01*
X118790846Y-58876000D01*
X155642546Y-58876000D01*
X155529175Y-58951752D01*
G36*
X141062863Y-82227748D02*
X141075964Y-82240849D01*
X141004759Y-82345060D01*
X140953750Y-82596950D01*
X140953750Y-82969688D01*
X140828880Y-83094558D01*
X140690415Y-82887330D01*
X140375634Y-82677000D01*
X140690415Y-82466670D01*
X140981426Y-82031142D01*
X141062863Y-82227748D01*
X141062863Y-82227748D01*
G37*
X141062863Y-82227748D02*
X141075964Y-82240849D01*
X141004759Y-82345060D01*
X140953750Y-82596950D01*
X140953750Y-82969688D01*
X140828880Y-83094558D01*
X140690415Y-82887330D01*
X140375634Y-82677000D01*
X140690415Y-82466670D01*
X140981426Y-82031142D01*
X141062863Y-82227748D01*
G36*
X148244910Y-98564441D02*
X148457110Y-98709431D01*
X148709000Y-98760440D01*
X149209000Y-98760440D01*
X149444317Y-98716162D01*
X149638003Y-98591528D01*
X149599000Y-98685690D01*
X149599000Y-98901250D01*
X149757750Y-99060000D01*
X150507000Y-99060000D01*
X150507000Y-99040000D01*
X150761000Y-99040000D01*
X150761000Y-99060000D01*
X150781000Y-99060000D01*
X150781000Y-99314000D01*
X150761000Y-99314000D01*
X150761000Y-99334000D01*
X150507000Y-99334000D01*
X150507000Y-99314000D01*
X149757750Y-99314000D01*
X149599000Y-99472750D01*
X149599000Y-99688310D01*
X149622984Y-99746214D01*
X149351691Y-100017507D01*
X149206890Y-99918569D01*
X148955000Y-99867560D01*
X148455000Y-99867560D01*
X148219683Y-99911838D01*
X148003559Y-100050910D01*
X147955866Y-100120711D01*
X147919090Y-100063559D01*
X147706890Y-99918569D01*
X147645090Y-99906054D01*
X147903927Y-99799105D01*
X148167176Y-99536315D01*
X148309822Y-99192787D01*
X148310146Y-98820821D01*
X148219000Y-98600230D01*
X148219000Y-98524176D01*
X148244910Y-98564441D01*
X148244910Y-98564441D01*
G37*
X148244910Y-98564441D02*
X148457110Y-98709431D01*
X148709000Y-98760440D01*
X149209000Y-98760440D01*
X149444317Y-98716162D01*
X149638003Y-98591528D01*
X149599000Y-98685690D01*
X149599000Y-98901250D01*
X149757750Y-99060000D01*
X150507000Y-99060000D01*
X150507000Y-99040000D01*
X150761000Y-99040000D01*
X150761000Y-99060000D01*
X150781000Y-99060000D01*
X150781000Y-99314000D01*
X150761000Y-99314000D01*
X150761000Y-99334000D01*
X150507000Y-99334000D01*
X150507000Y-99314000D01*
X149757750Y-99314000D01*
X149599000Y-99472750D01*
X149599000Y-99688310D01*
X149622984Y-99746214D01*
X149351691Y-100017507D01*
X149206890Y-99918569D01*
X148955000Y-99867560D01*
X148455000Y-99867560D01*
X148219683Y-99911838D01*
X148003559Y-100050910D01*
X147955866Y-100120711D01*
X147919090Y-100063559D01*
X147706890Y-99918569D01*
X147645090Y-99906054D01*
X147903927Y-99799105D01*
X148167176Y-99536315D01*
X148309822Y-99192787D01*
X148310146Y-98820821D01*
X148219000Y-98600230D01*
X148219000Y-98524176D01*
X148244910Y-98564441D01*
G36*
X148838110Y-90835431D02*
X149090000Y-90886440D01*
X149590000Y-90886440D01*
X149622519Y-90880321D01*
X149660182Y-90917984D01*
X149599000Y-91065690D01*
X149599000Y-91281250D01*
X149757750Y-91440000D01*
X150507000Y-91440000D01*
X150507000Y-91438000D01*
X150761000Y-91438000D01*
X150761000Y-91440000D01*
X150781000Y-91440000D01*
X150781000Y-91694000D01*
X150761000Y-91694000D01*
X150761000Y-91714000D01*
X150507000Y-91714000D01*
X150507000Y-91694000D01*
X149759427Y-91694000D01*
X149714890Y-91663569D01*
X149463000Y-91612560D01*
X148963000Y-91612560D01*
X148727683Y-91656838D01*
X148511559Y-91795910D01*
X148463866Y-91865711D01*
X148427090Y-91808559D01*
X148214890Y-91663569D01*
X148060971Y-91632400D01*
X148356943Y-91510107D01*
X148620192Y-91247317D01*
X148762838Y-90903789D01*
X148762942Y-90784071D01*
X148838110Y-90835431D01*
X148838110Y-90835431D01*
G37*
X148838110Y-90835431D02*
X149090000Y-90886440D01*
X149590000Y-90886440D01*
X149622519Y-90880321D01*
X149660182Y-90917984D01*
X149599000Y-91065690D01*
X149599000Y-91281250D01*
X149757750Y-91440000D01*
X150507000Y-91440000D01*
X150507000Y-91438000D01*
X150761000Y-91438000D01*
X150761000Y-91440000D01*
X150781000Y-91440000D01*
X150781000Y-91694000D01*
X150761000Y-91694000D01*
X150761000Y-91714000D01*
X150507000Y-91714000D01*
X150507000Y-91694000D01*
X149759427Y-91694000D01*
X149714890Y-91663569D01*
X149463000Y-91612560D01*
X148963000Y-91612560D01*
X148727683Y-91656838D01*
X148511559Y-91795910D01*
X148463866Y-91865711D01*
X148427090Y-91808559D01*
X148214890Y-91663569D01*
X148060971Y-91632400D01*
X148356943Y-91510107D01*
X148620192Y-91247317D01*
X148762838Y-90903789D01*
X148762942Y-90784071D01*
X148838110Y-90835431D01*
G36*
X126051201Y-99994838D02*
X126423167Y-99995162D01*
X126467536Y-99976829D01*
X126596673Y-100106192D01*
X126940201Y-100248838D01*
X127035549Y-100248921D01*
X127136160Y-100316147D01*
X127250081Y-100338807D01*
X127140779Y-100448109D01*
X127047260Y-100588070D01*
X126178310Y-100588070D01*
X125942993Y-100632348D01*
X125726869Y-100771420D01*
X125622262Y-100924517D01*
X125450415Y-100667330D01*
X125135634Y-100457000D01*
X125450415Y-100246670D01*
X125650648Y-99947000D01*
X125935995Y-99947000D01*
X126051201Y-99994838D01*
X126051201Y-99994838D01*
G37*
X126051201Y-99994838D02*
X126423167Y-99995162D01*
X126467536Y-99976829D01*
X126596673Y-100106192D01*
X126940201Y-100248838D01*
X127035549Y-100248921D01*
X127136160Y-100316147D01*
X127250081Y-100338807D01*
X127140779Y-100448109D01*
X127047260Y-100588070D01*
X126178310Y-100588070D01*
X125942993Y-100632348D01*
X125726869Y-100771420D01*
X125622262Y-100924517D01*
X125450415Y-100667330D01*
X125135634Y-100457000D01*
X125450415Y-100246670D01*
X125650648Y-99947000D01*
X125935995Y-99947000D01*
X126051201Y-99994838D01*
G36*
X126564268Y-91190070D02*
X126178310Y-91190070D01*
X125942993Y-91234348D01*
X125836772Y-91302699D01*
X125775271Y-90993511D01*
X125450415Y-90507330D01*
X125135634Y-90297000D01*
X125450415Y-90086670D01*
X125454602Y-90080404D01*
X126564268Y-91190070D01*
X126564268Y-91190070D01*
G37*
X126564268Y-91190070D02*
X126178310Y-91190070D01*
X125942993Y-91234348D01*
X125836772Y-91302699D01*
X125775271Y-90993511D01*
X125450415Y-90507330D01*
X125135634Y-90297000D01*
X125450415Y-90086670D01*
X125454602Y-90080404D01*
X126564268Y-91190070D01*
G36*
X125657870Y-84946490D02*
X125702148Y-85181807D01*
X125841220Y-85397931D01*
X126053420Y-85542921D01*
X126305310Y-85593930D01*
X127086306Y-85593930D01*
X127103032Y-85678019D01*
X127267779Y-85924581D01*
X127510000Y-86166802D01*
X127510000Y-86868000D01*
X127567852Y-87158839D01*
X127732599Y-87405401D01*
X128113599Y-87786401D01*
X128349230Y-87943845D01*
X128433910Y-88075441D01*
X128646110Y-88220431D01*
X128898000Y-88271440D01*
X129698000Y-88271440D01*
X129933317Y-88227162D01*
X130047978Y-88153380D01*
X130146110Y-88220431D01*
X130354149Y-88262560D01*
X130199000Y-88262560D01*
X129963683Y-88306838D01*
X129747559Y-88445910D01*
X129632800Y-88613865D01*
X129599799Y-88600162D01*
X129227833Y-88599838D01*
X128884057Y-88741883D01*
X128620808Y-89004673D01*
X128478162Y-89348201D01*
X128477838Y-89720167D01*
X128619883Y-90063943D01*
X128882673Y-90327192D01*
X129226201Y-90469838D01*
X129360303Y-90469955D01*
X129282659Y-90583590D01*
X129231650Y-90835480D01*
X129231650Y-91200924D01*
X129178050Y-91190070D01*
X129173750Y-91190070D01*
X129170537Y-91189047D01*
X129164654Y-91190070D01*
X128430400Y-91190070D01*
X128380328Y-90938341D01*
X128215581Y-90691779D01*
X126013401Y-88489599D01*
X125766839Y-88324852D01*
X125677419Y-88307065D01*
X125450415Y-87967330D01*
X125135634Y-87757000D01*
X125450415Y-87546670D01*
X125775271Y-87060489D01*
X125889345Y-86487000D01*
X125775271Y-85913511D01*
X125450415Y-85427330D01*
X125135634Y-85217000D01*
X125450415Y-85006670D01*
X125650648Y-84707000D01*
X125657870Y-84707000D01*
X125657870Y-84946490D01*
X125657870Y-84946490D01*
G37*
X125657870Y-84946490D02*
X125702148Y-85181807D01*
X125841220Y-85397931D01*
X126053420Y-85542921D01*
X126305310Y-85593930D01*
X127086306Y-85593930D01*
X127103032Y-85678019D01*
X127267779Y-85924581D01*
X127510000Y-86166802D01*
X127510000Y-86868000D01*
X127567852Y-87158839D01*
X127732599Y-87405401D01*
X128113599Y-87786401D01*
X128349230Y-87943845D01*
X128433910Y-88075441D01*
X128646110Y-88220431D01*
X128898000Y-88271440D01*
X129698000Y-88271440D01*
X129933317Y-88227162D01*
X130047978Y-88153380D01*
X130146110Y-88220431D01*
X130354149Y-88262560D01*
X130199000Y-88262560D01*
X129963683Y-88306838D01*
X129747559Y-88445910D01*
X129632800Y-88613865D01*
X129599799Y-88600162D01*
X129227833Y-88599838D01*
X128884057Y-88741883D01*
X128620808Y-89004673D01*
X128478162Y-89348201D01*
X128477838Y-89720167D01*
X128619883Y-90063943D01*
X128882673Y-90327192D01*
X129226201Y-90469838D01*
X129360303Y-90469955D01*
X129282659Y-90583590D01*
X129231650Y-90835480D01*
X129231650Y-91200924D01*
X129178050Y-91190070D01*
X129173750Y-91190070D01*
X129170537Y-91189047D01*
X129164654Y-91190070D01*
X128430400Y-91190070D01*
X128380328Y-90938341D01*
X128215581Y-90691779D01*
X126013401Y-88489599D01*
X125766839Y-88324852D01*
X125677419Y-88307065D01*
X125450415Y-87967330D01*
X125135634Y-87757000D01*
X125450415Y-87546670D01*
X125775271Y-87060489D01*
X125889345Y-86487000D01*
X125775271Y-85913511D01*
X125450415Y-85427330D01*
X125135634Y-85217000D01*
X125450415Y-85006670D01*
X125650648Y-84707000D01*
X125657870Y-84707000D01*
X125657870Y-84946490D01*
M02*
