M48
;DRILL file {KiCad 4.0.0-rc2-stable} date 9/29/2016 10:51:33 PM
;FORMAT={-:-/ absolute / inch / decimal}
FMAT,2
INCH,TZ
T1C0.016
T2C0.039
T3C0.040
T4C0.070
T5C0.201
%
G90
G05
M72
T1
X4.48Y-3.205
X4.5467Y-4.489
X4.5818Y-4.4938
X4.5824Y-4.4426
X4.5931Y-4.413
X4.6098Y-4.5166
X4.6133Y-4.3888
X4.65Y-3.79
X4.65Y-3.395
X4.65Y-3.995
X4.655Y-3.59
X4.685Y-3.445
X4.685Y-4.045
X4.685Y-4.145
X4.69Y-3.205
X4.69Y-3.65
X4.69Y-3.85
X4.69Y-4.33
X4.7182Y-4.6076
X4.7404Y-4.501
X4.75Y-4.175
X4.785Y-4.105
X4.785Y-4.135
X4.785Y-4.265
X4.785Y-4.345
X4.7908Y-4.6802
X4.81Y-2.855
X4.815Y-2.945
X4.82Y-3.055
X4.82Y-3.205
X4.825Y-4.205
X4.825Y-4.325
X4.8522Y-4.7416
X4.86Y-4.665
X4.875Y-2.71
X4.8961Y-4.6627
X4.935Y-4.65
X4.94Y-3.965
X4.944Y-4.045
X4.9493Y-3.7832
X4.95Y-2.95
X4.95Y-3.205
X4.95Y-4.105
X4.9515Y-4.155
X4.9524Y-3.3566
X4.9524Y-3.3566
X4.9524Y-3.455
X4.955Y-3.575
X4.955Y-3.575
X4.955Y-3.745
X4.955Y-3.86
X4.9582Y-3.0832
X4.9653Y-2.9694
X4.969Y-4.4077
X4.97Y-3.9
X4.9885Y-4.31
X4.9906Y-3.7185
X4.995Y-3.0464
X4.995Y-3.095
X5.005Y-3.395
X5.005Y-3.91
X5.005Y-4.63
X5.0121Y-3.95
X5.025Y-4.4706
X5.0256Y-4.7436
X5.04Y-2.9503
X5.0416Y-3.8977
X5.045Y-3.0335
X5.05Y-3.215
X5.05Y-3.55
X5.0595Y-2.602
X5.09Y-3.165
X5.095Y-3.525
X5.095Y-3.895
X5.1Y-2.9503
X5.1Y-3.0335
X5.105Y-4.27
X5.11Y-4.63
X5.155Y-3.835
X5.165Y-2.9503
X5.165Y-3.0335
X5.165Y-3.475
X5.1664Y-4.7436
X5.1741Y-2.5986
X5.185Y-4.215
X5.21Y-4.105
X5.22Y-3.7285
X5.235Y-3.38
X5.2369Y-3.034
X5.245Y-2.9503
X5.265Y-2.505
X5.2665Y-2.8282
X5.2665Y-2.885
X5.2708Y-2.9838
X5.275Y-3.015
X5.2802Y-3.05
X5.285Y-3.095
X5.285Y-3.165
X5.285Y-4.63
X5.29Y-3.525
X5.29Y-3.895
X5.29Y-4.265
X5.295Y-2.805
X5.3042Y-4.7436
X5.3065Y-2.7622
X5.3086Y-3.0262
X5.325Y-2.835
X5.34Y-2.435
X5.34Y-3.44
X5.3554Y-4.165
X5.36Y-2.565
X5.36Y-3.795
X5.37Y-3.2
X5.38Y-4.5
X5.39Y-2.595
X5.4Y-4.46
X5.41Y-2.87
X5.41Y-2.9673
X5.41Y-3.29
X5.41Y-3.4195
X5.415Y-2.7765
X5.415Y-3.165
X5.415Y-3.51
X5.415Y-3.66
X5.415Y-3.75
X5.415Y-4.6233
X5.42Y-3.105
X5.43Y-3.96
X5.43Y-4.055
X5.43Y-4.16
X5.43Y-4.25
X5.4335Y-3.855
X5.435Y-2.62
X5.435Y-4.405
X5.4428Y-4.7436
X5.505Y-2.435
X5.525Y-4.6233
X5.53Y-4.4
X5.5432Y-2.6082
X5.545Y-3.86
X5.545Y-3.96
X5.55Y-3.24
X5.55Y-3.35
X5.55Y-3.455
X5.55Y-3.755
X5.55Y-4.055
X5.55Y-4.15
X5.55Y-4.25
X5.555Y-3.045
X5.5556Y-4.7436
X5.56Y-2.945
X5.57Y-2.765
X5.58Y-4.42
X5.58Y-4.5422
X5.59Y-3.585
X5.595Y-3.015
X5.595Y-3.175
X5.595Y-3.31
X5.595Y-3.445
X5.595Y-3.725
X5.6029Y-2.5977
X5.605Y-2.88
X5.605Y-2.97
X5.605Y-4.6233
X5.625Y-2.57
X5.65Y-2.435
X5.6693Y-3.1357
X5.6748Y-4.7436
X5.68Y-4.53
X5.6927Y-3.58
X5.705Y-4.6233
X5.7104Y-3.445
X5.72Y-3.31
X5.7229Y-4.5041
X5.7317Y-4.55
X5.735Y-4.47
X5.77Y-3.64
X5.772Y-3.85
X5.775Y-3.505
X5.775Y-3.745
X5.7784Y-4.6084
X5.78Y-3.26
X5.78Y-4.06
X5.78Y-4.485
X5.7834Y-4.7436
X5.79Y-2.565
X5.8022Y-3.8979
X5.805Y-4.025
X5.81Y-2.665
X5.815Y-3.705
X5.82Y-3.39
X5.82Y-3.5715
X5.82Y-4.625
X5.8379Y-4.6509
X5.8574Y-4.6756
X5.88Y-3.59
X5.8872Y-4.6859
X5.889Y-4.7416
X5.89Y-3.77
X5.8985Y-4.4615
X5.9004Y-3.705
X5.905Y-3.905
X5.905Y-4.535
X5.91Y-2.73
X5.9224Y-3.4945
X5.93Y-2.885
X5.9305Y-3.755
X5.945Y-3.055
X5.9558Y-3.5262
X5.97Y-3.29
X5.9765Y-4.6716
X5.985Y-3.085
X5.985Y-4.095
X5.9865Y-3.32
X5.9865Y-3.494
X5.99Y-3.025
X6.Y-2.685
X6.015Y-4.37
X6.02Y-4.065
X6.02Y-4.155
X6.02Y-4.255
X6.03Y-2.955
X6.03Y-3.955
X6.035Y-4.54
X6.04Y-3.07
X6.0588Y-4.5878
X6.09Y-2.615
X6.1322Y-4.5598
X6.14Y-4.06
X6.145Y-4.15
X6.15Y-3.35
X6.15Y-3.455
X6.15Y-3.555
X6.15Y-3.66
X6.15Y-3.75
X6.15Y-4.255
X6.1517Y-3.2483
X6.155Y-2.755
X6.155Y-2.905
X6.155Y-3.05
X6.155Y-3.05
X6.155Y-3.155
X6.155Y-3.155
X6.155Y-3.855
X6.155Y-3.95
X6.1565Y-4.46
X6.16Y-4.365
X6.185Y-2.705
X6.19Y-4.005
X6.19Y-4.495
X6.2121Y-3.9773
X6.23Y-4.53
X6.2335Y-4.355
X6.235Y-4.06
X6.235Y-4.18
X6.235Y-4.29
X6.245Y-4.395
T2
X4.69Y-4.43
X4.79Y-4.43
X4.89Y-4.43
T3
X4.89Y-2.805
X4.89Y-2.905
X4.89Y-3.005
X4.89Y-3.105
X4.89Y-3.205
X4.89Y-3.305
X4.89Y-3.405
X4.89Y-3.505
X4.89Y-3.605
X4.89Y-3.705
X4.89Y-3.805
X4.89Y-3.905
X4.89Y-4.005
X4.89Y-4.105
X4.89Y-4.205
X5.49Y-2.805
X5.49Y-2.905
X5.49Y-3.005
X5.49Y-3.105
X5.49Y-3.205
X5.49Y-3.305
X5.49Y-3.405
X5.49Y-3.505
X5.49Y-3.605
X5.49Y-3.705
X5.49Y-3.805
X5.49Y-3.905
X5.49Y-4.005
X5.49Y-4.105
X5.49Y-4.205
X6.09Y-2.805
X6.09Y-2.905
X6.09Y-3.005
X6.09Y-3.105
X6.09Y-3.205
X6.09Y-3.305
X6.09Y-3.405
X6.09Y-3.505
X6.09Y-3.605
X6.09Y-3.705
X6.09Y-3.805
X6.09Y-3.905
X6.09Y-4.005
X6.09Y-4.105
X6.09Y-4.205
T4
X5.49Y-2.705
X5.49Y-4.305
X6.09Y-2.705
X6.09Y-4.305
T5
X4.5726Y-4.689
T5
X4.5778Y-2.4104G85X4.5778Y-2.4852
G05
X6.1424Y-4.6914G85X6.2172Y-4.6914
G05
X6.2136Y-2.419G85X6.1608Y-2.4718
G05
T0
M30
